<svg width="1216" height="1168pt" viewBox="0 0 912 1168" xmlns="http://www.w3.org/2000/svg"><g fill="#fff"><path d="M195.13 226.06c7.19-2.85 15.13 4.73 12.73 12.04-1.43 6.79-10.8 9.75-15.85 4.97-5.78-4.53-3.91-14.82 3.12-17.01zM711.38 272.58c.14-12.93-.14-25.86.01-38.79 6.19.04 12.38-.08 18.58.01 3.71.15 7.87.72 10.51 3.64 3.81 4.28 2.74 11.76-2.03 14.93 5.06 2.29 7.65 8.42 5.63 13.63-1.63 4.66-7 6.29-11.47 6.45-7.08.16-14.16.13-21.23.13m5.77-33.92c-.05 3.99-.03 7.98-.04 11.97 4.6-.13 9.2.08 13.79-.21 3.34-.16 6.55-2.91 6.28-6.44-.14-3.34-3.7-5.11-6.65-5.24-4.46-.23-8.92-.06-13.38-.08m-.01 16.66c.04 4.11.04 8.23.04 12.35 5.92-.34 11.98.57 17.82-.65 4.18-.73 5.16-6.53 2.58-9.38-1.77-1.59-4.21-2.21-6.54-2.22-4.64-.09-9.27.03-13.9-.1zM145.84 237.86c8 .44 16.43-1.42 24.1 1.42 7.44 2.85 9.8 12.78 5.67 19.22-1.56 2.4-4.07 3.89-6.47 5.33 3.1 4.26 6.15 8.56 9.24 12.84-2.17.03-4.33.04-6.49.04-2.99-3.88-5.1-8.44-8.43-12.03-3.85-.19-7.7-.01-11.55-.06.23 4.05.17 8.1.19 12.15-2.08.03-4.16.03-6.23.01.11-12.97-.03-25.95-.03-38.92m6 4.93c.04 5.66-.05 11.33.11 16.99 4.99-.18 10.23.77 15.03-.91 5.92-2.28 6.39-11.74.8-14.66-4.93-2.44-10.66-1.16-15.94-1.42zM711.79 282.75c4.21-1.65 8.81-1.18 13.23-1.29 4.66.09 9.34-.24 13.98.23 8.02.91 14.66 8.19 14.85 16.26.15 8.41.04 16.82.02 25.23-1.7-.05-3.38-.12-5.06-.2-.14-8.01-.11-16.02-.11-24.02.2-4.13-2.09-8.11-5.59-10.21-4.46-3.04-10.11-1.71-15.14-1.98-5.61.31-11.91-1.05-16.86 2.29-3.38 2.09-5.22 6.03-5.18 9.94-.06 8.07.02 16.15-.05 24.23-1.77-.01-3.54-.01-5.3-.01.1-8.05-.14-16.09-.05-24.14-.07-7.1 4.74-13.73 11.26-16.33zM152.05 287.27c6.86-.26 13.75-.57 20.62-.26 8.75.33 16.77 8.16 16.63 17.05.13 8.17-.02 16.34.02 24.51l-5.15.06c-.11-8.2.03-16.4-.15-24.59.03-4.35-2.65-8.45-6.52-10.35-4.79-2.45-10.36-1.14-15.51-1.44-4.92.29-10.39-.88-14.77 1.96-3.45 2.02-5.85 5.81-5.79 9.87-.13 8.24-.03 16.49-.07 24.73-1.72-.01-3.44-.01-5.15-.01-.07-8.27-.11-16.55-.02-24.82-.02-8.53 7.4-16.17 15.86-16.71zM700.65 346.59c1.79-.07 3.58-.12 5.38-.17.3 8.47.08 16.95.29 25.43-.02 6.12 5.51 11.74 11.71 11.43 6.34-.08 12.68-.08 19.02-.15 6.02.15 11.75-4.95 11.84-11.06.52-8.59-.14-17.2-.12-25.8 1.79-.03 3.59-.06 5.4-.07.15 8.25.17 16.52.15 24.78-.05 5.97-3.22 11.87-8.44 14.89-5.32 3.37-11.88 2.38-17.85 2.58-5.91-.23-12.26 1-17.72-1.87-6.16-2.99-9.66-9.89-9.59-16.58-.03-7.81.01-15.61-.07-23.41zM136.23 351.73c1.77-.03 3.54-.06 5.31-.08.08 8.45-.12 16.9.09 25.35-.08 6.05 5.26 11.43 11.27 11.59 5.69.25 11.39 0 17.08.09 3.72.09 7.8-.48 10.61-3.14 2.69-2.41 3.73-6.14 3.74-9.64 0-8.13-.11-16.26 0-24.39 1.72.01 3.44.02 5.17.04-.01 8.78.22 17.58-.07 26.36-.26 6.01-4.28 11.46-9.56 14.13-3.64 1.87-7.85 1.65-11.82 1.75-5.38-.01-10.76.2-16.12-.12-8.44-.46-15.51-8.27-15.62-16.64-.14-8.43-.08-16.87-.08-25.3zM623.35 444.63c35.2-.25 70.39-.76 105.58-.94 15.05-.27 28.33 13.38 28.38 28.28 1 117.01 2.45 234.01 3.25 351.02.19 30.7.6 61.4.95 92.1.14 6.42.46 13.13-2.28 19.13-4.22 10.45-14.99 17.7-26.26 17.79-35.65.6-71.32.47-106.98 1.18-33.68.36-67.38.39-101.06.96-35.34.34-70.68.5-106 1.04-79.63.5-159.25 1.62-238.87 2.18-15.28.33-28.85-13.23-29.29-28.36-.26-27.66-.33-55.32-.78-82.98-.49-32-.22-64.01-.69-96.01-.99-49.35-.69-98.72-1.52-148.07-.22-41.66-.6-83.32-1.02-124.98-.42-14.74 12.69-27.74 27.26-28.06 149.77-1.59 299.56-2.7 449.33-4.28m1.61 38.67c-.93 3.41-.27 7.06-.43 10.57-4.06-2.68-8.63-4.76-13.54-5.01-8.94-.86-18.05 3.66-22.86 11.23-4.55 7.08-5.1 16.57-1.36 24.13 3.44 7.49 11.01 12.79 19.16 13.74 6.45.92 13.14-1.1 18.21-5.14.84 1.54 1.71 3.07 2.6 4.6 3.15-.02 6.31-.04 9.47-.08-.12-19.61-.81-39.22-.61-58.83-3.71 1.18-7.52 2.39-10.64 4.79m22.09-5.17c-3.02.75-5.33 4.52-3.52 7.37 2.51 4.51 10.14 3.56 11.68-1.29.64-4.33-4.25-7.6-8.16-6.08m-216.35 6.98c-.3 3.61-.21 7.23-.27 10.85-5.2-3.21-11.19-5.56-17.41-4.93-8.38.43-16.06 5.8-19.99 13.11-3.26 6.35-3.79 14.13-1.1 20.78 3.28 9 12.54 15.3 22.07 15.43 5.84.25 11.48-1.94 16.26-5.17.62 1.45 1.29 2.9 2 4.32 3.2.03 6.4.01 9.61.03-.28-19.55-.19-39.11-.62-58.65-3.62 1.14-7.11 2.65-10.55 4.23m80.53 1.55c.2 11.76-.06 23.53.37 35.29.26 5.02 1.26 10.8 5.62 13.97 3.33 2.57 7.66 2.94 11.73 2.91.19-3.06.13-6.12-.05-9.16-3.03-.44-5.87-2.54-6.26-5.72-.51-6.03-.3-12.09-.42-18.12 2.07-.06 4.15-.13 6.24-.15.05-3.42.04-6.84.05-10.25-2.21.02-4.41.05-6.61.1-.08-4.08-.09-8.16-.15-12.24-3.54 1.03-7.02 2.23-10.52 3.37m167.22 2.05c-9.77 2.72-16.99 12.15-17.25 22.25-.8 9.06 4.26 18.25 12.16 22.69 9.58 5.44 22.71 4.21 30.71-3.57 7.76-7.15 9.81-19.62 4.95-28.95-5.45-10.85-19.13-16.21-30.57-12.42m-205.91 4.87c-6.99 4.01-8.98 15.17-2.65 20.61 5.67 4.82 13.57 4.44 20.32 6.64 2.23.69 4.66 2.57 4.1 5.22-.68 2.83-3.73 4.09-6.33 4.45-6.48.78-12.93-1.52-18.25-5.09-1.52 2.53-3.3 4.89-4.67 7.5l1.51 1.75c7.48 4.72 16.83 5.89 25.44 4.4 5.59-.96 11.3-4.32 13.11-9.98 1.4-4.74 1-10.67-3.03-14.04-4.97-4.1-11.74-4.21-17.72-5.68-2.51-.67-5.64-1.44-6.61-4.18-.66-3.22 2.65-5.14 5.34-5.61 5.6-.96 11.39.6 16.35 3.21 1.39-2.67 2.72-5.38 4.13-8.04-9.18-5.44-21.64-6.76-31.04-1.16m94.67-3.18c-.06 8.52.26 17.04.23 25.57-.02 4.39-2.03 9.28-6.2 11.23-4.04 1.47-9.05.93-12.11-2.3-2.94-2.8-3.05-7.1-3.24-10.86-.15-7.84-.1-15.68-.14-23.52-3.7.03-7.38.07-11.07.09.08 8.5.15 17.01.22 25.52.02 4.87 1.27 9.82 4.19 13.78 6.83 9.5 21.63 11.47 30.94 4.56 5.23-3.76 8.38-10.07 8.5-16.48.19-9.25-.14-18.51-.25-27.75-3.69.1-7.38.12-11.07.16m-215.38 2.4c-6.84 2.05-12.56 7.41-15.13 14.07-3.26 7.85-1.97 17.29 2.9 24.2 9.39 13.02 31.35 13.11 41.25.6-2.82-1.8-5.76-3.41-8.65-5.1-4.45 3.78-10.72 5.43-16.37 3.71-4.4-1.4-7.68-5.16-9.11-9.47 12.61-.49 25.24-.36 37.86-.58.18-5.58-.39-11.39-3.17-16.34-5.51-10.26-18.71-14.74-29.58-11.09m-119.89 6.3c-10.39 8.57-10.78 25.88-1.58 35.44 10.29 10.96 30.22 10.24 39.56-1.63-2.83-1.66-5.69-3.27-8.58-4.8-3.55 2.62-7.84 4.43-12.33 4.2-6.02.04-12.23-4.26-13.09-10.45 12.56-.09 25.12-.32 37.68-.43.35-6.18-.76-12.73-4.27-17.94-8.04-11.99-26.76-13.95-37.39-4.39m56.6-1.52c-11.43 8.14-12.4 26.67-2.48 36.38 10.37 10.82 30.12 9.94 39.44-1.84-2.85-1.64-5.72-3.24-8.53-4.93-2.5 1.64-5.01 3.46-8 4.06-7.28 1.79-16.13-2.22-17.84-9.94 12.69-.12 25.38-.24 38.06-.67.11-7.02-.96-14.58-5.83-20-8.46-9.96-24.65-10.94-34.82-3.06m355.16-3.14c.12 14.22 0 28.46.45 42.68 3.71 0 7.43.01 11.14-.24-.1-14.43-.35-28.86-.61-43.29-3.67.01-7.44-.28-10.98.85m-460.87 4.34c-5.65 4.72-5.9 14.73.16 19.21 6.12 4.75 14.36 4.01 21.27 6.77 3.76 1.24 3.03 6.97-.43 8.07-7.37 2.6-15.58.05-21.77-4.26-1.67 2.58-3.34 5.15-4.94 7.78 6.95 5.59 16.29 7.07 24.97 6.28 4.94-.41 9.98-2.33 13.3-6.13 4.38-5.28 4.41-14.4-1.39-18.68-4.95-3.58-11.35-3.68-17.08-5.09-2.7-.58-6.07-1.64-6.81-4.67-.27-3.2 3.17-4.86 5.83-5.27 5.58-.81 11.33.66 16.18 3.43 1.45-2.64 2.84-5.31 4.08-8.06-9.99-5.74-24.11-7.27-33.37.62m415.16 65.21c-6.36 5.47-6.8 16.08-1.26 22.28 5.65 6.69 17.26 6.68 22.81-.16a889.51 889.51 0 0 0-3.41-3.12c-3.11 3.12-8.03 4.62-12.12 2.54-6.79-3.18-8.19-13.95-2.05-18.46 4.25-3.31 10.48-2.31 14.23 1.3 1.02-1.13 2.04-2.27 3.07-3.4-5.35-6.06-15.31-6.13-21.27-.98m26.8 1.78c-3.06 5.77-3.46 13.1-.8 19.11 2.87 6.86 13.1 8.47 18.24 3.29 4.27-3.91 3.5-11.98-1.48-14.95-4.38-2.62-9.97-1.48-13.79 1.61.54-2.96.89-6.37 3.5-8.31 3.22-2.69 7.76-2.29 11.37-.65.63-1.41 1.25-2.82 1.89-4.21-6.25-3.04-15.05-2.19-18.93 4.11m-327.48-4.22c.14 10.77.13 21.54.26 32.32 1.66-.01 3.32-.02 4.99-.02.02-10.74-.23-21.48-.3-32.23-1.66-.03-3.31-.05-4.95-.07m179.75 3.74c-2.66 3.45-1.96 9.33 1.95 11.58 3.82 2.4 8.82 1.94 12.49 4.59 1.95 1.32 1.37 4.46-.69 5.35-4.67 2.38-10.07.37-14.13-2.34-.68 1.56-1.21 3.18-1.37 4.89 5.21 2.76 11.58 4.24 17.25 1.98 3.57-1.45 5.94-5.48 5-9.3-.64-3.77-4.22-6.08-7.71-6.83-2.84-.96-6.46-.91-8.42-3.49-1.59-1.83-.21-4.61 1.89-5.22 3.8-1.48 7.79.03 11.36 1.43.57-1.14 1.16-2.27 1.75-3.4-2.67-2.77-6.78-3.31-10.44-3.16-3.29.15-6.9 1.13-8.93 3.92m52.55-3.88c.04 1.45.1 2.91.18 4.38 4.43 0 8.86-.01 13.29.13-2.4 3.86-7.96 6.94-6.53 12.16 2.57.12 5.67-.41 7.67 1.63 1.8 1.59 1.89 5-.32 6.28-4.13 2.42-9.39.88-13.12-1.62-.78 1.28-1.56 2.57-2.31 3.87 4.32 3.92 10.83 4.56 16.22 2.78 4.66-1.7 7.34-7.34 5.2-11.94-1.12-3.2-4.38-4.64-7.39-5.48 2.6-3.95 7.51-7.11 6.98-12.38-6.62-.05-13.25-.04-19.87.19m22.53 4.53c1.26.99 2.54 1.98 3.83 2.96 2.45-2.73 6.25-4.57 9.89-3.08 3.28 1.26 2.92 5.75 1.02 8.06-3.64 4.62-8.35 8.25-12.3 12.57-1.39 1.26-.86 3.25-1.06 4.9 7.05.08 14.11-.16 21.16-.1.04-1.54.08-3.08.13-4.62-4.62-.04-9.25 0-13.86.13 3.35-3.9 7.52-7.06 10.57-11.21 2.72-3.81 2.9-9.94-1.18-12.88-5.67-3.72-14.22-2.33-18.2 3.27m-193.37-3.13c-.03 10.18-.02 20.35.18 30.53l5.14-.06c.01-10.17-.27-20.35-.43-30.52-1.63.01-3.26.04-4.89.05m51.69-.13c-9.84 2.24-14.21 14.82-9.04 23.15 4.12 7.66 15.19 9.65 22.01 4.5 8.19-5.61 8.23-19.24.35-25.13-3.68-3-8.8-3.69-13.32-2.52m39.74-.52c-.06 10.05.12 20.09.07 30.13 7.15.02 14.3-.05 21.45-.16 0-1.48-.01-2.95 0-4.42-5.46-.16-10.91-.02-16.36-.01-.03-2.82-.04-5.62-.07-8.43 4.67-.1 9.34-.13 14.01-.18l.06-4.35c-4.72-.01-9.42-.01-14.13-.02.02-2.69.04-5.38.05-8.07 5.23-.04 10.46-.08 15.69-.2l-.15-4.59c-6.87.21-13.74.27-20.62.3m52.58-.64c.02 10.06.38 20.12.26 30.18 1.71.03 3.41.04 5.13.07-.05-2.98-.04-5.95-.03-8.92 4.79-.21 10.16.68 14.35-2.21 6.27-4.19 5.26-15.39-1.92-18.08-5.7-2.05-11.88-.79-17.79-1.04m-242.09.66c-.02 3.82-.07 7.65.15 11.48-3.21-2.79-8.02-3.51-11.81-1.53-7.06 3.73-7.93 14.82-2.18 20.06 4.16 3.84 11.13 3.34 14.88-.85-.23.74-.69 2.23-.92 2.98 1.7.02 3.4.03 5.1.03-.06-10.75-.23-21.5-.38-32.25-1.62.02-3.23.05-4.84.08m66.83.98c3.44 4.97 6.94 9.91 10.37 14.9-3.8 5.03-7.27 10.32-10.63 15.65 2.02-.02 4.05-.06 6.07-.11 2.5-3.94 4.86-7.97 7.59-11.76 2.92 3.68 5.31 7.74 7.98 11.61 2.05-.01 4.1-.05 6.16-.09-3.83-5.06-7.12-10.5-11.02-15.51 3.1-5.1 6.75-9.83 9.87-14.92-1.87.21-3.96-.47-5.69.39-2.75 3.31-4.66 7.22-7.21 10.68-2.88-3.25-4.84-7.2-7.34-10.72-2.05-.07-4.1-.11-6.15-.12m39.96 30.05c1.84-.07 3.7-.14 5.55-.26.74-2.25 1.52-4.49 2.31-6.72 4.88-.17 9.77-.16 14.66-.13.92 2.29 1.84 4.58 2.76 6.88 1.83-.06 3.66-.1 5.5-.16-4.48-10-8.76-20.09-13.13-30.14-1.71.01-3.42.03-5.13.06-4.13 10.18-8.38 20.3-12.52 30.47m-187.32-28.37c.08 10.14.03 20.27.17 30.41 1.64-.02 3.27-.04 4.91-.04-.11-6.7.04-13.41-.39-20.1 3.35 5.42 6.53 10.95 9.77 16.44.59.09 1.77.26 2.37.35 3.22-5.64 6-11.55 9.44-17.08.14 6.72.11 13.44.26 20.17 1.64-.05 3.28-.07 4.92-.1-.16-10.11-.29-20.22-.3-30.33-1.4-.04-2.8-.08-4.2-.11-3.96 6.68-7.29 13.7-11.18 20.41-3.88-6.71-7.63-13.5-11.67-20.13-1.37.04-2.74.07-4.1.11m45.31 6.76c-7.87 1.5-11.21 11.54-7.09 18.01 3 5.56 10.82 6.84 16.08 3.9 6.39-3.85 7.22-13.87 2.06-19.05-2.84-2.85-7.21-3.73-11.05-2.86m50.08.94c-6.24 4.02-6.76 14.15-1.13 18.93 4.75 4.26 12.51 3.78 17.12-.48-.84-1.17-1.7-2.33-2.56-3.47-2.57 1.72-5.81 3.59-8.95 2.15-2.52-.72-3.78-3.13-4.94-5.25 5.91-.28 11.83-.21 17.75-.27-.2-3.1-.38-6.41-2.27-9.02-3.14-4.87-10.36-5.59-15.02-2.59m32.9-1.18c-2.05 2.02-.43 6.32 2.51 6.14 2.69.17 4.21-3.24 2.88-5.37-.81-2.11-3.99-2.4-5.39-.77m269.74 5.49c-.04 1.48-.05 2.96-.06 4.45 3.72.12 7.45.1 11.17.07 0-1.53 0-3.06.01-4.58-3.71.01-7.42.03-11.12.06m-144.74 1.42c-.05 1.49-.09 3-.11 4.51 3.77.02 7.54 0 11.32-.05v-4.49c-3.74.02-7.47 0-11.21.03m-124.13 9.12c-3.65 1.86-.54 8.67 3.29 6.37 3.85-1.88.61-8.94-3.29-6.37m390 30.14c-.92 5.02-.8 10.62 2.03 15.05 3.55 5.79 12.5 6.68 17.45 2.21 4.88-4.19 3.5-13.53-2.69-15.73-4.2-1.84-9.06-.62-12.47 2.26.59-2.91 1.03-6.16 3.42-8.22 3.09-2.86 7.8-2.37 11.42-.85.62-1.44 1.23-2.88 1.86-4.31-3-1.12-6.2-1.98-9.43-1.5-5.79.52-10.66 5.42-11.59 11.09m-54.89-5.55c1.29 1.04 2.58 2.1 3.89 3.13 2.47-2.98 7.31-4.78 10.68-2.29 2.66 2.55.94 6.7-1.29 8.93-4 4.04-7.96 8.12-12.06 12.07.03 1.26.06 2.54.1 3.83 6.93-.01 13.87-.14 20.8-.1-.02-1.58-.02-3.16-.01-4.73-4.49.1-8.98.15-13.47.08 3.46-3.81 7.65-6.97 10.67-11.17 3.01-4.08 2.27-10.75-2.31-13.36-5.61-3.17-12.96-1.21-17 3.61m30.54-1.95c-6.67 5.4-7.43 16.41-1.7 22.75 5.66 6.76 17.14 6.68 22.95.13-1.01-1.21-2.03-2.41-3.05-3.59-3.44 3.67-9.39 4.97-13.75 2.17-6.15-3.72-6.53-13.64-.84-17.94 4.31-3.48 10.68-2.36 14.45 1.39.97-1.14 1.91-2.28 2.9-3.4-5.14-6.02-14.96-6.44-20.96-1.51m-157.46-1.31c-10.19 2.06-14.6 15.46-9.02 23.76 4.65 7.38 15.93 9.26 22.68 3.71 5.94-4.58 7.22-13.56 3.89-20.06-3.13-6.3-10.9-9.16-17.55-7.41m24.68-.34c.11 10.1.12 20.2.27 30.31 7.04-.06 14.09.01 21.13-.17.06-1.47.12-2.93.17-4.38-5.45-.14-10.9-.04-16.34.02-.06-2.89-.06-5.78-.09-8.66 4.67-.04 9.34-.04 14.02-.13-.01-1.51-.03-3.02-.04-4.52-4.67.02-9.34-.01-14-.02-.01-2.68 0-5.35.09-8.02 5.1-.01 10.21-.05 15.32-.07.01-1.48.03-2.96.05-4.42-6.86-.02-13.72.09-20.58.06m29.3 1.09c-4.78 2.68-5.19 10.58-.48 13.53 3.24 1.91 7.09 2.31 10.58 3.59 1.5.56 3.17 1.63 3.21 3.44.14 2.58-2.57 3.88-4.75 4.16-4.01.6-7.81-1.19-11.17-3.16a19.41 19.41 0 0 0-1.56 4.04c4.57 4.1 11.72 4.57 17.31 2.56 5.25-1.88 7.08-9.48 3.05-13.4-3.81-3.73-9.92-2.74-14.04-5.88-1.83-1.84-.26-4.85 1.84-5.64 3.81-1.29 7.92-.1 11.35 1.73.58-1.31 1.17-2.61 1.77-3.9-4.88-3.48-11.85-3.97-17.11-1.07m23.26-1.63c.21 10.12-.22 20.26.45 30.37 1.54-.02 3.08-.03 4.63-.02.07-2.98.06-5.95.03-8.91 5.13-.27 11.1.59 15.31-3.07 5.57-4.65 3.96-14.98-2.94-17.5-5.62-1.87-11.67-.62-17.48-.87m26.83-.29c-.04 1.57-.07 3.15-.08 4.73 4.61-.06 9.22-.16 13.83 0-3.04 3.53-7.53 6.73-7.1 11.97 2.82.23 6.48-.53 8.41 2.15 1.75 2.08.67 5.47-1.76 6.48-4.07 1.5-8.9.45-12.09-2.47-.77 1.31-1.53 2.63-2.28 3.96 4.37 4.39 11.89 5.09 17.34 2.45 4.92-2.35 6-9.21 2.84-13.39-1.42-2.04-3.91-2.73-6.1-3.55 2.62-3.91 6.99-7.23 6.7-12.41-6.58-.04-13.14.08-19.71.08m-187.14 1.98c3.3 4.91 6.6 9.81 10.05 14.6-3.39 5.26-7.18 10.26-10.45 15.6 1.93-.01 3.86.01 5.8-.01 2.51-3.96 5.17-7.81 7.84-11.65 2.15 3.24 4.34 6.45 6.54 9.66 1.32 2.95 5.02 1.41 7.5 1.94-3.89-5.09-7.32-10.5-11.16-15.62 3.4-4.91 6.77-9.84 10.02-14.84-1.86.01-3.73.04-5.58.07-2.43 3.62-4.78 7.3-7.12 10.98-2.67-3.54-5.25-7.16-7.76-10.81-1.9.03-3.79.05-5.68.08m39.24 29.9l5.57.18c.87-2.46 1.83-4.9 2.89-7.28 4.83 0 9.66-.05 14.49-.09.98 2.35 1.93 4.72 3 7.05 1.76-.04 3.52-.08 5.28-.1-4.2-10.24-8.85-20.29-13.46-30.35-1.61.01-3.21.01-4.8.01-4.72 10.02-8.49 20.46-12.97 30.58m-132.31-28.97c.02 1.56.05 3.13.09 4.7 5.5-.11 11.01.04 16.52-.3-5.15 6.92-10.55 13.65-15.63 20.61-1.23 1.47-.89 3.51-1.17 5.28 8.04.1 16.07-.16 24.11-.14v-4.84c-5.77.14-11.53.05-17.29.19 5.06-6.9 10.42-13.58 15.51-20.46 1.23-1.4 1.17-3.3 1.47-5.01-7.86-.45-15.74-.06-23.61-.03m25.97 19.53c-.02 1.21-.03 2.43-.03 3.65 5.33.04 10.66-.04 15.99-.05-.04 2.24-.08 4.49-.1 6.74 1.56.01 3.13.02 4.7.05.14-2.33.2-4.65.21-6.96 1.69-.01 3.38-.02 5.07-.01l-.12-4.67c-1.73-.02-3.46-.05-5.18-.08.01-2.09-.01-4.16 0-6.23-1.55-.03-3.1-.07-4.64-.11 0 2.18 0 4.37.01 6.56-3.31-.02-6.62-.02-9.93.04 4.52-6.3 9.02-12.6 13.3-19.06-1.7-.05-3.41-.1-5.11-.16-4.93 6.62-9.51 13.48-14.17 20.29m26.26-20.13c-.03 1.55-.06 3.11-.08 4.68 3.21.01 6.42.02 9.64.05-.09 8.51.13 17.02.12 25.53 1.67-.01 3.35-.01 5.03-.01 0-8.55-.11-17.09-.15-25.64 3.15-.04 6.31-.05 9.47-.06.01-1.58.02-3.15.04-4.72-8.02.08-16.05.14-24.07.17m71.22-.61c.39 10.11.3 20.22.37 30.34 1.7-.01 3.4-.01 5.11 0-.06-10.11-.25-20.21-.23-30.32-1.75-.03-3.5-.03-5.25-.02m-221.54 2.95c-6.48 2.11-10.42 9.11-9.75 15.76.2 7.96 7.62 14.64 15.52 14.36 4.48.16 8.56-2.09 11.55-5.29-1.13-1.12-2.25-2.24-3.36-3.35-2.87 2.94-7.13 4.81-11.22 3.43-7.44-2.16-9.53-13.06-4.14-18.28 4.04-4.14 11.24-3.56 15.11.55 1.1-1.13 2.14-2.32 3.26-3.42-4.4-4.32-11.15-6.05-16.97-3.76m33.13-.88c.05 10.06.26 20.12.28 30.18 1.69-.01 3.39-.02 5.1-.01-.16-10.07-.08-20.14-.34-30.21-1.68.01-3.36.02-5.04.04m-96.01 1.1c.05 10.05.2 20.09.22 30.14 1.71.01 3.41.01 5.12.02-.03-3.91-.09-7.8-.12-11.7 4.69-.1 9.38-.14 14.07-.19-.04-1.52-.09-3.03-.14-4.53-4.68 0-9.35.05-14.02.05-.04-3.13-.08-6.26-.09-9.39 5.14-.03 10.28-.02 15.43-.1-.02-1.53-.03-3.06-.05-4.58-6.8.07-13.61.18-20.42.28m30.57 1.57c-8.55 5.05-9.05 18.48-1.75 24.83 6.03 5.58 16.31 4.88 21.83-1.08-1.04-1.23-2.07-2.46-3.09-3.68-3.14 3.15-7.87 4.79-12.17 3.18-7.76-2.78-8.77-15.16-1.81-19.41 4.22-2.81 10.1-1.74 13.51 1.87 1.1-1.21 2.21-2.42 3.32-3.61-5.32-4.85-13.68-6.18-19.84-2.1m77.87-2.73c-.02 10.02.43 20.04.3 30.06 7.28-.55 15.73 1.67 21.94-3.27 7.94-5.93 7.21-19.97-1.51-24.82-6.33-3.53-13.85-1.57-20.73-1.97m32.33 6.75c-3.35 2.25-.3 8.18 3.43 6.36 4.03-2.01.62-9.04-3.43-6.36m99.23 7.76c-.02 1.52-.03 3.05-.03 4.59 3.8.03 7.6-.03 11.4-.08-.05-1.52-.1-3.04-.13-4.55-3.75-.01-7.5.03-11.24.04m-98.92 8.82c-3.53 2.04-.44 8.71 3.37 6.34 3.76-2.05.61-8.79-3.37-6.34m-45.15 35.6c-15.3 7.17-26.82 21.5-31.26 37.72-3.67 12.94-2.89 27.16 2.48 39.51 6.89 16.71 21.83 29.89 39.4 34.32 12.89 3.21 26.94 1.95 38.94-3.84 14.46-6.58 25.62-19.53 30.98-34.39-2.97-.73-5.98-1.29-8.97-1.88-6.88 18.02-24.52 31.78-43.98 32.64-12.73.72-25.58-3.78-34.99-12.39-11.48-10.24-18.15-26.01-16.68-41.39 14.6-4.2 29.43-7.54 44.07-11.57.12 5.52.05 11.05.2 16.58 20.54-4.85 40.82-10.78 61.21-16.19-4.79-20.83-21.88-38.38-42.7-43.38-12.88-3.04-26.84-1.67-38.7 4.26m97.98 38.29c-2.25 1.35-1.84 4.23-1.85 6.47.28 9.69.18 19.39.34 29.08-.11 2.27 1.76 4.64 4.17 4.48 11.02 0 22.05-.17 33.07-.22 2.4.3 4.66-1.94 4.34-4.35.04-10.68-.08-21.36-.23-32.03.21-2.75-2.5-4.93-5.13-4.48-11.06.21-22.13-.02-33.17.41-.39.16-1.15.48-1.54.64m211.12 3.2c-4.97 1.38-7.77 6.44-8.33 11.28-.87 5.96-.15 13.1 4.83 17.18 3.48 3.16 9.12 3.35 12.96.7 3.87-2.55 5.61-7.33 5.82-11.8.23-5.11-.48-10.81-4.23-14.64-2.75-2.99-7.23-3.93-11.05-2.72m26.67.45c-4.33 1.77-7.01 6.21-7.62 10.71-.74 4.9-.47 10.27 2.23 14.57 3.58 5.88 12.91 6.8 17.72 1.97 4.52-4.59 2.96-13.86-3.49-15.82-4.1-1.67-8.52-.19-11.9 2.32.54-3.21 1.11-6.85 3.96-8.88 3.16-2.49 7.5-1.64 10.95-.25.54-1.37 1.11-2.73 1.69-4.07-4.23-1.88-9.23-2.56-13.54-.55m20.34 4.29c-3.22 5.98-3.49 13.65-.69 19.84 2.95 6.34 11.96 7.72 17.29 3.66 4.69-3.47 4.8-11.56.17-15.12-4.38-3.36-10.8-2.55-14.79 1.05.9-3.22 1.5-6.97 4.37-9.11 3.06-2.23 7.16-1.6 10.44-.2.6-1.45 1.19-2.89 1.75-4.35-6.17-2.77-14.82-2.07-18.54 4.23m-159.08 1.29c1.2.95 2.4 1.92 3.59 2.91 2.57-3.01 7.22-5.12 10.83-2.6 2.7 2.13 1.83 6.19-.34 8.39-3.8 4.2-8.14 7.88-11.81 12.21-1.44 1.2-1.02 3.13-1.21 4.78 7.11.03 14.21-.14 21.32-.18 0-1.53 0-3.04.01-4.55-4.61-.01-9.22.04-13.83.04 3.59-4.03 7.96-7.38 11-11.88 2.81-4.07 2.08-10.58-2.43-13.11-5.66-2.93-13.51-1.48-17.13 3.99m26.15-5.19c.05 1.52.13 3.07.21 4.61 3.36 0 6.72-.03 10.08-.23-.01 5.37.19 10.75.25 16.14.07 2.49-1.03 5.84-4.03 5.85-2.7.41-4.56-1.77-6.3-3.41-.87 1.3-2.93 2.32-2.4 4.15 4.05 5.6 14.75 5.53 17.1-1.63 1.63-8.43.13-17.08.35-25.6-5.09-.01-10.18.03-15.26.12m26.49 2.33c-7.94 6.08-7.6 19.83.57 25.56 6.2 4.54 15.59 3.5 20.62-2.34-1.22-1.13-2.39-2.28-3.57-3.42-2.91 3.59-8.11 5.01-12.31 2.87-7.62-3.64-7.73-16.47-.02-20.09 4.2-2.3 9.15-.53 12.38 2.58 1.05-1.09 2.11-2.17 3.18-3.23-4.86-6.16-14.87-6.73-20.85-1.93m25.72-2.98c.08 10.26.26 20.52.41 30.78 7.05-.18 14.1-.14 21.15-.25 0-1.55.01-3.08.02-4.61-5.39.04-10.77.03-16.14.08-.02-2.85-.02-5.68 0-8.51 4.55-.1 9.1-.14 13.65-.16l.06-4.4c-4.58-.07-9.16-.08-13.73-.05-.05-2.79-.12-5.57-.25-8.34 5.22-.01 10.44-.06 15.67-.09l.03-4.55c-6.96 0-13.92.04-20.87.1m-129.56 6.26c1.27.99 2.55 1.99 3.85 2.97 1.85-1.91 4.08-3.86 6.94-3.67 2.62-.23 5.53 1.72 5.42 4.56.03 3.23-2.52 5.61-4.61 7.76-3.49 3.26-6.85 6.65-10.1 10.14-.07 1.29-.12 2.59-.16 3.9 6.95.15 13.9-.03 20.85-.15.02-1.5.03-2.99.06-4.48-4.54.02-9.07.06-13.6 0 3.42-3.7 7.27-7.01 10.38-10.98 3.08-3.84 3.19-10.31-1.05-13.36-5.57-3.96-14.09-2.24-17.98 3.31m32.21-4.42c-4.25 2.03-6.1 6.84-6.85 11.2-.72 5.62.24 12.05 4.49 16.15 4.08 4.13 11.69 3.86 15.4-.65 4.96-5.92 5.1-14.92 1.84-21.67-2.54-5.4-9.58-7.9-14.88-5.03M269.69 727.8c0 3.64-.01 7.27 0 10.92 20.85-.18 41.71-.48 62.56-.7.26-3.58.08-7.17.16-10.75-20.91.06-41.81.5-62.72.53m.08 15.79c.03 3.54.04 7.07.02 10.62 8.29-.13 16.58.09 24.86-.39.24 5.33-.07 10.67.3 16 4.17.24 8.36-.05 12.54.02-.07-5.35-.1-10.69-.13-16.03 8.42-.06 16.85-.23 25.27-.18-.07-3.52-.05-7.03-.08-10.55-20.93.08-41.85.36-62.78.51m325.45 72.58c-11.37 10.6-17.92 26.23-17.06 41.8-.01 17.48 9.82 34.17 24.24 43.77 10.44 7.04 23.35 9.8 35.82 8.71.01-5.23-.05-10.45-.09-15.67-7.58.31-15.46-.18-22.36-3.63-10.57-5.35-19.15-15.37-21.1-27.26 10.39-.14 20.8-.16 31.2-.28.04-5.16 0-10.31-.07-15.47-10.38.08-20.76.21-31.15.34 1.89-10.2 7.95-19.61 16.74-25.19 7.5-5.18 16.91-7.07 25.91-6.16 0-5.3-.01-10.6-.08-15.9-15.23-.83-31.01 4.14-42 14.94m-291.7-.56c-10.71 9.46-17.28 23.16-18.81 37.29-7.4-.09-14.79.36-22.18.28.08-12.47-.24-24.94-.15-37.41 9.08 0 18.15-.17 27.22-.21 2.7-4.1 5.53-8.11 8.68-11.88-16.01.05-32.02.19-48.03.22-.04 36.98.8 73.96.95 110.94 3.6-2.59 6.72-5.74 10.13-8.56.92-.87 2.33-1.76 1.89-3.27.03-12.63-.3-25.26-.39-37.88 7.32-.04 14.64 0 21.96-.04 1.81 15.48 9.95 30.31 22.68 39.45 13.7 10.53 32.55 14.06 49.03 8.69 12-4.24 23.18-11.97 29.76-23.04-3.35-2.17-6.63-4.45-9.74-6.92-6.17 8.25-14.35 15.41-24.46 18.21-15.68 4.82-33.73-.76-44.29-13.21-6.51-7.6-10.68-17.29-11.16-27.32-.8-14.73 6.04-29.72 17.91-38.53 8.36-6.32 19.05-9.41 29.49-8.58 12.74 1.15 24.68 8.35 32 18.79 3.12-2.73 6.68-4.89 10.05-7.28-8.63-12.21-22.12-21.17-37.04-23.22-16.14-2.38-33.48 2.26-45.5 13.48m221.37-3.8c-8.8 6.23-16 14.92-19.82 25.07-4.57 12.1-5.04 25.83-.69 38.07 5.82 16.75 20.23 30.41 37.49 34.77 6.41 1.78 13.1 1.64 19.69 1.61-.03-5.23-.06-10.47-.07-15.7-9.95.52-20.54-1.12-28.52-7.51-10.53-7.74-16.7-20.97-15.52-34.03.48-11.66 6.8-22.77 16.4-29.33 7.78-5.5 17.52-7.44 26.91-6.85.07-5.19.04-10.39 0-15.58-12.56-.73-25.46 2.27-35.87 9.48m-215.52 37.16c-4.17 13.83 1.38 30.15 13.81 37.81 14.03 9.37 35.01 4.57 43.7-9.87-3.37-2.17-6.75-4.3-10.06-6.54-2.98 3.89-6.88 7.34-11.75 8.53-7.79 2.22-16.67-1.14-21.14-7.88-6.04-8.47-4.63-21.12 2.83-28.28 5.24-5.03 13.43-6.5 20.18-3.92 4.01 1.36 7.14 4.34 9.79 7.54 3.23-2.57 6.63-4.9 10.03-7.23-7.13-9.74-19.62-15.56-31.67-13.42-12.07 1.94-22.44 11.53-25.72 23.26z"/><path d="M682.42 498.64c6.71-1.94 14.59 1.75 16.79 8.51 3.58 8.43-2.97 19.25-12.25 19.43-7.57.53-14.37-6.04-14.59-13.51-.79-6.45 3.84-12.81 10.05-14.43zM604.4 500.45c6.23-2.71 14.3-.36 17.62 5.7 4.69 7.45.35 18.38-7.97 20.95-7.2 2.36-15.75-2.22-17.67-9.59-2.29-6.65 1.5-14.53 8.02-17.06zM291.25 512.38c1.78-7.9 11.18-12.45 18.52-9.22 3.84 1.5 6.44 5.02 7.54 8.9-8.69.09-17.37.24-26.06.32zM346.47 511.66c2.11-6.85 9.5-11.32 16.55-9.73 4.84.76 8.67 4.72 9.74 9.44-8.77.02-17.53.22-26.29.29zM412.09 502.16c6.55-1.9 14.13 1.74 16.69 8.07 3.21 6.97-.75 15.88-7.73 18.73-8.26 4.01-19.03-2.92-19.39-11.96-.87-6.7 4.02-13.19 10.43-14.84zM235.57 512.88c2.17-8.67 13.17-12.44 20.61-8.04 3 1.57 4.52 4.72 5.68 7.74-8.76.2-17.52.28-26.29.3zM410.49 567.66c3.21-1.28 7.09-1.11 9.91 1.02 5.69 4.24 5.55 14.27-.48 18.17-4.41 3.07-11.2 1.61-13.78-3.16-3.4-5.23-1.81-13.67 4.35-16.03zM508.06 566.28c3.3-.04 6.68-.51 9.93.3 4.48 1.5 4.67 8.8.51 10.81-3.31 1.31-6.95.8-10.42.82.01-3.98.02-7.96-.02-11.93zM382.54 568.07c1.87 4.55 3.78 9.09 5.62 13.66-3.65.05-7.31.06-10.96.03 1.89-4.52 3.62-9.1 5.34-13.69zM275.33 580.93c.41-3.29 3.18-6.15 6.63-5.8 3.23-.28 5.45 2.58 6.25 5.39-4.29.28-8.59.32-12.88.41zM225.36 576.42c4.35-2.51 10.19 1.73 9.57 6.61.31 4.18-3.38 8.64-7.82 7.49-6.32-1.23-7.29-11.21-1.75-14.1zM251.39 576.34c3.63-2.31 9.09.14 9.4 4.52 1.12 4.36-1.79 10.1-6.86 9.45-6.71-.55-7.88-10.84-2.54-13.97zM631.46 576.53c3.42-1.61 8.44.27 8.45 4.46.9 5.35-6.8 7.64-10.08 4.14-2.78-2.38-1.85-7.41 1.63-8.6zM599.74 612.48c3.21.01 6.48-.34 9.67.24 4.91 1.39 5.11 9.27.53 11.23-3.25 1.03-6.78.4-10.15.53 0-4-.03-8-.05-12zM518.44 613.5c3.42-.91 7.43-.41 10.11 2.06 5.34 5.16 3.96 16.21-3.62 18.5-5.06 1.97-11.07-.99-12.77-6.1-2.29-5.47.35-12.75 6.28-14.46zM294.12 615.75c4.04.2 8.36-.73 12.18 1 6.37 3.29 7.12 13.59 1.27 17.77-3.81 2.95-8.92 1.92-13.38 2.08.13-6.95-.32-13.9-.07-20.85zM483.52 627.83c1.9-4.46 3.59-9.01 5.39-13.5 2.06 4.45 3.88 9.02 5.85 13.53-3.75.05-7.5.05-11.24-.03zM708.14 623.2c2.39-.96 5.45-.59 7.27 1.35 1.79 2.07 1.54 5.55-.46 7.42-2.93 2.49-8.3 1.63-9.69-2.16-1.19-2.46.34-5.72 2.88-6.61zM278.42 679.41c11.99-6.65 26.88-7.92 39.67-2.82 12.64 4.28 22.46 14.55 28.1 26.44-13.62 3.49-27.17 7.24-40.74 10.9-.13-5.67-.04-11.33-.12-16.99-17.15 4.55-34.27 9.19-51.52 13.35 3.94-12.88 12.51-24.62 24.61-30.88zM375.65 711.17c11.66-.47 23.35-.41 35.02-.42.27 10.09.4 20.18.61 30.27-.28 1.27.61 3.6-1.11 4.09-10.72.19-21.45.14-32.17.18-2.19.52-2.24-1.77-2.19-3.26-.03-10.29-.33-20.58-.16-30.86m7.15 2.66c-.1 9.59.13 19.19.02 28.78 1.62.03 3.25.05 4.89.05-.01-2.92-.05-5.83-.02-8.73 2.67.09 5.46-.42 8.07.27 2.74 3.84 4.96 9.99 10.97 8.23-2.07-3.19-4.24-6.3-6.27-9.51 2.67-1.84 5.48-4.33 5.42-7.88.77-4.66-2.18-9.69-6.89-10.73-5.31-1.14-10.8-.41-16.19-.48zM586.43 716.51c3.21-1.89 7.09.63 8.14 3.85 1.51 4.41 1.49 9.43-.15 13.8-1.21 3.34-5.52 4.96-8.54 3.01-3.31-2.21-3.92-6.5-4.02-10.16-.09-3.87.8-8.54 4.57-10.5z"/><path d="M387.67 717.88c3.12.04 6.29-.18 9.38.45 4.22 1.01 5.58 8.01 1.49 10.04-3.33 1.83-7.26 1.05-10.88 1.19-.01-3.9-.03-7.79.01-11.68zM456.26 718.25c2.69-1.89 6.73-.82 8.19 2.11 2.48 4.68 2.51 10.61.38 15.43-1.39 3.26-6.06 4.78-8.85 2.37-3.27-2.63-3.64-7.2-3.53-11.08.12-3.22.83-7.03 3.81-8.83zM639.39 727.5c3.32-1.17 8.17.37 8.17 4.49.8 5.06-5.74 7.62-9.41 4.91-3.49-2.18-2.82-8.3 1.24-9.4zM612.37 728.48c3.43-2.86 10.25-.37 9.58 4.55-.03 4.18-5.15 6.45-8.58 4.47-3.59-1.45-4.22-6.84-1-9.02z"/></g><g fill="#9e9d9b"><path d="M304.03 17.1c95.68-.75 191.36-1.61 287.05-2.36 14.74-.32 29.47 1.45 43.89 4.43 9.1 2.12 18.35 4.51 26.41 9.42 3.01 1.81 6.19 4.55 5.94 8.44.71 34.25.49 68.51.89 102.76.02 1.9.05 3.8.11 5.71.36 25.81-.36 51.64.45 77.44-.15 23.37.62 46.73.62 70.1.15 9.6-.04 19.22.28 28.82l.82.58c-.57 3.16-1.04 6.36-1 9.58.13 15.81.16 31.63-.01 47.44-10.51-.01-21.02.1-31.52-.06-2.57-.08-5.08.5-7.54 1.11-.1-.33-.29-.97-.38-1.3-3.92.06-7.84.12-11.75.16.15 13.42.16 26.85.29 40.27-8.3.16-16.6.16-24.9.21-.07-13.43 0-26.86-.09-40.29 3.57.06 7.14-.02 10.71-.14-5.28-1.64-10.62-4.19-13.55-9.11-2.44-3.62-2.99-8.08-3.08-12.33-.18-13.29.02-26.59-.21-39.87.13-4.44-4.15-8.03-8.47-7.65-19.66.1-39.32.37-58.97.31-3.89-.06-7.78.15-11.65.49.12 4.68-.31 9.41.36 14.06.7 3.55 4.02 5.83 7.4 6.51 7.31 1.7 14.63 3.32 21.91 5.16 5.78 1.52 11.77 2.25 17.36 4.44-.08 9.12.06 18.23.16 27.35-44.83 1.14-89.7.6-134.54 1.08-10.33.67-20.69.38-31.02.48-14.47-.03-28.93.37-43.39.16.12-9.25-.15-18.5-.04-27.75 13.02-3.47 26.19-6.45 39.22-9.92 3.2-.84 6.28-3.34 6.62-6.81.51-4.75.14-9.53.14-14.29-22.52.01-45.03.85-67.56.69-3.74.17-8.25-.58-11.11 2.42-2.04 1.77-2.37 4.57-2.35 7.12 0 13.68.36 27.37.23 41.05.02 6.1-3.21 12.02-8.24 15.44-2.47 1.59-5.36 2.31-8.11 3.25 3.85.04 7.71-.04 11.57.07l.21.67c.57 13.05.02 26.13.47 39.19-8.29.31-16.6.08-24.89.3-.07-13.38-.08-26.76-.23-40.13-4.77.01-9.55 0-14.33.09-.11.4-.34 1.21-.46 1.61-1.81-.91-3.62-2.11-5.74-1.93-5.66.07-11.27 1.2-16.94.81-5.86-.4-11.76 0-17.6-.72.31-6.91-1.06-13.74-.94-20.64.07-11.66.04-23.32-.07-34.97.04-27.35-.28-54.69-.28-82.03.05-6.6-.25-13.2-.58-19.79-.17-4.43.83-8.82.5-13.24-.23-3.32-.56-6.65-.52-9.98.06-14.67-.02-29.34.08-44.01.1-2.34-.49-4.61-1.34-6.77.21-.17.62-.52.83-.69.11-2.4.05-4.81-.05-7.21-.64-31.76-.55-63.54-1.06-95.31 0-2.91-.19-5.86.33-8.74.64-2.68 2.87-4.55 5.02-6.06 7.74-5.19 16.82-7.81 25.78-10.01 16-3.66 32.44-5.34 48.86-5.11m142.01 5.12c-34.02.34-68.03.46-102.05.59-18.99.93-38.02.16-57.02.95-13.47 1.3-27.03 2.96-39.96 7.13-5.48 1.91-10.99 4.08-15.69 7.54-1.26.72-.86 2.39-1.03 3.57.25 29.98.45 59.97.53 89.96.85 14.88.36 29.8.61 44.69.37 30.12.07 60.24.75 90.34.04 36.48.73 72.96.56 109.45 18.41-.15 36.82-.17 55.24-.27 4.43-.36 9.46-.06 13.07-3.13 3.04-2.36 4.79-6.13 4.73-9.97.12-11.04-.06-22.09-.03-33.13.05-4.57-.36-9.23.72-13.72 1.46-5.51 6.95-9.26 12.52-9.47 34.32-.54 68.66-.13 102.97-.8 43.34-.58 86.69-.52 130.04-.79 8.3-.65 16.64-.41 24.97-.51 3.91-.03 8.26.23 11.27 3.08 3.41 2.69 5.08 6.99 5.14 11.26.21 14 .2 28 .4 41.99.18 6.85 6.46 12.68 13.27 12.6 18.89-.03 37.8-.2 56.7-.24-.4-43.45-.15-86.91-.7-130.36-.99-42.33-.2-84.72-1.28-127.05-.13-26.68-.29-53.36-.47-80.03-9.33-6.59-20.67-9.31-31.71-11.44-17-3.08-34.37-4.38-51.64-3.33-43.97.57-87.95.25-131.91 1.09z"/><path d="M523.57 244.77c12.15-.23 24.33-.31 36.49-.22 6.31.07 11.26 6.36 10.69 12.48.51 5.97-4.59 11.69-10.63 11.61-12.72.11-25.45.24-38.17.09-7.54-.68-11.56-10.03-8.72-16.58 1.58-4.29 5.86-7.09 10.34-7.38zM336.37 246.59c10.53-.94 21.15.22 31.69-.73 4.36-.26 9.21-.39 12.94 2.24 6.29 4.29 6.7 14.92.61 19.56-2.87 2.55-6.88 2.87-10.54 2.82-10.71-.03-21.42.15-32.13.1-5.07.14-9.71-3.6-11-8.44-2.07-6.36 1.83-14 8.43-15.55zM710.32 298.84c.1-2.38 2.33-4.23 4.69-4.1 7.98-.21 15.98-.19 23.98-.2 2.67-.32 5.2 1.75 5.25 4.48.39 5.8.05 11.63.12 17.44-11.37-.05-22.73-.05-34.1-.02.09-5.87-.32-11.74.06-17.6zM145.72 304.97c-.24-2.81 2.5-5.07 5.19-4.84 8.05.05 16.11-.35 24.16-.18 2.71-.21 4.81 2.41 4.66 4.98.17 5.58.02 11.17.05 16.75-11.35-.21-22.7.02-34.04.14.01-5.62-.2-11.24-.02-16.85zM710.37 353.98c11.37.19 22.74.17 34.1-.03.06 5.66.34 11.33.04 16.99-.07 2.75-2.76 4.81-5.42 4.56-7.73.09-15.47.04-23.2.12-2.65.33-5.45-1.8-5.45-4.54-.24-5.7.04-11.4-.07-17.1zM145.82 359.15c11.34.24 22.68-.07 34.02-.03-.14 5.67.44 11.34.11 16.99-.06 2.14-1.38 4.81-3.85 4.71-8.38.12-16.78.4-25.16.2-2.34.16-4.73-1.53-4.94-3.95-.53-5.95-.04-11.95-.18-17.92zM457.36 380.61c3.57-.05 7.14 0 10.71-.12.25 13.43.24 26.85.15 40.28-3.55-.03-7.1-.02-10.65 0-.05-13.39-.08-26.77-.21-40.16zM482.03 380.39c3.51-.01 7.02-.03 10.53-.05-.04 13.44.01 26.88.17 40.32-3.56-.02-7.11-.02-10.66-.02-.01-13.42-.09-26.84-.04-40.25zM506.02 380.23c3.52.03 7.04.03 10.57-.13.13 13.43.11 26.87.16 40.3-3.53.01-7.06.04-10.59.08-.07-11.43-.45-22.86-.35-34.3.03-1.99.12-3.97.21-5.95zM530.31 379.95c3.6.01 7.19.05 10.8.09-.01 13.42.11 26.83.12 40.25-3.59.01-7.17.03-10.75.06-.18-13.47-.13-26.93-.17-40.4zM554.38 379.83c8.22-.09 16.46.04 24.68-.19.28 13.48.14 26.96.27 40.45-8.25.02-16.49.05-24.73.08-.02-13.45-.27-26.89-.22-40.34zM322 381.52c8.21-.14 16.43-.17 24.64-.17.01 13.42.12 26.83.1 40.25-8.19.04-16.38.05-24.57.11-.11-13.39.07-26.79-.17-40.19zM360.11 381.33c3.58-.07 7.17-.06 10.75-.18.5 13.43.31 26.88.46 40.32-3.65.03-7.31.06-10.96.12-.07-13.42-.01-26.85-.25-40.26zM384.53 381.01c3.52.15 7.04.15 10.57.11.02 5.35.09 10.71.22 16.06.02 8.03.08 16.07.06 24.11-3.57 0-7.14-.02-10.7-.05-.11-13.41-.14-26.82-.15-40.23zM408.66 380.98c3.6-.11 7.22-.08 10.83-.18.31 13.41.13 26.83.2 40.24-3.6.09-7.21.13-10.81.13-.04-13.4-.13-26.79-.22-40.19zM433.17 380.75c3.57.08 7.13.01 10.7-.01-.14 13.38.15 26.76.28 40.14-3.62.01-7.24.01-10.85.02-.08-13.38-.1-26.77-.13-40.15zM229.59 993.62c1.41-2.09 4.23-1.69 6.41-1.84 6.31.03 12.62-.11 18.92-.14 1.86.14 4.53-.37 5.39 1.8.66 4.04.32 8.17.47 12.25 4.17-.07 8.34-.14 12.5-.3-.03-4.04-.48-8.12.11-12.13.86-1.05 2.22-1.46 3.53-1.47 3.69-.22 7.4-.29 11.1-.1 1.55-.08 3.27 1.05 3.24 2.74.39 3.46.19 6.96.24 10.45 5.08-.05 10.92-.02 14.56 4.15 4.14 3.75 4.2 9.64 4.19 14.81 4.89-.01 9.83-.68 14.71-.06 3.16.9 3.16 4.55 3.18 7.22.1 27.34.9 54.68 1.19 82.02.14 2.68-.05 6.23-3.13 7.19-4.59.75-9.28.18-13.91.38.39 7.32-4.34 15.49-12.21 16.06-11.64.61-23.32.51-34.98.75.04 3.74.08 7.48.1 11.23-11.46.19-22.91.11-34.37.12-.07-3.52-.09-7.05-.08-10.56-12.62.08-25.24.71-37.86.55-7.11-.2-12.11-6.78-13.16-13.35-5.86-.1-11.74.47-17.59.05-2.78-.62-3.39-3.97-3.33-6.39-.27-27.71-.72-55.41-1.32-83.11-.07-2.64-.1-6.38 3.05-7.24 5.93-.86 11.98-.17 17.96-.7.01-5.26-.86-11.29 2.76-15.65 2.64-3.74 7.26-4.96 11.51-5.72-.1-3.98-.66-8.01.02-11.94 1.91-3.03 6.25-1.65 9.24-2.09 2.7.43 6.85-1.19 8.35 1.84.73 3.99.28 8.08.34 12.11 6.21.06 12.42-.18 18.63-.36.07-4.19-.42-8.42.24-12.57m7.08 27.2c-15.53 2.64-29.9 12.63-37.22 26.67-11.46 20.56-6.3 48.89 12.16 63.69 10.34 9.12 24.55 13.41 38.23 11.96 17.43-1.19 33.12-12.73 41.15-27.98 5.01-9.86 6.55-21.32 4.68-32.19-2.4-16.31-13.49-30.94-28.47-37.75-9.41-4.64-20.2-6.17-30.53-4.4zM353 1015.98c.02-3.1 3.07-5.32 6.01-5.16 7.98-.21 15.97-.24 23.96-.2 1.96-.11 4.01.56 5.24 2.17 1.96 2.24 1.25 5.44 1.44 8.18-.2 6.83.51 13.67.19 20.5-.54.16-1.62.46-2.16.62.01-2.84-.02-5.66-.05-8.48-10.85-.17-21.7-.13-32.54.31.05 2.69.11 5.38.25 8.09-.67.04-2 .14-2.66.19.11-8.74-.01-17.49.32-26.22z"/><path d="M239.24 1029.38c9.48-1.53 19.37.74 27.6 5.57 9.99 5.71 16.68 16.09 19.56 27.05 2.74 11.6.27 24.23-6.42 34.07-7.64 10.97-20.53 18.28-34 18.39-9.34.56-18.48-2.89-26.13-8.05-17.17-12.24-23.04-38.13-11.65-56.15 6.34-11.38 18.2-19.11 31.04-20.88m1.29 30.43c-7.04 2.34-10.52 11.2-6.9 17.7 3.03 6.73 12.52 9.12 18.38 4.65 5.36-3.65 7.13-11.59 3.64-17.11-2.92-5.19-9.66-6.89-15.12-5.24zM722.14 1037.62c14.3.07 28.61-.23 42.91-.21 4.61-.23 8.54 4.05 8.25 8.6.13 26.02.3 52.04.37 78.06.43 4.45-2.99 9.3-7.71 9.2-13.93.3-27.87.03-41.8.31 2.35-5.27.81-11.05.82-16.57.03-19.33-.12-38.67-.22-58.01-.19-7.19 1.83-15.02-2.62-21.38zM452.31 1047.92c-.26-3.92 2.63-7.63 6.5-8.28 14.34.03 28.7-.18 43.04.07-.76 3.13-1.59 6.32-1.37 9.58.64 10.54.12 21.11.28 31.66-.02 15.66.37 31.33-.25 46.98-.05 2.37.58 4.72 1.48 6.92-12.33.56-24.67.14-37.01.45-3.38-.1-7.49.49-10.01-2.3-2.54-2.3-2.58-5.91-2.57-9.06-.05-25.34-.19-50.69-.09-76.02zM353.56 1070.5c.49.28 1.45.83 1.94 1.1-.01 2.58.01 5.17.05 7.76 10.9.27 21.8.17 32.7-.11-.04-2.91-.11-5.81-.31-8.69l2.16.44c.63 8.3.33 16.66.29 24.98.31 3.51-2.84 6.73-6.36 6.41-7.97.09-15.95.14-23.91.09-3.53.32-6.65-2.98-6.36-6.45-.06-8.51-.27-17.02-.2-25.53z"/></g><g fill="#222322"><path d="M446.04 22.22c43.96-.84 87.94-.52 131.91-1.09 17.27-1.05 34.64.25 51.64 3.33 11.04 2.13 22.38 4.85 31.71 11.44.18 26.67.34 53.35.47 80.03 1.08 42.33.29 84.72 1.28 127.05.55 43.45.3 86.91.7 130.36-18.9.04-37.81.21-56.7.24-6.81.08-13.09-5.75-13.27-12.6-.2-13.99-.19-27.99-.4-41.99-.06-4.27-1.73-8.57-5.14-11.26-3.01-2.85-7.36-3.11-11.27-3.08-8.33.1-16.67-.14-24.97.51-43.35.27-86.7.21-130.04.79-34.31.67-68.65.26-102.97.8-5.57.21-11.06 3.96-12.52 9.47-1.08 4.49-.67 9.15-.72 13.72-.03 11.04.15 22.09.03 33.13.06 3.84-1.69 7.61-4.73 9.97-3.61 3.07-8.64 2.77-13.07 3.13-18.42.1-36.83.12-55.24.27.17-36.49-.52-72.97-.56-109.45-.68-30.1-.38-60.22-.75-90.34-.25-14.89.24-29.81-.61-44.69-.08-29.99-.28-59.98-.53-89.96.17-1.18-.23-2.85 1.03-3.57 4.7-3.46 10.21-5.63 15.69-7.54 12.93-4.17 26.49-5.83 39.96-7.13 19-.79 38.03-.02 57.02-.95 34.02-.13 68.03-.25 102.05-.59m77.53 222.55c-4.48.29-8.76 3.09-10.34 7.38-2.84 6.55 1.18 15.9 8.72 16.58 12.72.15 25.45.02 38.17-.09 6.04.08 11.14-5.64 10.63-11.61.57-6.12-4.38-12.41-10.69-12.48-12.16-.09-24.34-.01-36.49.22m-187.2 1.82c-6.6 1.55-10.5 9.19-8.43 15.55 1.29 4.84 5.93 8.58 11 8.44 10.71.05 21.42-.13 32.13-.1 3.66.05 7.67-.27 10.54-2.82 6.09-4.64 5.68-15.27-.61-19.56-3.73-2.63-8.58-2.5-12.94-2.24-10.54.95-21.16-.21-31.69.73z"/><path d="M508.37 311.26c3.87-.34 7.76-.55 11.65-.49 19.65.06 39.31-.21 58.97-.31 4.32-.38 8.6 3.21 8.47 7.65.23 13.28.03 26.58.21 39.87.09 4.25.64 8.71 3.08 12.33 2.93 4.92 8.27 7.47 13.55 9.11-3.57.12-7.14.2-10.71.14-4.84-.17-9.69-.19-14.53.08-8.22.23-16.46.1-24.68.19-4.43.02-8.85.2-13.27.21-3.61-.04-7.2-.08-10.8-.09-4.58-.08-9.16-.11-13.72.15-3.53.16-7.05.16-10.57.13-.09 1.98-.18 3.96-.21 5.95-.21-1.97-.54-3.93-.83-5.89-4.14.01-8.29.02-12.42.05-3.51.02-7.02.04-10.53.05-.05 13.41.03 26.83.04 40.25l-.75-.01c-.24-13.47.25-26.95-.19-40.41-4.36-.03-8.71.07-13.06.27-3.57.12-7.14.07-10.71.12-4.5.08-9 .11-13.49.13-3.57.02-7.13.09-10.7.01-4.56-.17-9.12-.15-13.68.05-3.61.1-7.23.07-10.83.18-4.28.16-8.55.25-12.82.22-.22 5.32-.31 10.65-.52 15.98-.13-5.35-.2-10.71-.22-16.06-3.53.04-7.05.04-10.57-.11-4.56-.21-9.12-.08-13.67.14-3.58.12-7.17.11-10.75.18-4.49.09-8.98.07-13.47.02-8.21 0-16.43.03-24.64.17-4.95-.07-9.95-.15-14.81.92l-.21-.67c-3.86-.11-7.72-.03-11.57-.07 2.75-.94 5.64-1.66 8.11-3.25 5.03-3.42 8.26-9.34 8.24-15.44.13-13.68-.23-27.37-.23-41.05-.02-2.55.31-5.35 2.35-7.12 2.86-3 7.37-2.25 11.11-2.42 22.53.16 45.04-.68 67.56-.69 0 4.76.37 9.54-.14 14.29-.34 3.47-3.42 5.97-6.62 6.81-13.03 3.47-26.2 6.45-39.22 9.92-.11 9.25.16 18.5.04 27.75 14.46.21 28.92-.19 43.39-.16 10.33-.1 20.69.19 31.02-.48 44.84-.48 89.71.06 134.54-1.08-.1-9.12-.24-18.23-.16-27.35-5.59-2.19-11.58-2.92-17.36-4.44-7.28-1.84-14.6-3.46-21.91-5.16-3.38-.68-6.7-2.96-7.4-6.51-.67-4.65-.24-9.38-.36-14.06zM623.28 434.47c27.91-.42 55.83-.06 83.74-.57 17.98.06 35.95-.3 53.93-.09 6.6-.44 12.51 4.93 13.53 11.29.24 2.28.17 4.58.18 6.87.33 91.34 1.05 182.68 1.28 274.02.4 30.34.22 60.68.51 91.02.48 28.31.23 56.63.54 84.95.36 19.35.27 38.7.32 58.05.43 7.6-6.91 14.18-14.34 13.57-50.34-.11-100.68.6-151.02.69-152.63.6-305.26 1.71-457.9 2.24-2.95-.02-5.99.15-8.83-.76-5.26-1.77-9.05-7.14-8.96-12.69-.28-29.03-.11-58.07-.82-87.09-.07-55.34-.24-110.67-.58-166-.81-51.31-.29-102.64-.94-153.95-.07-32.35-.2-64.7-.38-97.05.12-5.75-1.27-12.61 3.17-17.18 2.97-3.64 7.69-5.08 12.26-4.88 49.67-.25 99.33-.49 149-.85 108.43-.31 216.87-1.33 325.31-1.59m.07 10.16c-149.77 1.58-299.56 2.69-449.33 4.28-14.57.32-27.68 13.32-27.26 28.06.42 41.66.8 83.32 1.02 124.98.83 49.35.53 98.72 1.52 148.07.47 32 .2 64.01.69 96.01.45 27.66.52 55.32.78 82.98.44 15.13 14.01 28.69 29.29 28.36 79.62-.56 159.24-1.68 238.87-2.18 35.32-.54 70.66-.7 106-1.04 33.68-.57 67.38-.6 101.06-.96 35.66-.71 71.33-.58 106.98-1.18 11.27-.09 22.04-7.34 26.26-17.79 2.74-6 2.42-12.71 2.28-19.13-.35-30.7-.76-61.4-.95-92.1-.8-117.01-2.25-234.01-3.25-351.02-.05-14.9-13.33-28.55-28.38-28.28-35.19.18-70.38.69-105.58.94z"/></g><g fill="#010101"><path d="M668.21 139.79c43.93-.09 87.86-.35 131.79-.52 7 .07 14.08-.41 21 .9 16.91 2.74 32.74 11 45 22.91 12.51 12.6 20.83 29.32 23.01 46.97 1.11 8.15.59 16.39.8 24.58-15.6-.03-31.2.2-46.8.2-5.84.05-11.73-.15-17.51.84-9.17 1.82-17.45 7.2-23.39 14.35-8.12 9.76-10.68 23.67-7 35.76 2.82 9.3 8.81 17.83 17.29 22.75 6.75 4.15 14.75 5.91 22.63 5.72 18.38-.26 36.77.1 55.15-.33.08 14.12.02 28.24.27 42.36-18.82.2-37.65.34-56.47.42-11.05-.04-22.17 4.5-29.62 12.74-8.43 8.97-12.24 22.05-9.82 34.13 3.02 17.7 19.37 32.14 37.42 32.26 19.56-.01 39.11-.13 58.67-.19.05 14.4.03 28.79.2 43.19-15.29-.07-30.58.09-45.86.31-7.21.18-14.59-.65-21.6 1.4-11.27 3.12-20.92 11.5-25.69 22.16-2.94 6.61-3.87 14.03-3.05 21.19 1.81 13.98 11.65 26.52 24.81 31.59 9.05 3.83 19.06 2.57 28.61 2.73 14.43-.15 28.87.18 43.29-.29-.03 14.42 0 28.85.07 43.27-19.25.13-38.49.17-57.73.38-18.97.06-36.26 15.68-38.65 34.4-1.9 14.05 4.29 28.9 15.77 37.27 6.89 5.18 15.56 7.81 24.16 7.64 18.92-.11 37.84-.04 56.75-.26-.1 14.36.18 28.72.13 43.09-16.61.01-33.22.15-49.84.18-4.86.09-9.75.03-14.57.75-13.1 2.47-24.42 12.14-29.51 24.38-6.64 16.19-.84 36.5 13.46 46.63 7.55 5.76 17.21 8.15 26.61 7.67 18.1-.26 36.2.04 54.29-.41.08 14.47.31 28.95.12 43.42-15.11.16-30.22.24-45.33.28-7.59.2-15.4-.62-22.76 1.7-12.99 3.76-23.77 14.5-27.31 27.59-3.14 10.76-1.02 22.72 5.08 32.05 7.16 11.32 20.52 18.33 33.89 17.96 18.93-.1 37.86-.21 56.79-.24.05 14.22.13 28.45.06 42.68-15.6-.06-31.21.2-46.81.23-6.67.07-13.44-.28-19.97 1.32-13.39 3.39-24.61 14.22-28.42 27.51-2.84 10.35-1.64 21.89 3.88 31.17 6.03 10.43 17.13 17.98 29.19 19.1 20.87.42 41.77-.04 62.65 0 .22 13.84.96 28.03-3.26 41.43-5.92 21.17-21.13 39.42-40.7 49.34-10.65 5.22-22.53 7.62-34.35 7.7-30.34.14-60.67.19-91.01.37-6.4.2-12.83-.4-19.21.37 4.65-.68 9.66-1.48 13.27-4.76 2.75-2.26 4.59-5.38 6.08-8.55 13.93-.28 27.87-.01 41.8-.31 4.72.1 8.14-4.75 7.71-9.2-.07-26.02-.24-52.04-.37-78.06.29-4.55-3.64-8.83-8.25-8.6-14.3-.02-28.61.28-42.91.21-3.91-6.1-10.76-10.39-18.1-10.3-61.36.19-122.71.8-184.06 1.13-7.14.17-13.6 4.44-17.29 10.44-14.62.67-29.29-.24-43.88.75-3.87.65-6.76 4.36-6.5 8.28-.1 25.33.04 50.68.09 76.02-.01 3.15.03 6.76 2.57 9.06 2.52 2.79 6.63 2.2 10.01 2.3 12.34-.31 24.68.11 37.01-.45 2.76 5.76 7.56 10.46 13.76 12.33-.12.12-.37.35-.49.46-83.36.06-166.71.81-250.06.99-.02-3.75-.06-7.49-.1-11.23 11.66-.24 23.34-.14 34.98-.75 7.87-.57 12.6-8.74 12.21-16.06 4.63-.2 9.32.37 13.91-.38 3.08-.96 3.27-4.51 3.13-7.19-.29-27.34-1.09-54.68-1.19-82.02-.02-2.67-.02-6.32-3.18-7.22-4.88-.62-9.82.05-14.71.06.01-5.17-.05-11.06-4.19-14.81-3.64-4.17-9.48-4.2-14.56-4.15-.05-3.49.15-6.99-.24-10.45.03-1.69-1.69-2.82-3.24-2.74-3.7-.19-7.41-.12-11.1.1-1.31.01-2.67.42-3.53 1.47-.59 4.01-.14 8.09-.11 12.13-4.16.16-8.33.23-12.5.3-.15-4.08.19-8.21-.47-12.25-.86-2.17-3.53-1.66-5.39-1.8-6.3.03-12.61.17-18.92.14-2.18.15-5-.25-6.41 1.84-.66 4.15-.17 8.38-.24 12.57-6.21.18-12.42.42-18.63.36-.06-4.03.39-8.12-.34-12.11-1.5-3.03-5.65-1.41-8.35-1.84-2.99.44-7.33-.94-9.24 2.09-.68 3.93-.12 7.96-.02 11.94-4.25.76-8.87 1.98-11.51 5.72-3.62 4.36-2.75 10.39-2.76 15.65-5.98.53-12.03-.16-17.96.7-3.15.86-3.12 4.6-3.05 7.24.6 27.7 1.05 55.4 1.32 83.11-.06 2.42.55 5.77 3.33 6.39 5.85.42 11.73-.15 17.59-.05 1.05 6.57 6.05 13.15 13.16 13.35 12.62.16 25.24-.47 37.86-.55-.01 3.51.01 7.04.08 10.56-43.26.01-86.52.67-129.78.59-12.62-.11-25.32-2.8-36.47-8.84-24.54-12.72-41.4-38.94-42.75-66.57-.32-7.72-.21-15.45-.23-23.17 18.13-.01 36.26-.13 54.39-.11 6.02.05 12.15-.5 17.75-2.85 15.29-6.09 25.7-22.38 24.88-38.82-.55-19.31-17.01-36.94-36.51-37.75-20.19-.23-40.39.07-60.59.06-.07-14.28-.15-28.55-.21-42.82 18.93.16 37.87-.12 56.8-.08 12.51.23 24.8-6.01 32.2-16.06 7.06-9.19 9.8-21.59 6.91-32.85-3.86-16.81-19.74-30.38-37.19-30.32-19.63.05-39.26.12-58.89.33-.37-14.52-.23-29.04-.38-43.56 18.73.2 37.47-.16 56.2-.13 10.05.24 20.19-3.32 27.57-10.19 10.6-9.47 15.65-24.76 12.43-38.65-3.6-16.89-19.54-30.46-36.93-30.57-19.8-.04-39.61.27-59.41.22-.25-14.44-.01-28.88-.18-43.31 18.86-.07 37.73-.04 56.59-.08 6.23.06 12.45-1.29 18.06-3.99 16.2-7.48 25.66-26.95 21.45-44.33-3.39-14.03-14.72-26-28.73-29.7-4.5-1.25-9.2-1.13-13.82-1.11-17.9.11-35.8-.03-53.69.23-.04-14.55-.12-29.11-.18-43.66 19.7.13 39.42-.07 59.12-.17 18.91-.59 35.98-16.52 37.67-35.39 1.5-12.36-3.58-25.02-12.71-33.36-7.31-6.74-17.28-10.4-27.2-10.27-18.99-.05-37.98.13-56.98.16h-.27c.08-14.46-.03-28.93-.19-43.39 20.58-.11 41.18.29 61.74-.41 8.07-.71 15.77-4.34 21.88-9.59 11.22-9.73 16.4-26.1 12.14-40.41-4.39-16.03-19.56-28.72-36.35-29.02-19.84-.08-39.67.21-59.5.34-.03-14.14-.14-28.27-.22-42.41 18.92.11 37.84-.02 56.75-.14 10.24.14 20.38-3.85 27.86-10.82 8.47-8.13 13.55-19.95 12.52-31.77-.97-19.96-19.46-37.08-39.39-36.82-19.27.09-38.54.13-57.81.25-.62-11.83-.6-23.94 2.73-35.42 3.08-11.58 9.13-22.22 16.84-31.34 14.86-17.34 37.39-27.74 60.24-27.81 42.03-.19 84.07-.45 126.11-.54.1 2.4.16 4.81.05 7.21-.21.17-.62.52-.83.69-7.65 4.92-12.15 13.75-12.38 22.77-.16 9.34-.09 18.7.08 28.05 0 9.44 5.54 18.4 13.58 23.18.33 6.59.63 13.19.58 19.79 0 27.34.32 54.68.28 82.03-5.47 3.28-10.2 8.1-12.27 14.25-2.17 5.97-1.48 12.45-1.54 18.68.17 6.67-.19 13.35.29 20.01.65 8.57 5.65 16.47 12.65 21.33 7.06 5.05 16.66 5.88 24.74 2.99 8.72-3.04 15.13-11.01 17.42-19.81.12-.4.35-1.21.46-1.61 4.78-.09 9.56-.08 14.33-.09.15 13.37.16 26.75.23 40.13 8.29-.22 16.6.01 24.89-.3-.45-13.06.1-26.14-.47-39.19 4.86-1.07 9.86-.99 14.81-.92.24 13.4.06 26.8.17 40.19 8.19-.06 16.38-.07 24.57-.11.02-13.42-.09-26.83-.1-40.25 4.49.05 8.98.07 13.47-.02.24 13.41.18 26.84.25 40.26 3.65-.06 7.31-.09 10.96-.12-.15-13.44.04-26.89-.46-40.32 4.55-.22 9.11-.35 13.67-.14.01 13.41.04 26.82.15 40.23 3.56.03 7.13.05 10.7.05.02-8.04-.04-16.08-.06-24.11.21-5.33.3-10.66.52-15.98 4.27.03 8.54-.06 12.82-.22.09 13.4.18 26.79.22 40.19 3.6 0 7.21-.04 10.81-.13-.07-13.41.11-26.83-.2-40.24 4.56-.2 9.12-.22 13.68-.05.03 13.38.05 26.77.13 40.15 3.61-.01 7.23-.01 10.85-.02-.13-13.38-.42-26.76-.28-40.14 4.49-.02 8.99-.05 13.49-.13.13 13.39.16 26.77.21 40.16 3.55-.02 7.1-.03 10.65 0 .09-13.43.1-26.85-.15-40.28 4.35-.2 8.7-.3 13.06-.27.44 13.46-.05 26.94.19 40.41l.75.01c3.55 0 7.1 0 10.66.02-.16-13.44-.21-26.88-.17-40.32 4.13-.03 8.28-.04 12.42-.05.29 1.96.62 3.92.83 5.89-.1 11.44.28 22.87.35 34.3 3.53-.04 7.06-.07 10.59-.08-.05-13.43-.03-26.87-.16-40.3 4.56-.26 9.14-.23 13.72-.15.04 13.47-.01 26.93.17 40.4 3.58-.03 7.16-.05 10.75-.06-.01-13.42-.13-26.83-.12-40.25 4.42-.01 8.84-.19 13.27-.21-.05 13.45.2 26.89.22 40.34 8.24-.03 16.48-.06 24.73-.08-.13-13.49.01-26.97-.27-40.45 4.84-.27 9.69-.25 14.53-.08.09 13.43.02 26.86.09 40.29 8.3-.05 16.6-.05 24.9-.21-.13-13.42-.14-26.85-.29-40.27 3.91-.04 7.83-.1 11.75-.16.09.33.28.97.38 1.3 1.8 7.36 6.6 13.96 13.11 17.87 6.01 3.39 13.31 4.65 20.07 3.03 10.71-2.62 19.56-11.9 21.17-22.89.93-7.47.05-15.02.29-22.53.06-8.26.52-17.37-4.62-24.4-2.53-3.82-6.13-6.73-9.95-9.15l-.82-.58c-.32-9.6-.13-19.22-.28-28.82 0-23.37-.77-46.73-.62-70.1 9.57-4.29 15.89-14.45 15.85-24.89.04-9.13-.07-18.26-.17-27.39-.08-10.55-6.34-20.92-16.13-25.16-.06-1.91-.09-3.81-.11-5.71m-473.08 86.27c-7.03 2.19-8.9 12.48-3.12 17.01 5.05 4.78 14.42 1.82 15.85-4.97 2.4-7.31-5.54-14.89-12.73-12.04m516.25 46.52c7.07 0 14.15.03 21.23-.13 4.47-.16 9.84-1.79 11.47-6.45 2.02-5.21-.57-11.34-5.63-13.63 4.77-3.17 5.84-10.65 2.03-14.93-2.64-2.92-6.8-3.49-10.51-3.64-6.2-.09-12.39.03-18.58-.01-.15 12.93.13 25.86-.01 38.79m-565.54-34.72c0 12.97.14 25.95.03 38.92 2.07.02 4.15.02 6.23-.01-.02-4.05.04-8.1-.19-12.15 3.85.05 7.7-.13 11.55.06 3.33 3.59 5.44 8.15 8.43 12.03 2.16 0 4.32-.01 6.49-.04-3.09-4.28-6.14-8.58-9.24-12.84 2.4-1.44 4.91-2.93 6.47-5.33 4.13-6.44 1.77-16.37-5.67-19.22-7.67-2.84-16.1-.98-24.1-1.42m565.95 44.89c-6.52 2.6-11.33 9.23-11.26 16.33-.09 8.05.15 16.09.05 24.14 1.76 0 3.53 0 5.3.01.07-8.08-.01-16.16.05-24.23-.04-3.91 1.8-7.85 5.18-9.94 4.95-3.34 11.25-1.98 16.86-2.29 5.03.27 10.68-1.06 15.14 1.98 3.5 2.1 5.79 6.08 5.59 10.21 0 8-.03 16.01.11 24.02 1.68.08 3.36.15 5.06.2.02-8.41.13-16.82-.02-25.23-.19-8.07-6.83-15.35-14.85-16.26-4.64-.47-9.32-.14-13.98-.23-4.42.11-9.02-.36-13.23 1.29m-559.74 4.52c-8.46.54-15.88 8.18-15.86 16.71-.09 8.27-.05 16.55.02 24.82 1.71 0 3.43 0 5.15.01.04-8.24-.06-16.49.07-24.73-.06-4.06 2.34-7.85 5.79-9.87 4.38-2.84 9.85-1.67 14.77-1.96 5.15.3 10.72-1.01 15.51 1.44 3.87 1.9 6.55 6 6.52 10.35.18 8.19.04 16.39.15 24.59l5.15-.06c-.04-8.17.11-16.34-.02-24.51.14-8.89-7.88-16.72-16.63-17.05-6.87-.31-13.76 0-20.62.26m558.27 11.57c-.38 5.86.03 11.73-.06 17.6.05 12.51.09 25.03.11 37.54.11 5.7-.17 11.4.07 17.1 0 2.74 2.8 4.87 5.45 4.54 7.73-.08 15.47-.03 23.2-.12 2.66.25 5.35-1.81 5.42-4.56.3-5.66.02-11.33-.04-16.99.08-12.5-.09-24.99-.11-37.49-.07-5.81.27-11.64-.12-17.44-.05-2.73-2.58-4.8-5.25-4.48-8 .01-16-.01-23.98.2-2.36-.13-4.59 1.72-4.69 4.1m-564.6 6.13c-.18 5.61.03 11.23.02 16.85-.04 12.44 0 24.89.08 37.33.14 5.97-.35 11.97.18 17.92.21 2.42 2.6 4.11 4.94 3.95 8.38.2 16.78-.08 25.16-.2 2.47.1 3.79-2.57 3.85-4.71.33-5.65-.25-11.32-.11-16.99-.13-12.48.04-24.96-.06-37.44-.03-5.58.12-11.17-.05-16.75.15-2.57-1.95-5.19-4.66-4.98-8.05-.17-16.11.23-24.16.18-2.69-.23-5.43 2.03-5.19 4.84m554.93 41.62c.08 7.8.04 15.6.07 23.41-.07 6.69 3.43 13.59 9.59 16.58 5.46 2.87 11.81 1.64 17.72 1.87 5.97-.2 12.53.79 17.85-2.58 5.22-3.02 8.39-8.92 8.44-14.89.02-8.26 0-16.53-.15-24.78-1.81.01-3.61.04-5.4.07-.02 8.6.64 17.21.12 25.8-.09 6.11-5.82 11.21-11.84 11.06-6.34.07-12.68.07-19.02.15-6.2.31-11.73-5.31-11.71-11.43-.21-8.48.01-16.96-.29-25.43-1.8.05-3.59.1-5.38.17m-564.42 5.14c0 8.43-.06 16.87.08 25.3.11 8.37 7.18 16.18 15.62 16.64 5.36.32 10.74.11 16.12.12 3.97-.1 8.18.12 11.82-1.75 5.28-2.67 9.3-8.12 9.56-14.13.29-8.78.06-17.58.07-26.36-1.73-.02-3.45-.03-5.17-.04-.11 8.13 0 16.26 0 24.39-.01 3.5-1.05 7.23-3.74 9.64-2.81 2.66-6.89 3.23-10.61 3.14-5.69-.09-11.39.16-17.08-.09-6.01-.16-11.35-5.54-11.27-11.59-.21-8.45-.01-16.9-.09-25.35-1.77.02-3.54.05-5.31.08m487.05 82.74c-108.44.26-216.88 1.28-325.31 1.59-49.67.36-99.33.6-149 .85-4.57-.2-9.29 1.24-12.26 4.88-4.44 4.57-3.05 11.43-3.17 17.18.18 32.35.31 64.7.38 97.05.65 51.31.13 102.64.94 153.95.34 55.33.51 110.66.58 166 .71 29.02.54 58.06.82 87.09-.09 5.55 3.7 10.92 8.96 12.69 2.84.91 5.88.74 8.83.76 152.64-.53 305.27-1.64 457.9-2.24 50.34-.09 100.68-.8 151.02-.69 7.43.61 14.77-5.97 14.34-13.57-.05-19.35.04-38.7-.32-58.05-.31-28.32-.06-56.64-.54-84.95-.29-30.34-.11-60.68-.51-91.02-.23-91.34-.95-182.68-1.28-274.02-.01-2.29.06-4.59-.18-6.87-1.02-6.36-6.93-11.73-13.53-11.29-17.98-.21-35.95.15-53.93.09-27.91.51-55.83.15-83.74.57M353 1015.98c-.33 8.73-.21 17.48-.32 26.22.66-.05 1.99-.15 2.66-.19.35 9.85.49 19.73.16 29.59-.49-.27-1.45-.82-1.94-1.1-.07 8.51.14 17.02.2 25.53-.29 3.47 2.83 6.77 6.36 6.45 7.96.05 15.94 0 23.91-.09 3.52.32 6.67-2.9 6.36-6.41.04-8.32.34-16.68-.29-24.98l-2.16-.44c-.48-9.48-.19-18.99-.26-28.47.54-.16 1.62-.46 2.16-.62.32-6.83-.39-13.67-.19-20.5-.19-2.74.52-5.94-1.44-8.18-1.23-1.61-3.28-2.28-5.24-2.17-7.99-.04-15.98-.01-23.96.2-2.94-.16-5.99 2.06-6.01 5.16z"/><path d="M717.15 238.66c4.46.02 8.92-.15 13.38.08 2.95.13 6.51 1.9 6.65 5.24.27 3.53-2.94 6.28-6.28 6.44-4.59.29-9.19.08-13.79.21.01-3.99-.01-7.98.04-11.97zM151.84 242.79c5.28.26 11.01-1.02 15.94 1.42 5.59 2.92 5.12 12.38-.8 14.66-4.8 1.68-10.04.73-15.03.91-.16-5.66-.07-11.33-.11-16.99zM717.14 255.32c4.63.13 9.26.01 13.9.1 2.33.01 4.77.63 6.54 2.22 2.58 2.85 1.6 8.65-2.58 9.38-5.84 1.22-11.9.31-17.82.65 0-4.12 0-8.24-.04-12.35zM624.96 483.3c3.12-2.4 6.93-3.61 10.64-4.79-.2 19.61.49 39.22.61 58.83-3.16.04-6.32.06-9.47.08-.89-1.53-1.76-3.06-2.6-4.6-5.07 4.04-11.76 6.06-18.21 5.14-8.15-.95-15.72-6.25-19.16-13.74-3.74-7.56-3.19-17.05 1.36-24.13 4.81-7.57 13.92-12.09 22.86-11.23 4.91.25 9.48 2.33 13.54 5.01.16-3.51-.5-7.16.43-10.57m-20.56 17.15c-6.52 2.53-10.31 10.41-8.02 17.06 1.92 7.37 10.47 11.95 17.67 9.59 8.32-2.57 12.66-13.5 7.97-20.95-3.32-6.06-11.39-8.41-17.62-5.7zM647.05 478.13c3.91-1.52 8.8 1.75 8.16 6.08-1.54 4.85-9.17 5.8-11.68 1.29-1.81-2.85.5-6.62 3.52-7.37zM430.7 485.11c3.44-1.58 6.93-3.09 10.55-4.23.43 19.54.34 39.1.62 58.65-3.21-.02-6.41 0-9.61-.03-.71-1.42-1.38-2.87-2-4.32-4.78 3.23-10.42 5.42-16.26 5.17-9.53-.13-18.79-6.43-22.07-15.43-2.69-6.65-2.16-14.43 1.1-20.78 3.93-7.31 11.61-12.68 19.99-13.11 6.22-.63 12.21 1.72 17.41 4.93.06-3.62-.03-7.24.27-10.85m-18.61 17.05c-6.41 1.65-11.3 8.14-10.43 14.84.36 9.04 11.13 15.97 19.39 11.96 6.98-2.85 10.94-11.76 7.73-18.73-2.56-6.33-10.14-9.97-16.69-8.07zM511.23 486.66c3.5-1.14 6.98-2.34 10.52-3.37.06 4.08.07 8.16.15 12.24 2.2-.05 4.4-.08 6.61-.1-.01 3.41 0 6.83-.05 10.25-2.09.02-4.17.09-6.24.15.12 6.03-.09 12.09.42 18.12.39 3.18 3.23 5.28 6.26 5.72.18 3.04.24 6.1.05 9.16-4.07.03-8.4-.34-11.73-2.91-4.36-3.17-5.36-8.95-5.62-13.97-.43-11.76-.17-23.53-.37-35.29zM678.45 488.71c11.44-3.79 25.12 1.57 30.57 12.42 4.86 9.33 2.81 21.8-4.95 28.95-8 7.78-21.13 9.01-30.71 3.57-7.9-4.44-12.96-13.63-12.16-22.69.26-10.1 7.48-19.53 17.25-22.25m3.97 9.93c-6.21 1.62-10.84 7.98-10.05 14.43.22 7.47 7.02 14.04 14.59 13.51 9.28-.18 15.83-11 12.25-19.43-2.2-6.76-10.08-10.45-16.79-8.51zM472.54 493.58c9.4-5.6 21.86-4.28 31.04 1.16-1.41 2.66-2.74 5.37-4.13 8.04-4.96-2.61-10.75-4.17-16.35-3.21-2.69.47-6 2.39-5.34 5.61.97 2.74 4.1 3.51 6.61 4.18 5.98 1.47 12.75 1.58 17.72 5.68 4.03 3.37 4.43 9.3 3.03 14.04-1.81 5.66-7.52 9.02-13.11 9.98-8.61 1.49-17.96.32-25.44-4.4l-1.51-1.75c1.37-2.61 3.15-4.97 4.67-7.5 5.32 3.57 11.77 5.87 18.25 5.09 2.6-.36 5.65-1.62 6.33-4.45.56-2.65-1.87-4.53-4.1-5.22-6.75-2.2-14.65-1.82-20.32-6.64-6.33-5.44-4.34-16.6 2.65-20.61zM567.21 490.4c3.69-.04 7.38-.06 11.07-.16.11 9.24.44 18.5.25 27.75-.12 6.41-3.27 12.72-8.5 16.48-9.31 6.91-24.11 4.94-30.94-4.56-2.92-3.96-4.17-8.91-4.19-13.78-.07-8.51-.14-17.02-.22-25.52 3.69-.02 7.37-.06 11.07-.09.04 7.84-.01 15.68.14 23.52.19 3.76.3 8.06 3.24 10.86 3.06 3.23 8.07 3.77 12.11 2.3 4.17-1.95 6.18-6.84 6.2-11.23.03-8.53-.29-17.05-.23-25.57zM351.83 492.8c10.87-3.65 24.07.83 29.58 11.09 2.78 4.95 3.35 10.76 3.17 16.34-12.62.22-25.25.09-37.86.58 1.43 4.31 4.71 8.07 9.11 9.47 5.65 1.72 11.92.07 16.37-3.71 2.89 1.69 5.83 3.3 8.65 5.1-9.9 12.51-31.86 12.42-41.25-.6-4.87-6.91-6.16-16.35-2.9-24.2 2.57-6.66 8.29-12.02 15.13-14.07m-5.36 18.86c8.76-.07 17.52-.27 26.29-.29-1.07-4.72-4.9-8.68-9.74-9.44-7.05-1.59-14.44 2.88-16.55 9.73zM231.94 499.1c10.63-9.56 29.35-7.6 37.39 4.39 3.51 5.21 4.62 11.76 4.27 17.94-12.56.11-25.12.34-37.68.43.86 6.19 7.07 10.49 13.09 10.45 4.49.23 8.78-1.58 12.33-4.2 2.89 1.53 5.75 3.14 8.58 4.8-9.34 11.87-29.27 12.59-39.56 1.63-9.2-9.56-8.81-26.87 1.58-35.44m3.63 13.78c8.77-.02 17.53-.1 26.29-.3-1.16-3.02-2.68-6.17-5.68-7.74-7.44-4.4-18.44-.63-20.61 8.04zM288.54 497.58c10.17-7.88 26.36-6.9 34.82 3.06 4.87 5.42 5.94 12.98 5.83 20-12.68.43-25.37.55-38.06.67 1.71 7.72 10.56 11.73 17.84 9.94 2.99-.6 5.5-2.42 8-4.06 2.81 1.69 5.68 3.29 8.53 4.93-9.32 11.78-29.07 12.66-39.44 1.84-9.92-9.71-8.95-28.24 2.48-36.38m2.71 14.8c8.69-.08 17.37-.23 26.06-.32-1.1-3.88-3.7-7.4-7.54-8.9-7.34-3.23-16.74 1.32-18.52 9.22zM643.7 494.44c3.54-1.13 7.31-.84 10.98-.85.26 14.43.51 28.86.61 43.29-3.71.25-7.43.24-11.14.24-.45-14.22-.33-28.46-.45-42.68zM182.83 498.78c9.26-7.89 23.38-6.36 33.37-.62-1.24 2.75-2.63 5.42-4.08 8.06-4.85-2.77-10.6-4.24-16.18-3.43-2.66.41-6.1 2.07-5.83 5.27.74 3.03 4.11 4.09 6.81 4.67 5.73 1.41 12.13 1.51 17.08 5.09 5.8 4.28 5.77 13.4 1.39 18.68-3.32 3.8-8.36 5.72-13.3 6.13-8.68.79-18.02-.69-24.97-6.28 1.6-2.63 3.27-5.2 4.94-7.78 6.19 4.31 14.4 6.86 21.77 4.26 3.46-1.1 4.19-6.83.43-8.07-6.91-2.76-15.15-2.02-21.27-6.77-6.06-4.48-5.81-14.49-.16-19.21zM597.99 563.99c5.96-5.15 15.92-5.08 21.27.98-1.03 1.13-2.05 2.27-3.07 3.4-3.75-3.61-9.98-4.61-14.23-1.3-6.14 4.51-4.74 15.28 2.05 18.46 4.09 2.08 9.01.58 12.12-2.54 1.13 1.03 2.27 2.07 3.41 3.12-5.55 6.84-17.16 6.85-22.81.16-5.54-6.2-5.1-16.81 1.26-22.28zM624.79 565.77c3.88-6.3 12.68-7.15 18.93-4.11-.64 1.39-1.26 2.8-1.89 4.21-3.61-1.64-8.15-2.04-11.37.65-2.61 1.94-2.96 5.35-3.5 8.31 3.82-3.09 9.41-4.23 13.79-1.61 4.98 2.97 5.75 11.04 1.48 14.95-5.14 5.18-15.37 3.57-18.24-3.29-2.66-6.01-2.26-13.34.8-19.11m6.67 10.76c-3.48 1.19-4.41 6.22-1.63 8.6 3.28 3.5 10.98 1.21 10.08-4.14-.01-4.19-5.03-6.07-8.45-4.46zM297.31 561.55c1.64.02 3.29.04 4.95.07.07 10.75.32 21.49.3 32.23-1.67 0-3.33.01-4.99.02-.13-10.78-.12-21.55-.26-32.32zM477.06 565.29c2.03-2.79 5.64-3.77 8.93-3.92 3.66-.15 7.77.39 10.44 3.16-.59 1.13-1.18 2.26-1.75 3.4-3.57-1.4-7.56-2.91-11.36-1.43-2.1.61-3.48 3.39-1.89 5.22 1.96 2.58 5.58 2.53 8.42 3.49 3.49.75 7.07 3.06 7.71 6.83.94 3.82-1.43 7.85-5 9.3-5.67 2.26-12.04.78-17.25-1.98.16-1.71.69-3.33 1.37-4.89 4.06 2.71 9.46 4.72 14.13 2.34 2.06-.89 2.64-4.03.69-5.35-3.67-2.65-8.67-2.19-12.49-4.59-3.91-2.25-4.61-8.13-1.95-11.58zM529.61 561.41c6.62-.23 13.25-.24 19.87-.19.53 5.27-4.38 8.43-6.98 12.38 3.01.84 6.27 2.28 7.39 5.48 2.14 4.6-.54 10.24-5.2 11.94-5.39 1.78-11.9 1.14-16.22-2.78.75-1.3 1.53-2.59 2.31-3.87 3.73 2.5 8.99 4.04 13.12 1.62 2.21-1.28 2.12-4.69.32-6.28-2-2.04-5.1-1.51-7.67-1.63-1.43-5.22 4.13-8.3 6.53-12.16-4.43-.14-8.86-.13-13.29-.13-.08-1.47-.14-2.93-.18-4.38zM552.14 565.94c3.98-5.6 12.53-6.99 18.2-3.27 4.08 2.94 3.9 9.07 1.18 12.88-3.05 4.15-7.22 7.31-10.57 11.21 4.61-.13 9.24-.17 13.86-.13-.05 1.54-.09 3.08-.13 4.62-7.05-.06-14.11.18-21.16.1.2-1.65-.33-3.64 1.06-4.9 3.95-4.32 8.66-7.95 12.3-12.57 1.9-2.31 2.26-6.8-1.02-8.06-3.64-1.49-7.44.35-9.89 3.08-1.29-.98-2.57-1.97-3.83-2.96zM358.77 562.81c1.63-.01 3.26-.04 4.89-.05.16 10.17.44 20.35.43 30.52l-5.14.06c-.2-10.18-.21-20.35-.18-30.53zM410.46 562.68c4.52-1.17 9.64-.48 13.32 2.52 7.88 5.89 7.84 19.52-.35 25.13-6.82 5.15-17.89 3.16-22.01-4.5-5.17-8.33-.8-20.91 9.04-23.15m.03 4.98c-6.16 2.36-7.75 10.8-4.35 16.03 2.58 4.77 9.37 6.23 13.78 3.16 6.03-3.9 6.17-13.93.48-18.17-2.82-2.13-6.7-2.3-9.91-1.02zM450.2 562.16c6.88-.03 13.75-.09 20.62-.3l.15 4.59c-5.23.12-10.46.16-15.69.2-.01 2.69-.03 5.38-.05 8.07 4.71.01 9.41.01 14.13.02l-.06 4.35c-4.67.05-9.34.08-14.01.18.03 2.81.04 5.61.07 8.43 5.45-.01 10.9-.15 16.36.01-.01 1.47 0 2.94 0 4.42-7.15.11-14.3.18-21.45.16.05-10.04-.13-20.08-.07-30.13zM502.78 561.52c5.91.25 12.09-1.01 17.79 1.04 7.18 2.69 8.19 13.89 1.92 18.08-4.19 2.89-9.56 2-14.35 2.21-.01 2.97-.02 5.94.03 8.92-1.72-.03-3.42-.04-5.13-.07.12-10.06-.24-20.12-.26-30.18m5.28 4.76c.04 3.97.03 7.95.02 11.93 3.47-.02 7.11.49 10.42-.82 4.16-2.01 3.97-9.31-.51-10.81-3.25-.81-6.63-.34-9.93-.3zM260.69 562.18c1.61-.03 3.22-.06 4.84-.08.15 10.75.32 21.5.38 32.25-1.7 0-3.4-.01-5.1-.03.23-.75.69-2.24.92-2.98-3.75 4.19-10.72 4.69-14.88.85-5.75-5.24-4.88-16.33 2.18-20.06 3.79-1.98 8.6-1.26 11.81 1.53-.22-3.83-.17-7.66-.15-11.48m-9.3 14.16c-5.34 3.13-4.17 13.42 2.54 13.97 5.07.65 7.98-5.09 6.86-9.45-.31-4.38-5.77-6.83-9.4-4.52zM327.52 563.16c2.05.01 4.1.05 6.15.12 2.5 3.52 4.46 7.47 7.34 10.72 2.55-3.46 4.46-7.37 7.21-10.68 1.73-.86 3.82-.18 5.69-.39-3.12 5.09-6.77 9.82-9.87 14.92 3.9 5.01 7.19 10.45 11.02 15.51-2.06.04-4.11.08-6.16.09-2.67-3.87-5.06-7.93-7.98-11.61-2.73 3.79-5.09 7.82-7.59 11.76-2.02.05-4.05.09-6.07.11 3.36-5.33 6.83-10.62 10.63-15.65-3.43-4.99-6.93-9.93-10.37-14.9zM367.48 593.21c4.14-10.17 8.39-20.29 12.52-30.47 1.71-.03 3.42-.05 5.13-.06 4.37 10.05 8.65 20.14 13.13 30.14-1.84.06-3.67.1-5.5.16-.92-2.3-1.84-4.59-2.76-6.88-4.89-.03-9.78-.04-14.66.13-.79 2.23-1.57 4.47-2.31 6.72-1.85.12-3.71.19-5.55.26m15.06-25.14c-1.72 4.59-3.45 9.17-5.34 13.69 3.65.03 7.31.02 10.96-.03-1.84-4.57-3.75-9.11-5.62-13.66zM180.16 564.84c1.36-.04 2.73-.07 4.1-.11 4.04 6.63 7.79 13.42 11.67 20.13 3.89-6.71 7.22-13.73 11.18-20.41 1.4.03 2.8.07 4.2.11.01 10.11.14 20.22.3 30.33-1.64.03-3.28.05-4.92.1-.15-6.73-.12-13.45-.26-20.17-3.44 5.53-6.22 11.44-9.44 17.08-.6-.09-1.78-.26-2.37-.35-3.24-5.49-6.42-11.02-9.77-16.44.43 6.69.28 13.4.39 20.1-1.64 0-3.27.02-4.91.04-.14-10.14-.09-20.27-.17-30.41zM225.47 571.6c3.84-.87 8.21.01 11.05 2.86 5.16 5.18 4.33 15.2-2.06 19.05-5.26 2.94-13.08 1.66-16.08-3.9-4.12-6.47-.78-16.51 7.09-18.01m-.11 4.82c-5.54 2.89-4.57 12.87 1.75 14.1 4.44 1.15 8.13-3.31 7.82-7.49.62-4.88-5.22-9.12-9.57-6.61zM275.55 572.54c4.66-3 11.88-2.28 15.02 2.59 1.89 2.61 2.07 5.92 2.27 9.02-5.92.06-11.84-.01-17.75.27 1.16 2.12 2.42 4.53 4.94 5.25 3.14 1.44 6.38-.43 8.95-2.15.86 1.14 1.72 2.3 2.56 3.47-4.61 4.26-12.37 4.74-17.12.48-5.63-4.78-5.11-14.91 1.13-18.93m-.22 8.39c4.29-.09 8.59-.13 12.88-.41-.8-2.81-3.02-5.67-6.25-5.39-3.45-.35-6.22 2.51-6.63 5.8zM308.45 571.36c1.4-1.63 4.58-1.34 5.39.77 1.33 2.13-.19 5.54-2.88 5.37-2.94.18-4.56-4.12-2.51-6.14zM578.19 576.85c3.7-.03 7.41-.05 11.12-.06-.01 1.52-.01 3.05-.01 4.58-3.72.03-7.45.05-11.17-.07.01-1.49.02-2.97.06-4.45zM433.45 578.27c3.74-.03 7.47-.01 11.21-.03v4.49c-3.78.05-7.55.07-11.32.05.02-1.51.06-3.02.11-4.51zM309.32 587.39c3.9-2.57 7.14 4.49 3.29 6.37-3.83 2.3-6.94-4.51-3.29-6.37zM699.32 617.53c.93-5.67 5.8-10.57 11.59-11.09 3.23-.48 6.43.38 9.43 1.5-.63 1.43-1.24 2.87-1.86 4.31-3.62-1.52-8.33-2.01-11.42.85-2.39 2.06-2.83 5.31-3.42 8.22 3.41-2.88 8.27-4.1 12.47-2.26 6.19 2.2 7.57 11.54 2.69 15.73-4.95 4.47-13.9 3.58-17.45-2.21-2.83-4.43-2.95-10.03-2.03-15.05m8.82 5.67c-2.54.89-4.07 4.15-2.88 6.61 1.39 3.79 6.76 4.65 9.69 2.16 2-1.87 2.25-5.35.46-7.42-1.82-1.94-4.88-2.31-7.27-1.35zM644.43 611.98c4.04-4.82 11.39-6.78 17-3.61 4.58 2.61 5.32 9.28 2.31 13.36-3.02 4.2-7.21 7.36-10.67 11.17 4.49.07 8.98.02 13.47-.08-.01 1.57-.01 3.15.01 4.73-6.93-.04-13.87.09-20.8.1-.04-1.29-.07-2.57-.1-3.83 4.1-3.95 8.06-8.03 12.06-12.07 2.23-2.23 3.95-6.38 1.29-8.93-3.37-2.49-8.21-.69-10.68 2.29-1.31-1.03-2.6-2.09-3.89-3.13zM674.97 610.03c6-4.93 15.82-4.51 20.96 1.51-.99 1.12-1.93 2.26-2.9 3.4-3.77-3.75-10.14-4.87-14.45-1.39-5.69 4.3-5.31 14.22.84 17.94 4.36 2.8 10.31 1.5 13.75-2.17 1.02 1.18 2.04 2.38 3.05 3.59-5.81 6.55-17.29 6.63-22.95-.13-5.73-6.34-4.97-17.35 1.7-22.75zM517.51 608.72c6.65-1.75 14.42 1.11 17.55 7.41 3.33 6.5 2.05 15.48-3.89 20.06-6.75 5.55-18.03 3.67-22.68-3.71-5.58-8.3-1.17-21.7 9.02-23.76m.93 4.78c-5.93 1.71-8.57 8.99-6.28 14.46 1.7 5.11 7.71 8.07 12.77 6.1 7.58-2.29 8.96-13.34 3.62-18.5-2.68-2.47-6.69-2.97-10.11-2.06zM542.19 608.38c6.86.03 13.72-.08 20.58-.06-.02 1.46-.04 2.94-.05 4.42-5.11.02-10.22.06-15.32.07-.09 2.67-.1 5.34-.09 8.02 4.66.01 9.33.04 14 .02.01 1.5.03 3.01.04 4.52-4.68.09-9.35.09-14.02.13.03 2.88.03 5.77.09 8.66 5.44-.06 10.89-.16 16.34-.02-.05 1.45-.11 2.91-.17 4.38-7.04.18-14.09.11-21.13.17-.15-10.11-.16-20.21-.27-30.31zM571.49 609.47c5.26-2.9 12.23-2.41 17.11 1.07-.6 1.29-1.19 2.59-1.77 3.9-3.43-1.83-7.54-3.02-11.35-1.73-2.1.79-3.67 3.8-1.84 5.64 4.12 3.14 10.23 2.15 14.04 5.88 4.03 3.92 2.2 11.52-3.05 13.4-5.59 2.01-12.74 1.54-17.31-2.56.37-1.41.89-2.75 1.56-4.04 3.36 1.97 7.16 3.76 11.17 3.16 2.18-.28 4.89-1.58 4.75-4.16-.04-1.81-1.71-2.88-3.21-3.44-3.49-1.28-7.34-1.68-10.58-3.59-4.71-2.95-4.3-10.85.48-13.53zM594.75 607.84c5.81.25 11.86-1 17.48.87 6.9 2.52 8.51 12.85 2.94 17.5-4.21 3.66-10.18 2.8-15.31 3.07.03 2.96.04 5.93-.03 8.91-1.55-.01-3.09 0-4.63.02-.67-10.11-.24-20.25-.45-30.37m4.99 4.64c.02 4 .05 8 .05 12 3.37-.13 6.9.5 10.15-.53 4.58-1.96 4.38-9.84-.53-11.23-3.19-.58-6.46-.23-9.67-.24zM621.58 607.55c6.57 0 13.13-.12 19.71-.08.29 5.18-4.08 8.5-6.7 12.41 2.19.82 4.68 1.51 6.1 3.55 3.16 4.18 2.08 11.04-2.84 13.39-5.45 2.64-12.97 1.94-17.34-2.45.75-1.33 1.51-2.65 2.28-3.96 3.19 2.92 8.02 3.97 12.09 2.47 2.43-1.01 3.51-4.4 1.76-6.48-1.93-2.68-5.59-1.92-8.41-2.15-.43-5.24 4.06-8.44 7.1-11.97-4.61-.16-9.22-.06-13.83 0 .01-1.58.04-3.16.08-4.73zM434.44 609.53c1.89-.03 3.78-.05 5.68-.08 2.51 3.65 5.09 7.27 7.76 10.81 2.34-3.68 4.69-7.36 7.12-10.98 1.85-.03 3.72-.06 5.58-.07-3.25 5-6.62 9.93-10.02 14.84 3.84 5.12 7.27 10.53 11.16 15.62-2.48-.53-6.18 1.01-7.5-1.94-2.2-3.21-4.39-6.42-6.54-9.66-2.67 3.84-5.33 7.69-7.84 11.65-1.94.02-3.87 0-5.8.01 3.27-5.34 7.06-10.34 10.45-15.6-3.45-4.79-6.75-9.69-10.05-14.6zM473.68 639.43c4.48-10.12 8.25-20.56 12.97-30.58 1.59 0 3.19 0 4.8-.01 4.61 10.06 9.26 20.11 13.46 30.35-1.76.02-3.52.06-5.28.1-1.07-2.33-2.02-4.7-3-7.05-4.83.04-9.66.09-14.49.09a99.258 99.258 0 0 0-2.89 7.28l-5.57-.18m9.84-11.6c3.74.08 7.49.08 11.24.03-1.97-4.51-3.79-9.08-5.85-13.53-1.8 4.49-3.49 9.04-5.39 13.5zM341.37 610.46c7.87-.03 15.75-.42 23.61.03-.3 1.71-.24 3.61-1.47 5.01-5.09 6.88-10.45 13.56-15.51 20.46 5.76-.14 11.52-.05 17.29-.19v4.84c-8.04-.02-16.07.24-24.11.14.28-1.77-.06-3.81 1.17-5.28 5.08-6.96 10.48-13.69 15.63-20.61-5.51.34-11.02.19-16.52.3-.04-1.57-.07-3.14-.09-4.7zM367.34 629.99c4.66-6.81 9.24-13.67 14.17-20.29 1.7.06 3.41.11 5.11.16-4.28 6.46-8.78 12.76-13.3 19.06 3.31-.06 6.62-.06 9.93-.04-.01-2.19-.01-4.38-.01-6.56 1.54.04 3.09.08 4.64.11-.01 2.07.01 4.14 0 6.23 1.72.03 3.45.06 5.18.08l.12 4.67c-1.69-.01-3.38 0-5.07.01-.01 2.31-.07 4.63-.21 6.96-1.57-.03-3.14-.04-4.7-.05.02-2.25.06-4.5.1-6.74-5.33.01-10.66.09-15.99.05 0-1.22.01-2.44.03-3.65zM393.6 609.86c8.02-.03 16.05-.09 24.07-.17-.02 1.57-.03 3.14-.04 4.72-3.16.01-6.32.02-9.47.06.04 8.55.15 17.09.15 25.64-1.68 0-3.36 0-5.03.01.01-8.51-.21-17.02-.12-25.53-3.22-.03-6.43-.04-9.64-.05.02-1.57.05-3.13.08-4.68zM464.82 609.25c1.75-.01 3.5-.01 5.25.02-.02 10.11.17 20.21.23 30.32-1.71-.01-3.41-.01-5.11 0-.07-10.12.02-20.23-.37-30.34zM243.28 612.2c5.82-2.29 12.57-.56 16.97 3.76-1.12 1.1-2.16 2.29-3.26 3.42-3.87-4.11-11.07-4.69-15.11-.55-5.39 5.22-3.3 16.12 4.14 18.28 4.09 1.38 8.35-.49 11.22-3.43 1.11 1.11 2.23 2.23 3.36 3.35-2.99 3.2-7.07 5.45-11.55 5.29-7.9.28-15.32-6.4-15.52-14.36-.67-6.65 3.27-13.65 9.75-15.76zM276.41 611.32c1.68-.02 3.36-.03 5.04-.04.26 10.07.18 20.14.34 30.21-1.71-.01-3.41 0-5.1.01-.02-10.06-.23-20.12-.28-30.18zM180.4 612.42c6.81-.1 13.62-.21 20.42-.28.02 1.52.03 3.05.05 4.58-5.15.08-10.29.07-15.43.1.01 3.13.05 6.26.09 9.39 4.67 0 9.34-.05 14.02-.05.05 1.5.1 3.01.14 4.53-4.69.05-9.38.09-14.07.19.03 3.9.09 7.79.12 11.7-1.71-.01-3.41-.01-5.12-.02-.02-10.05-.17-20.09-.22-30.14zM210.97 613.99c6.16-4.08 14.52-2.75 19.84 2.1-1.11 1.19-2.22 2.4-3.32 3.61-3.41-3.61-9.29-4.68-13.51-1.87-6.96 4.25-5.95 16.63 1.81 19.41 4.3 1.61 9.03-.03 12.17-3.18 1.02 1.22 2.05 2.45 3.09 3.68-5.52 5.96-15.8 6.66-21.83 1.08-7.3-6.35-6.8-19.78 1.75-24.83zM288.84 611.26c6.88.4 14.4-1.56 20.73 1.97 8.72 4.85 9.45 18.89 1.51 24.82-6.21 4.94-14.66 2.72-21.94 3.27.13-10.02-.32-20.04-.3-30.06m5.28 4.49c-.25 6.95.2 13.9.07 20.85 4.46-.16 9.57.87 13.38-2.08 5.85-4.18 5.1-14.48-1.27-17.77-3.82-1.73-8.14-.8-12.18-1zM321.17 618.01c4.05-2.68 7.46 4.35 3.43 6.36-3.73 1.82-6.78-4.11-3.43-6.36zM420.4 625.77c3.74-.01 7.49-.05 11.24-.04.03 1.51.08 3.03.13 4.55-3.8.05-7.6.11-11.4.08 0-1.54.01-3.07.03-4.59zM321.48 634.59c3.98-2.45 7.13 4.29 3.37 6.34-3.81 2.37-6.9-4.3-3.37-6.34zM276.33 670.19c11.86-5.93 25.82-7.3 38.7-4.26 20.82 5 37.91 22.55 42.7 43.38-20.39 5.41-40.67 11.34-61.21 16.19-.15-5.53-.08-11.06-.2-16.58-14.64 4.03-29.47 7.37-44.07 11.57-1.47 15.38 5.2 31.15 16.68 41.39 9.41 8.61 22.26 13.11 34.99 12.39 19.46-.86 37.1-14.62 43.98-32.64 2.99.59 6 1.15 8.97 1.88-5.36 14.86-16.52 27.81-30.98 34.39-12 5.79-26.05 7.05-38.94 3.84-17.57-4.43-32.51-17.61-39.4-34.32-5.37-12.35-6.15-26.57-2.48-39.51 4.44-16.22 15.96-30.55 31.26-37.72m2.09 9.22c-12.1 6.26-20.67 18-24.61 30.88 17.25-4.16 34.37-8.8 51.52-13.35.08 5.66-.01 11.32.12 16.99 13.57-3.66 27.12-7.41 40.74-10.9-5.64-11.89-15.46-22.16-28.1-26.44-12.79-5.1-27.68-3.83-39.67 2.82zM374.31 708.48c.39-.16 1.15-.48 1.54-.64 11.04-.43 22.11-.2 33.17-.41 2.63-.45 5.34 1.73 5.13 4.48.15 10.67.27 21.35.23 32.03.32 2.41-1.94 4.65-4.34 4.35-11.02.05-22.05.22-33.07.22-2.41.16-4.28-2.21-4.17-4.48-.16-9.69-.06-19.39-.34-29.08.01-2.24-.4-5.12 1.85-6.47m1.34 2.69c-.17 10.28.13 20.57.16 30.86-.05 1.49 0 3.78 2.19 3.26 10.72-.04 21.45.01 32.17-.18 1.72-.49.83-2.82 1.11-4.09-.21-10.09-.34-20.18-.61-30.27-11.67.01-23.36-.05-35.02.42zM585.43 711.68c3.82-1.21 8.3-.27 11.05 2.72 3.75 3.83 4.46 9.53 4.23 14.64-.21 4.47-1.95 9.25-5.82 11.8-3.84 2.65-9.48 2.46-12.96-.7-4.98-4.08-5.7-11.22-4.83-17.18.56-4.84 3.36-9.9 8.33-11.28m1 4.83c-3.77 1.96-4.66 6.63-4.57 10.5.1 3.66.71 7.95 4.02 10.16 3.02 1.95 7.33.33 8.54-3.01 1.64-4.37 1.66-9.39.15-13.8-1.05-3.22-4.93-5.74-8.14-3.85zM612.1 712.13c4.31-2.01 9.31-1.33 13.54.55-.58 1.34-1.15 2.7-1.69 4.07-3.45-1.39-7.79-2.24-10.95.25-2.85 2.03-3.42 5.67-3.96 8.88 3.38-2.51 7.8-3.99 11.9-2.32 6.45 1.96 8.01 11.23 3.49 15.82-4.81 4.83-14.14 3.91-17.72-1.97-2.7-4.3-2.97-9.67-2.23-14.57.61-4.5 3.29-8.94 7.62-10.71m.27 16.35c-3.22 2.18-2.59 7.57 1 9.02 3.43 1.98 8.55-.29 8.58-4.47.67-4.92-6.15-7.41-9.58-4.55zM632.44 716.42c3.72-6.3 12.37-7 18.54-4.23-.56 1.46-1.15 2.9-1.75 4.35-3.28-1.4-7.38-2.03-10.44.2-2.87 2.14-3.47 5.89-4.37 9.11 3.99-3.6 10.41-4.41 14.79-1.05 4.63 3.56 4.52 11.65-.17 15.12-5.33 4.06-14.34 2.68-17.29-3.66-2.8-6.19-2.53-13.86.69-19.84m6.95 11.08c-4.06 1.1-4.73 7.22-1.24 9.4 3.67 2.71 10.21.15 9.41-4.91 0-4.12-4.85-5.66-8.17-4.49zM473.36 717.71c3.62-5.47 11.47-6.92 17.13-3.99 4.51 2.53 5.24 9.04 2.43 13.11-3.04 4.5-7.41 7.85-11 11.88 4.61 0 9.22-.05 13.83-.04-.01 1.51-.01 3.02-.01 4.55-7.11.04-14.21.21-21.32.18.19-1.65-.23-3.58 1.21-4.78 3.67-4.33 8.01-8.01 11.81-12.21 2.17-2.2 3.04-6.26.34-8.39-3.61-2.52-8.26-.41-10.83 2.6-1.19-.99-2.39-1.96-3.59-2.91zM499.51 712.52c5.08-.09 10.17-.13 15.26-.12-.22 8.52 1.28 17.17-.35 25.6-2.35 7.16-13.05 7.23-17.1 1.63-.53-1.83 1.53-2.85 2.4-4.15 1.74 1.64 3.6 3.82 6.3 3.41 3-.01 4.1-3.36 4.03-5.85-.06-5.39-.26-10.77-.25-16.14-3.36.2-6.72.23-10.08.23-.08-1.54-.16-3.09-.21-4.61zM526 714.85c5.98-4.8 15.99-4.23 20.85 1.93-1.07 1.06-2.13 2.14-3.18 3.23-3.23-3.11-8.18-4.88-12.38-2.58-7.71 3.62-7.6 16.45.02 20.09 4.2 2.14 9.4.72 12.31-2.87 1.18 1.14 2.35 2.29 3.57 3.42-5.03 5.84-14.42 6.88-20.62 2.34-8.17-5.73-8.51-19.48-.57-25.56zM551.72 711.87c6.95-.06 13.91-.1 20.87-.1l-.03 4.55c-5.23.03-10.45.08-15.67.09.13 2.77.2 5.55.25 8.34 4.57-.03 9.15-.02 13.73.05l-.06 4.4c-4.55.02-9.1.06-13.65.16-.02 2.83-.02 5.66 0 8.51 5.37-.05 10.75-.04 16.14-.08-.01 1.53-.02 3.06-.02 4.61-7.05.11-14.1.07-21.15.25-.15-10.26-.33-20.52-.41-30.78zM422.16 718.13c3.89-5.55 12.41-7.27 17.98-3.31 4.24 3.05 4.13 9.52 1.05 13.36-3.11 3.97-6.96 7.28-10.38 10.98 4.53.06 9.06.02 13.6 0-.03 1.49-.04 2.98-.06 4.48-6.95.12-13.9.3-20.85.15.04-1.31.09-2.61.16-3.9 3.25-3.49 6.61-6.88 10.1-10.14 2.09-2.15 4.64-4.53 4.61-7.76.11-2.84-2.8-4.79-5.42-4.56-2.86-.19-5.09 1.76-6.94 3.67-1.3-.98-2.58-1.98-3.85-2.97zM454.37 713.71c5.3-2.87 12.34-.37 14.88 5.03 3.26 6.75 3.12 15.75-1.84 21.67-3.71 4.51-11.32 4.78-15.4.65-4.25-4.1-5.21-10.53-4.49-16.15.75-4.36 2.6-9.17 6.85-11.2m1.89 4.54c-2.98 1.8-3.69 5.61-3.81 8.83-.11 3.88.26 8.45 3.53 11.08 2.79 2.41 7.46.89 8.85-2.37 2.13-4.82 2.1-10.75-.38-15.43-1.46-2.93-5.5-4-8.19-2.11z"/><path d="M382.8 713.83c5.39.07 10.88-.66 16.19.48 4.71 1.04 7.66 6.07 6.89 10.73.06 3.55-2.75 6.04-5.42 7.88 2.03 3.21 4.2 6.32 6.27 9.51-6.01 1.76-8.23-4.39-10.97-8.23-2.61-.69-5.4-.18-8.07-.27-.03 2.9.01 5.81.02 8.73-1.64 0-3.27-.02-4.89-.05.11-9.59-.12-19.19-.02-28.78m4.87 4.05c-.04 3.89-.02 7.78-.01 11.68 3.62-.14 7.55.64 10.88-1.19 4.09-2.03 2.73-9.03-1.49-10.04-3.09-.63-6.26-.41-9.38-.45zM269.69 727.8c20.91-.03 41.81-.47 62.72-.53-.08 3.58.1 7.17-.16 10.75-20.85.22-41.71.52-62.56.7-.01-3.65 0-7.28 0-10.92zM269.77 743.59c20.93-.15 41.85-.43 62.78-.51.03 3.52.01 7.03.08 10.55-8.42-.05-16.85.12-25.27.18.03 5.34.06 10.68.13 16.03-4.18-.07-8.37.22-12.54-.02-.37-5.33-.06-10.67-.3-16-8.28.48-16.57.26-24.86.39.02-3.55.01-7.08-.02-10.62zM595.22 816.17c10.99-10.8 26.77-15.77 42-14.94.07 5.3.08 10.6.08 15.9-9-.91-18.41.98-25.91 6.16-8.79 5.58-14.85 14.99-16.74 25.19 10.39-.13 20.77-.26 31.15-.34.07 5.16.11 10.31.07 15.47-10.4.12-20.81.14-31.2.28 1.95 11.89 10.53 21.91 21.1 27.26 6.9 3.45 14.78 3.94 22.36 3.63.04 5.22.1 10.44.09 15.67-12.47 1.09-25.38-1.67-35.82-8.71-14.42-9.6-24.25-26.29-24.24-43.77-.86-15.57 5.69-31.2 17.06-41.8zM303.52 815.61c12.02-11.22 29.36-15.86 45.5-13.48 14.92 2.05 28.41 11.01 37.04 23.22-3.37 2.39-6.93 4.55-10.05 7.28-7.32-10.44-19.26-17.64-32-18.79-10.44-.83-21.13 2.26-29.49 8.58-11.87 8.81-18.71 23.8-17.91 38.53.48 10.03 4.65 19.72 11.16 27.32 10.56 12.45 28.61 18.03 44.29 13.21 10.11-2.8 18.29-9.96 24.46-18.21 3.11 2.47 6.39 4.75 9.74 6.92-6.58 11.07-17.76 18.8-29.76 23.04-16.48 5.37-35.33 1.84-49.03-8.69-12.73-9.14-20.87-23.97-22.68-39.45-7.32.04-14.64 0-21.96.04.09 12.62.42 25.25.39 37.88.44 1.51-.97 2.4-1.89 3.27-3.41 2.82-6.53 5.97-10.13 8.56-.15-36.98-.99-73.96-.95-110.94 16.01-.03 32.02-.17 48.03-.22-3.15 3.77-5.98 7.78-8.68 11.88-9.07.04-18.14.21-27.22.21-.09 12.47.23 24.94.15 37.41 7.39.08 14.78-.37 22.18-.28 1.53-14.13 8.1-27.83 18.81-37.29zM524.89 811.81c10.41-7.21 23.31-10.21 35.87-9.48.04 5.19.07 10.39 0 15.58-9.39-.59-19.13 1.35-26.91 6.85-9.6 6.56-15.92 17.67-16.4 29.33-1.18 13.06 4.99 26.29 15.52 34.03 7.98 6.39 18.57 8.03 28.52 7.51.01 5.23.04 10.47.07 15.7-6.59.03-13.28.17-19.69-1.61-17.26-4.36-31.67-18.02-37.49-34.77-4.35-12.24-3.88-25.97.69-38.07 3.82-10.15 11.02-18.84 19.82-25.07z"/><path d="M309.37 848.97c3.28-11.73 13.65-21.32 25.72-23.26 12.05-2.14 24.54 3.68 31.67 13.42-3.4 2.33-6.8 4.66-10.03 7.23-2.65-3.2-5.78-6.18-9.79-7.54-6.75-2.58-14.94-1.11-20.18 3.92-7.46 7.16-8.87 19.81-2.83 28.28 4.47 6.74 13.35 10.1 21.14 7.88 4.87-1.19 8.77-4.64 11.75-8.53 3.31 2.24 6.69 4.37 10.06 6.54-8.69 14.44-29.67 19.24-43.7 9.87-12.43-7.66-17.98-23.98-13.81-37.81z"/></g><g fill="#c4a14c"><path d="M668.32 145.5c9.79 4.24 16.05 14.61 16.13 25.16.1 9.13.21 18.26.17 27.39.04 10.44-6.28 20.6-15.85 24.89-.81-25.8-.09-51.63-.45-77.44zM211.94 173c.23-9.02 4.73-17.85 12.38-22.77.85 2.16 1.44 4.43 1.34 6.77-.1 14.67-.02 29.34-.08 44.01-.04 3.33.29 6.66.52 9.98.33 4.42-.67 8.81-.5 13.24-8.04-4.78-13.58-13.74-13.58-23.18-.17-9.35-.24-18.71-.08-28.05zM825.5 235.67c5.78-.99 11.67-.79 17.51-.84 15.6 0 31.2-.23 46.8-.2-.24 6.8.88 13.61-.15 20.38-7.91 1.15-14.74 8.02-15.42 16.06-.34 4.51-.34 9.37 2.09 13.37 2.75 5.03 8.09 8 13.5 9.36.78 6.67.36 13.41.35 20.12-18.38.43-36.77.07-55.15.33-7.88.19-15.88-1.57-22.63-5.72-8.48-4.92-14.47-13.45-17.29-22.75-3.68-12.09-1.12-26 7-35.76 5.94-7.15 14.22-12.53 23.39-14.35m5.18 17.45c-9.26 1.55-16.99 9.63-18.09 18.96-.78 7.03 1.87 14.43 7.29 19.06 6.59 6.12 17.2 7.33 24.94 2.72 5.7-3 9.71-8.71 10.98-14.98 2.14-9.16-2.78-19.32-11.11-23.57-4.28-2.13-9.28-3.17-14.01-2.19zM19.18 237.44c19.27-.12 38.54-.16 57.81-.25 19.93-.26 38.42 16.86 39.39 36.82 1.03 11.82-4.05 23.64-12.52 31.77-7.48 6.97-17.62 10.96-27.86 10.82-18.91.12-37.83.25-56.75.14-.05-6.69-.02-13.38.04-20.07 5.58-1.33 11-4.4 13.87-9.53 3.82-6.74 3.45-15.83-1.36-22-3.03-4.05-7.65-6.64-12.55-7.7-.12-6.66.01-13.33-.07-20m51.25 18.12c-9.31 2.05-17.07 10.68-16.92 20.42-.68 10.11 6.75 19.83 16.48 22.31 5.65 1.22 11.85.62 16.78-2.55 8.16-4.77 12.38-15.21 9.79-24.3-2.67-11.08-14.91-19.13-26.13-15.88zM670.49 322.44c3.82 2.42 7.42 5.33 9.95 9.15 5.14 7.03 4.68 16.14 4.62 24.4-.24 7.51.64 15.06-.29 22.53-1.61 10.99-10.46 20.27-21.17 22.89-6.76 1.62-14.06.36-20.07-3.03-6.51-3.91-11.31-10.51-13.11-17.87 2.46-.61 4.97-1.19 7.54-1.11 10.5.16 21.01.05 31.52.06.17-15.81.14-31.63.01-47.44-.04-3.22.43-6.42 1-9.58zM214.19 340.3c2.07-6.15 6.8-10.97 12.27-14.25.11 11.65.14 23.31.07 34.97-.12 6.9 1.25 13.73.94 20.64 5.84.72 11.74.32 17.6.72 5.67.39 11.28-.74 16.94-.81 2.12-.18 3.93 1.02 5.74 1.93-2.29 8.8-8.7 16.77-17.42 19.81-8.08 2.89-17.68 2.06-24.74-2.99-7-4.86-12-12.76-12.65-21.33-.48-6.66-.12-13.34-.29-20.01.06-6.23-.63-12.71 1.54-18.68zM804.36 369.44c7.45-8.24 18.57-12.78 29.62-12.74 18.82-.08 37.65-.22 56.47-.42.07 6.83.21 13.67-.09 20.5-5.68 1.15-11 4.64-13.74 9.82-4.47 7.99-2.35 19.05 4.92 24.68 2.57 2.23 5.82 3.37 9.05 4.29-.04 6.69-.03 13.38.04 20.07-19.56.06-39.11.18-58.67.19-18.05-.12-34.4-14.56-37.42-32.26-2.42-12.08 1.39-25.16 9.82-34.13m27.12 5.2c-6.31 1.06-12.14 4.86-15.4 10.4-3.08 4.69-3.36 10.58-2.59 15.98 1.21 5.63 4.85 10.57 9.52 13.87 5.73 3.8 13.36 4.68 19.76 2.08 8.37-3.17 14.26-11.95 13.85-20.91.12-6.21-2.94-12.11-7.42-16.26-4.6-4.51-11.47-6.05-17.72-5.16zM19.47 359.15c19.83-.13 39.66-.42 59.5-.34 16.79.3 31.96 12.99 36.35 29.02 4.26 14.31-.92 30.68-12.14 40.41-6.11 5.25-13.81 8.88-21.88 9.59-20.62.07-41.24.06-61.86 0 .08-6.4.12-12.8.04-19.19 10.13-1.91 18.2-12.04 16.54-22.43-1.02-8.54-8.22-15.42-16.56-16.9.02-6.72-.1-13.44.01-20.16m50.73 18.12c-8.93 2.57-16.45 11.12-16.09 20.7-.56 7.6 3.47 15.18 9.92 19.15 6.45 4.25 15.22 4.62 22 .92 7.46-4.04 12.39-12.56 11.56-21.1-.28-13.21-14.8-23.53-27.39-19.67zM823.37 480.54c7.01-2.05 14.39-1.22 21.6-1.4 15.28-.22 30.57-.38 45.86-.31.56 6.71-.35 13.43 0 20.16-7.86 1.49-14.65 7.95-15.84 15.96-2.12 10.46 5.76 21.27 16.21 22.96.17 6.67.14 13.34.14 20.01-14.42.47-28.86.14-43.29.29-9.55-.16-19.56 1.1-28.61-2.73-13.16-5.07-23-17.61-24.81-31.59-.82-7.16.11-14.58 3.05-21.19 4.77-10.66 14.42-19.04 25.69-22.16m8.26 16.42c-10.34 1.69-18.42 11.56-18.25 21.98-.08 8.36 5.38 16.26 12.87 19.74 7.08 3.3 15.84 2.23 22.07-2.44 8.96-6.34 11.28-19.86 5.44-29.02-4.37-7.48-13.61-11.75-22.13-10.26zM20.02 481.63c19-.03 37.99-.21 56.98-.16 9.92-.13 19.89 3.53 27.2 10.27 9.13 8.34 14.21 21 12.71 33.36-1.69 18.87-18.76 34.8-37.67 35.39-19.76-.41-39.52.1-59.28-.18-.15-6.45-.44-12.92.18-19.35 5.2-1.27 10.18-4.02 13.15-8.59 5.38-7.76 3.76-19.18-3.11-25.51-2.83-2.9-6.83-4.02-10.49-5.44.33-6.6-.36-13.21.33-19.79m52.35 17.99c-9.89 1.37-17.71 10.47-17.99 20.38-.64 8.23 4.07 16.48 11.3 20.38 4.54 2.8 10.14 2.84 15.26 2.15 9.02-2.02 16.26-10.33 17.01-19.55.62-8.58-4.07-17.45-11.81-21.36-4.15-2.37-9.13-2.66-13.77-2zM833.68 601.57c19.24-.21 38.48-.25 57.73-.38.13 6.85.26 13.71.03 20.56-5.48 1.01-10.5 4.27-13.33 9.1-5.01 7.87-3.04 19.04 3.89 25.13 2.64 2.51 6.2 3.6 9.62 4.61.11 6.67.06 13.35.09 20.03-18.91.22-37.83.15-56.75.26-8.6.17-17.27-2.46-24.16-7.64-11.48-8.37-17.67-23.22-15.77-37.27 2.39-18.72 19.68-34.34 38.65-34.4m-2.23 18.16c-11.84 2.07-20.17 15.34-16.93 26.9 1.7 5.75 5.37 11.15 10.74 14.04 6.52 3.54 14.75 3.36 21.21-.23 6.71-3.56 10.61-11.09 10.98-18.51.34-7.59-3.78-14.98-9.94-19.26-4.69-3.11-10.59-3.87-16.06-2.94zM20.3 604.32c17.89-.26 35.79-.12 53.69-.23 4.62-.02 9.32-.14 13.82 1.11 14.01 3.7 25.34 15.67 28.73 29.7 4.21 17.38-5.25 36.85-21.45 44.33-5.42 2.14-11.2 3.55-17.05 3.67-19.24-.05-38.47-.01-57.71-.03-.01-6.44.06-12.87.07-19.3 5.24-1.41 10.37-4.15 13.23-8.94 5.13-7.87 3.7-19.49-3.62-25.54-2.72-2.43-6.2-3.66-9.63-4.69-.05-6.7.01-13.39-.08-20.08m53.31 17.53c-8.15 1.14-15.52 6.94-18.01 14.86-2.43 7.41-.67 16.16 4.77 21.82 5.6 6.02 14.71 8.68 22.59 6.15 7.15-2.3 12.83-8.45 14.74-15.7 1.74-6.2.18-13.03-3.46-18.25-4.46-6.54-12.87-9.91-20.63-8.88zM827.43 724.64c4.82-.72 9.71-.66 14.57-.75 16.62-.03 33.23-.17 49.84-.18.06 6.81.26 13.65-.11 20.46-7.15 1.56-13.56 7.03-15.26 14.3-2.66 9.2 2.65 20.08 11.76 23.29 1.48.82 4.41.78 3.98 3.24.13 5.96-.03 11.93.07 17.91-18.09.45-36.19.15-54.29.41-9.4.48-19.06-1.91-26.61-7.67-14.3-10.13-20.1-30.44-13.46-46.63 5.09-12.24 16.41-21.91 29.51-24.38m5.09 17.28c-6.75 1.19-12.64 5.72-15.82 11.74-4.88 8.62-2.41 20.25 4.9 26.73 6.78 6.01 17.56 7.3 25.36 2.5 6.84-4.02 11.47-11.84 10.91-19.87.31-12.84-12.81-23.6-25.35-21.1zM20.51 726.61h.11c19.8.05 39.61-.26 59.41-.22 17.39.11 33.33 13.68 36.93 30.57 3.22 13.89-1.83 29.18-12.43 38.65-7.38 6.87-17.52 10.43-27.57 10.19-18.73-.03-37.47.33-56.2.13-.16-6.62-.23-13.25-.09-19.87 7.25-1.45 13.62-6.88 15.67-14.05 1.09-5.39.81-11.38-2.31-16.08-2.85-4.82-8.08-7.7-13.45-8.76-.15-6.85.06-13.71-.07-20.56m48.79 18.82c-6.66 2.66-12.1 8.55-13.75 15.58-.81 5.15-.64 10.73 1.95 15.39 2.93 5.7 8.45 9.97 14.72 11.32 8.9 2.21 18.81-2.23 23.38-10.11 3.3-5.36 3.74-12.12 2.16-18.11-2.43-7.51-8.96-13.88-16.9-15.11-3.85-.51-7.91-.45-11.56 1.04zM847.07 846.61c15.11-.04 30.22-.12 45.33-.28h.12c-.22 6.69-.06 13.38-.05 20.07-4.07 1.13-8.01 3-10.88 6.19-7.23 7.24-6.83 20.27.45 27.34 2.83 2.95 6.7 4.52 10.57 5.6.09 6.71-.02 13.43.15 20.14-18.93.03-37.86.14-56.79.24-13.37.37-26.73-6.64-33.89-17.96-6.1-9.33-8.22-21.29-5.08-32.05 3.54-13.09 14.32-23.83 27.31-27.59 7.36-2.32 15.17-1.5 22.76-1.7m-17.72 18.85c-9.65 3.44-16.11 13.89-14.49 24.08 1.31 8.42 7.82 16.04 16.23 17.96 5.2.76 10.87.79 15.61-1.82 6.52-3.39 11.01-10.3 11.56-17.62.68-8.42-4.01-16.93-11.34-21.04-5.25-3.08-11.86-3.55-17.57-1.56zM21.14 849.49c19.63-.21 39.26-.28 58.89-.33 17.45-.06 33.33 13.51 37.19 30.32 2.89 11.26.15 23.66-6.91 32.85-7.4 10.05-19.69 16.29-32.2 16.06-18.9-.32-37.81.14-56.72-.2-.18-6.45-.12-12.89-.14-19.34 5.39-1.73 10.73-4.71 13.54-9.83 4.34-7.24 3.25-17.15-2.55-23.27-2.8-3.31-6.94-4.89-11.01-5.96.23-6.78-.63-13.55-.09-20.3m48.12 19.01c-7.91 3.07-13.58 11.02-13.76 19.53-.74 12.02 10.34 23.65 22.5 22.75 10.4-.14 19.98-8.81 20.98-19.2 1.72-10.58-5.71-21.58-16.1-24.04-4.51-.72-9.31-.73-13.62.96zM846.01 968.58c15.6-.03 31.21-.29 46.81-.23.2 6.81 1.07 13.78-.15 20.51-4.86 1.44-9.76 3.72-12.52 8.2-5.03 7.26-4.36 17.66 1.53 24.24 2.86 3.61 7.31 5.29 11.62 6.47.01 6.54.11 13.09.03 19.64-20.88.27-41.76.11-62.64.27-12.06-1.12-23.16-8.67-29.19-19.1-5.52-9.28-6.72-20.82-3.88-31.17 3.81-13.29 15.03-24.12 28.42-27.51 6.53-1.6 13.3-1.25 19.97-1.32m-13.41 18.23c-10.09 1.96-18.06 11.94-17.41 22.24-.09 9.14 6.5 17.7 15.13 20.46 7.09 2.29 15.24.46 20.9-4.32 9.48-7.92 9.95-23.97 1.05-32.5-5.12-4.96-12.65-7.35-19.67-5.88zM21.52 971.29c20.2.01 40.4-.29 60.59-.06 19.5.81 35.96 18.44 36.51 37.75.82 16.44-9.59 32.73-24.88 38.82-5.6 2.35-11.73 2.9-17.75 2.85-18.13-.02-36.26.1-54.39.11-.15-6.65-.14-13.3-.07-19.95 5-1.37 10.03-3.85 12.76-8.47 4-6.06 4.54-14.29.98-20.67-2.56-5.33-8.04-8.61-13.65-9.86-.25-6.84-.25-13.68-.1-20.52M71.08 990c-5.49 1.91-10.39 5.79-13.04 11.01-2.42 5.01-3 10.93-1.33 16.27 1.97 7.49 8.58 13.3 16.02 15.08 5.42.94 11.38.58 16.11-2.47 6.19-3.78 10.29-10.68 10.67-17.92.57-8.17-4.1-16.28-11.18-20.27-5.14-3.06-11.59-3.2-17.25-1.7z"/></g><g fill="#686867"><path d="M710.26 316.44c11.37-.03 22.73-.03 34.1.02.02 12.5.19 24.99.11 37.49-11.36.2-22.73.22-34.1.03-.02-12.51-.06-25.03-.11-37.54zM145.74 321.82c11.34-.12 22.69-.35 34.04-.14.1 12.48-.07 24.96.06 37.44-11.34-.04-22.68.27-34.02.03-.08-12.44-.12-24.89-.08-37.33zM236.67 1020.82c10.33-1.77 21.12-.24 30.53 4.4 14.98 6.81 26.07 21.44 28.47 37.75 1.87 10.87.33 22.33-4.68 32.19-8.03 15.25-23.72 26.79-41.15 27.98-13.68 1.45-27.89-2.84-38.23-11.96-18.46-14.8-23.62-43.13-12.16-63.69 7.32-14.04 21.69-24.03 37.22-26.67m2.57 8.56c-12.84 1.77-24.7 9.5-31.04 20.88-11.39 18.02-5.52 43.91 11.65 56.15 7.65 5.16 16.79 8.61 26.13 8.05 13.47-.11 26.36-7.42 34-18.39 6.69-9.84 9.16-22.47 6.42-34.07-2.88-10.96-9.57-21.34-19.56-27.05-8.23-4.83-18.12-7.1-27.6-5.57zM519.98 1028.45c61.35-.33 122.7-.94 184.06-1.13 7.34-.09 14.19 4.2 18.1 10.3 4.45 6.36 2.43 14.19 2.62 21.38.1 19.34.25 38.68.22 58.01-.01 5.52 1.53 11.3-.82 16.57-1.49 3.17-3.33 6.29-6.08 8.55-3.61 3.28-8.62 4.08-13.27 4.76-53.24.97-106.53.52-159.79 1.22-9.92-.15-19.87.49-29.76-.47.12-.11.37-.34.49-.46-6.2-1.87-11-6.57-13.76-12.33-.9-2.2-1.53-4.55-1.48-6.92.62-15.65.23-31.32.25-46.98-.16-10.55.36-21.12-.28-31.66-.22-3.26.61-6.45 1.37-9.58-14.34-.25-28.7-.04-43.04-.07 14.59-.99 29.26-.08 43.88-.75 3.69-6 10.15-10.27 17.29-10.44zM355.09 1033.92c10.84-.44 21.69-.48 32.54-.31.03 2.82.06 5.64.05 8.48.07 9.48-.22 18.99.26 28.47.2 2.88.27 5.78.31 8.69-10.9.28-21.8.38-32.7.11-.04-2.59-.06-5.18-.05-7.76.33-9.86.19-19.74-.16-29.59-.14-2.71-.2-5.4-.25-8.09z"/><path d="M240.53 1059.81c5.46-1.65 12.2.05 15.12 5.24 3.49 5.52 1.72 13.46-3.64 17.11-5.86 4.47-15.35 2.08-18.38-4.65-3.62-6.5-.14-15.36 6.9-17.7z"/></g></svg>