<svg width="1216" height="1168pt" viewBox="0 0 912 1168" xmlns="http://www.w3.org/2000/svg"><g fill="#fff"><path d="M150.42 444.5c203.19-.19 406.4.05 609.6-.09 10.56-.02 18.96 10.31 18.48 20.52.02 164.67 0 329.34.03 494.01-.12 5.9.88 12.2-1.94 17.67-3.26 6.97-10.94 11.42-18.59 11.01-201.71.01-403.41.02-605.12.01-10.69.04-19.86-10.08-19.39-20.64.05-167.32-.04-334.63.04-501.94-.57-9.79 7.09-19.37 16.89-20.55m524.77 53.65c-3.87 1.26-5.18 6.74-2.06 9.47 3 2.99 9 1.75 9.92-2.59 1.61-4.41-3.72-9.11-7.86-6.88M652.42 504c-.39 3.28.03 6.59-.02 9.89-10.05-6.56-24.66-6.63-33.65 1.84-9.31 8.45-10.52 23.75-3.6 34.02 5.99 8.76 17.64 12.81 27.86 10.32 3.88-.81 7.32-2.85 10.63-4.95.04 1.43.09 2.86.14 4.29 3.62 0 7.24-.04 10.87-.11-.18-20.08-1.05-40.15-1.08-60.24-4 .69-8.28 1.93-11.15 4.94m-194.51 4.03c-.47 3.25.05 6.56-.01 9.85-9.79-6.4-23.9-6.79-33.05 1-10.4 8.32-11.97 24.83-4.19 35.42 8.18 12.07 27.14 14.11 38.01 4.58.04 1.52.07 3.05.1 4.58 3.82.26 7.66.07 11.5-.01-.41-20.07-.87-40.15-1.1-60.23-4 .6-8.41 1.75-11.26 4.81m79.73-.06c-.3 11.01.2 22.03.64 33.04.15 4.79-.41 10.1 2.54 14.24 3.01 4.9 9.03 6.59 14.42 7.06.52-3.46 1.24-6.89 1.47-10.38-3.31-.9-7.41-3.03-7.23-7.03-.25-5.72-.13-11.44-.19-17.16 1.81-.04 3.65-.07 5.48-.1-.03-3.2.21-6.43-.22-9.61-1.53-1.43-3.97-1.07-5.88-1.61.05-3.92.14-7.86-.34-11.76-3.66.79-7.2 1.99-10.69 3.31m171.93-.07c-6.65 1.44-12.61 5.58-16.28 11.29-6.82 10.36-4.82 25.81 5.1 33.53 9.71 8.27 25.4 8.28 34.83-.48 8.45-7.13 10.36-19.9 6.04-29.79-4.81-11.06-18.02-17.39-29.69-14.55m-116.1 3.33c.12 9.63.55 19.26.36 28.89-.06 6.02-5.95 11.02-11.91 10.08-5.82-.59-9.38-6.65-9.23-12.1-.08-8.85-.41-17.69-.56-26.53-3.84 0-7.68.11-11.51.22.18 6.4.22 12.81.51 19.22.06 7.15-.4 14.94 3.81 21.16 7.28 11.58 25.8 12.61 34.92 2.71 4.28-4.48 6-10.85 5.84-16.93-.21-9.03-.32-18.08-.9-27.09-3.78-.02-7.56.13-11.33.37m-87.98 1.38c-4.39 1.33-8.91 3.61-11.23 7.77-3.06 5.3-2.49 12.93 2.4 16.97 4.24 3.57 10.01 3.94 15.19 5.18 2.97.76 6.83.92 8.54 3.92 1.56 2.99-1.58 5.77-4.29 6.41-6.68 1.68-13.45-1.18-18.98-4.76-2.16 2.57-3.98 5.4-5.98 8.09 9.4 7.8 23.81 9.42 34.59 3.65 7.97-3.85 10.13-16.25 3.6-22.29-6.51-5.02-15.33-4.18-22.59-7.33-3.16-1.33-2.79-6.05.2-7.34 5.92-3.21 12.8-.88 18.38 1.9 2.65-1.67 3.99-5.2 5.85-7.77-7.44-4.95-17.02-6.77-25.68-4.4m-143.66 16.13c-2.97 6.09-3.24 13.36-1.07 19.75 2.68 7.7 9.3 13.82 17.09 16.14 6.79 1.88 14.33 1.15 20.64-2 3.08-1.7 6.37-3.95 7.57-7.42-3-1.66-5.74-3.76-8.79-5.33-3.34 3.04-7.64 5.34-12.29 4.84-5.98 0-11.09-4.52-12.89-10.05 12.54-.31 25.09-.44 37.62-1.1 1.28-5.59-.35-11.98-3.08-17.08-4.53-7.86-13.7-12.56-22.69-12.19-9.26.28-18.19 6.02-22.11 14.44m310.44-14.35c-.1 15 .74 30 .62 45.01 3.76.13 7.52.09 11.28-.01-.09-14.14-.72-28.28-.97-42.41 0-1.18-.31-2.25-.94-3.23-3.34.03-6.7 0-9.99.64m-360 6.91c-9.79 8.08-11.85 23.69-4.71 34.13 4.61 7.13 12.99 11.51 21.47 11.37 7.97.3 17.03-2.89 20.87-10.32-2.97-1.7-5.8-3.63-8.8-5.26-4.39 4.12-10.83 5.88-16.62 3.97-4.02-1.57-6.9-5.28-8.2-9.3 12.35.1 24.7-.37 37.05-.7 1.5-7.1-.48-14.84-5.01-20.48-8.49-10.55-25.79-12.34-36.05-3.41m-54.21-.23c-13.59 8.58-14.64 30.75-2.1 40.73 10.85 9.28 30.16 8.49 38.42-3.81-3.04-1.98-6.26-3.66-9.34-5.57-3.07 2.75-6.86 5.01-11.12 4.94-6.2.35-12.28-3.96-13.8-10.01 11.3-.52 22.62-.55 33.93-.93 1.2-.16 2.57.09 3.65-.6.7-7.03-1.08-14.38-5.53-19.94-7.84-10.08-23.72-12.03-34.11-4.81m-54.65 4.31c-3.46 5.3-3.25 13.21 1.58 17.63 4.32 3.91 10.43 4.33 15.85 5.64 3.01.79 7.12.93 8.52 4.25.61 2.62-1.36 5.11-3.83 5.78-6.83 1.98-14.19-.51-19.62-4.78-2.52 2.47-4.51 5.4-6.61 8.23 7.83 6.52 18.84 8.46 28.66 6.34 5.57-1.3 11.33-4.65 13.11-10.42 1.48-5.2.81-11.86-3.9-15.24-5.6-4.02-12.79-4.23-19.29-5.74-2.12-.46-4.64-1.61-4.8-4.08-.06-3.21 3.14-5.12 5.97-5.48 5.32-1.1 10.46 1.13 15.1 3.48 2.06-2.56 3.64-5.45 5.54-8.12-7.3-4.58-16.33-6.58-24.8-4.59-4.42 1.07-8.91 3.18-11.48 7.1m461.72 70.73c-4.55 4.24-5.87 10.97-4.88 16.92.7 5.89 3.72 12.36 9.73 14.36 5.29 1.7 11.62 1.34 16.1-2.2 2.81-2.2 3.99-5.7 5.29-8.87-1.55-.76-3.28-1.02-4.95-1.27-.88 3.73-3.04 7.55-7 8.62-5.11 1.88-11.13-1.19-12.91-6.25-1.85-4.89-2.08-10.65.01-15.49 2.42-5.55 9.93-7.78 15.07-4.68 2.09 1.42 3.12 3.83 4.37 5.94 1.46-.43 2.91-.85 4.4-1.23-.85-2.91-2.37-5.73-4.89-7.5-6.01-4.46-14.96-3.24-20.34 1.65m30.01 5.16c1.57.06 3.15.11 4.74.16.11-3.57 3.43-6.69 7.06-5.96 3.72.19 5.88 4.54 4.28 7.76-1.25 3.03-4.89 3.22-7.67 3.68-.04.94-.1 2.82-.13 3.76 2.82-.74 6.26-.79 8.33 1.63 3.67 3.87.82 11.58-4.72 11.55-4 .53-6.87-3.12-7.49-6.7-1.67.17-3.32.33-4.97.56.77 2.77 1.91 5.62 4.24 7.45 5.45 4.28 14.79 3.05 18.17-3.29 2.96-4.86.93-12.12-4.67-13.96 2.12-1.75 4.21-4.03 4.12-6.98.18-5.82-5.87-10.1-11.35-9.38-5.29.02-9.53 4.59-9.94 9.72m-72.61-7.02c-4.04 1.35-6.01 5.62-6.4 9.59 1.51.2 3.05.35 4.59.49.43-1.69.51-3.63 1.86-4.91 2.75-3.39 9.27-3.25 11 1.1 1.96 4.64-1.91 8.95-5.05 11.93-4.98 4.68-12.14 8.84-12.6 16.42 7.83.01 15.66-.24 23.49-.39v-4.29c-5.55.09-11.09.17-16.63.26 2.14-3.94 6.15-6.33 9.2-9.5 4.08-3.72 8.26-9.01 6.59-14.9-2.16-6.41-10.32-8.17-16.05-5.8m-33.44 9.26c1.52.13 3.06.27 4.61.39.32-2.49 1.51-5.18 4.18-5.84 3.84-1.63 8.81 1.83 7.78 6.12-.57 3.61-4.62 4.75-7.77 4.64-.18 1.31-.36 2.62-.52 3.94 3-.24 6.69-.6 8.74 2.13 3.64 4.09.3 11.3-5.11 11.4-4.13.46-7.12-3.35-7.61-7.1-1.45.37-2.89.74-4.33 1.12.34 9.53 13.76 12.66 19.95 6.57 5.22-4.49 4.37-14.6-2.73-16.7 6.2-2.99 4.78-12.87-1.24-15.22-6.44-3.49-15.6 1.03-15.95 8.55m-96.32-6.96c.22 11.81.62 23.61.84 35.42 8.73-.42 17.48-.37 26.22-.53l.06-4.3c-7.23-.01-14.45.39-21.67.15.03-3.92-.13-7.84-.07-11.75 6.43.02 12.85-.07 19.27-.31-.03-1.41-.07-2.81-.11-4.2-6.48.19-12.96.31-19.43.28-.06-3.57-.08-7.14-.12-10.71 6.86-.11 13.73-.22 20.59-.38-.03-1.47-.06-2.93-.1-4.39-8.48.66-17 .2-25.48.72m36.55.71c-4.85 2.79-5.69 10.98-.91 14.23 4.89 3.45 11.24 3.13 16.58 5.45 3.31 1.28 3.36 5.86.94 8.01-5.68 4.55-16.69 2.32-17.36-5.89-1.53.19-3.02.57-4.49 1 .31 3.03 1.49 6.05 3.91 8.03 5.34 4.35 13.53 4.45 19.44 1.19 5.19-2.77 6.75-10.96 2.16-14.95-4.72-4.23-11.55-3.68-17.11-6.03-3.3-1.35-3.14-6.43-.12-7.98 2.99-1.53 6.66-1.37 9.83-.5 2.6.71 3.69 3.36 4.21 5.75 1.46.01 2.93.03 4.4.04.08-3-1.06-6.02-3.52-7.83-5.11-3.83-12.58-3.8-17.96-.52m28.39-2.16c.08 11.75.56 23.49.62 35.25 1.65-.01 3.3-.01 4.96-.02-.06-4.81-.17-9.61-.12-14.41 5.78-.49 12.24.99 17.45-2.23 4.18-2.66 4.87-8.36 3.47-12.74-1.26-3.79-5.15-6.19-9.06-6.16-5.77-.12-11.56-.13-17.32.31m-109.13 2.66c-11.55 3.57-14.15 19.51-7.98 28.71 5.43 8.21 18.27 9.05 25.28 2.48 3.61-3.65 5.29-8.89 5.04-13.97.1-5.03-1.42-10.32-5.17-13.83-4.55-4.17-11.38-5.28-17.17-3.39m-33.26.52c-4.25 11.84-8.19 23.8-12.61 35.57 1.79-.03 3.58-.05 5.39-.06 1.1-3.51 2.27-6.99 3.39-10.49 4.76-.16 9.66-.84 14.36-.18 1.96 3.22 2.87 7 4.75 10.3 1.77-.09 3.54-.16 5.32-.21-4.91-11.72-10.15-23.3-15.26-34.94-1.78-.04-3.56-.01-5.34.01m-80.91 1.48c.14 11.87.33 23.74.72 35.61 1.44-.01 2.89-.01 4.34-.01-.09-11.89-.38-23.78-.67-35.66-1.47.01-2.93.03-4.39.06m23.08-.12c4.28 5.34 7.91 11.17 12.36 16.37-4.52 6.17-8.74 12.54-13.17 18.77 1.99.01 4 .01 6-.1 3.28-4.96 6.52-9.95 9.99-14.77 2.94 4.48 6.13 8.79 9.33 13.09 1.46 2.54 4.8 1.02 7.1 1.27-4.25-6.34-9.24-12.15-13.72-18.33 4.15-5.59 8.05-11.37 11.97-17.13-1.81.1-3.7-.24-5.44.34-3.48 4.2-6.27 8.94-9.31 13.47-3.01-4.47-6.01-8.95-9.35-13.18-1.92.02-3.84.08-5.76.2m35.62-.91c-.04 11.72.43 23.46.59 35.18 1.62-.02 3.24-.04 4.87-.02-.2-11.72-.35-23.44-.78-35.15-1.57-.01-3.12-.01-4.68-.01m-96.47 2.04c.02 4.17.06 8.34.05 12.52-4.05-4.46-11.85-3.8-15.15 1.21-3.19 5.06-3.06 11.97-.31 17.2 3.17 5.69 11.8 6.98 16.3 2.12.05.59.17 1.77.22 2.35 1.33-.06 2.67-.13 4.01-.21-.11-11.74-.48-23.47-.66-35.2-1.49 0-2.98 0-4.46.01m-66.36 31.2c-2.99-9.9-6.61-19.59-10.35-29.22-2.37-.01-4.75.04-7.12.08.37 11.81.31 23.65.72 35.46 1.57-.06 3.13-.23 4.67-.49-.26-9.64-.59-19.29-.72-28.93 3.7 9.58 7.24 19.23 10.6 28.94l4.38-.03c3.08-9.66 5.95-19.38 9.2-28.99.42 9.57.65 19.14.91 28.71 1.54-.02 3.09-.03 4.64-.04-.62-11.72-.48-23.47-.92-35.2-2.15-.08-4.31-.04-6.46-.06-3.25 9.9-6.39 19.84-9.55 29.77m116.37-17.58c1.69-.06 3.39-.11 5.1-.14 0-1.69.01-3.37.02-5.04-1.68-.02-3.37-.05-5.05-.06-.04 1.74-.06 3.48-.07 5.24m-39.02 2.04c-1.86 5.37-1.57 12.17 2.43 16.53 5.81 6.23 18.75 3.78 19.92-5.35-1.46-.15-2.91-.28-4.36-.37-.85 3.32-4.03 5.81-7.52 5.23-4.21-.22-6.59-4.38-6.96-8.16 6.28-.1 12.56-.38 18.85-.5 0-3.97-.64-8.28-3.66-11.15-5.32-5.5-15.92-3.39-18.7 3.77m-48.13-4.81c-10.83 3.49-10.25 21.96.39 25.31 6.14 2.18 14.2-1.37 15.55-8.04.7-4.23.7-8.93-1.47-12.75-2.87-4.81-9.39-6.41-14.47-4.52m383.29 1.63c.06 1.48.14 2.96.27 4.46 4.5-.04 9 .01 13.5-.14 0-1.49.01-2.98.03-4.45-4.6-.07-9.2.09-13.8.13m-168.36 3.6c-.02 1.55-.02 3.1-.01 4.66 4.6-.05 9.2-.14 13.8-.16 0-1.56.01-3.12.03-4.67-4.61.03-9.21.05-13.82.17m-127.34 12.96c0 1.68-.01 3.37-.01 5.07 1.71.01 3.42.03 5.14.07.01-1.75-.04-3.49-.05-5.23l-5.08.09m310.46 52.81c-12.01 7.06-22.67 16.72-30.15 28.53-9.18 14.51-14.69 31.59-14.12 48.87.16 17.86 6.14 35.51 16.57 49.97 9.58 13.05 22.92 23.13 37.66 29.68 14.43 6.06 30.39 8.43 45.96 6.69-.22-8.11-.74-16.21-.8-24.32-13.92 1.16-28.25-1.39-40.51-8.22-15.64-8.36-28.26-23.37-31.38-41.11 16.92-.61 33.86-.9 50.8-1-.3-8.25-.02-16.55-.77-24.76-16.92.02-33.86.56-50.78.68 2.32-13.45 9.29-26.03 19.45-35.14 13.1-12.18 31.32-18.55 49.16-17.31.09-8.24-.31-16.48-.37-24.71-17.58-.78-35.48 3.28-50.72 12.15m-139.21 14.73c-14.27 13.33-24.03 31.44-26.94 50.77-3.33 20.39 1.25 41.85 12.33 59.25 8.1 12.99 19.81 23.56 33.15 30.99 16.14 8.5 34.8 12.45 52.98 10.32-.22-8.16-.25-16.33-.84-24.47-23.25 2.54-47.73-7.76-61.3-26.98-7.57-10.8-12.21-23.93-11.61-37.22.04-18.67 9.52-36.58 23.97-48.16 12.81-10.17 29.36-15.28 45.68-14.33-.2-8.25-.2-16.5-.37-24.75-24.37-.63-49.23 7.66-67.05 24.58M343 679.57c-19.98 4.14-38.49 15.17-51.54 30.86-12.55 14.53-19.89 33.03-21.94 52.03-10.97.12-21.94.15-32.88.85-.45-19.82-1.7-39.63-1.99-59.45 13.14-.26 26.27-.66 39.41-.76 1.34.1 2.6-.54 3.43-1.56 5.65-6.04 10.17-13.01 15.64-19.2-25.42-.22-50.81 1.37-76.23 1.51-1.3-.09-3.78-.08-3.05 2.09 1.47 59.31 3.1 118.62 4.55 177.93 6.77-4.86 13.44-9.85 19.9-15.11-.16-21.75-1.18-43.5-1.55-65.25 11.12-.24 22.24-.19 33.35-.66 2.93 21.8 13.86 42.35 30.34 56.91 12.56 10.98 27.84 19.07 44.38 21.87 35.45 7.08 73.94-9.5 93.69-39.66-5.64-3.92-11.09-8.25-17.37-11.11-14.56 20.55-39.92 33.1-65.16 31.06-30.8-2.16-58.76-26.62-64.31-57.12-3.8-18.12-.39-37.78 9.98-53.2 8.19-12.77 20.48-22.71 34.53-28.36 15.16-5.84 32.36-6.26 47.81-1.25 13.93 4.78 26.4 13.88 35.07 25.79 5.67-3.91 10.98-8.34 16.87-11.93-11.02-15.45-26.85-27.59-44.97-33.47-15.34-5.36-32.09-5.86-47.96-2.81m-8.87 45.48c-11.85 6.87-20.08 18.93-23.72 31.98-3.7 13.88-1.32 29.26 6.31 41.42 8.75 14.18 24.55 24.02 41.29 24.82 12.68 1.09 25.64-2.82 35.75-10.51 4.58-3.58 9.52-7.47 11.99-12.81-2.87-2.72-6.12-5.02-9.22-7.46-2.35-1.7-4.48-3.86-7.33-4.69-5.98 8.96-16.31 15.32-27.26 15.14-10.13.44-20.07-4.74-25.97-12.89-7.07-9.22-8.44-22.28-3.95-32.92 5.88-13.87 22.28-22.12 36.91-18.45 8.07 1.64 14.72 6.98 19.85 13.21 4.97-4.6 10.48-8.54 15.72-12.81-6.84-9.23-16.62-16.11-27.61-19.43-14.19-4.08-30.12-2.43-42.76 5.4m359.59 180.71c-3.58 5.7-3.72 13.04-1.62 19.3 1.4 4.27 4.6 8.14 8.96 9.55 3.89 1.26 8.24 1.21 12.1-.19 4.74-1.73 8.02-6.45 8.5-11.4-1.57-.2-3.09-.41-4.62-.7-.86 2.77-2.04 5.61-4.46 7.38-4.42 3.32-11.64 1.87-14.3-3.04-3.15-5.59-3.44-12.93-.33-18.59 3.63-6.63 15.45-6.76 17.83 1.01.57 2.72 3.52.43 5.23.46-.89-5.36-5.64-9.64-10.95-10.39-6.06-1.01-12.91 1.33-16.34 6.61m31.81 2.55c1.52.22 3.04.43 4.58.67.54-2.1 1.23-4.43 3.29-5.53 3.43-2.57 9.35.04 8.96 4.58.11 3.98-4.22 6.16-7.73 5.91-.18 1.28-.35 2.55-.5 3.85 2.62-.62 5.72-.88 7.88 1.08 4.41 3.61 1.72 12.01-4 12.4-4.09.65-7.26-3.21-7.86-6.9-1.49.11-2.96.23-4.42.37-.18 10.25 14.34 13.49 20.47 6.52 4.83-4.69 3.66-14.51-3.5-16.16 2.57-1.42 4.57-4.03 4.24-7.1.38-6.56-7.23-10.7-13.01-8.96-4.52.81-7.58 4.96-8.4 9.27m-56.3-7.18c-3.85 1.49-6.04 5.67-5.76 9.69 1.39.1 2.78.25 4.17.45.44-1.67.48-3.56 1.65-4.91 2.89-3.88 10.33-3.19 11.65 1.77 1.21 4.32-2.25 7.95-5.11 10.69-5.26 4.75-11.72 9.2-13.27 16.62 7.91.79 15.92-.24 23.88-.11-.05-1.44-.09-2.86-.14-4.28-5.52.14-11.04 0-16.55.42 3.34-6.62 11.07-9.5 14.59-16.01 2.24-3.65 2.13-8.76-.86-11.96-3.55-3.85-9.61-4.2-14.25-2.37m-33.16 9.48c1.45.09 2.91.2 4.38.3.64-2.88 2.32-6.17 5.64-6.45 3.9-.73 7.78 3.25 6.39 7.13-.92 3.33-4.69 4.18-7.69 4.25-.11.94-.32 2.82-.43 3.77 4.04-1.29 9.8.55 10.01 5.4.74 5.01-4.62 9.43-9.37 7.8-2.94-.86-4.05-4.07-4.95-6.67-1.46.29-2.9.59-4.35.89.4 9.64 13.65 12.8 19.98 6.69 5.6-4.38 4.49-14.72-2.56-16.99 5.76-2.85 5.13-11.81-.38-14.54-6.56-4.19-16.51.35-16.67 8.42m-59.65-7.02c-5.01 2.56-6.6 10.35-2.16 14.18 5.14 4.4 12.74 2.99 18.27 6.6 3.24 2.17 1.5 7.16-1.65 8.5-5.67 2.58-15.22.87-15.48-6.71-1.67.13-3.31.35-4.96.58.46 3.44 2.07 6.84 4.99 8.87 5.26 3.46 12.53 3.56 18.1.76 4.48-2.21 6.69-7.95 4.58-12.54-1.77-4.39-6.78-5.69-10.97-6.52-3.39-.89-7.49-.8-9.98-3.61-1.88-2.15-.2-5.41 2.01-6.56 4.88-2.61 13.32-1.48 13.85 5.2 1.53-.06 3.07-.13 4.61-.2-.33-3.94-2.64-7.83-6.42-9.29-4.74-1.85-10.26-1.55-14.79.74m28.02-1.76c.26 11.69.42 23.4.87 35.09 1.35.53 2.99.18 4.46.35.72-4.8-.23-9.68-.04-14.52 5.42-.29 11.14.52 16.32-1.47 5.45-2.23 6.73-9.34 4.54-14.3-1.43-3.35-5.06-5.38-8.63-5.38-5.84-.14-11.68.11-17.52.23m-91.9 1.93c-12.82 3.15-15.54 21.15-7.73 30.39 6.49 7.85 20.34 7.24 26.13-1.13 4.44-6.75 4.11-16.14-.07-22.93-3.72-6.06-11.72-8.04-18.33-6.33m26.83-.46c.09 11.73.92 23.45.79 35.18 8.78-.04 17.55-.4 26.33-.39.02-1.46.04-2.91.07-4.34-7.11.07-14.21.07-21.3.61-.82-3.93-.26-7.98-.53-11.95 6.47-.36 12.97-.01 19.43-.55-.02-1.37-.04-2.72-.04-4.07-6.48-.08-12.95.32-19.42.38-.24-3.59-.25-7.18-.35-10.76 6.83-.22 13.66-.29 20.49-.27.02-1.48.05-2.95.07-4.4-8.52-.06-17.03.38-25.54.56m-60.92 1.14c-4.31 11.92-8.2 24-12.71 35.85 1.77-.02 3.55-.03 5.33-.02 1.15-3.62 2.31-7.23 3.59-10.79 4.81-.13 9.62-.15 14.44-.29 1.38 3.51 2.79 7.02 4.29 10.5 1.85-.03 3.71-.09 5.57-.13-5.27-11.64-9.99-23.52-15.3-35.13-1.75 0-3.48-.01-5.21.01m-33.26.82c-3.4 4.26-6.28 8.91-9.31 13.43-3.42-4.15-6.18-8.81-9.68-12.9l-5.74.09c3.97 5.73 8.35 11.16 12.45 16.8-4.48 6.13-8.77 12.41-12.99 18.72 1.96-.04 3.93-.07 5.9-.14 3.21-5.08 6.9-9.85 9.95-15.03 3.53 4.84 6.84 9.84 10.57 14.53 2.03-.04 4.06-.1 6.1-.11-4.65-6.14-9.13-12.4-13.85-18.48 4.07-5.54 8.1-11.11 11.83-16.87-1.75-.03-3.49-.03-5.23-.04m10.91-.1c.33 11.75.43 23.52.71 35.28 1.62.01 3.25.03 4.88.06-.12-11.9-.31-23.8-.9-35.68-1.57.09-3.13.21-4.69.34m-82.55 1.72c-.03 1.5-.05 3.01-.05 4.52 3.9-.14 7.81-.06 11.72-.2.25 10.31.51 20.64.62 30.96 1.57 0 3.15 0 4.73.01.06-10.35-.3-20.7-.48-31.04 3.86-.34 7.73-.3 11.61-.37-.03-1.45-.05-2.89-.07-4.32-9.36.25-18.72.29-28.08.44m-22.56 16.1c-2.28 3.52-5.95 6.82-5.12 11.45 5.31.08 10.61-.15 15.92-.08.01 2.72.05 5.45.08 8.19 1.48.06 2.97.11 4.46.16.03-2.85.03-5.69 0-8.53 1.64-.13 3.28-.26 4.92-.35l-.09-3.98c-1.67 0-3.33.01-4.99.03-.21-7.59-.29-15.18-.55-22.76l-3.75-.04c-3.81 5.17-6.99 10.79-10.88 15.91m-32.78-14.69c0 1.06.02 3.18.02 4.23 6.5-.16 13-.15 19.5-.32-7.18 8.11-13.1 17.22-19.89 25.65-1.36 1.6-.8 3.86-1 5.8 9.27.1 18.54-.33 27.82-.3.04-1.52.08-3.02.13-4.51-7.32.2-14.63.27-21.94.43 6.46-8.95 13.38-17.57 20-26.4 1.24-1.45.53-3.43.57-5.13-8.41-.01-16.8.55-25.21.55m-46.16 7.76c-4.23 7.16-3.2 16.77 1.39 23.53 4.06 5.84 12.35 6.95 18.64 4.51 4.66-1.88 7.65-6.48 8.43-11.33-1.56-.32-3.12-.66-4.66-.97-.8 5.21-5.37 9.86-10.89 9.27-5.34-.22-9.22-5.07-10.01-10.05-.75-4.7-.88-10.08 2.06-14.08 2.66-3.67 7.76-5.03 12.03-3.85 3 .99 4.92 3.77 5.87 6.67 1.74-.26 3.48-.55 5.04-1.39-1.74-3.25-3.6-6.81-7.12-8.42-7.13-3.4-16.73-.82-20.78 6.11m-66.48-4.88c.27 11.78.77 23.55.75 35.33 1.65-.03 3.3-.05 4.95-.07-.06-5.39-.37-10.76-.44-16.14 5.54-.16 11.08-.19 16.62-.21-.04-1.51-.09-3.01-.13-4.5-5.53.05-11.05.11-16.57.16-.03-3.51-.05-7.03-.14-10.53 6.27-.68 12.59-.19 18.88-.48 0-1.45-.01-2.89-.02-4.32-7.96.33-15.97-.01-23.9.76m31.42 5c-2.83 4.01-3.17 9.17-2.71 13.91.5 5.18 2.77 10.5 7.19 13.5 3.97 2.75 9.15 2.73 13.72 1.9 5.52-1.2 9.32-6.42 10.33-11.77a298.4 298.4 0 0 0-4.82-1.05c-.62 1.92-1.12 3.97-2.44 5.57-2.8 3.61-8.15 4.41-12.23 2.74-3.97-1.66-5.91-6-6.48-10.02-.56-4.43-.53-9.37 2.15-13.16 2.99-4.3 9.31-5.47 13.88-3.15 2.29 1.24 3.5 3.66 4.48 5.98l4.77-1.11c-1.39-3.45-3.55-6.73-6.88-8.54-7-3.6-16.41-1.21-20.96 5.2m69.16 2.01l-.12 5.05c1.73.03 3.47-.02 5.21.01-.01-1.67-.01-3.34 0-4.99-1.7-.06-3.4-.06-5.09-.07m98.23 8.32c.23 1.43-.61 3.43.46 4.54 4.35.25 8.72-.22 13.08-.2-.02-1.53-.05-3.05-.07-4.55-4.49.07-8.98.12-13.47.21m-97.77 12.3c.01 1.75.03 3.52.05 5.29 1.69-.02 3.38-.03 5.07-.03.01-1.79.03-3.56.05-5.32-1.73.01-3.45.03-5.17.06z"/><path d="M711.08 519.23c6.53-2.17 14.38.93 17.27 7.25 3.87 7.46.16 18.26-8.18 20.68-7.57 2.69-16.36-1.95-18.53-9.63-2.78-7.39 1.84-16.28 9.44-18.3zM630.5 521.66c8.53-4.37 19.7 1.85 20.73 11.29 1.63 8.82-6.46 17.68-15.38 16.71-7.43-.41-13.55-7.29-13.45-14.66-.3-5.54 3.01-11.09 8.1-13.34zM437.46 524.65c6.95-2.24 15.3 1.27 17.94 8.23 4.13 8.46-2.15 19.62-11.5 20.53-8.67 1.41-17.03-6.72-16.45-15.33.1-5.99 4.36-11.55 10.01-13.43zM371.91 534.62c1.72-6.01 7.81-10.48 14.1-9.88 5.39.23 10.04 4.3 11.65 9.35-8.58.22-17.17.44-25.75.53zM315.99 535.58c1.65-5.97 7.8-10.46 14.02-9.76 5.18.29 9.93 4.34 11.21 9.29-8.39.55-16.82.52-25.23.47zM259.58 536.89c2.14-6.2 8.77-11.32 15.51-9.68 4.91.87 8.82 4.74 10.43 9.37-8.65.05-17.29.27-25.94.31zM562.65 599.17c4.44.08 8.95-.74 13.35.12 5.22 1.4 5.26 10.39-.08 11.69-4.2.98-8.57.63-12.85.78-.39-4.19-.18-8.4-.42-12.59zM450.43 601.68c5.25-1.89 11.85.44 14.1 5.71 2.34 5.77 2.52 13.41-1.9 18.25-4.9 5.4-14.7 4.48-18.14-2.08-3.71-7.14-2.73-18.9 5.94-21.88zM417.86 602.9c2.4 5.2 4.46 10.61 6.56 15.96-3.86.01-7.73.07-11.59.02 1.87-5.26 3.93-10.49 5.03-15.98zM311.11 620.56c.45-3.93 3.7-7.9 8-7.22 3.66.2 5.84 3.57 6.32 6.92-4.77.1-9.55.23-14.32.3zM287.56 614.74c2.58-1.26 6.17-.73 7.86 1.74 2.19 3.32 2.32 7.62 1.6 11.43-.66 3.45-4.53 6.22-7.99 4.92-3.25-1.1-4.66-4.67-5.03-7.81-.61-3.66.05-8.27 3.56-10.28zM260.34 615.53c3.85-2.33 9.38.15 10.41 4.47 1.06 4.08.87 9.25-2.53 12.22-3.32 2.84-8.94 1.39-10.56-2.64-1.96-4.51-1.84-11.12 2.68-14.05zM609.51 905.9c4.19.06 8.41-.39 12.6.06 5.3.78 6.37 9.4 1.45 11.45-4.47 1.5-9.29.85-13.92 1.09-.07-4.21-.15-8.4-.13-12.6zM514.51 907.66c5.02-1.41 10.69 1.13 12.89 5.87 2.69 6 2.57 14-2.13 18.98-5.07 5.04-14.66 3.59-17.84-2.87-3.8-7.47-2.32-19.69 7.08-21.98zM475.97 925.37c1.73-5.47 3.93-10.78 5.22-16.39 1.96 5.46 4.12 10.84 6.37 16.19-3.87.04-7.73.11-11.59.2zM351.05 930.17c3.33-5.11 6.08-10.72 10.21-15.23.21 5.01.14 10.04.41 15.06-3.53.27-7.08.11-10.62.17z"/></g><g fill="#bbb"><path d="M244.9 24.8c8.6-3.3 17.84-4.86 27.04-4.93 121.68 0 243.36.02 365.04 0 9.74-.25 19.58 1.04 28.78 4.36 4.21 1.78 9.9 3.73 11.04 8.7.34 26.98-.17 53.99.28 80.97 0 .49.02 1.46.02 1.95-.63 30.38-.25 60.78-.23 91.18.08 39.86-.04 79.72.05 119.59-.07 18.84-.34 37.69.01 56.53-17.39-.07-34.78.12-52.17-.03-.05-5.73.25-11.47-.08-17.19-.23-4.85-4.76-8.84-9.58-8.63-9.06-.05-18.13-.17-27.19 0-4.74-.09-8.96 4.05-9.25 8.73-.36 5.63-.12 11.3-.03 16.95-42.87.44-85.77-.01-128.65.2-30.77-.11-61.53.04-92.3-.05-.21-5.89.25-11.81-.37-17.68-.57-4.51-4.65-8.34-9.27-8.17-9.03-.1-18.07-.03-27.09.01-4.62-.21-8.92 3.49-9.38 8.09-.55 5.9-.12 11.85-.3 17.77-25.26.06-50.52-.13-75.77.09-.21-18.78.05-37.57-.24-56.35.04-39.93-.19-79.87.09-119.8.15-30.4.23-60.81-.13-91.21 0-.5-.02-1.52-.03-2.03.01-24.59.02-49.18-.01-73.76.09-2.84-.39-5.8.44-8.56 2.01-3.41 5.75-5.27 9.28-6.73m115.53 234.72c-3 .92-5.63 2.96-7.34 5.58-3.62 5.73-1.87 14.11 3.87 17.8 5.62 3.73 12.71 2.15 19.05 2.47 7.23-.31 14.56.65 21.71-.62 9.05-2.22 12.53-14.83 6.09-21.49-4.64-5.53-12.42-4.44-18.82-4.43-8.18.31-16.47-.7-24.56.69m177.8-.13c-3.51.92-6.77 3.22-8.37 6.53-3.5 6.61-.38 15.96 6.88 18.4 6.54 1.98 13.5.75 20.22 1.04 6.43-.38 13.11.86 19.36-1.1 8.78-3.25 10.47-16.23 3.48-22.11-5.19-4.54-12.51-3.19-18.82-3.35-7.58.24-15.23-.52-22.75.59m-144.76 51.22c-3.88.34-6.89 3.69-7.61 7.38.62 3.16 4.57 3.44 7.15 3.94 10.33 1.3 21.17 1.6 30.64 6.44 2.57 1.39 5.64 3.42 5.72 6.67-1.3 3.67-5.1 5.55-8.5 6.85-10.48 3.55-21.8 2.38-32.52 4.61-2.17.13-2.93 2.41-1.9 4.17 1.5 3.25 4.84 5.79 8.54 5.59 15.35.12 30.7-.06 46.05-.08 5.04.31 9.83-4.05 9.67-9.16.14-9.02.09-18.05.05-27.06.18-5.23-4.54-9.81-9.76-9.48-15.84.03-31.7-.2-47.53.13m99.97.05c-4.49.58-8 4.88-7.89 9.36-.13 8.99-.1 17.98 0 26.97-.14 5.01 4.48 9.43 9.45 9.26 15.64-.06 31.28.07 46.92-.04 4.44.32 8.58-3.82 8.31-8.24-.79-1.73-3.08-1.79-4.69-2.21-9.3-.93-18.79-.79-27.87-3.25-3.14-.96-6.35-2.11-8.89-4.24-1.5-1.23-2.55-3.38-1.58-5.25 1.22-2.95 4.33-4.47 7.09-5.7 9.42-4.04 19.81-4.08 29.79-5.55 2.33-.47 5.45-.99 6.21-3.65-.23-4.23-3.96-7.91-8.27-7.61-16.19-.03-32.4-.26-48.58.15zM157.46 1030.37c-1.18-6.09 2.94-13.08 9.56-13.11 45.69-.05 91.39-.13 137.08.01 6.34.35 9.5 7.45 8.59 13.11-.07 31.54-.09 63.07 0 94.61-.13 3.75.68 7.87-1.36 11.27-1.78 3.3-5.57 5.24-9.29 5.09-44.66-.02-89.32-.01-133.97.02-4.76.31-9.47-3.13-10.4-7.84-.44-2.8-.27-5.64-.23-8.45.08-31.57.07-63.14.02-94.71m72.94 10.28c-19.08 1.94-35.2 19.25-35.71 38.44-.85 14.33 6.99 28.7 19.33 35.96 15.02 9.5 36.14 7.24 48.88-5.12 11.11-10.48 15.39-27.55 10.43-42.01-5.74-17.55-24.47-29.9-42.93-27.27zM394.85 1024.82c2.83-5.03 8.42-8.39 14.22-8.31 29.96.03 59.92.04 89.88 0 5.4.06 11.36-.82 16.13 2.33 5.74 3.61 8.55 10.59 8.14 17.22-.01 30.26-.1 60.52.1 90.77 1.21 9.42-5.64 19.05-15.25 20.03-10.14.65-20.33-.04-30.48.19-13.13.16-26.27.2-39.4.06-9.74-.12-19.48.17-29.21-.12-5.17-.11-10-2.9-13.1-6.95-3.03-3.68-3.62-8.6-3.42-13.2.01-30.23-.07-60.46-.05-90.68.02-3.89.33-7.97 2.44-11.34m58.47 9.6c-12.94 1.72-24.64 9.05-32.97 18.93-10.71 13.3-14.17 32.03-8.88 48.27 3.96 11.9 12.18 22.54 23.2 28.68 10.74 6.28 23.78 8.64 36.01 6.28 12.27-2.61 23.82-9.39 31.31-19.56 9.58-12.22 12.81-28.98 8.91-43.95-3.01-12.35-10.7-23.61-21.5-30.4-10.44-7.15-23.56-10.18-36.08-8.25zM612.65 1025.45c3.41-.69 6.93-.51 10.4-.56 42.65.03 85.3-.04 127.96.01 4.88-.48 9.21 3.22 10.36 7.81.25 30.95 0 61.91.09 92.87-.06 5.11.21 10.24-.2 15.35-.54 4.91-5.41 8.53-10.22 8.38-44.68.11-89.36.06-134.03 0-5.62.33-10.91-4.65-10.73-10.29-.07-4.43.03-8.84-.03-13.25.19-30.94-.19-61.88.17-92.8.53-3.35 3.03-6.42 6.23-7.52m63.81 24.17c-12.67 2.9-23.61 12.39-28.21 24.57-4.68 11.7-3.61 25.63 3.22 36.28 6.09 9.52 16.15 16.72 27.43 18.38 8.26 1.42 16.92.25 24.46-3.43 16.23-7.13 25.64-26.28 22.25-43.54-1.98-11.85-9.62-22.51-20.1-28.34-8.75-4.86-19.33-6.19-29.05-3.92z"/></g><g fill="#010101"><path d="M87.94 116.16c9.18-2.15 18.69-2.24 28.07-2.28 39.72-.02 79.45.02 119.18-.03.01.51.03 1.53.03 2.03-7.32 1.41-14.1 6.32-17.07 13.26-2.11 4.28-2.58 9.12-2.55 13.82.01 12.02-.04 24.03-.02 36.04.03 6.2.86 12.71 4.39 17.98 3.47 5.3 9.2 8.88 15.38 10.11-.28 39.93-.05 79.87-.09 119.8-10.54 2.03-16.11 13.21-16.56 23.1-.27 13-.11 26.01-.07 39.01-.04 8.22 2.87 16.71 9.2 22.19 5.69 5.64 14.83 6.79 22.06 3.65 6.92-2.95 11.7-9.54 13.42-16.75.3-1.04.62-2.07.94-3.1 6.62-.06 13.24-.14 19.86-.01-.51 12.93.2 25.87.01 38.81 8.72-.06 17.43.02 26.15.05.03-12.96-.03-25.92.1-38.88 4.19-.04 8.38-.06 12.56-.08.35 12.97-.05 25.95.09 38.92 8.79.05 17.59-.08 26.39.11.08-13 .1-26.01.06-39.01 3.89-.04 7.78-.02 11.67.03.43 11.42-.52 22.89.56 34.27 1.69 4.08 7.25 6.04 10.97 3.48 2.29-1.4 3.44-4.07 3.23-6.69.01-10.33-.01-20.66-.04-30.99 3.42-.17 6.85-.17 10.29-.1.13 11.39-.57 22.85.54 34.2 1.42 3.06 4.78 5.28 8.23 4.61 3.28-.36 6-3.32 5.9-6.65.15-9.3-.1-18.61-.06-27.91.05-1.4.13-2.8.22-4.19 3.34-.08 6.67-.07 10.01.04.56 11.39-.59 22.88.67 34.21 1.46 3.03 4.82 5.19 8.25 4.48 3.12-.51 5.82-3.37 5.78-6.6.18-10.72.02-21.45.07-32.18 3.43-.07 6.86-.09 10.29-.07.5 11.44-.69 22.96.57 34.34 1.5 3.32 5.46 5.49 9.04 4.33 3.26-.85 5.43-4.12 5.16-7.45.06-10.37-.11-20.75-.07-31.13 3.41-.07 6.83-.04 10.24-.01.46 11.09-.45 22.24.6 33.3.67 2.89 3.33 5.34 6.35 5.49 3.87.59 7.81-2.73 7.79-6.66.21-10.71.07-21.44.08-32.15 3.4.01 6.81.01 10.22.02.63 11.41-.7 22.92.6 34.27 1.28 2.76 4.2 4.86 7.34 4.6 3.61-.02 6.86-3.19 6.77-6.85.2-10.66-.04-21.33.07-31.99 3.44-.17 6.88-.14 10.32-.03.31 11.42-.86 22.95.53 34.3 1.84 4.68 8.47 6.13 12 2.5 2.57-2.15 2.19-5.72 2.21-8.72-.14-9.37-.04-18.74-.04-28.1 3.47 0 6.94-.03 10.41.05.08 10.72-.17 21.44.05 32.16-.03 3.92 3.9 6.96 7.67 6.64 2.86.05 5.29-2.09 6.48-4.55 1.17-11.38-.04-22.88.47-34.3 3.92-.06 7.85-.04 11.78 0-.04 13-.04 25.99-.06 38.99 8.84-.14 17.69-.06 26.53.01.03-13-.03-26 0-39 4.18-.15 8.36-.04 12.54-.04.15 12.99.01 25.99.11 38.99 8.74-.06 17.49-.11 26.23-.05 0-12.97.05-25.93.05-38.9 6.77.15 13.56-.35 20.3.41.94 8.04 6.16 15.24 13.21 19.08 7.48 3.94 17.39 2.64 23.49-3.26 5.87-5.68 8.26-14.09 8.32-22.08 0-10.7-.02-21.4.01-32.1.21-6.76-.2-13.81-3.6-19.84-2.48-5.26-7.5-8.74-12.9-10.49-.09-39.87.03-79.73-.05-119.59 5.48-.85 10.76-3.51 14.06-8.07 4.12-5.71 5.15-13.02 5.23-19.9-.04-12.35.02-24.7.01-37.05.01-8.34-3.16-17.18-10.12-22.19-2.62-2.04-5.82-3.04-8.95-3.97 0-.49-.02-1.46-.02-1.95 40.98-.04 81.96-.01 122.95-.03 9.09.14 18.26.68 27.08 3.11 16.39 4.45 31.79 13.1 43.52 25.46 17.57 17.57 26.73 42.61 26.4 67.3-15.34.01-30.69.08-46.04.04-9.21.06-18.77-.57-27.52 2.88-18.31 6.43-30.89 25.94-28.96 45.3 1.26 15.37 10.78 30.11 24.93 36.61 8.83 4.35 18.88 4.73 28.53 4.4 13.33-.07 26.67-.22 40.01.16 2.95.05 5.92-.09 8.88-.28.63 12.53-.61 25.15.38 37.67l-.58.03c-19.54.26-39.09-.01-58.64.14-12.94.28-25.78 6.28-33.8 16.52-8.69 10.6-11.85 25.39-8.51 38.65 3.52 14.52 14.65 27.3 29.14 31.57 8.74 2.99 18.07 2.16 27.14 2.25 15.06.01 30.11-.01 45.17.07-.07 10.42-.43 20.84-.22 31.26.13 2.2.21 4.42-.2 6.61-18.91-.46-37.84.04-56.75-.19-14.62-.5-29.39 6.69-37.49 18.97-5.7 7.94-8.52 17.8-8.06 27.56.63 17.02 11.87 33.44 27.99 39.36 10.71 4.14 22.35 2.78 33.56 2.98 13.55.09 27.11-.13 40.65.11l.6.04c-.34 11.53-.53 23.07-.17 34.61-.85 9.76-.12 19.58-.47 29.37-.58.16-1.75.49-2.34.65.54-.22 1.62-.66 2.17-.88.18-8.69.12-17.39.03-26.08-16.47.14-32.95 0-49.42.05-8.33-.1-16.96-.18-24.77 3.15-10.5 3.88-18.49 12.59-23.53 22.37-3.93 7.77-4.86 16.77-3.83 25.35 2.39 16.54 14.75 31.51 31 36 8.15 2.49 16.73 1.68 25.11 1.8 15.3-.1 30.6.14 45.89-.09.3 12.54-.49 25.13.33 37.67l-.61.03c-15.88.13-31.76.02-47.64.07-5.31.06-10.66-.28-15.94.43-13.13 1.65-25.24 9.7-32.03 21.04-6.89 11.39-8.66 26.04-3.7 38.52 4.37 12.53 14.88 22.76 27.47 26.89 7.44 2.64 15.44 2 23.19 2.08 16.16-.07 32.33.05 48.49.05-.11-7.52.39-15.08-.3-22.57.2-1.54-1.82-2.74-1.27-4.11 1.8-.17 2.04 1.74 1.85 3.1-.52 15.05.65 30.04.19 45.08-.15 5.39.57 10.79-.1 16.16-13.6-.58-27.23.17-40.84-.09-10.78.39-21.98-1.35-32.3 2.61-14.91 5.54-26.44 19.54-28.81 35.31-1.17 8.56.04 17.44 3.75 25.27 6.38 14.27 20.97 24.32 36.54 25.45 10.94.64 21.89-.01 32.84.15 9.6-.2 19.21.61 28.8.02.77 9.01-.09 18.06.08 27.09-.16 3.52.35 7.06-.11 10.58-15.24-.21-30.49.05-45.74-.05-8.58.16-17.41-.81-25.71 1.91-11.37 3.54-20.82 12.08-26.35 22.53-8.22 16.42-5.03 37.94 8.17 50.86 7.57 7.75 18.04 12.47 28.85 13.06 9.66.5 19.34.09 29.01.22 10.59-.18 21.22.44 31.79-.3 2.36 36.58-20.66 73.41-54.9 86.79-11.3 4.75-23.63 6.79-35.86 6.59-109.52-.04-219.05.07-328.57-.04.02-1.38.06-2.74.11-4.1 10.15-.23 20.34.46 30.48-.19 9.61-.98 16.46-10.61 15.25-20.03 3.36-.04 6.72-.05 10.09-.02.14-30.3-.06-60.59.07-90.88-3.42-.04-6.84.01-10.26.13.41-6.63-2.4-13.61-8.14-17.22-4.77-3.15-10.73-2.27-16.13-2.33-29.96.04-59.92.03-89.88 0-5.8-.08-11.39 3.28-14.22 8.31-2.11 3.37-2.42 7.45-2.44 11.34-3.42-.09-6.83-.13-10.25-.19-.06 30.31-.22 60.62-.02 90.93 3.44.03 6.87.01 10.32-.06-.2 4.6.39 9.52 3.42 13.2 3.1 4.05 7.93 6.84 13.1 6.95 9.73.29 19.47 0 29.21.12-.08 1.37-.14 2.75-.2 4.14-112-.17-224 .05-336.01-.07-26.75-.29-53.01-13.71-68.76-35.36-12.91-16.44-19-37.68-18.07-58.46 15.96.13 31.91-.06 47.87.04 8.07-.13 16.42.71 24.16-2.11 9.39-2.82 17.35-9.3 22.93-17.25 8.32-12.15 9.81-28.6 3.95-42.09-6.34-15.57-22.08-27.14-39.07-27.27-19.94.06-39.88-.02-59.82.08-.1-12.68-.09-25.36-.04-38.03 15.62.25 31.25.03 46.88.1 7.95-.12 16.09.66 23.83-1.6 12.71-3.83 23.62-13.48 28.56-25.84 3.06-7.35 3.65-15.52 2.7-23.37-2.33-16.62-14.89-31.57-31.13-36.14-5.5-1.64-11.28-1.74-16.97-1.69-17.95.07-35.9-.04-53.85.12-.11-12.7.01-25.41-.02-38.11 19.62.24 39.24 0 58.87.08 10.91.24 21.62-4.3 29.53-11.73 10.66-9.89 15.99-25.25 13.42-39.61-2.77-20.23-21.24-37.45-41.87-37.54-19.97-.01-39.95-.16-59.91.13-.22-12.78.07-25.58-.05-38.37 16.27.12 32.55.02 48.82.07 6.72-.03 13.54.42 20.14-1.16 13.21-3.05 24.49-12.87 29.75-25.32 3.97-8.61 4.52-18.48 2.71-27.69-4-18.74-21.31-34.04-40.64-34.57-20.3-.16-40.61.08-60.91-.01.27-12.76.11-25.53.11-38.3 17.31.13 34.62.02 51.93.03 4.62.01 9.27.12 13.84-.63 14.67-2.24 27.68-12.72 33.27-26.42 4.75-11.04 4.34-24.02-.25-35.04-6.47-15.76-22.9-26.63-39.9-26.59-19.6.07-39.2-.09-58.79.2-.17-13.04-.08-26.08-.03-39.12 19.62.15 39.23.1 58.85.03 10.71.09 21.42-3.98 29.13-11.47 7.24-6.54 11.99-15.57 13.77-25.13 2.3-13.87-2.11-28.88-12.2-38.79-8.4-8.77-20.58-13.67-32.7-13.35-18.94.16-37.9-.33-56.84.27-.2-12.87.02-25.75-.09-38.62 20.07.37 40.17.05 60.25.15.96.02 1.92-.06 2.87-.27 11.24-.67 21.87-6.66 28.95-15.32 8.1-9.59 11.92-22.71 9.88-35.14-2.86-20.66-21.96-38.15-43.05-37.87-19.61.1-39.22-.23-58.82.15-.12-19.84 6.23-39.78 18.29-55.6 13.24-17.72 32.73-30.95 54.48-35.49m62.48 328.34c-9.8 1.18-17.46 10.76-16.89 20.55-.08 167.31.01 334.62-.04 501.94-.47 10.56 8.7 20.68 19.39 20.64 201.71.01 403.41 0 605.12-.01 7.65.41 15.33-4.04 18.59-11.01 2.82-5.47 1.82-11.77 1.94-17.67-.03-164.67-.01-329.34-.03-494.01.48-10.21-7.92-20.54-18.48-20.52-203.2.14-406.41-.1-609.6.09m7.04 585.87c-8.25.03-16.51-.27-24.75.13.29 31.54-.04 63.1.11 94.65 8.2-.01 16.41 0 24.62-.07-.04 2.81-.21 5.65.23 8.45.93 4.71 5.64 8.15 10.4 7.84 44.65-.03 89.31-.04 133.97-.02 3.72.15 7.51-1.79 9.29-5.09 2.04-3.4 1.23-7.52 1.36-11.27 8.58.32 17.18.08 25.77.14.07-31.55-.08-63.1.11-94.64-8.62-.4-17.26-.04-25.88-.11.91-5.66-2.25-12.76-8.59-13.11-45.69-.14-91.39-.06-137.08-.01-6.62.03-10.74 7.02-9.56 13.11m455.19-4.92c-3.2 1.1-5.7 4.17-6.23 7.52-9.82-.57-19.68-.28-29.51-.31.33 31-.2 62 .16 93 9.73-.09 19.45.15 29.18.11.06 4.41-.04 8.82.03 13.25-.18 5.64 5.11 10.62 10.73 10.29 44.67.06 89.35.11 134.03 0 4.81.15 9.68-3.47 10.22-8.38.41-5.11.14-10.24.2-15.35 7.11-.02 14.22.04 21.33.04-.09-30.96-.1-61.93 0-92.89-7.13-.35-14.28-.07-21.42-.02-1.15-4.59-5.48-8.29-10.36-7.81-42.66-.05-85.31.02-127.96-.01-3.47.05-6.99-.13-10.4.56z"/><path d="M675.19 498.15c4.14-2.23 9.47 2.47 7.86 6.88-.92 4.34-6.92 5.58-9.92 2.59-3.12-2.73-1.81-8.21 2.06-9.47zM652.42 504c2.87-3.01 7.15-4.25 11.15-4.94.03 20.09.9 40.16 1.08 60.24-3.63.07-7.25.11-10.87.11-.05-1.43-.1-2.86-.14-4.29-3.31 2.1-6.75 4.14-10.63 4.95-10.22 2.49-21.87-1.56-27.86-10.32-6.92-10.27-5.71-25.57 3.6-34.02 8.99-8.47 23.6-8.4 33.65-1.84.05-3.3-.37-6.61.02-9.89m-21.92 17.66c-5.09 2.25-8.4 7.8-8.1 13.34-.1 7.37 6.02 14.25 13.45 14.66 8.92.97 17.01-7.89 15.38-16.71-1.03-9.44-12.2-15.66-20.73-11.29zM457.91 508.03c2.85-3.06 7.26-4.21 11.26-4.81.23 20.08.69 40.16 1.1 60.23-3.84.08-7.68.27-11.5.01-.03-1.53-.06-3.06-.1-4.58-10.87 9.53-29.83 7.49-38.01-4.58-7.78-10.59-6.21-27.1 4.19-35.42 9.15-7.79 23.26-7.4 33.05-1 .06-3.29-.46-6.6.01-9.85m-20.45 16.62c-5.65 1.88-9.91 7.44-10.01 13.43-.58 8.61 7.78 16.74 16.45 15.33 9.35-.91 15.63-12.07 11.5-20.53-2.64-6.96-10.99-10.47-17.94-8.23zM537.64 507.97c3.49-1.32 7.03-2.52 10.69-3.31.48 3.9.39 7.84.34 11.76 1.91.54 4.35.18 5.88 1.61.43 3.18.19 6.41.22 9.61-1.83.03-3.67.06-5.48.1.06 5.72-.06 11.44.19 17.16-.18 4 3.92 6.13 7.23 7.03-.23 3.49-.95 6.92-1.47 10.38-5.39-.47-11.41-2.16-14.42-7.06-2.95-4.14-2.39-9.45-2.54-14.24-.44-11.01-.94-22.03-.64-33.04zM709.57 507.9c11.67-2.84 24.88 3.49 29.69 14.55 4.32 9.89 2.41 22.66-6.04 29.79-9.43 8.76-25.12 8.75-34.83.48-9.92-7.72-11.92-23.17-5.1-33.53 3.67-5.71 9.63-9.85 16.28-11.29m1.51 11.33c-7.6 2.02-12.22 10.91-9.44 18.3 2.17 7.68 10.96 12.32 18.53 9.63 8.34-2.42 12.05-13.22 8.18-20.68-2.89-6.32-10.74-9.42-17.27-7.25zM593.47 511.23c3.77-.24 7.55-.39 11.33-.37.58 9.01.69 18.06.9 27.09.16 6.08-1.56 12.45-5.84 16.93-9.12 9.9-27.64 8.87-34.92-2.71-4.21-6.22-3.75-14.01-3.81-21.16-.29-6.41-.33-12.82-.51-19.22 3.83-.11 7.67-.22 11.51-.22.15 8.84.48 17.68.56 26.53-.15 5.45 3.41 11.51 9.23 12.1 5.96.94 11.85-4.06 11.91-10.08.19-9.63-.24-19.26-.36-28.89zM505.49 512.61c8.66-2.37 18.24-.55 25.68 4.4-1.86 2.57-3.2 6.1-5.85 7.77-5.58-2.78-12.46-5.11-18.38-1.9-2.99 1.29-3.36 6.01-.2 7.34 7.26 3.15 16.08 2.31 22.59 7.33 6.53 6.04 4.37 18.44-3.6 22.29-10.78 5.77-25.19 4.15-34.59-3.65 2-2.69 3.82-5.52 5.98-8.09 5.53 3.58 12.3 6.44 18.98 4.76 2.71-.64 5.85-3.42 4.29-6.41-1.71-3-5.57-3.16-8.54-3.92-5.18-1.24-10.95-1.61-15.19-5.18-4.89-4.04-5.46-11.67-2.4-16.97 2.32-4.16 6.84-6.44 11.23-7.77zM361.83 528.74c3.92-8.42 12.85-14.16 22.11-14.44 8.99-.37 18.16 4.33 22.69 12.19 2.73 5.1 4.36 11.49 3.08 17.08-12.53.66-25.08.79-37.62 1.1 1.8 5.53 6.91 10.05 12.89 10.05 4.65.5 8.95-1.8 12.29-4.84 3.05 1.57 5.79 3.67 8.79 5.33-1.2 3.47-4.49 5.72-7.57 7.42-6.31 3.15-13.85 3.88-20.64 2-7.79-2.32-14.41-8.44-17.09-16.14-2.17-6.39-1.9-13.66 1.07-19.75m10.08 5.88c8.58-.09 17.17-.31 25.75-.53-1.61-5.05-6.26-9.12-11.65-9.35-6.29-.6-12.38 3.87-14.1 9.88zM672.27 514.39c3.29-.64 6.65-.61 9.99-.64.63.98.94 2.05.94 3.23.25 14.13.88 28.27.97 42.41-3.76.1-7.52.14-11.28.01.12-15.01-.72-30.01-.62-45.01zM312.27 521.3c10.26-8.93 27.56-7.14 36.05 3.41 4.53 5.64 6.51 13.38 5.01 20.48-12.35.33-24.7.8-37.05.7 1.3 4.02 4.18 7.73 8.2 9.3 5.79 1.91 12.23.15 16.62-3.97 3 1.63 5.83 3.56 8.8 5.26-3.84 7.43-12.9 10.62-20.87 10.32-8.48.14-16.86-4.24-21.47-11.37-7.14-10.44-5.08-26.05 4.71-34.13m3.72 14.28c8.41.05 16.84.08 25.23-.47-1.28-4.95-6.03-9-11.21-9.29-6.22-.7-12.37 3.79-14.02 9.76zM258.06 521.07c10.39-7.22 26.27-5.27 34.11 4.81 4.45 5.56 6.23 12.91 5.53 19.94-1.08.69-2.45.44-3.65.6-11.31.38-22.63.41-33.93.93 1.52 6.05 7.6 10.36 13.8 10.01 4.26.07 8.05-2.19 11.12-4.94 3.08 1.91 6.3 3.59 9.34 5.57-8.26 12.3-27.57 13.09-38.42 3.81-12.54-9.98-11.49-32.15 2.1-40.73m1.52 15.82c8.65-.04 17.29-.26 25.94-.31-1.61-4.63-5.52-8.5-10.43-9.37-6.74-1.64-13.37 3.48-15.51 9.68zM203.41 525.38c2.57-3.92 7.06-6.03 11.48-7.1 8.47-1.99 17.5.01 24.8 4.59-1.9 2.67-3.48 5.56-5.54 8.12-4.64-2.35-9.78-4.58-15.1-3.48-2.83.36-6.03 2.27-5.97 5.48.16 2.47 2.68 3.62 4.8 4.08 6.5 1.51 13.69 1.72 19.29 5.74 4.71 3.38 5.38 10.04 3.9 15.24-1.78 5.77-7.54 9.12-13.11 10.42-9.82 2.12-20.83.18-28.66-6.34 2.1-2.83 4.09-5.76 6.61-8.23 5.43 4.27 12.79 6.76 19.62 4.78 2.47-.67 4.44-3.16 3.83-5.78-1.4-3.32-5.51-3.46-8.52-4.25-5.42-1.31-11.53-1.73-15.85-5.64-4.83-4.42-5.04-12.33-1.58-17.63zM665.13 596.11c5.38-4.89 14.33-6.11 20.34-1.65 2.52 1.77 4.04 4.59 4.89 7.5-1.49.38-2.94.8-4.4 1.23-1.25-2.11-2.28-4.52-4.37-5.94-5.14-3.1-12.65-.87-15.07 4.68-2.09 4.84-1.86 10.6-.01 15.49 1.78 5.06 7.8 8.13 12.91 6.25 3.96-1.07 6.12-4.89 7-8.62 1.67.25 3.4.51 4.95 1.27-1.3 3.17-2.48 6.67-5.29 8.87-4.48 3.54-10.81 3.9-16.1 2.2-6.01-2-9.03-8.47-9.73-14.36-.99-5.95.33-12.68 4.88-16.92zM695.14 601.27c.41-5.13 4.65-9.7 9.94-9.72 5.48-.72 11.53 3.56 11.35 9.38.09 2.95-2 5.23-4.12 6.98 5.6 1.84 7.63 9.1 4.67 13.96-3.38 6.34-12.72 7.57-18.17 3.29-2.33-1.83-3.47-4.68-4.24-7.45 1.65-.23 3.3-.39 4.97-.56.62 3.58 3.49 7.23 7.49 6.7 5.54.03 8.39-7.68 4.72-11.55-2.07-2.42-5.51-2.37-8.33-1.63.03-.94.09-2.82.13-3.76 2.78-.46 6.42-.65 7.67-3.68 1.6-3.22-.56-7.57-4.28-7.76-3.63-.73-6.95 2.39-7.06 5.96-1.59-.05-3.17-.1-4.74-.16zM622.53 594.25c5.73-2.37 13.89-.61 16.05 5.8 1.67 5.89-2.51 11.18-6.59 14.9-3.05 3.17-7.06 5.56-9.2 9.5 5.54-.09 11.08-.17 16.63-.26v4.29c-7.83.15-15.66.4-23.49.39.46-7.58 7.62-11.74 12.6-16.42 3.14-2.98 7.01-7.29 5.05-11.93-1.73-4.35-8.25-4.49-11-1.1-1.35 1.28-1.43 3.22-1.86 4.91-1.54-.14-3.08-.29-4.59-.49.39-3.97 2.36-8.24 6.4-9.59zM589.09 603.51c.35-7.52 9.51-12.04 15.95-8.55 6.02 2.35 7.44 12.23 1.24 15.22 7.1 2.1 7.95 12.21 2.73 16.7-6.19 6.09-19.61 2.96-19.95-6.57 1.44-.38 2.88-.75 4.33-1.12.49 3.75 3.48 7.56 7.61 7.1 5.41-.1 8.75-7.31 5.11-11.4-2.05-2.73-5.74-2.37-8.74-2.13.16-1.32.34-2.63.52-3.94 3.15.11 7.2-1.03 7.77-4.64 1.03-4.29-3.94-7.75-7.78-6.12-2.67.66-3.86 3.35-4.18 5.84-1.55-.12-3.09-.26-4.61-.39zM492.77 596.55c8.48-.52 17-.06 25.48-.72.04 1.46.07 2.92.1 4.39-6.86.16-13.73.27-20.59.38.04 3.57.06 7.14.12 10.71 6.47.03 12.95-.09 19.43-.28.04 1.39.08 2.79.11 4.2-6.42.24-12.84.33-19.27.31-.06 3.91.1 7.83.07 11.75 7.22.24 14.44-.16 21.67-.15l-.06 4.3c-8.74.16-17.49.11-26.22.53-.22-11.81-.62-23.61-.84-35.42zM529.32 597.26c5.38-3.28 12.85-3.31 17.96.52 2.46 1.81 3.6 4.83 3.52 7.83-1.47-.01-2.94-.03-4.4-.04-.52-2.39-1.61-5.04-4.21-5.75-3.17-.87-6.84-1.03-9.83.5-3.02 1.55-3.18 6.63.12 7.98 5.56 2.35 12.39 1.8 17.11 6.03 4.59 3.99 3.03 12.18-2.16 14.95-5.91 3.26-14.1 3.16-19.44-1.19-2.42-1.98-3.6-5-3.91-8.03 1.47-.43 2.96-.81 4.49-1 .67 8.21 11.68 10.44 17.36 5.89 2.42-2.15 2.37-6.73-.94-8.01-5.34-2.32-11.69-2-16.58-5.45-4.78-3.25-3.94-11.44.91-14.23zM557.71 595.1c5.76-.44 11.55-.43 17.32-.31 3.91-.03 7.8 2.37 9.06 6.16 1.4 4.38.71 10.08-3.47 12.74-5.21 3.22-11.67 1.74-17.45 2.23-.05 4.8.06 9.6.12 14.41-1.66.01-3.31.01-4.96.02-.06-11.76-.54-23.5-.62-35.25m4.94 4.07c.24 4.19.03 8.4.42 12.59 4.28-.15 8.65.2 12.85-.78 5.34-1.3 5.3-10.29.08-11.69-4.4-.86-8.91-.04-13.35-.12zM448.58 597.76c5.79-1.89 12.62-.78 17.17 3.39 3.75 3.51 5.27 8.8 5.17 13.83.25 5.08-1.43 10.32-5.04 13.97-7.01 6.57-19.85 5.73-25.28-2.48-6.17-9.2-3.57-25.14 7.98-28.71m1.85 3.92c-8.67 2.98-9.65 14.74-5.94 21.88 3.44 6.56 13.24 7.48 18.14 2.08 4.42-4.84 4.24-12.48 1.9-18.25-2.25-5.27-8.85-7.6-14.1-5.71zM415.32 598.28c1.78-.02 3.56-.05 5.34-.01 5.11 11.64 10.35 23.22 15.26 34.94-1.78.05-3.55.12-5.32.21-1.88-3.3-2.79-7.08-4.75-10.3-4.7-.66-9.6.02-14.36.18-1.12 3.5-2.29 6.98-3.39 10.49-1.81.01-3.6.03-5.39.06 4.42-11.77 8.36-23.73 12.61-35.57m2.54 4.62c-1.1 5.49-3.16 10.72-5.03 15.98 3.86.05 7.73-.01 11.59-.02-2.1-5.35-4.16-10.76-6.56-15.96zM334.41 599.76c1.46-.03 2.92-.05 4.39-.06.29 11.88.58 23.77.67 35.66-1.45 0-2.9 0-4.34.01-.39-11.87-.58-23.74-.72-35.61zM357.49 599.64c1.92-.12 3.84-.18 5.76-.2 3.34 4.23 6.34 8.71 9.35 13.18 3.04-4.53 5.83-9.27 9.31-13.47 1.74-.58 3.63-.24 5.44-.34-3.92 5.76-7.82 11.54-11.97 17.13 4.48 6.18 9.47 11.99 13.72 18.33-2.3-.25-5.64 1.27-7.1-1.27-3.2-4.3-6.39-8.61-9.33-13.09-3.47 4.82-6.71 9.81-9.99 14.77-2 .11-4.01.11-6 .1 4.43-6.23 8.65-12.6 13.17-18.77-4.45-5.2-8.08-11.03-12.36-16.37zM393.11 598.73c1.56 0 3.11 0 4.68.01.43 11.71.58 23.43.78 35.15-1.63-.02-3.25 0-4.87.02-.16-11.72-.63-23.46-.59-35.18zM296.64 600.77c1.48-.01 2.97-.01 4.46-.01.18 11.73.55 23.46.66 35.2-1.34.08-2.68.15-4.01.21-.05-.58-.17-1.76-.22-2.35-4.5 4.86-13.13 3.57-16.3-2.12-2.75-5.23-2.88-12.14.31-17.2 3.3-5.01 11.1-5.67 15.15-1.21.01-4.18-.03-8.35-.05-12.52m-9.08 13.97c-3.51 2.01-4.17 6.62-3.56 10.28.37 3.14 1.78 6.71 5.03 7.81 3.46 1.3 7.33-1.47 7.99-4.92.72-3.81.59-8.11-1.6-11.43-1.69-2.47-5.28-3-7.86-1.74zM230.28 631.97c3.16-9.93 6.3-19.87 9.55-29.77 2.15.02 4.31-.02 6.46.06.44 11.73.3 23.48.92 35.2-1.55.01-3.1.02-4.64.04-.26-9.57-.49-19.14-.91-28.71-3.25 9.61-6.12 19.33-9.2 28.99l-4.38.03c-3.36-9.71-6.9-19.36-10.6-28.94.13 9.64.46 19.29.72 28.93-1.54.26-3.1.43-4.67.49-.41-11.81-.35-23.65-.72-35.46 2.37-.04 4.75-.09 7.12-.08 3.74 9.63 7.36 19.32 10.35 29.22zM346.65 614.39c.01-1.76.03-3.5.07-5.24 1.68.01 3.37.04 5.05.06-.01 1.67-.02 3.35-.02 5.04-1.71.03-3.41.08-5.1.14zM307.63 616.43c2.78-7.16 13.38-9.27 18.7-3.77 3.02 2.87 3.66 7.18 3.66 11.15-6.29.12-12.57.4-18.85.5.37 3.78 2.75 7.94 6.96 8.16 3.49.58 6.67-1.91 7.52-5.23 1.45.09 2.9.22 4.36.37-1.17 9.13-14.11 11.58-19.92 5.35-4-4.36-4.29-11.16-2.43-16.53m3.48 4.13c4.77-.07 9.55-.2 14.32-.3-.48-3.35-2.66-6.72-6.32-6.92-4.3-.68-7.55 3.29-8 7.22zM259.5 611.62c5.08-1.89 11.6-.29 14.47 4.52 2.17 3.82 2.17 8.52 1.47 12.75-1.35 6.67-9.41 10.22-15.55 8.04-10.64-3.35-11.22-21.82-.39-25.31m.84 3.91c-4.52 2.93-4.64 9.54-2.68 14.05 1.62 4.03 7.24 5.48 10.56 2.64 3.4-2.97 3.59-8.14 2.53-12.22-1.03-4.32-6.56-6.8-10.41-4.47zM642.79 613.25c4.6-.04 9.2-.2 13.8-.13-.02 1.47-.03 2.96-.03 4.45-4.5.15-9 .1-13.5.14-.13-1.5-.21-2.98-.27-4.46zM474.43 616.85c4.61-.12 9.21-.14 13.82-.17-.02 1.55-.03 3.11-.03 4.67-4.6.02-9.2.11-13.8.16-.01-1.56-.01-3.11.01-4.66zM347.09 629.81l5.08-.09c.01 1.74.06 3.48.05 5.23-1.72-.04-3.43-.06-5.14-.07 0-1.7.01-3.39.01-5.07zM657.55 682.62c15.24-8.87 33.14-12.93 50.72-12.15.06 8.23.46 16.47.37 24.71-17.84-1.24-36.06 5.13-49.16 17.31-10.16 9.11-17.13 21.69-19.45 35.14 16.92-.12 33.86-.66 50.78-.68.75 8.21.47 16.51.77 24.76-16.94.1-33.88.39-50.8 1 3.12 17.74 15.74 32.75 31.38 41.11 12.26 6.83 26.59 9.38 40.51 8.22.06 8.11.58 16.21.8 24.32-15.57 1.74-31.53-.63-45.96-6.69-14.74-6.55-28.08-16.63-37.66-29.68-10.43-14.46-16.41-32.11-16.57-49.97-.57-17.28 4.94-34.36 14.12-48.87 7.48-11.81 18.14-21.47 30.15-28.53zM518.34 697.35c17.82-16.92 42.68-25.21 67.05-24.58.17 8.25.17 16.5.37 24.75-16.32-.95-32.87 4.16-45.68 14.33-14.45 11.58-23.93 29.49-23.97 48.16-.6 13.29 4.04 26.42 11.61 37.22 13.57 19.22 38.05 29.52 61.3 26.98.59 8.14.62 16.31.84 24.47-18.18 2.13-36.84-1.82-52.98-10.32-13.34-7.43-25.05-18-33.15-30.99-11.08-17.4-15.66-38.86-12.33-59.25 2.91-19.33 12.67-37.44 26.94-50.77zM343 679.57c15.87-3.05 32.62-2.55 47.96 2.81 18.12 5.88 33.95 18.02 44.97 33.47-5.89 3.59-11.2 8.02-16.87 11.93-8.67-11.91-21.14-21.01-35.07-25.79-15.45-5.01-32.65-4.59-47.81 1.25-14.05 5.65-26.34 15.59-34.53 28.36-10.37 15.42-13.78 35.08-9.98 53.2 5.55 30.5 33.51 54.96 64.31 57.12 25.24 2.04 50.6-10.51 65.16-31.06 6.28 2.86 11.73 7.19 17.37 11.11-19.75 30.16-58.24 46.74-93.69 39.66-16.54-2.8-31.82-10.89-44.38-21.87-16.48-14.56-27.41-35.11-30.34-56.91-11.11.47-22.23.42-33.35.66.37 21.75 1.39 43.5 1.55 65.25-6.46 5.26-13.13 10.25-19.9 15.11-1.45-59.31-3.08-118.62-4.55-177.93-.73-2.17 1.75-2.18 3.05-2.09 25.42-.14 50.81-1.73 76.23-1.51-5.47 6.19-9.99 13.16-15.64 19.2-.83 1.02-2.09 1.66-3.43 1.56-13.14.1-26.27.5-39.41.76.29 19.82 1.54 39.63 1.99 59.45 10.94-.7 21.91-.73 32.88-.85 2.05-19 9.39-37.5 21.94-52.03 13.05-15.69 31.56-26.72 51.54-30.86z"/><path d="M334.13 725.05c12.64-7.83 28.57-9.48 42.76-5.4 10.99 3.32 20.77 10.2 27.61 19.43-5.24 4.27-10.75 8.21-15.72 12.81-5.13-6.23-11.78-11.57-19.85-13.21-14.63-3.67-31.03 4.58-36.91 18.45-4.49 10.64-3.12 23.7 3.95 32.92 5.9 8.15 15.84 13.33 25.97 12.89 10.95.18 21.28-6.18 27.26-15.14 2.85.83 4.98 2.99 7.33 4.69 3.1 2.44 6.35 4.74 9.22 7.46-2.47 5.34-7.41 9.23-11.99 12.81-10.11 7.69-23.07 11.6-35.75 10.51-16.74-.8-32.54-10.64-41.29-24.82-7.63-12.16-10.01-27.54-6.31-41.42 3.64-13.05 11.87-25.11 23.72-31.98zM693.72 905.76c3.43-5.28 10.28-7.62 16.34-6.61 5.31.75 10.06 5.03 10.95 10.39-1.71-.03-4.66 2.26-5.23-.46-2.38-7.77-14.2-7.64-17.83-1.01-3.11 5.66-2.82 13 .33 18.59 2.66 4.91 9.88 6.36 14.3 3.04 2.42-1.77 3.6-4.61 4.46-7.38 1.53.29 3.05.5 4.62.7-.48 4.95-3.76 9.67-8.5 11.4-3.86 1.4-8.21 1.45-12.1.19-4.36-1.41-7.56-5.28-8.96-9.55-2.1-6.26-1.96-13.6 1.62-19.3zM725.53 908.31c.82-4.31 3.88-8.46 8.4-9.27 5.78-1.74 13.39 2.4 13.01 8.96.33 3.07-1.67 5.68-4.24 7.1 7.16 1.65 8.33 11.47 3.5 16.16-6.13 6.97-20.65 3.73-20.47-6.52 1.46-.14 2.93-.26 4.42-.37.6 3.69 3.77 7.55 7.86 6.9 5.72-.39 8.41-8.79 4-12.4-2.16-1.96-5.26-1.7-7.88-1.08.15-1.3.32-2.57.5-3.85 3.51.25 7.84-1.93 7.73-5.91.39-4.54-5.53-7.15-8.96-4.58-2.06 1.1-2.75 3.43-3.29 5.53-1.54-.24-3.06-.45-4.58-.67zM669.23 901.13c4.64-1.83 10.7-1.48 14.25 2.37 2.99 3.2 3.1 8.31.86 11.96-3.52 6.51-11.25 9.39-14.59 16.01 5.51-.42 11.03-.28 16.55-.42.05 1.42.09 2.84.14 4.28-7.96-.13-15.97.9-23.88.11 1.55-7.42 8.01-11.87 13.27-16.62 2.86-2.74 6.32-6.37 5.11-10.69-1.32-4.96-8.76-5.65-11.65-1.77-1.17 1.35-1.21 3.24-1.65 4.91-1.39-.2-2.78-.35-4.17-.45-.28-4.02 1.91-8.2 5.76-9.69zM636.07 910.61c.16-8.07 10.11-12.61 16.67-8.42 5.51 2.73 6.14 11.69.38 14.54 7.05 2.27 8.16 12.61 2.56 16.99-6.33 6.11-19.58 2.95-19.98-6.69 1.45-.3 2.89-.6 4.35-.89.9 2.6 2.01 5.81 4.95 6.67 4.75 1.63 10.11-2.79 9.37-7.8-.21-4.85-5.97-6.69-10.01-5.4.11-.95.32-2.83.43-3.77 3-.07 6.77-.92 7.69-4.25 1.39-3.88-2.49-7.86-6.39-7.13-3.32.28-5 3.57-5.64 6.45-1.47-.1-2.93-.21-4.38-.3zM576.42 903.59c4.53-2.29 10.05-2.59 14.79-.74 3.78 1.46 6.09 5.35 6.42 9.29-1.54.07-3.08.14-4.61.2-.53-6.68-8.97-7.81-13.85-5.2-2.21 1.15-3.89 4.41-2.01 6.56 2.49 2.81 6.59 2.72 9.98 3.61 4.19.83 9.2 2.13 10.97 6.52 2.11 4.59-.1 10.33-4.58 12.54-5.57 2.8-12.84 2.7-18.1-.76-2.92-2.03-4.53-5.43-4.99-8.87 1.65-.23 3.29-.45 4.96-.58.26 7.58 9.81 9.29 15.48 6.71 3.15-1.34 4.89-6.33 1.65-8.5-5.53-3.61-13.13-2.2-18.27-6.6-4.44-3.83-2.85-11.62 2.16-14.18zM604.44 901.83c5.84-.12 11.68-.37 17.52-.23 3.57 0 7.2 2.03 8.63 5.38 2.19 4.96.91 12.07-4.54 14.3-5.18 1.99-10.9 1.18-16.32 1.47-.19 4.84.76 9.72.04 14.52-1.47-.17-3.11.18-4.46-.35-.45-11.69-.61-23.4-.87-35.09m5.07 4.07c-.02 4.2.06 8.39.13 12.6 4.63-.24 9.45.41 13.92-1.09 4.92-2.05 3.85-10.67-1.45-11.45-4.19-.45-8.41 0-12.6-.06zM512.54 903.76c6.61-1.71 14.61.27 18.33 6.33 4.18 6.79 4.51 16.18.07 22.93-5.79 8.37-19.64 8.98-26.13 1.13-7.81-9.24-5.09-27.24 7.73-30.39m1.97 3.9c-9.4 2.29-10.88 14.51-7.08 21.98 3.18 6.46 12.77 7.91 17.84 2.87 4.7-4.98 4.82-12.98 2.13-18.98-2.2-4.74-7.87-7.28-12.89-5.87zM539.37 903.3c8.51-.18 17.02-.62 25.54-.56-.02 1.45-.05 2.92-.07 4.4-6.83-.02-13.66.05-20.49.27.1 3.58.11 7.17.35 10.76 6.47-.06 12.94-.46 19.42-.38 0 1.35.02 2.7.04 4.07-6.46.54-12.96.19-19.43.55.27 3.97-.29 8.02.53 11.95 7.09-.54 14.19-.54 21.3-.61-.03 1.43-.05 2.88-.07 4.34-8.78-.01-17.55.35-26.33.39.13-11.73-.7-23.45-.79-35.18zM478.45 904.44c1.73-.02 3.46-.01 5.21-.01 5.31 11.61 10.03 23.49 15.3 35.13-1.86.04-3.72.1-5.57.13-1.5-3.48-2.91-6.99-4.29-10.5-4.82.14-9.63.16-14.44.29-1.28 3.56-2.44 7.17-3.59 10.79-1.78-.01-3.56 0-5.33.02 4.51-11.85 8.4-23.93 12.71-35.85m-2.48 20.93c3.86-.09 7.72-.16 11.59-.2-2.25-5.35-4.41-10.73-6.37-16.19-1.29 5.61-3.49 10.92-5.22 16.39zM445.19 905.26c1.74.01 3.48.01 5.23.04-3.73 5.76-7.76 11.33-11.83 16.87 4.72 6.08 9.2 12.34 13.85 18.48-2.04.01-4.07.07-6.1.11-3.73-4.69-7.04-9.69-10.57-14.53-3.05 5.18-6.74 9.95-9.95 15.03-1.97.07-3.94.1-5.9.14 4.22-6.31 8.51-12.59 12.99-18.72-4.1-5.64-8.48-11.07-12.45-16.8l5.74-.09c3.5 4.09 6.26 8.75 9.68 12.9 3.03-4.52 5.91-9.17 9.31-13.43zM456.1 905.16c1.56-.13 3.12-.25 4.69-.34.59 11.88.78 23.78.9 35.68-1.63-.03-3.26-.05-4.88-.06-.28-11.76-.38-23.53-.71-35.28zM373.55 906.88c9.36-.15 18.72-.19 28.08-.44.02 1.43.04 2.87.07 4.32-3.88.07-7.75.03-11.61.37.18 10.34.54 20.69.48 31.04-1.58-.01-3.16-.01-4.73-.01-.11-10.32-.37-20.65-.62-30.96-3.91.14-7.82.06-11.72.2 0-1.51.02-3.02.05-4.52zM350.99 922.98c3.89-5.12 7.07-10.74 10.88-15.91l3.75.04c.26 7.58.34 15.17.55 22.76 1.66-.02 3.32-.03 4.99-.03l.09 3.98c-1.64.09-3.28.22-4.92.35.03 2.84.03 5.68 0 8.53-1.49-.05-2.98-.1-4.46-.16-.03-2.74-.07-5.47-.08-8.19-5.31-.07-10.61.16-15.92.08-.83-4.63 2.84-7.93 5.12-11.45m.06 7.19c3.54-.06 7.09.1 10.62-.17-.27-5.02-.2-10.05-.41-15.06-4.13 4.51-6.88 10.12-10.21 15.23zM318.21 908.29c8.41 0 16.8-.56 25.21-.55-.04 1.7.67 3.68-.57 5.13-6.62 8.83-13.54 17.45-20 26.4 7.31-.16 14.62-.23 21.94-.43-.05 1.49-.09 2.99-.13 4.51-9.28-.03-18.55.4-27.82.3.2-1.94-.36-4.2 1-5.8 6.79-8.43 12.71-17.54 19.89-25.65-6.5.17-13 .16-19.5.32 0-1.05-.02-3.17-.02-4.23zM272.05 916.05c4.05-6.93 13.65-9.51 20.78-6.11 3.52 1.61 5.38 5.17 7.12 8.42-1.56.84-3.3 1.13-5.04 1.39-.95-2.9-2.87-5.68-5.87-6.67-4.27-1.18-9.37.18-12.03 3.85-2.94 4-2.81 9.38-2.06 14.08.79 4.98 4.67 9.83 10.01 10.05 5.52.59 10.09-4.06 10.89-9.27 1.54.31 3.1.65 4.66.97-.78 4.85-3.77 9.45-8.43 11.33-6.29 2.44-14.58 1.33-18.64-4.51-4.59-6.76-5.62-16.37-1.39-23.53zM205.57 911.17c7.93-.77 15.94-.43 23.9-.76.01 1.43.02 2.87.02 4.32-6.29.29-12.61-.2-18.88.48.09 3.5.11 7.02.14 10.53 5.52-.05 11.04-.11 16.57-.16.04 1.49.09 2.99.13 4.5-5.54.02-11.08.05-16.62.21.07 5.38.38 10.75.44 16.14-1.65.02-3.3.04-4.95.07.02-11.78-.48-23.55-.75-35.33zM236.99 916.17c4.55-6.41 13.96-8.8 20.96-5.2 3.33 1.81 5.49 5.09 6.88 8.54l-4.77 1.11c-.98-2.32-2.19-4.74-4.48-5.98-4.57-2.32-10.89-1.15-13.88 3.15-2.68 3.79-2.71 8.73-2.15 13.16.57 4.02 2.51 8.36 6.48 10.02 4.08 1.67 9.43.87 12.23-2.74 1.32-1.6 1.82-3.65 2.44-5.57 1.6.33 3.21.69 4.82 1.05-1.01 5.35-4.81 10.57-10.33 11.77-4.57.83-9.75.85-13.72-1.9-4.42-3-6.69-8.32-7.19-13.5-.46-4.74-.12-9.9 2.71-13.91zM306.15 918.18c1.69.01 3.39.01 5.09.07-.01 1.65-.01 3.32 0 4.99-1.74-.03-3.48.02-5.21-.01l.12-5.05zM404.38 926.5c4.49-.09 8.98-.14 13.47-.21.02 1.5.05 3.02.07 4.55-4.36-.02-8.73.45-13.08.2-1.07-1.11-.23-3.11-.46-4.54zM306.61 938.8c1.72-.03 3.44-.05 5.17-.06-.02 1.76-.04 3.53-.05 5.32-1.69 0-3.38.01-5.07.03-.02-1.77-.04-3.54-.05-5.29z"/></g><g fill="#797978"><path d="M218.15 129.14c2.97-6.94 9.75-11.85 17.07-13.26.36 30.4.28 60.81.13 91.21-6.18-1.23-11.91-4.81-15.38-10.11-3.53-5.27-4.36-11.78-4.39-17.98-.02-12.01.03-24.02.02-36.04-.03-4.7.44-9.54 2.55-13.82zM677.1 115.85c3.13.93 6.33 1.93 8.95 3.97 6.96 5.01 10.13 13.85 10.12 22.19.01 12.35-.05 24.7-.01 37.05-.08 6.88-1.11 14.19-5.23 19.9-3.3 4.56-8.58 7.22-14.06 8.07-.02-30.4-.4-60.8.23-91.18zM360.43 259.52c8.09-1.39 16.38-.38 24.56-.69 6.4-.01 14.18-1.1 18.82 4.43 6.44 6.66 2.96 19.27-6.09 21.49-7.15 1.27-14.48.31-21.71.62-6.34-.32-13.43 1.26-19.05-2.47-5.74-3.69-7.49-12.07-3.87-17.8 1.71-2.62 4.34-4.66 7.34-5.58zM538.23 259.39c7.52-1.11 15.17-.35 22.75-.59 6.31.16 13.63-1.19 18.82 3.35 6.99 5.88 5.3 18.86-3.48 22.11-6.25 1.96-12.93.72-19.36 1.1-6.72-.29-13.68.94-20.22-1.04-7.26-2.44-10.38-11.79-6.88-18.4 1.6-3.31 4.86-5.61 8.37-6.53zM218.7 349.99c.45-9.89 6.02-21.07 16.56-23.1.29 18.78.03 37.57.24 56.35.11 3.93.13 7.87.18 11.81 9.21.23 18.43.11 27.65.11 0 .73-.02 2.2-.02 2.93-1.72 7.21-6.5 13.8-13.42 16.75-7.23 3.14-16.37 1.99-22.06-3.65-6.33-5.48-9.24-13.97-9.2-22.19-.04-13-.2-26.01.07-39.01zM676.92 326.62c5.4 1.75 10.42 5.23 12.9 10.49 3.4 6.03 3.81 13.08 3.6 19.84-.03 10.7-.01 21.4-.01 32.1-.06 7.99-2.45 16.4-8.32 22.08-6.1 5.9-16.01 7.2-23.49 3.26-7.05-3.84-12.27-11.04-13.21-19.08 9.47-.2 18.94-.03 28.41-.3.25-3.95.35-7.91.13-11.86-.35-18.84-.08-37.69-.01-56.53zM284.11 394.98c8.75.38 17.51.1 26.26-.02-.13 12.96-.07 25.92-.1 38.88-8.72-.03-17.43-.11-26.15-.05.19-12.94-.52-25.88-.01-38.81zM322.93 394.88c8.85.14 17.69.29 26.54.02.04 13 .02 26.01-.06 39.01-8.8-.19-17.6-.06-26.39-.11-.14-12.97.26-25.95-.09-38.92zM361.8 394.92c4.68.16 9.37.33 14.06.08.03 10.33.05 20.66.04 30.99.21 2.62-.94 5.29-3.23 6.69-3.72 2.56-9.28.6-10.97-3.48-.06-11.42-.28-22.86.1-34.28zM386.81 395.03c4.42-.01 8.83-.03 13.25-.06.24 1.39.51 2.78.7 4.18-.04 9.3.21 18.61.06 27.91.1 3.33-2.62 6.29-5.9 6.65-3.45.67-6.81-1.55-8.23-4.61-.09-11.35-.17-22.72.12-34.07zM411.82 394.79c4.65.04 9.29.18 13.94.12-.05 10.73.11 21.46-.07 32.18.04 3.23-2.66 6.09-5.78 6.6-3.43.71-6.79-1.45-8.25-4.48.05-11.47-.27-22.95.16-34.42zM436.79 395.15c4.65.02 9.31-.1 13.96-.22-.04 10.38.13 20.76.07 31.13.27 3.33-1.9 6.6-5.16 7.45-3.58 1.16-7.54-1.01-9.04-4.33.13-11.34-.29-22.69.17-34.03zM461.8 394.87c4.67-.08 9.33-.03 14.01.03-.01 10.71.13 21.44-.08 32.15.02 3.93-3.92 7.25-7.79 6.66-3.02-.15-5.68-2.6-6.35-5.49.15-11.12-.17-22.24.21-33.35zM486.75 394.96c4.68.15 9.38.25 14.06-.01-.11 10.66.13 21.33-.07 31.99.09 3.66-3.16 6.83-6.77 6.85-3.14.26-6.06-1.84-7.34-4.6.09-11.41-.2-22.83.12-34.23zM511.81 394.91c4.67-.1 9.34-.07 14.02-.01 0 9.36-.1 18.73.04 28.1-.02 3 .36 6.57-2.21 8.72-3.53 3.63-10.16 2.18-12-2.5.02-11.43-.25-22.88.15-34.31zM536.24 394.95c4.65.13 9.31.24 13.97.25.47 11.33-.09 22.67.23 34-1.19 2.46-3.62 4.6-6.48 4.55-3.77.32-7.7-2.72-7.67-6.64-.22-10.72.03-21.44-.05-32.16zM562.69 394.9c8.82-.09 17.65.49 26.47 0-.03 13 .03 26 0 39-8.84-.07-17.69-.15-26.53-.01.02-13 .02-25.99.06-38.99zM601.7 394.86c8.8.31 17.59-.03 26.39.04 0 12.97-.05 25.93-.05 38.9-8.74-.06-17.49-.01-26.23.05-.1-13 .04-26-.11-38.99zM132.71 1030.5c8.24-.4 16.5-.1 24.75-.13.05 31.57.06 63.14-.02 94.71-8.21.07-16.42.06-24.62.07-.15-31.55.18-63.11-.11-94.65zM312.69 1030.38c8.62.07 17.26-.29 25.88.11-.19 31.54-.04 63.09-.11 94.64-8.59-.06-17.19.18-25.77-.14-.09-31.54-.07-63.07 0-94.61zM576.91 1032.66c9.83.03 19.69-.26 29.51.31-.36 30.92.02 61.86-.17 92.8-9.73.04-19.45-.2-29.18-.11-.36-31 .17-62-.16-93zM761.37 1032.71c7.14-.05 14.29-.33 21.42.02-.1 30.96-.09 61.93 0 92.89-7.11 0-14.22-.06-21.33-.04-.09-30.96.16-61.92-.09-92.87zM453.32 1034.42c12.52-1.93 25.64 1.1 36.08 8.25 10.8 6.79 18.49 18.05 21.5 30.4 3.9 14.97.67 31.73-8.91 43.95-7.49 10.17-19.04 16.95-31.31 19.56-12.23 2.36-25.27 0-36.01-6.28-11.02-6.14-19.24-16.78-23.2-28.68-5.29-16.24-1.83-34.97 8.88-48.27 8.33-9.88 20.03-17.21 32.97-18.93m2.13 10.36c-20.14 2.01-36.73 21.03-35.99 41.22-.03 12.26 5.85 24.43 15.56 31.96 7.08 6.12 16.67 9.03 25.97 8.61 15.61.88 31.22-8.99 37.12-23.47 4.32-7.62 3.66-16.58 3.35-24.99-1.71-10.99-9.22-20.03-17.54-26.93-8.35-5.29-18.66-7.55-28.47-6.4zM382.16 1035.97c3.42.06 6.83.1 10.25.19-.02 30.22.06 60.45.05 90.68-3.45.07-6.88.09-10.32.06-.2-30.31-.04-60.62.02-90.93zM523.22 1036.06c3.42-.12 6.84-.17 10.26-.13-.13 30.29.07 60.58-.07 90.88-3.37-.03-6.73-.02-10.09.02-.2-30.25-.11-60.51-.1-90.77zM438.19 1147.11c13.13.14 26.27.1 39.4-.06a198.57 198.57 0 0 0-.12 10.08c-13.21-.5-26.42 0-39.61-.18.02-1.91.04-3.81.13-5.7.06-1.39.12-2.77.2-4.14z"/></g><g fill="#c8a555"><path d="M15.17 207.25c19.6-.38 39.21-.05 58.82-.15 21.09-.28 40.19 17.21 43.05 37.87 2.04 12.43-1.78 25.55-9.88 35.14-7.08 8.66-17.71 14.65-28.95 15.32-20.99.01-42.02.38-63-.14-.14-7.77.39-15.56-.35-23.31.11-.5.33-1.5.44-1.99 5.02-.99 9.94-3.44 12.87-7.78 5.14-6.9 4.15-17.43-1.96-23.4-2.89-3.07-6.92-4.64-11.02-5.25.12-8.77-.08-17.54-.02-26.31m55.43 22.56c-6.56 1.06-12.83 4.89-16.03 10.82-3.01 4.85-2.71 10.85-2.12 16.31 1.79 7.6 7.92 14.07 15.5 16.09 6.28 1.61 13.37.59 18.6-3.37 5.97-4.54 9.85-12.12 9.02-19.69-.86-12.02-12.8-22.47-24.97-20.16zM823.47 212.66c8.75-3.45 18.31-2.82 27.52-2.88 15.35.04 30.7-.03 46.04-.04.39 8.76.22 17.56.1 26.32l-.35.67c-6.35 1.08-12.5 4.98-14.76 11.24-3.5 7.77-.48 17.69 6.64 22.3 2.57 1.89 5.85 2.1 8.69 3.43-.85 8.37.52 16.79-.49 25.15-2.96.19-5.93.33-8.88.28-13.34-.38-26.68-.23-40.01-.16-9.65.33-19.7-.05-28.53-4.4-14.15-6.5-23.67-21.24-24.93-36.61-1.93-19.36 10.65-38.87 28.96-45.3m7.95 20.96c-8.22 2.75-14.41 10.74-15 19.39-.79 8.21 3.58 16.74 10.8 20.78 6.11 3.62 14.05 3.95 20.46.9 8.16-3.7 13.52-12.87 12.59-21.8-.59-7.03-4.77-13.61-10.75-17.28-5.36-3.28-12.16-4.02-18.1-1.99zM15.18 334.17c18.94-.6 37.9-.11 56.84-.27 12.12-.32 24.3 4.58 32.7 13.35 10.09 9.91 14.5 24.92 12.2 38.79-1.78 9.56-6.53 18.59-13.77 25.13-7.71 7.49-18.42 11.56-29.13 11.47-19.62.07-39.23.12-58.85-.03-.26-8.67.19-17.36.13-26.04 8.76-.6 16.29-8.76 16.28-17.53.4-9.19-7.2-17.71-16.32-18.61-.11-8.76.06-17.51-.08-26.26m55.4 22.61c-6.79 1.11-13.05 5.43-16.31 11.52-3.4 6.23-3.52 14.19 0 20.41 3.44 6.96 10.86 11.83 18.68 11.85 12.52 1.08 24-11.19 22.6-23.56-.65-12.09-12.8-22.57-24.97-20.22zM804.22 353.21c8.02-10.24 20.86-16.24 33.8-16.52 19.55-.15 39.1.12 58.64-.14 1.12 4.71.36 9.59.52 14.38-.52 4.19.44 8.42-.42 12.58-10.58.64-18.56 12.29-15.62 22.4 1.79 7.2 8.11 13.13 15.59 13.86-.07 8.66.85 17.3.43 25.98-15.06-.08-30.11-.06-45.17-.07-9.07-.09-18.4.74-27.14-2.25-14.49-4.27-25.62-17.05-29.14-31.57-3.34-13.26-.18-28.05 8.51-38.65m27.14 7.31c-8.53 2.91-15.06 11.43-14.98 20.55-.56 12.04 10.5 23.25 22.62 22.5 11.39-.06 21.17-10.31 21.39-21.55.23-9.07-5.61-18.01-14.08-21.3-4.77-1.72-10.13-1.69-14.95-.2zM15.2 461.73c19.59-.29 39.19-.13 58.79-.2 17-.04 33.43 10.83 39.9 26.59 4.59 11.02 5 24 .25 35.04-5.59 13.7-18.6 24.18-33.27 26.42-4.57.75-9.22.64-13.84.63-17.31-.01-34.62.1-51.93-.03-.99-8.62.43-17.25.12-25.88 8.9-1.08 16.52-9.18 16.31-18.26.13-9.04-7.09-17.67-16.3-18.24-.17-6.62.34-13.25-.33-19.85-.22-2.08.08-4.16.3-6.22m53.22 22.97c-7.94 1.83-14.5 8.48-16.09 16.49-1.77 7.02.68 14.7 5.56 19.91 7.28 8.12 21.05 9.25 29.44 2.23 4.77-4.02 8.22-10 8.24-16.34.27-8.09-3.95-16.42-11.19-20.28-4.82-2.72-10.62-3.04-15.96-2.01zM802.5 482.4c8.1-12.28 22.87-19.47 37.49-18.97 18.91.23 37.84-.27 56.75.19l.57.04c-.44 8.8.46 17.66-.5 26.42-11.21.75-19.31 13.69-15.18 24.09 2.29 6.49 8.22 11.47 15.1 12.32.86 4.82.37 9.73.49 14.6-.09 3.78.41 7.62-.58 11.32-13.54-.24-27.1-.02-40.65-.11-11.21-.2-22.85 1.16-33.56-2.98-16.12-5.92-27.36-22.34-27.99-39.36-.46-9.76 2.36-19.62 8.06-27.56m29.62 4.64c-8.47 2.34-14.83 10.19-15.61 18.9-.9 9.46 4.71 19.58 13.84 22.83 4.44 1.61 9.44 2.13 13.99.63 9.27-2.55 16.21-11.83 15.99-21.44-.07-7.49-4.1-14.87-10.47-18.85-5.29-3.1-11.88-3.58-17.74-2.07zM14.99 588.48c20.3.09 40.61-.15 60.91.01 19.33.53 36.64 15.83 40.64 34.57 1.81 9.21 1.26 19.08-2.71 27.69-5.26 12.45-16.54 22.27-29.75 25.32-6.6 1.58-13.42 1.13-20.14 1.16-16.27-.05-32.55.05-48.82-.07-.72-8.72.25-17.46.15-26.19 10.94-.54 18.9-12.75 15.52-23.05-1.84-7.11-8.3-12.43-15.55-13.23-.11-8.74-.89-17.47-.25-26.21m53.91 23.03c-7.6 1.54-13.99 7.48-16.14 14.93-2.83 8.15.25 17.64 6.68 23.2 8.76 7.99 24.27 6.91 31.34-2.82 8.35-9.81 5.23-26.38-5.78-32.84-4.68-3.28-10.68-3.16-16.1-2.47zM822.27 593.32c7.81-3.33 16.44-3.25 24.77-3.15 16.47-.05 32.95.09 49.42-.05.09 8.69.15 17.39-.03 26.08-.55.22-1.63.66-2.17.88-5.71 1.7-10.6 5.96-12.51 11.67-4.19 10.14 3.63 23.22 14.68 23.88 1.26 2.59.66 5.55.79 8.33-.14 5.92.34 11.88-.31 17.79-15.29.23-30.59-.01-45.89.09-8.38-.12-16.96.69-25.11-1.8-16.25-4.49-28.61-19.46-31-36-1.03-8.58-.1-17.58 3.83-25.35 5.04-9.78 13.03-18.49 23.53-22.37m12.32 19.7c-9.74 1.49-17.44 10.29-18.06 20.05-.79 10.19 6.43 20.69 16.46 23.1 5.12 1.02 10.68.64 15.36-1.82 6.31-3.07 10.69-9.52 11.72-16.41 1.22-7.5-1.99-15.39-7.66-20.34-4.95-3.88-11.61-5.69-17.82-4.58zM15.17 715.53c19.96-.29 39.94-.14 59.91-.13 20.63.09 39.1 17.31 41.87 37.54 2.57 14.36-2.76 29.72-13.42 39.61-7.91 7.43-18.62 11.97-29.53 11.73-19.63-.08-39.25.16-58.87-.08-.72-4.07.15-8.14.11-12.21-.03-4.58 0-9.15-.04-13.71 8.92-1.12 16.54-9.16 16.31-18.28.12-9.1-7.29-17.3-16.31-18.29.49-8.74-.89-17.47-.03-26.18m50.14 24c-7.33 3.17-12.82 10.45-13.53 18.45-1.26 10.68 6.65 21.44 17.12 23.68 9.21 2.34 19.46-2.5 24.01-10.74 2.62-4.46 3.12-9.86 2.35-14.89-1.55-8.25-8.19-15.26-16.27-17.43-4.51-.71-9.39-.92-13.68.93zM801.02 737.99c6.79-11.34 18.9-19.39 32.03-21.04 5.28-.71 10.63-.37 15.94-.43 15.88-.05 31.76.06 47.64-.07 1.14 4.76.39 9.68.58 14.53-.2 4.1.49 8.29-.5 12.33-7.71.76-14.32 7.04-15.71 14.62-1.92 8.86 3.92 18.08 12.4 20.89l2.09-.9c-.15.23-.44.69-.59.93-.55 1.37 1.47 2.57 1.27 4.11.69 7.49.19 15.05.3 22.57-16.16 0-32.33-.12-48.49-.05-7.75-.08-15.75.56-23.19-2.08-12.59-4.13-23.1-14.36-27.47-26.89-4.96-12.48-3.19-27.13 3.7-38.52m33.4 1.56c-9.92 1.9-18.09 11.13-17.9 21.39-.47 10.26 7.37 20 17.41 21.94 12.4 2.93 25.69-7.22 26.45-19.86.86-9.44-5.09-19.11-14-22.41-3.77-1.53-7.99-1.64-11.96-1.06zM15.15 842.31c17.95-.16 35.9-.05 53.85-.12 5.69-.05 11.47.05 16.97 1.69 16.24 4.57 28.8 19.52 31.13 36.14.95 7.85.36 16.02-2.7 23.37-4.94 12.36-15.85 22.01-28.56 25.84-7.74 2.26-15.88 1.48-23.83 1.6-15.63-.07-31.26.15-46.88-.1.12-8.65.08-17.29.06-25.93 8.05-.66 15.02-7.34 16.02-15.36 1.84-9.89-5.92-20.2-15.95-21.11-.76-3.09.09-6.23-.01-9.35-.05-5.56 0-11.11-.1-16.67m54.37 22.47c-10.94 2.15-19.17 13.16-17.83 24.3 1.15 10.48 10.67 19.58 21.33 19.61 12.13.72 23.27-10.59 22.55-22.68-.1-12.92-13.15-24.22-26.05-21.23zM823.7 845.71c10.32-3.96 21.52-2.22 32.3-2.61 13.61.26 27.24-.49 40.84.09 1.06 5.59-.21 11.23-.07 16.85.04 3.11.02 6.22.02 9.35-7.53 1.09-14.35 6.92-15.74 14.54-2.47 10.11 5.42 20.92 15.75 21.87-.01 4.72 0 9.44-.03 14.16-.14 3.99.98 7.99.05 11.95-9.59.59-19.2-.22-28.8-.02-10.95-.16-21.9.49-32.84-.15-15.57-1.13-30.16-11.18-36.54-25.45-3.71-7.83-4.92-16.71-3.75-25.27 2.37-15.77 13.9-29.77 28.81-35.31m8.53 20.61c-9.59 2.75-16.65 12.68-15.74 22.67.57 11.33 11.01 21.34 22.48 20.7 12.11.07 22.94-11.63 21.37-23.77-.72-13.36-15.22-23.83-28.11-19.6zM15.17 968.76c19.94-.1 39.88-.02 59.82-.08 16.99.13 32.73 11.7 39.07 27.27 5.86 13.49 4.37 29.94-3.95 42.09-5.58 7.95-13.54 14.43-22.93 17.25-7.74 2.82-16.09 1.98-24.16 2.11-15.96-.1-31.91.09-47.87-.04-.01-8.61-1.01-17.28.13-25.86 4.52-.75 9-2.71 11.88-6.4 5.5-6.55 5.52-16.86.2-23.52-2.97-3.74-7.47-5.95-12.12-6.74.11-4.62-.83-9.22-.32-13.83.4-4.07.31-8.17.25-12.25m54.27 22.87c-9.42 1.46-16.98 9.85-17.68 19.32-1.45 10.89 6.72 21.72 17.39 23.82 5.65 1.52 11.68-.01 16.43-3.24 7.64-4.6 11.31-14.33 9.6-22.93-1.51-6.37-5.92-11.86-11.54-15.12-4.27-2.45-9.45-2.45-14.2-1.85zM825.34 971.44c8.3-2.72 17.13-1.75 25.71-1.91 15.25.1 30.5-.16 45.74.05.54 8.68.8 17.46 0 26.12-6.81 1.11-13.36 5.75-15.19 12.64-3.21 9.14 2.17 20.6 11.76 23.03 1.39.57 4.23.33 3.85 2.62-.23 7.92.55 15.99-.4 23.82-10.57.74-21.2.12-31.79.3-9.67-.13-19.35.28-29.01-.22-10.81-.59-21.28-5.31-28.85-13.06-13.2-12.92-16.39-34.44-8.17-50.86 5.53-10.45 14.98-18.99 26.35-22.53m11.69 20.66c-11.61.02-21.42 11.42-20.55 22.85.28 11.47 10.96 21.64 22.5 20.9 11.48.17 21.81-10.27 21.42-21.79.35-12.19-11.07-23.4-23.37-21.96zM455.45 1044.78c9.81-1.15 20.12 1.11 28.47 6.4 8.32 6.9 15.83 15.94 17.54 26.93.31 8.41.97 17.37-3.35 24.99-5.9 14.48-21.51 24.35-37.12 23.47-9.3.42-18.89-2.49-25.97-8.61-9.71-7.53-15.59-19.7-15.56-31.96-.74-20.19 15.85-39.21 35.99-41.22z"/></g><g fill="#525252"><path d="M393.47 310.61c15.83-.33 31.69-.1 47.53-.13 5.22-.33 9.94 4.25 9.76 9.48.04 9.01.09 18.04-.05 27.06.16 5.11-4.63 9.47-9.67 9.16-15.35.02-30.7.2-46.05.08-3.7.2-7.04-2.34-8.54-5.59-1.03-1.76-.27-4.04 1.9-4.17 10.72-2.23 22.04-1.06 32.52-4.61 3.4-1.3 7.2-3.18 8.5-6.85-.08-3.25-3.15-5.28-5.72-6.67-9.47-4.84-20.31-5.14-30.64-6.44-2.58-.5-6.53-.78-7.15-3.94.72-3.69 3.73-7.04 7.61-7.38zM493.44 310.66c16.18-.41 32.39-.18 48.58-.15 4.31-.3 8.04 3.38 8.27 7.61-.76 2.66-3.88 3.18-6.21 3.65-9.98 1.47-20.37 1.51-29.79 5.55-2.76 1.23-5.87 2.75-7.09 5.7-.97 1.87.08 4.02 1.58 5.25 2.54 2.13 5.75 3.28 8.89 4.24 9.08 2.46 18.57 2.32 27.87 3.25 1.61.42 3.9.48 4.69 2.21.27 4.42-3.87 8.56-8.31 8.24-15.64.11-31.28-.02-46.92.04-4.97.17-9.59-4.25-9.45-9.26-.1-8.99-.13-17.98 0-26.97-.11-4.48 3.4-8.78 7.89-9.36zM311.57 365.38c.46-4.6 4.76-8.3 9.38-8.09 9.02-.04 18.06-.11 27.09-.01 4.62-.17 8.7 3.66 9.27 8.17.62 5.87.16 11.79.37 17.68 30.77.09 61.53-.06 92.3.05 42.88-.21 85.78.24 128.65-.2-.09-5.65-.33-11.32.03-16.95.29-4.68 4.51-8.82 9.25-8.73 9.06-.17 18.13-.05 27.19 0 4.82-.21 9.35 3.78 9.58 8.63.33 5.72.03 11.46.08 17.19 17.39.15 34.78-.04 52.17.03.22 3.95.12 7.91-.13 11.86-9.47.27-18.94.1-28.41.3-6.74-.76-13.53-.26-20.3-.41-8.8-.07-17.59.27-26.39-.04-4.18 0-8.36-.11-12.54.04-8.82.49-17.65-.09-26.47 0-3.93-.04-7.86-.06-11.78 0-.51 11.42.7 22.92-.47 34.3-.32-11.33.24-22.67-.23-34-4.66-.01-9.32-.12-13.97-.25-3.47-.08-6.94-.05-10.41-.05-4.68-.06-9.35-.09-14.02.01-.4 11.43-.13 22.88-.15 34.31-1.39-11.35-.22-22.88-.53-34.3-3.44-.11-6.88-.14-10.32.03-4.68.26-9.38.16-14.06.01-.32 11.4-.03 22.82-.12 34.23-1.3-11.35.03-22.86-.6-34.27-3.41-.01-6.82-.01-10.22-.02-4.68-.06-9.34-.11-14.01-.03-.38 11.11-.06 22.23-.21 33.35-1.05-11.06-.14-22.21-.6-33.3-3.41-.03-6.83-.06-10.24.01-4.65.12-9.31.24-13.96.22-.46 11.34-.04 22.69-.17 34.03-1.26-11.38-.07-22.9-.57-34.34-3.43-.02-6.86 0-10.29.07-4.65.06-9.29-.08-13.94-.12-.43 11.47-.11 22.95-.16 34.42-1.26-11.33-.11-22.82-.67-34.21-3.34-.11-6.67-.12-10.01-.04-.09 1.39-.17 2.79-.22 4.19-.19-1.4-.46-2.79-.7-4.18-4.42.03-8.83.05-13.25.06-.29 11.35-.21 22.72-.12 34.07-1.11-11.35-.41-22.81-.54-34.2-3.44-.07-6.87-.07-10.29.1-4.69.25-9.38.08-14.06-.08-.38 11.42-.16 22.86-.1 34.28-1.08-11.38-.13-22.85-.56-34.27-3.89-.05-7.78-.07-11.67-.03-8.85.27-17.69.12-26.54-.02-4.18.02-8.37.04-12.56.08-8.75.12-17.51.4-26.26.02-6.62-.13-13.24-.05-19.86.01a158.7 158.7 0 0 0-.94 3.1c0-.73.02-2.2.02-2.93-9.22 0-18.44.12-27.65-.11-.05-3.94-.07-7.88-.18-11.81 25.25-.22 50.51-.03 75.77-.09.18-5.92-.25-11.87.3-17.77zM230.4 1040.65c18.46-2.63 37.19 9.72 42.93 27.27 4.96 14.46.68 31.53-10.43 42.01-12.74 12.36-33.86 14.62-48.88 5.12-12.34-7.26-20.18-21.63-19.33-35.96.51-19.19 16.63-36.5 35.71-38.44zM676.46 1049.62c9.72-2.27 20.3-.94 29.05 3.92 10.48 5.83 18.12 16.49 20.1 28.34 3.39 17.26-6.02 36.41-22.25 43.54-7.54 3.68-16.2 4.85-24.46 3.43-11.28-1.66-21.34-8.86-27.43-18.38-6.83-10.65-7.9-24.58-3.22-36.28 4.6-12.18 15.54-21.67 28.21-24.57z"/></g></svg>