<svg xmlns="http://www.w3.org/2000/svg" width="3998" height="4001" preserveAspectRatio="none" style="display:block" viewBox="0 0 4001 4001"><path fill="#020202" d="M184.3 0h3636c12.1 3.4 24.3 5.3 36.6 8.8A194 194 0 0 1 3995.4 160c1.3 6.7 3.2 20.6 5.6 26.5v3608.3a58 58 0 0 0-3.1 21.2c-5.2 90-93.4 181.5-184.4 181.5-24.6 3-99.8.9-127.5.8H457.7c-85.3 0-182 2.6-266.2-.2a188 188 0 0 1-86.2-25A205 205 0 0 1 9 3847.5c-9.4-34.8-6.4-104-6.4-143l.1-192.7V295.3c0-34-.2-67.8.2-101.8C3.8 111 59 36.8 137 10.7c14.8-5 29.7-5.8 44.1-9.8zM3993 1090c-1.5-71.8-.2-147.7-.2-219.9l-.2-439.6V273.6c-.1-85.2 6.5-148.4-60.3-213A186 186 0 0 0 3819.4 9c-37.4-3.2-108.8-1.2-148-1.2H463.9Q334 7.7 204 8.1c-56 .2-102.7 18.8-141.7 60.1a187 187 0 0 0-51 109.8C7.9 216.8 10 293 10 334.1v293.7l-.3 937.8.2 1427.2-.2 526.8c0 93.4-.4 187.4.4 280.8.4 56 25 103.5 65.2 141.5 25.7 24.1 71.4 47 107.1 48.2 56.4 1.9 116.2 1.2 173 1.2h2759.2l458.4-.1c72.6 0 162.2 2.7 233.2-.5l5.6-.4 8.6-1c97.5-12.3 173-96.2 170.9-195.4-.3-15.2.2-31.4.2-46.7l.1-114-.2-409 .1-1455.3.6-458.8v-141.7c0-22.6-1-57.2 1-78.4"/><path fill="#414141" d="m3811.7 3990.3-5.6.4c-71 3.2-160.6.5-233.2.5l-458.4.1H355.4c-56.9 0-116.7.7-173-1.2-35.8-1.2-81.5-24-107.2-48.2-40.2-38-64.8-85.5-65.2-141.6-.8-93.3-.4-187.3-.4-280.7l.2-526.8-.2-1427.2.2-937.8V334c0-41-2-117.3 1.7-156A187 187 0 0 1 62.4 68.1C101.4 27 148 8.3 204 8.1c86.5-.4 173.2-.2 259.7-.3h3207.7c39.1 0 110.5-2 148 1.2 42.3 3.8 82.1 22 112.7 51.6 66.8 64.6 60.2 127.8 60.3 213v156.9l.2 439.6c0 72.2-1.3 148 .2 220-2 21.1-.9 55.7-.9 78.3v141.7l-.6 458.8v1455.3l.1 409v114c-.1 15.3-.6 31.6-.3 46.8 2.1 99.1-73.4 183-170.9 195.2zm-3.2-43.8a158.6 158.6 0 1 0-37.3-315 158.6 158.6 0 0 0 37.3 315m-2-3629a114.7 114.7 0 1 0-23.3-228 114.7 114.7 0 0 0 23.4 228M223.8 356.1a153.1 153.1 0 1 0-33.2-304.5 153.1 153.1 0 0 0 33.2 304.5m371.4 3452-135.8.2v135.9q67.8.4 135.8 0a5802 5802 0 0 1 0-136M574.3 402.8V270.2H441.7l-.1 132.7zm-41.9 3308.7a38.6 38.6 0 1 0-10.8-76.5 38.6 38.6 0 0 0 10.8 76.5m1426 26.6a66.7 66.7 0 1 0-30.3-130 66.7 66.7 0 0 0 30.3 130m-205.1.6a66.7 66.7 0 1 0-25-131.1 66.7 66.7 0 0 0 25 131m806.9.4a66.8 66.8 0 1 0-20.6-132 66.8 66.8 0 0 0 20.6 132m-1617.6 0a66.8 66.8 0 1 0-21.8-131.7 66.8 66.8 0 0 0 21.8 131.8m1594 63.8a75 75 0 1 0 26.3 147.5 75 75 0 0 0-26.3-147.5m-1414.5 7.9a66.8 66.8 0 1 0 23.5 131.6 66.8 66.8 0 0 0-23.5-131.6m631.3 139.7a74.9 74.9 0 1 0-25-147.7 74.9 74.9 0 0 0 25 147.7m609.4-204a74.9 74.9 0 1 0-30.1-146.8 74.9 74.9 0 0 0 30 146.8m-1219-7.4a66.7 66.7 0 1 0-20.3-131.8 66.7 66.7 0 0 0 20.3 131.8m203.1-.2a66.7 66.7 0 1 0-22.4-131.5 66.7 66.7 0 0 0 22.4 131.5m203.3 211.8a74.9 74.9 0 1 0-22.9-148 74.9 74.9 0 0 0 22.9 148m-812.7-211.2a66.7 66.7 0 1 0-16.1-132.5 66.7 66.7 0 0 0 16 132.5M925 373.2a37.5 37.5 0 1 0-22-71.7 37.5 37.5 0 0 0 22 71.7M231.4 3907.7a120.2 120.2 0 1 0-39.1-237 120.2 120.2 0 0 0 39.1 237M1333.3 402a66.3 66.3 0 1 0-27.8-129.8 66.3 66.3 0 0 0 27.8 129.8m-201.3-.2a66.3 66.3 0 1 0-30.3-129 66.3 66.3 0 0 0 30.3 129M1325 3811a66.7 66.7 0 1 0 22.6 131.6 66.7 66.7 0 0 0-22.6-131.6M2947 199.6a66.3 66.3 0 1 0-9.8-132.3 66.3 66.3 0 0 0 9.8 132.3m-803 173a37.6 37.6 0 1 0-26.3-70.4 37.6 37.6 0 0 0 26.4 70.4m-12 3227a74.8 74.8 0 1 0 27.7 147 74.8 74.8 0 0 0-27.7-147m834.5 139a66.7 66.7 0 1 0-24.7-131 66.7 66.7 0 0 0 24.7 131M1530.6 411.2a74.6 74.6 0 1 0-15.6-148.4 74.6 74.6 0 0 0 15.6 148.4m211-.9a74.6 74.6 0 1 0-32.7-145.5 74.6 74.6 0 0 0 32.7 145.5m374-340.8a66.2 66.2 0 1 0 30.4 128.8 66.2 66.2 0 0 0-30.4-128.8M2739.9 3811a66.8 66.8 0 1 0 24.4 131.3 66.8 66.8 0 0 0-24.4-131.3m-785.4 131.7a66.9 66.9 0 1 0-22-131.8 66.9 66.9 0 0 0 22 131.8M1103 69.4a66 66 0 1 0 28.2 129 66 66 0 0 0-28.2-129m1664.3 3677a74.8 74.8 0 1 0-30-146.7 74.8 74.8 0 0 0 30 146.6M1912.8 272.6a66.3 66.3 0 1 0 30 129.1 66.3 66.3 0 0 0-30-129M2133.6 3811a66.8 66.8 0 1 0 25 131.3 66.8 66.8 0 0 0-25-131.3M2936.2 263a74.5 74.5 0 1 0 12.4 148.5 74.5 74.5 0 0 0-12.4-148.5M741.4 3942.3a66.7 66.7 0 1 0-23.7-131.3 66.7 66.7 0 0 0 23.7 131.3m982-3874.9a66.2 66.2 0 1 0 3.5 132.4 66.2 66.2 0 0 0-3.5-132.4m612.1 336A66.2 66.2 0 1 0 2332 271a66.2 66.2 0 0 0 3.6 132.3m-783.4 3343.8a75 75 0 1 0-27.1-147.6 75 75 0 0 0 27.1 147.6m1201.1-3549a66 66 0 1 0-28.4-128.9 66 66 0 0 0 28.4 128.9M704.8 270.8a66.4 66.4 0 1 0 12.5 132.3 66.4 66.4 0 0 0-12.5-132.3m1822-211a74.5 74.5 0 1 0 18.4 147.9 74.5 74.5 0 0 0-18.4-147.9M1943 198.2a66.3 66.3 0 1 0-30.9-129 66.3 66.3 0 0 0 31 129m1021.6 3744.4a66.8 66.8 0 1 0-21-131.9 66.8 66.8 0 0 0 21 132M2336.9 3811a66.7 66.7 0 1 0 21.8 131.5 66.7 66.7 0 0 0-21.8-131.5m-798.4-3613A66.1 66.1 0 1 0 1507 69.4a66.1 66.1 0 0 0 31.4 128.5m-641-128.6A66.2 66.2 0 1 0 931 197.5a66.2 66.2 0 0 0-33.4-128.2M920 3811a66.9 66.9 0 1 0 23 131.8 66.9 66.9 0 0 0-23-131.8M2725.1 302.3a38 38 0 1 0 27.3 70.7 38 38 0 0 0-27.3-70.7m-1999.3-104a66.3 66.3 0 1 0-30.2-129 66.3 66.3 0 0 0 30.2 129m-233.3-129A66.3 66.3 0 1 0 524 198a66.3 66.3 0 0 0-31.5-128.8m2028.2 203.5a66.3 66.3 0 1 0 30.7 129 66.3 66.3 0 0 0-30.7-129m-203-203.5a66.3 66.3 0 1 0 31.5 128.8 66.3 66.3 0 0 0-31.5-128.8m-1003-1.9a66.3 66.3 0 1 0 9 132.3 66.3 66.3 0 0 0-9-132.3"/><path fill="#020202" d="M3223.8 965.2c-.9-46.5-6.1-94.6 60.2-94 61 .4 55.8 48.7 55.1 93.7 115.6-2.1 238 .1 354.3.1l-.3 1941.4-182.8-.2h-171.9c-.5 44.3 9.7 95-55.8 95.8-66.6.7-61.1-46.3-60.3-95.8-29.7.4-60.1.2-90 .2.3 24.1 4.2 61.8-13.2 80.4-18.5 19.8-69.1 19.8-88.3 1.4-19-18.2-14.7-56.8-14.4-81.5l-89.8-.3c.2 24.3 4.2 62.2-13.6 80.5-18.7 19.3-68.6 19.7-87.7 1.3-19-18.2-14.2-57.8-13.8-82.3l-479 .3c.2 42.2 7.3 92.4-50.6 95.3-71.3 3.6-66.3-41-65.1-95.2q-45.3.5-90.4-.2c.7 24.8 4.9 62-13.4 81-18.6 19.5-69.3 19.7-88.3 1-18.8-18.3-14.7-56.9-14.5-81.5l-89.6.1c.5 45.8 7.5 94.3-56.5 95.2-67.1 1-59.8-46.9-59.3-95.4l-90-.2c.2 23.5 3.7 59.8-12 79-18.1 21.9-70.4 21.8-90.2 2.9-19.1-18.2-14.8-57-14.5-81.7l-89.8-.5c.6 42.2 7.9 91.3-48.8 95.1-73 4.9-67.8-40.7-67-94.6-29.5.4-60.3-.2-90-.3.8 43.2 7.8 91.8-50.2 95-72.2 4.1-66.5-41.8-65.5-95l-90.8-.4c1 42 8.3 92.5-48.8 95.5-73 3.8-67.5-41-66.6-94.8l-89.5-.1c.8 43 7.4 91.4-50 95-72.7 4.6-66.3-42-65.5-95.4q-79 .9-157.7 0c1.5-64.2-.2-136.8-.1-201.5v-429.8l-.2-1309.5c80-1.2 162.3-.2 242.4 0-.8-41.9-7.6-83.3 44.3-93q8.6-.5 17-.4c59.9.5 54.6 49.9 53.8 93 26.8-.3 54.6.1 81.4.2v-8.2c-.5-48.4-1.2-85.2 59.8-84.8 61.4.4 55.7 48.5 54.4 93.3l83.3-.4c-.5-22-4.5-57.5 10.4-75 19.8-23.5 69.8-24.7 91.4-3.3 17.6 17.3 13.2 55.4 12.5 78.7 27.1-.6 55.7-.2 82.9-.1l-.2-3.4c-1.2-22.7-4.9-56.5 12.3-73.9 22-22.4 68.7-22.2 90.4.5 17.3 18 12.5 53.1 11.9 76.4l82 .3c-.3-17.9-2.3-47.4 3.9-63.3 14.3-35.8 76.5-39.6 100.3-13.3 16.1 17.6 12 54 11.4 77l81.3-.5c0-23.2-3.2-61.3 13.5-78.1 22-22 68.7-20.2 90 1.7 17 17.5 12 53.1 11.5 76.8q41.2-.5 82.4-.1c-.4-22-3.8-59.3 11.5-76.6 20.3-23 71.1-22.8 91.9-.7 16.1 17.1 11.9 54.7 11.4 77l82.6.2c-1-46.4-6-95 59.2-93.7 62.7 1.3 56.6 47.3 55.7 93.6l82.3.3c-1-44.7-6.9-94.3 57.5-94.1 64.3.1 58.7 46.4 57.6 93.8 26.8-.6 55 0 81.9.1-.7-44.2-7.7-94 56.6-93.7 64.4.3 58.2 46.6 57.6 93.8l82.5-.3c-.6-23-4.7-60 12-77.3 21.2-22 68.1-21.3 89.8-.3 18.1 17.7 13.4 54.1 12.7 77.6 27.1-.2 54.9.2 82 .3-.5-21.8-4.1-59.7 11.1-76.6 21.3-23.2 69.5-22.6 91.5-.8 17.3 17.1 12.8 53.6 12.4 76.8z"/><path fill="#30643f" d="M1456.2 968.6c11-16.9-8.9-71.4 22.1-83.4 15-5.8 41.6-7.1 56.5-.8a35 35 0 0 1 19.1 19.7c7 18-.3 52.8 4.4 62.2l6.7 6.2q42.5.3 85-.3l5.3-4.8c9.6-45.8-18-97 68.6-85.7 44 5.7 25 60.3 31.6 84.7l7.4 6c14.3.1 75.2 1.8 85.8-1.3 13.8-19-4.8-62.3 17.4-81.4 15-12.8 55-12.3 70.4-1.5 23 16.2 9.2 57.6 16.3 79.2l5.9 4.7c18.3.3 68.6 2 85.8-.2l3.6-3.4c8.3-19.4-6.6-75.8 23-83.6 102.2-26.8 67 55 78.7 82.6l5.8 5q42.8.4 85.6 0l4.9-5.2c7-21.4-6.6-66 17.3-80 19.1-11.2 63.3-11.2 76.6 10 10.2 16.1 1.5 58.6 7.4 69l6.4 6.1h84.6l5-5.3c6.7-21.4-6.2-66 17.4-79.5 19.3-11.1 63.9-12.1 76.4 10.5 10.6 19.3 1.5 54.1 7.5 69.3l5.7 4.8c25.5 1.5 58.2.5 84.1 0l6-4.6.5-3.5c5.2-46.5-13.2-88.5 59.7-83.2 58.1 4.2 29 58.2 39.7 85.4l6.1 5.8c27.9.4 57.8 1.3 85.5.2l5.6-4.6.5-3.5c4.3-33.7-12-79.6 39.5-83.5 48.8-3.7 59.4 14 58 59.9-.2 6.2-.2 21.6 1.6 27l5.9 4.8c14.3.3 73.3 1.2 85.8-.6l3.7-3.5c13.2-29.7-19.3-90 51.5-88.2 70.4 1.8 39.3 51.3 50.2 87.6l6.2 4.5c15.6.7 70.9 1.6 85.5 0l5.5-5.1c2.7-48.4-8.7-92.5 59.8-86.5 58.9 5.2 31.4 60.3 40.5 87l6 4.6c109.8 3.6 236.8.3 348.4.3L3686 2899h-355.3c-4.9 20.8 5.4 51.4-5.1 73-10.7 21.8-54.7 27.9-74 17-31.7-18.1-14.7-62.4-21.8-88.5l-6-1.8c-23.1 0-80.2-1.4-100 1.4-2.5 55.6 14 102.3-68 91.2-50.5-6.8-20.3-73.7-33.1-92.3-12.4-1.5-91-.4-104.1.7-3.5 12.6.7 43-1.7 59.2-5.4 36.4-36.6 36.3-66.5 32.8-13.7-1.7-21.9-12.3-29.1-23.3-2.2-19.3 1.2-52.5-2.1-67.9l-5.6-1.7c-39.8 2.3-92-.4-133 .4-117.2 2-239.4-3-356.2 0-7.7 27.4 24.2 121.3-81.7 87.2-27.5-8.9-12.8-64.7-18.3-86l-4.8-1.6c-21.5 0-82.5-1.6-101.8 1.4-.7 20.4 4.3 57.5-5.9 74.6-13.5 22.6-59.3 23.9-78.9 8.8-24.7-19.1-9.2-58-14.8-84-26.7-2.3-77.1-1.4-105.2-1 0 12.8.5 54.6-1.3 64-15 36.3-52.7 36.5-84 23.1-20.8-9-10.5-68.2-15-86-14.3-2.2-91-1.3-107 0-1.4 20.5 4.3 58.7-6.4 76-13.3 21.7-59.2 22.5-78.3 8-23.8-18-10.9-57.2-15-83.3l-6-1.6c-31.3 0-68.7-1-99.5.9-3 23.5 5.4 58-8.8 78.3-13.4 19-59 19.8-76.3 5.8-24.8-20-9-58-14.8-84.1-24.7-2.5-76.7-1-103.4-.7l-3.4 3.4c-1.1 18.5-.6 46.5-1 64.4-15.9 28-51.8 34.8-79.7 20-29.8-15.9-11.6-61.4-19.3-87.5l-102.2-.4c-10.7 11.6 3.6 56.8-9.2 76-20 29.7-86.8 24.7-92.3-14-2.6-18 2.3-40.1-1.2-59.8l-3.7-2.3c-25.5-1-77-.7-102.1.8-4.8 31.1 13.9 80.5-30.2 91.6-16.5 4.2-37.4 3.2-52.1-6-29-18.3-11.2-57.4-18-85.4l-6.7-1.2c-16.7 1.2-39.2.2-56.3 0-23.7 1.8-69.8.5-95 .6q0-72.9.7-145.9c-2.4-18.8-.5-92.8-.3-115v-927.8c-3.6-243.2.2-494-.2-738.2l237 .3 5.8-6.7c.5-20.2-3.8-58.9 11.4-73 19.7-18.3 60.5-18.3 79.2 2.3 16.7 18.4 2.8 55.3 9.7 72.4l5.7 4.7q42.2 1 84.3.2l5.4-4.7c7.1-22.4-7.6-68.6 19.1-81.7 20-9.7 64-9.4 75.6 13.7 8.2 16.3.3 55 5.6 66.4l6.5 6q42.8.8 85.5.3l5.3-5c4.3-24-5.6-63.9 16-79.1 16.8-12 61-12.2 74.4 6.2 14 19.2 3.6 54.5 9.5 72.4l6.3 4.8a858 858 0 0 0 85.2 0z"/><path fill="#a1a1a1" d="M1599.6 2897.8c11.5-2.1 8-3.6 16.3-12.2 32.5-33.5 66-25 90.2 12.2l-.3 1.9c-1.5 20.5 4.3 58.7-6.5 76-13.3 21.7-59.2 22.5-78.3 8-23.8-18-10.9-57.2-15-83.3l-6-1.6zM2017.9 2897.9c13.1-16.9 22-29 44.9-32 27-3.8 43.2 12.3 55.6 33l-.6 1.3c-.7 20.4 4.3 57.5-5.9 74.6-13.5 22.6-59.3 23.9-78.9 8.8-24.7-19.1-9.2-58-14.8-84zM3223.3 2897.6c11.6-1.4 10.2-5 18.2-13.3 20.7-21.2 46-26.8 71-8.3 8 5.6 12.8 16.4 18.8 22l-.6 1c-4.9 20.8 5.4 51.4-5.1 73-10.7 21.8-54.7 27.9-74 17-31.7-18.1-14.7-62.4-21.8-88.5l-6-1.8zM1400.4 2898c32.6-43 68.4-45.4 100.4-.2l-.3 1.9c-3 23.5 5.4 58-8.8 78.3-13.4 19-59 19.8-76.3 5.8-24.8-20-9-58-14.8-84.1zM3022.3 2898c9.6-6 12-16.8 21.3-22.9 33.4-22 62.8-5.7 81 23.7l-.8 1.3c-2.5 55.6 14 102.3-68 91.2-50.5-6.8-20.3-73.7-33.1-92.3zM775.8 2897.5c11.9-1.3 11.6-5.2 19.7-14 22.7-24.6 46.6-24.9 72.8-4.4 7.9 5.6 10.1 13.3 15 18.8l-.2 1.7c-4.8 31.1 13.9 80.5-30.2 91.6-16.5 4.2-37.4 3.2-52.1-6-29-18.3-11.2-57.4-18-85.4l-6.7-1.2zM984.7 2897.9c15-4 28.8-47 72.2-29.2 21.7 9 25.8 26 35 29.2l-.4 1c-10.6 11.6 3.7 56.8-9 76-20 29.7-87 24.7-92.4-14-2.6-18 2.3-40.1-1.2-59.8l-3.7-2.3zM2219.2 2897.9c22.6-6.7 29.8-51.7 78.7-26.2 13.8 7.2 17 15.7 27 26l-.5 1.5c-7.7 27.4 24.2 121.3-81.7 87.2-27.5-8.9-12.8-64.7-18.3-86l-4.8-1.6zM1193.6 2897.9c9.1-5 9-12.7 15.5-18.3 33.8-29 62.7-12.3 84.7 16.5l3.7 1.4-.3 1.4-3.4 3.5c-1.1 18.5-.6 46.5-1 64.4-15.9 28-51.8 34.8-79.7 20-29.8-15.9-11.6-61.4-19.3-87.5zM1812.6 2898c13.2-16.6 18.8-29.9 42.6-32.1 27.8-2.6 45.3 11.6 57.7 33.8-3.7 6-1.9 54.9-1.2 63-15 36.2-52.7 36.4-84 23-20.8-9-10.5-68.2-15-86zM2813.1 2897.7c11-1.5 10.4-5.3 17.7-13.5 22.3-25.3 46-25.6 72.8-5.4 7.3 5 10.5 13.8 15.3 19l-.3 2c-3.5 12.5.7 42.8-1.7 59.1-5.4 36.4-36.6 36.3-66.5 32.8-13.7-1.7-21.9-12.3-29.1-23.3-2.2-19.3 1.2-52.5-2.1-67.9l-5.6-1.7zM1655.3 967.4c9.6-45.8-18-97 68.6-85.7 44 5.7 25 60.3 31.6 84.7-2 1.5-3 2-4.3 4-21.4 33.1-57.8 37.2-85.8 7.6zM3231.5 967.1c2.7-48.4-8.7-92.5 59.8-86.5 58.9 5.2 31.4 60.3 40.5 87-7.8 3.5-9.9 12.2-16.1 17-33.8 26.2-61.2 9.3-84.2-17.5M3032.6 968.3c13.2-29.7-19.3-90 51.5-88.2 70.4 1.8 39.3 51.3 50.2 87.6-2.7 1.7-3.6 1.9-5.2 4.1-22.7 29.7-54 36.4-81.9 9.5-5-4.7-7.7-10.2-14.6-13M2246 967.3c7.2-21.4-6.5-66 17.4-80 19.1-11.2 63.3-11.2 76.6 10 10.2 16.1 1.5 58.6 7.4 69-5.4 4.3-10 10.9-15.2 15.7-23.4 21.2-55.7 21.9-75.6-4-3.6-4.7-6-7.2-10.5-10.7M1456.2 968.6c11-16.9-8.9-71.4 22.1-83.4 15-5.8 41.6-7.1 56.5-.8a35 35 0 0 1 19.1 19.7c7 18-.3 52.8 4.4 62.2-15 17.4-19.6 22.2-41.6 30.6-30 11.4-45-22.6-60.5-28.3M2443.4 967.1c6.7-21.4-6.2-66 17.4-79.5 19.3-11.1 63.9-12.1 76.4 10.5 10.6 19.3 1.5 54.1 7.5 69.3-6.5 3.2-10.3 11-15.7 16.3-23.1 23-55 15.8-75.4-6.7a78 78 0 0 0-10.2-9.9M867.8 965.9c.5-20.2-3.8-58.9 11.4-73 19.7-18.3 60.5-18.3 79.2 2.3 16.7 18.4 2.8 55.3 9.7 72.4-12.8 6-24 35.6-55.2 29.6-23.9-4.6-30.5-13.8-45.1-31.3M1848.7 971.1c13.8-19-4.8-62.3 17.4-81.4 15-12.8 55-12.3 70.4-1.5 23 16.2 9.2 57.6 16.3 79.2-19 9.2-25.2 38.4-64 28.7-19-4.7-27-24.7-40.1-25M1063.5 967.8c7.1-22.4-7.6-68.6 19.1-81.7 20-9.7 64-9.4 75.6 13.7 8.2 16.3.3 55 5.6 66.4-13.5 10-28.8 34.6-51.4 33.1-19.5-1.3-36.1-19.1-49-31.5M2640.6 967.6l.4-3.5c5.2-46.5-13.2-88.5 59.7-83.2 58.1 4.2 29 58.2 39.7 85.4-3.6 2.9-6.5 7.2-9.6 10.5-19.3 20.5-48.1 29.4-71.8 10.3-6.5-5.2-10.4-12-16.3-17.5zM2048 968.5c8.4-19.4-6.5-75.8 23.2-83.6 102-26.8 67 55 78.6 82.6-15.4 7.3-10.7 22.4-41 28.6-37.7 7.8-42.3-20.9-60.7-27.6M2837.6 967.7l.5-3.5c4.3-33.7-12-79.6 39.5-83.5 48.8-3.7 59.4 14 58 59.9-.2 6.2-.2 21.6 1.6 27-15.7 10-25 32-53 30-21.3-1.5-33.7-15.2-46.6-30M1261.1 967.5c4.3-24-5.6-63.9 16-79.1 16.8-12 61-12.2 74.4 6.2 14 19.2 3.6 54.5 9.5 72.4-10.5 4.6-21 33-48.9 30.5-28.2-2.4-30.9-11.4-48.8-28z"/><path fill="#3b5b42" d="M625.3 1710.6c10.6 28 5.3 202.7 5.1 241.4l-.5 309.8c-.4 80.6 2.2 161.2 2 241.8 0 12.5-1.6 130.8-2.7 133q-.8 1.6-2 3l-2-1.3z"/><path fill="#e6bf81" d="M1599.6 2897.8c-14.4-57.2 109.7-79 114-3.3-4 3.9-1.6 2.7-7.5 3.3-24.1-37.3-57.7-45.7-90.2-12.2-8.4 8.6-4.8 10-16.3 12.2M1193.6 2897.9l-5.8-1.5c-3.5-10.5 1.6-16.3 5.2-25.7 17.6-46.5 126.5-19.7 106.8 25l-2.3 1.8-3.7-1.4c-22-28.8-50.9-45.5-84.7-16.5-6.5 5.6-6.4 13.3-15.5 18.3M2219.2 2897.9c-4-5-4-6.6-2.8-13.7 7.5-42.6 89.7-51.8 108.9-14.4 4 7.7 8 16.8 5.4 25.9q-3 1.2-5.9 2c-10-10.3-13.1-18.8-27-26-48.9-25.5-56 19.5-78.6 26.2M3223.3 2897.6c-1.7-11 1-22 7.7-30.9 18.4-24.5 70.2-26.3 92.8-6.5 10.8 9.4 13.2 20.7 14.4 34.2-3.3 3.9-1.3 2.3-7 3.6-5.9-5.6-10.8-16.4-18.8-22-25-18.5-50.2-13-71 8.3-8 8.3-6.5 11.9-18.1 13.3M2813.1 2897.7c-19.2-50.4 104.6-84 112.7-4.1-3 4.5-1 2.8-6.9 4.3-4.8-5.3-8-14-15.3-19.1-26.9-20.2-50.5-20-72.8 5.3-7.3 8.3-6.7 12-17.7 13.6M775.8 2897.5c-1.2-54.8 67.2-64.8 102.2-35.4 7.3 6.2 14.7 24.7 11.8 34-2 .6-4.5 1.5-6.5 1.8-4.9-5.5-7.1-13.2-15-18.8-26.2-20.5-50.1-20.2-72.8 4.4-8.1 8.8-7.8 12.7-19.7 14M984.7 2897.9c-4-4.7-4.5-7.1-3.3-13.7 7-41.2 83.8-51.2 105.5-18.5 5.3 8 14 24.4 5 32.2-9.2-3.2-13.3-20.2-35-29.2-43.4-17.9-57.2 25.2-72.2 29.2M1812.6 2898l-6.3-1.2c-6.6-14.7 10.4-39.7 25.3-44.2 42-12.5 82.2-8.4 88.3 41.7-3.2 4.8-1.3 2.8-7 5.4-12.5-22.2-30-36.4-57.7-33.8-23.8 2.2-29.4 15.5-42.6 32.1M2017.9 2897.9l-6.3-1.6c-5.9-15.3 11.4-39 26-43.9 39.6-13.1 85.2-6.5 88 42-3.7 4.3-1.5 2.8-7.2 4.4-12.4-20.6-28.6-36.7-55.6-33-23 3.2-31.8 15.2-45 32M3022.3 2898l-4.8-2.4c-2-8.4-1-14.9 3.5-22 24.1-38 105-40.1 110.3 15 .6 5.9 1.2 4.7-2.2 8.8l-4.6 1.4c-18-29.4-47.5-45.6-80.9-23.7-9.3 6.1-11.7 16.9-21.3 22.8M1400.4 2898l-6-1.5c-7.7-16.8 13-38.4 27.8-44.6 29.2-12.2 71.2-7 83.3 26.6 2 5.6 3.7 12.7.8 18.3l-5.5 1c-32-45.2-67.8-42.8-100.4.2M862 972.6l5.8-6.7c14.6 17.5 21.3 26.7 45.1 31.3 31.3 6 42.4-23.7 55.2-29.6l5.7 4.7c-2.8 13.9-6.8 27.6-20 34.4-38.1 19.4-84.1 12.1-91.8-34.1M1755.5 966.4l7.4 6c-6.1 24.4-16.7 38.4-42.7 42.6-36 6-64.5-5.1-70.1-42.8l5.2-4.8 10 10.6c28 29.6 64.5 25.5 85.9-7.6 1.3-2 2.4-2.5 4.3-4M2246 967.3c4.7 3.5 7 6 10.6 10.6 20 26 52.2 25.3 75.6 4.1 5.3-4.8 9.8-11.4 15.2-15.7l6.4 6.1c-5.3 22.1-16.2 38.1-39.6 42.2-38.2 6.6-65.2-3.7-73-42zM2544.7 967.4l5.7 4.8c-8 38.6-35.9 49-74.5 42.2-23.1-4-33.5-19.7-37.5-42l5-5.3c4.3 3.5 6.5 5.8 10.2 9.9 20.4 22.5 52.3 29.6 75.4 6.7 5.4-5.4 9.2-13.1 15.7-16.3M1261.1 967.5l2.2 2c18 16.6 20.6 25.6 48.8 28 27.8 2.5 38.4-25.9 49-30.5l6.2 4.8c-7.5 38.7-35.4 48.4-73.2 43a44 44 0 0 1-35.9-31.4l-2.4-11zM1063.5 967.8c12.8 12.4 29.4 30.2 49 31.5 22.5 1.6 37.8-23.1 51.3-33l6.5 5.8-5 18c-8.7 13.4-18.2 22-34.3 24.4-40.3 6.2-63.5-4.1-72.9-42zM1558.4 966.3l6.6 6.2-.7 2.3c-6.1 22.9-17 36.3-41.4 40.2-36.4 5.8-64.5-5.5-70.4-43.1l3.7-3.3c15.6 5.7 30.6 39.7 60.5 28.3 22-8.4 26.6-13.2 41.6-30.6M2740.4 966.3l6.1 5.8c-2.7 12-3.7 15-8.8 26l-1.9 1.6-2.9 2.3c-19 15-54.7 18.9-76.4 6.7-14.8-8.3-18.4-21.1-22-36.5l6-4.6 2.2 2c6 5.5 9.8 12.3 16.3 17.5 23.7 19.1 52.5 10.2 71.8-10.3 3.1-3.3 6-7.6 9.6-10.5M3032.6 968.3c7 2.8 9.6 8.3 14.6 13 28 26.9 59.2 20.2 81.9-9.5 1.6-2.2 2.5-2.4 5.2-4.1l6.2 4.5c-9.9 59.7-104 61-111.6-.4zM1848.7 971.1c13 .3 21.1 20.3 40 25 38.9 9.7 45.2-19.5 64-28.7l6 4.7c-11.3 65.3-114.4 54.2-110-1M3226 972.2l5.5-5.1c23 26.8 50.3 43.7 84.2 17.5 6.2-4.8 8.3-13.5 16-17l6 4.6c-4.2 22.8-15.5 38.4-39.1 42.2-38.1 6.3-65.3-3.6-72.6-42.2M2149.8 967.5l5.8 5c-10.3 45.2-53 54.3-92.8 33.7-12.2-6.4-16.4-21.2-18.3-34.3l3.6-3.4c18.4 6.7 23 35.4 60.7 27.6 30.3-6.2 25.6-21.3 41-28.6M2832 972.3l5.6-4.6c13 14.7 25.3 28.4 46.6 30 28 2 37.3-20 53-30.2l5.9 4.9c-3.2 14.4-7.7 29.1-21.9 35.8-31.7 15.1-64.6 9.7-85.2-17.8z"/><path fill="#3b5b42" d="M625.5 2753.3c8 24.1-1.7 123.3 11 138.4 25.4 7.8 81.8-.8 111 3.5-7.4.9-21 1.8-27.7 3.3-23.7 1.9-69.8.6-95 .7q0-72.9.7-145.9M2746.5 972.1c27.9.4 57.8 1.3 85.5.2l4 18c-2.2-1.8-10-8.3-12.1-8.5-13-1-57.9-8-67.8-2.8 7.3.5 16.6-1 21.6 1.3-40 2-16.4 9-40 17.9 5-11.1 6-14.1 8.8-26"/><path fill="#1d3625" d="M673.9 1057.1c21.4-23.1 32.8-20.8 63.3-21 178.5-1 357.1.7 535.6.2l1801-.8 347.3.6h122c22.7 0 77.2-4 97.7 9.2 6.5 4.2 11.8 32.5 11.8 42.1q.3 149 0 298l-.1 563.1v363.3c0 60.8.5 122.6-.4 183.4-.2 11.8-3 29.5-12 37.6a54 54 0 0 1-31 13.9c-99.3 1.6-199-1-298.4.8-33.8.6-68.2-.6-101.8-1l-13 13q.6 59.7.3 119.3l-.2 58.3c0 19.8.5 28-6.1 47.2-11.1 11.6-14.4 20.5-32.2 21-80 1.6-160 0-240 0l-503.1.3c-22.7 0-180.8-1.4-187 1.3-19.5-.7-30.2-.3-49.8 2.2l-2.2 4c-21.5.8-37.4 1.2-58.4-3.8 1.9-2.3 2.2-1.7 5.8-3-2.5-1.3-1066.7-1-1159.5-1l-186.3.5c-37.4-.1-107.8 10.6-108.3-46.2-1.1-131.8 0-263.7 0-395.5l.2-780.2v-338.4c0-37.3-3.5-160 4.8-188.4"/><path fill="#a1a1a1" d="M705.2 1042c37.2-2.2 88.9-.7 127-.7h2165.1q305-.1 610 .1c26.5 0 39 16.2 39.8 41.6.7 24.8 0 49.5 0 74.3v1091.4l.2 163.6c0 29.9.5 60-.6 89.9-.9 22.6-15.3 36.5-37.6 38-27.3 2-54.7 1-82 1h-164.4c-31.1-.1-139-5.4-160.3 5-4.2 2-8 4.7-9.7 9.3-5.7 15.2-3 38.1-2.7 54.3.5 33.2 5.4 139.6-3.2 164.5a38 38 0 0 1-20.6 22.1c-6.3 3.1-14.2 3.5-21.2 3.8-45.8 2.1-93-.2-138.9-.2H1149.2c-49.8 0-429.2 4.4-448.6-3-8.2-3.1-19.4-11-22.3-19.6-9.1-27-4.2-175-4.1-211.8v-330.1l.2-752.3c0-131.1-.3-262.2.1-393.2.1-26.7 4.3-39.1 30.7-48"/><path fill="#6e6f6e" d="m715.8 1057.7 1776-.2 691.6.2c131.7-.1 263.7-.9 395.4-.3 8.9.4 32.1.3 39 4.6 17 10.8 12.3 51.7 12.2 70l-.2 94.3v309.2l.1 626.7c0 109.9.3 220 0 329.9 0 12.9-.9 16.7-8.7 26.6-20.9 11.2-111.7 6.6-138.9 6.6l-208.5.2c-22-.2-66-4-84 7.7-19.3 12.4-15 49.8-15.4 70.5-1.1 52.2 4 106.6-1.4 158.4-1.7 16.4-19.8 23.5-33.9 22.7-44.9 1-89.8.2-134.7 0l-252.7.1H1235l-369.6.2c-28.2 0-132.2 4-152.3-1.5-6.8-1.9-15.8-7-18.5-13.9-8-19.9-3.7-261.8-3.7-307l.4-598.8-.4-761.3c.2-23.8-.3-36.9 24.8-44.9"/><path fill="#a1a1a1" d="M712.3 1063.1c8.7-1 17.7-1 26.5-1.2 56-.6 112 1 168.1.7l495.6-.3h2036.1c50.4.2 100.8-.5 151.3 0 39.7.4 35.9 17.6 36 51l-.3 86.6-.2 289.5-.2 664.5q.2 167.2-.4 334.3c0 12.3-1.2 16.8-8 26.6-21.3 10.1-229.4 5-270.7 5-42.9-.2-85.8-.7-128.6-.1-24 0-48.4 16-48.8 42.3-.8 49.8.6 101.2-.1 151.2-.3 14.8 2 30 0 44.8-2.3 16.4-13 22.7-28.9 21.6q-76.9.3-153.8 0l-298.2.1H852.6c-39.5 0-79.4.4-118.9-.1-17.5-.3-23.2-.9-34.5-11.6-7.3-20.8-3.4-317-3.4-357.5l.1-1007.4v-207.5c0-35.7-1-74 .9-109.8.5-11.2 7.2-16.1 15.5-22.7"/><path fill="#f4f4f3" d="m819.3 2113.8 523-.1v510.2c-172.9-2-350.3-.5-523.4 0z"/><path fill="#a1a1a1" d="m846.1 2445.9 154.4-.1.2 152.8-154.3-.2c0-51 .7-101.5-.3-152.5"/><path fill="#f4f4f3" d="M867.5 2467.3h111.7q.3 55 0 110l-111.5-.2z"/><path fill="#a1a1a1" d="m891 2490.4 64.8.2.2 64.3c-21.1-.5-43.6 0-64.9 0zM1161 2139.2h155l.3 150.5q-77.6-.6-155.3-.2z"/><path fill="#f4f4f3" d="M1181.9 2160.2c37.2.5 74.9.2 112.2.3q.6 54 .2 108.2l-112.6.5c.5-36.1.2-72.8.2-109"/><path fill="#a1a1a1" d="m1206.5 2183.2 64 .3-.3 63h-63.7c-.4-20.8 0-42.4 0-63.3M846.1 2139.2l154 .1.4 150.2q-77.2-.4-154.5.2 1.2-75.3.1-150.5"/><path fill="#f4f4f3" d="M867.4 2160.3H979l.1 108.5q-55.7.2-111.5-.3-.6-54-.2-108.2"/><path fill="#a1a1a1" d="M891.2 2183c21.4.4 43.4.2 64.8.3v63.3l-64.9-.2zM1048.8 2511.4c-.2-19.4-1-44.5.8-63.4 5.6-3 13.4-2.2 20.3-2.3v24c14-.1 60-3.7 67.6 4.7.4 8 1.2 4.3-2.5 11.3-11.3 7.6-30.2-1.2-18.2 26 8 1 13.3 2.1 19.3-3.7.8-7.1.6-8.3 4-14.8 5.7-4 12.7-2.8 19.9-2.6.3 12.7 3.7 37.1-8.4 44-5.4-1-7-2.1-11.9.1-3.6 6.4-2.5 13.1-2.3 20.6-6.8.2-14 1-19.9-1.8-3.7-5.1-2.9-13.5-3-20.4-9.6.2-36 1.8-43.2-2.4-2-5.3-4-8.5-2.3-13.8 5.5-4.7 12-4.4 20.5-6.2 5.9-6.5 4.4-3 5.8-10.6-4-9.6-14.2-12-23.7-10-3.2 8 1.7 11-4 18.8-5.4 3.7-9.1 2.7-16 2.6zM1183.6 2423.6c-.1-12.5-2.1-29.3 1.7-39.8 5.6-5.5 2.3-3.7 10.3-5.1 16 5.6 9.3 29.7 9.7 45l23.2-.3c-.3-7.5-1.9-15.9 2.1-21.7 27.4-13.2 19.4 32.4 19.6 44.1H1228c0 14.8-.3 30 0 44.8-7.6-.2-37.9.8-42.1-1.8-3.2-6-2.3-9.6-2-16.3 5.9-7.2 9.6-5.2 18-3.3 4.8-5.7 4.1-14 3.5-21.6-5.2-3-18.8-3.6-22 2.6-1.4 2.8-1.1 8.6-1.1 12-5.5 8-9.8 6.9-19 6.8l-2.5-2.4-.3-24c0-9.8-1.5-10 2.6-17.4 6.4-2.6 13.5-1.8 20.5-1.6M1294.5 2335.3c0-7.2-1-13 2-19.5 6.3-3.5 12-2 20-2v76c.2 5.4 1 6-1.8 10.4-8.4 1.7-11.7 3.3-18.1-3-4-10.2-2-28.8-1.9-41l-88-.2c.3-11.6-3-30.7 2.4-39.8 1.5-2.4 6.3-1.9 10-2.2l51.7.1-.1 21.8zM1183.6 2511.7l4.7-.2c25.5-.9 16.9 24 16.6 44.3l44.7-.2c0 11.2-2.5 16.3 7.4 22.1 5.7-.2 7.4-.9 12.4 1.9 3.6 6.3 2.6 13.1 2.5 20.6l-53.3-.1c-5.7.2-6 .7-11.1-1.6-5.9-10 1.4-12.6-4-21-8.5-.7-14.8-2.3-20.4 4.7-.1 7.2.3 7.9-2.5 14.7-7.6 4.3-10 2.8-19.5 2.9l-.4-44 23.2.6zM1025.6 2180.8l21.2.5v43.1l46-.4c-.4-14-2.7-15.4 8.7-23.2 7.3-.5 3.8-1.2 10.5 2.7 4.3 7.5 2.8 7.3 2.8 17.3v25.6l-89.4.3zM1025.4 2512c7.2-.2 15.3-1.5 20.7 2.4-1.8 16.9 2.6 22 18.9 20.6 6.6 7.3 4.3 31 4.1 42.3l-22 .1c.4 7.7 2.5 16.2-4 21-7.4 0-11 1-16.8-2.2-2.5-15.3-1-66.3-.9-84.3M1047.4 2313.6c0-8-1.6-16 1.9-22 7.4-.9 14.8-.7 20.3-4.6.4-6-.5-14.6 2.2-18.2 6.1-1.5 10.2-3.4 16-1.3 4.5 8.8.3 11.1 7.4 20 6 3.8 11.9 2.4 19.3 2 .1 6.5 1.4 16.3-2 21.2l-2.2.2c-8.3.7-9.4.5-16.5 4.1-2.2 6-1.6 9.7-1.4 16-5.6 7.9-21 3.6-21.3.5-2-16.5 3.8-18.8-16.1-18.2zM846.2 2313.4c12.4-.2 81.7-2.6 86.9 2.8.8 7.3 2 9.8 0 16.3-5.8 3.3-14 2.2-21 2l-44.5-.4c-.2 10.1 1.9 14.7-2.9 21.5-6.8 2-6.4 1.8-13.2-.3-9-9.6-5-25.4-5.3-42M980.5 2400.4c21 .9 45 .4 66.4.5l.2 44.1c-6.8.3-13.3 1.4-19.3-1.3-3.9-5.7-2.7-13.7-2.7-21-15.5-.2-31 4.3-42.3-2.8-3.9-5.3-2.6-12.5-2.3-19.5M870.9 2357l5.1-.2c9.5 0 8-.2 13 4.6 3.4 10.3 1.3 27.8 1.3 39.6-7.5-.1-11.3-.3-18.6.6-4.7 5.2-4 12.4-4.9 20.5-10 .6-12.6 2.1-19.2-3.7-4-9.6-1.6-27.8-1.4-39.2 9.5.5 15.6 2.9 21.4-5-.4-7-1.7-12.3 3.3-17.2M1047.4 2313.6c-.3 6.6-1 11 .8 17.4 8.1 6.9 7.2 2 18.6 7.2 3.2 4.8 5.3 12.9 1 17.4-7.6-.3-11-1.3-17.7 2.6-4.6 7.7-3 10-3 19.9-6.8.1-14 .8-20.5-1.4-2-15.1-1-46.4-1-62.8zM1115.6 2401h43.7c.4 7.1 1.7 13.3-1.5 19.5-5.3 3.7-13.4 2.6-20.3 2.4.3 7 1.3 14-1.6 20.3-4.8 3.6-13.7 2.4-20.3 2.3zM1115.3 2334.8c.1-9.7-1.5-11.9 3.3-19.1 12.6-5.8 26-1.9 41.6-2l.2 42.3c-9 .4-14.9 2.3-20.9-4.7-.8-6.7-.7-8.3-3.6-14.6-5.8-3.7-13.4-2.3-20.6-1.9M1114.4 2139.2c7-.1 16.5-1 22.1 2 1.9 15 .8 44.1.7 60.3-8.5 0-12.3.1-20.6-1-2.4-11.8-2-47.5-2.2-61.3M1025.6 2139.2l45-.3-.2 40.8c-7.8 0-13.7 1.7-20.7-1.9-3.2-9.7 3.5-6.8-3-16.2-10.6-5.5-8.6-2.1-19.2-3.6-3.1-6-2.1-11.8-1.9-18.8M1272 2422.4l44.5.5v22.3l-44 .4zM1271.9 2490.7h22l.2 42.8-22-.2z"/><path fill="#a1a1a1" d="M1115.3 2334.8c-.8 13.3 3 28.8-2.4 40.2-7.2 4.7-9.5 3.1-19.1 3.3.2-15-3.8-28.4 2-40.2 7.1-4.7 9.9-3.2 19.5-3.3M1250.2 2445.8c10.7.4 11.6-1.5 18.4 3.7 5.6 12.2 1.4 25.3 2.5 40.5-10 .5-10.6 2.1-18.3-1.8-6.4-11.5-2.3-27.4-2.6-42.4M935.3 2335c16.4.7 28.8-3.6 41.4 3.3 4.4 7.3 2.8 7.4 2.7 17.5-15.8-.3-29.4 4-41.5-2.5-4.2-7.4-2.6-8.3-2.6-18.4M1160.4 2356c7.1-.2 15.6-1.4 21.1 2.4 3 5.7 2 13.6 1.7 20.4-7 0-15.9 1-21-3.2-2.9-6.3-2-12.5-1.8-19.6M1070 2445.7c-.2-7.2-1.5-16.2 2.5-21.6 6.3-3 12.5-1.9 19.6-1.6.3 7.2 1.5 15.6-2.2 21.2-5.8 3-13.1 2-20 2M934.8 2400.7c7-.2 14.5-1.4 20.3 2 3.5 5.3 2.4 13.4 2.2 20.2-6.9.1-14.5 1-20.3-2-3.8-5.4-2.4-13.2-2.2-20.2M1293.6 2555.4c6.9-.2 14.2-1.2 20.1 1.6 4 5.2 2.9 13.4 2.8 20.4-7.3.3-13 1.2-19.8-1.3-4.4-7.1-3-11.4-3-20.7M1070 2379.3c7.3-.3 13-1.2 19.5 1.7 4 5.4 2.7 12.8 2.5 20-7 .2-13.2 1.3-19.5-1.6-4-5.3-2.7-13.1-2.6-20.2M1114.7 2268c6.9-.1 14.3-1.2 20.1 2 3.6 5 2.4 13 2.3 19.6-7.1.1-13.4 1-19.7-1.8-4-7-2.6-11-2.7-19.7M1293.8 2469.4c6.8-.2 13.9-1.3 19.8 1.6 3.8 7 2.4 10.6 2.3 19.4-7.2.2-12.5 1-19.2-1.6-3.9-6.5-2.6-11-2.9-19.4M980.4 2356.2c6.9-.3 11.7-1.2 18 1.6 3.7 5.2 2.5 13.6 2.4 20.6-7 .2-12 1.1-18.2-1.8-3.7-5-2.4-13.6-2.2-20.4M1025.5 2268c7-.2 12.5-1.1 18.8 1.7 3.9 5.3 2.7 12.7 2.5 19.7-6.7.1-13 1-18.9-1.7-3.7-6.7-2.4-11.1-2.5-19.7M982 2313.8c8.6 0 11.4-1.2 17.7 2.8 2.8 5.6 1.1 11.7.3 18.3-10 .3-14.1 2.3-20-6.2.2-7.5.1-7.8 2-15M1250.5 2534.5c6.6-.3 11.2-1.1 17.4 1.1 4 5 2.8 12.6 2.8 19.5-7 .2-11.3 1-17.9-1.4-3.8-5.2-2.5-12.4-2.3-19.2M1070.8 2181.9c7.1-.3 12.1-1.1 18.7 1.5 4 6.8 2.4 8.8 2.5 18-7 .2-12.3 1-18.8-1.5-3.9-5.2-2.6-11.2-2.4-18"/><path fill="#f4f4f3" d="M1582.7 1620.5c51.3-1.2 108.6.2 160.4.3v409.7c-46.5-.5-94 .2-140.6.5a9323 9323 0 0 0-164.8 0l-.1-410.2q72.5.5 145.1-.3"/><path fill="#a1a1a1" d="M1444.3 1628.8h291l.2 395.3h-291.3z"/><path fill="#f4f4f3" d="M1705 1640.8c4.6 5.5 2.9 86 2.9 99.5l-149.5 147.8c-25-25.4-54.8-52.7-80.8-77.7l-3.2-3.8c-2-22.5-.7-83.2-.5-100.7 27.6 23.5 56 51.7 82.6 77 42.2-41.3 104.9-105.7 148.5-142.1M1475.6 1889.1c17-.3 35.5-2.6 49.4 7.4 6.6 12.4 0 19.8-10.2 26.8.1 11.4 11.8 13.4 13.8 25-5 3.4-5.2 2.2-12.2 2.4-6.2-10.3-13-25.5-25.7-25.7-5.1 7.4.3 13.4-3.4 24.2-7 2.6-3.9 2.9-10 .2-2.7-6.1-1.7-50.5-1.7-60.3"/><path fill="#a1a1a1" d="M1488.4 1899.4c8.1-.2 14.2-1.1 21.7 1.8 4.5 6.2 3.3 3.5 3 12.5-7.5 1-14.2 2.7-21.3.3-4.6-6.2-3-5.1-3.4-14.6"/><path fill="#f4f4f3" d="M1670.2 1887.2c10.4-.3 25.3 1.2 31 11.2-.3 6 .6 3.3-3 8.3-9.3 1-11.9-7.7-24.3-8.7-6.1 3-4.7.7-6.4 5.6 5.8 8.3 26.3 10.2 36.4 25.8 2.2 13.8-8.1 18.1-19.7 23-11.6-.4-23.9-2.4-31-12.8-.7-7-1.4-4 1.8-9.9 10.7 0 14 11.5 27.5 11.3 6.3-3.7 4.6-1.2 6.3-7-6-9.6-22.9-11.9-33.9-24-4.1-13.3 4.7-17.5 15.3-22.8M1591.5 1888.2c5.5.4 6.3-.2 10.7 2.8 4.9 9.5-1.2 11 1.6 19.6 29.5 15.8 20.2-8.5 26.2-20.8l4.6-1c2.6 1 5.6 1.2 6 3.3 1.5 12 1 50.9-1.6 60.8-4.9-1.2-4.6-1.2-8.9-4-3.3-7-1.8-17.2-1.5-25.3l-24.8-.2c0 7.8 1.5 21.1-2.8 26.7-6.5.4-3.7 1.4-8.8-1.6-2-12.7-.8-45.5-.7-60.3M1549.3 1907.6a23 23 0 1 1 17.5 42.5 23 23 0 0 1-17.5-42.5"/><path fill="#a1a1a1" d="M1552.4 1915.5c4.3 0 5.3.4 9.5 1.1 10.6 8.6 7.6 15.8 1.3 26.2-18.8-2.4-18.7-13.3-10.8-27.3"/><path fill="#f4f4f3" d="M873.6 1655.3c40.8-2 95.8-.3 137.6-.3v61.9H898.5c.4 27-.1 55-.2 82l92.5-.1q2.2-9.7 4.8-19.2c11.8-40.8 41.8-75 79-95a162 162 0 0 1 124.3-11.4c46.8 14.5 73.4 42.6 95.5 84.5l-51.5 7.8a110 110 0 0 0-154-32.8 108 108 0 0 0-47 69.2c-7 34.3.8 61.5 19.6 90a110.3 110.3 0 0 0 97 42.3c37.8-3.2 61.5-21.5 84.6-49.4q25.5 3 51 4.8a156.8 156.8 0 0 1-120.5 92.2c-43.1 6-86.8-5.2-121.6-31.3a151 151 0 0 1-60.7-104.3l-93-.1.1 138.8h-67.7v-173.6c0-34.3-.9-68.8.5-103 1.2-29.9 13.6-45.6 42.4-53"/><path fill="#f4f4f3" d="M1141.9 1727.7c49.5-5.7 83.2 27.4 103.4 68l-56.8.1-4.5-5a47.3 47.3 0 0 0-81.8 34.2 50 50 0 0 0 16.5 35.3c24.6 22.2 52.7 12.2 72.8-10.1h54.9q-4.5 10.5-10.6 20.5a103 103 0 0 1-64.7 48c-86 20.1-154.5-82.1-98-152.5 19.8-24.4 38.5-33.8 68.8-38.5M2336.7 1335c35-.3 55 18.7 61.8 52.7 9 45.2 6 116.7-49.8 128-36.5.5-57.7-20-63.2-56.3-6.7-44.1-5.3-115.3 51.2-124.4"/><path fill="#a1a1a1" d="M2337 1354.2c15.2.3 28.3 4.6 33.5 20.2 12 35.5 18.4 104.4-22.2 122.3-10.7.3-21.4-.9-28.2-10.9-19.8-28.8-17.1-84.2-4.1-115.6 4-9.6 12.2-13 21-16"/><path fill="#f4f4f3" d="M2079.5 1335.8h32.1v176.5c-7.7.3-15.6 1.4-22.4-1.8-2.6-13.5-1.3-97.3-1.3-116.1l-.3-26.1c-9.4 21.6-45.9 133.5-56.2 142.5-8.5 1.3-8.1 1.4-16.4-.5-10-10.8-47.4-124.5-54.8-146.1-1.2 48.2 1 99.2.5 148l-23.5.3.1-176.4h35.3c14 46.1 36.3 104 52.7 150.4zM1259.9 1335.8c11.5.5 45.9 1.7 60 0 57.3-6.5 97.7 38.2 59.9 89-11.2 15-33.3 16.9-52.8 16.9l-43.6-.2v70.6H1260z"/><path fill="#a1a1a1" d="M1283.6 1356.3c20.4.6 57.3-4.8 74 7 16.3 11.5 12.5 35.8 1.5 50.1-18.6 11-52.6 7.6-75.6 7.4z"/><path fill="#f4f4f3" d="M1547 1337a81 81 0 0 1 25.5-.6 59 59 0 0 1 39.2 27.6c21.4 35.4 14.5 123.4-27 145.6a53 53 0 0 1-42.8 3.4c-14.5-5-36.8-21-30.2-38.7 6.3-5 7.3-3.3 17.5-3.8 8.5 22.6 27.3 40.5 49.4 20.1 18.1-16.7 19.7-37.7 22.3-60.3-68.1 74.5-145.8-55.4-53.9-93.4"/><path fill="#a1a1a1" d="M1557.3 1354c52.5-2 54 68.4 10.7 79.6-46.9-1.5-56.9-60.6-10.7-79.5"/><path fill="#f4f4f3" d="M2932.9 1400c27.3.6 98.2-7.5 120.5 12.6 20.4 18.3-6.6 34-9.3 40.6 18.9 11.1 25.3 15.4 20.7 38.2-22.1 29.2-96.9 20.4-132.2 20.5z"/><path fill="#a1a1a1" d="M2973.5 1464.2c15-.4 40-4.1 50.8 6.9 2.5 8 2 5 .3 13.7-13.3 4.8-36.2 3.5-51 3.5zM2973.3 1422c13.8-.4 34.3-3.2 44.6 4.5 3.8 7.6 2.7 5 1.6 14.6-12.9 3.5-30.4 5.8-42.8 0-5-7.2-3.3-9.1-3.4-19.1"/><path fill="#f4f4f3" d="M820.8 1335.9c27.5.2 99.6-2.4 123 1.1l1.7 2.6c.1 6.3 1 10.5-2.2 15.9-12 2.8-81.2.8-98 .6l-.2 54.6q36.4-.4 72.8-.5c7 0 17.8-.4 22.4 4.3.5 8.5 1.7 6.9-2 12.7-13.3 7-67.8 3.8-87 3.7h-3c-5.8 6.9-3.3 49.8-3.2 61.6 31 0 62.4-.5 93.4-.4 4.7 0 8.7 3.9 11.3 7.4 1.5 7 2 4-.6 9.7-10.1 5.4-107.8 3-128.1 3zM2476.2 1334.7c29-1.8 60.5 1.2 79.1 29 4 6 2.4 14 .5 20.6-22 13.1-24.7-13.3-35.9-25-11.5-13-49.7-5.5-59.6 6.5-21.8 26.2 15 38.9 34 42.8 42.4 8.7 91.8 32 59.5 82-11.8 18.3-30.5 21.8-50.7 25.2-32.1.8-58.7-8.7-75.6-39-3.2-5.5-2.7-9.5-.5-15.2 6.8-5.8 7.2-4 18-5.5 14.8 36.7 37.1 44.6 76.1 34.2 13.8-3.6 23.7-22.8 17-35.6-6.5-12.6-27.3-18.3-40.1-21.4-36.6-8.1-82.3-23.1-61.2-70.6 7-15.7 23.4-23.1 39.3-28M2800 1400l119.8-.2.1 23c-25.5 0-52.3-.5-77.7.2-4.3 4.8-3 4-3.5 12 9.6 18.8 50 .5 72.1 8.8 3 5.6 2 13.8 2 20.5l-55.2-.4c-6.5-.3-11-1.2-16.8 1.8-3.7 5.5-2.2 15.3-2 22.4 25.6-1.1 56.5-.5 82.5-.6l.3 23.8-121.6.3q.3-55.8 0-111.6M3382.2 1400.3l118.3-.3v22.6c-15.5 0-70.7-2.3-80.4 3.5.4 7.1-.3 8.1 4.2 13.7 21 12.2 51.3-8.5 68 7.7 2 7.4 1.8 7.2.8 14.5-5 3.3-43.4 2.2-52.3 2.2-6.6-.3-11.9-1.4-17.8 1.4-4 5.6-2.6 14.7-2.3 22.1l81.4.4.2 23.1q-60.1-.4-120.4.8zM1807.6 1338.1c16 0 77.8-2.6 88.3 1.9 1.1 6.9.7 9.2.3 16-6.5 4.2-58.7 2-69.7 1.9q-4.5 23.8-9.2 47.7l1.4-.8 2.4-1.2c86.8-44.7 125.8 109.3 16.8 112.4-34.1-5.4-42.6-18.1-53.2-48.8 27.7-4 18.5-4 33.5 15.3 38.4 49.7 83.5-25 50.8-59.4-16.4-17.3-43.8-2-59.8 7.5l-19.7-1c7.3-28 13-63 18-91.5M1012 1336.8c30-2.9 71.8 2.8 75.4 41.2 4.4 45.5-58.2 78.8-84.3 110.9l-1.9 2.3c14.5-.2 78-3.1 85.8 2.7 1.2 7.6 1.4 7.6.3 15.1-10.8 5.5-64.6 3.4-80.2 3.3-10.2.1-25.7 1-35.2-1-12.4-26.9 61.7-76 77.7-96.2 24.8-31.5 13.2-65.8-30-61.4-14.3 1.4-16.9 21.1-24.3 32-5.8 2.6-15.5 1.2-22.2.8 4.4-29.5 11.6-38.5 38.9-49.7M1155.6 1336.6c30.3-3.3 67.3 2.8 72.3 39.8 7 51.3-60.8 78-85.3 114.7l85.5.2c.1 6.5 1.1 14.4-2 19.8-14 2.3-56.7 1.2-73 1.2h-43.5c9.2-49.7 52.3-61.9 81.1-97.6 16.4-20.4 19.5-45-5.4-59.5-23.7-13.9-40.6 10.5-49.4 29.5-1.7 3.6-7.8 4.3-11.2 4.3-10.8-5.7-10-15.9-5.2-25.9 7.3-15 21-21.4 36.1-26.5M2182.4 1336.8c34.8-3.2 71.2 5.2 69.6 48.9-.8 23.6-15.1 17.5-19.9 32.5 6.1 4.1 19.7 12.6 22.6 18.9 24.6 54.5-34.8 94.8-83.6 73.3-17.9-8-24.6-26.8-30.8-43.6 7.3-1.4 14.8-3.6 22-2.2 6 5.1 4.6 5.5 7.6 14.4 22.5 39.8 81.6 8.8 64-34.7-6.1-14.9-32.7-14.3-46.3-18.4l-1.2-4.6c7.3-20.2 51.3-12 41.6-43.7-13-42.7-48.9-27.2-61.3 6.6l-23.3-3.6 2.6-7.2c8.4-22.1 16-27.7 36.4-36.7M3068.8 1400.2c12.6-.8 31.5 0 44.6 0 10.5 14.5 22.5 27.6 33.2 42.9l34.5-43h43.2a3233 3233 0 0 1-34.5 39.4l-24.4 27.4v44.6h-39.2l.1-44.7q-29.1-33-57.5-66.6M3240.8 1399.7q64.6-.3 129.3.6l.2 24.3-49.3-.1.1 49 .3 38.3-38.7-.1q.1-43.5-.2-87H3235c-.2-7.6-1.4-17.1 1.5-23.7zM3146.6 1310.7c3.2.4 10.2 1.2 12.5 3.1 11.6 10 11.3 47 12.2 61.5h123c17.3 0 58-3.4 71.2 4.5l-1 2c-14 2.7-58.7 2.1-74.5 2.1l-134.7-.3-138.4.3c-20.1 0-64.3.9-81.8-3.3l1.5-1.6c22.3-6 53.7-3.4 77.7-3.5l115.4-.1c1.3-19.6-1-54.7 16.9-64.7"/><path fill="#a1a1a1" d="M3138 1370.5c10.7-2 15.5-3 25.1 2-9.7 1-16.6 2.3-25.2-2"/><path fill="#f4f4f3" d="M1715.6 2401.8c18.2-.4 34.1-2.6 50.8 6.5 26.6 14.4 19.1 46.8 5 67.7-15.1 11.6-37 8.8-56 8.5q0-41.3.2-82.7"/><path fill="#a1a1a1" d="M1725.7 2411c8.2-.1 21-1 28.4 2.2 24.2 10.6 20.9 36.5 9.6 56-12.4 7.9-22.6 6-37.5 6q.2-32.1-.5-64.2"/><path fill="#f4f4f3" d="M1713.6 1334.3c2.1 0 12 .2 12 2.5-.8 44.2 7.8 132.2.5 172.8-4.6 3-14.5 2.3-20.5 2.4l-.1-55v-82.1c-11.1 7.1-26.5 18-39 22-3.7 1-3 .3-7-2.3-1.5-18 28.8-30.4 40.6-43.1 6.5-7 8.2-9.4 13.5-17.2M2259.3 2259.3c17.7-.5 48.4-4 57.8 13.8.3 8.1-3.3 14.3-6.6 22 .7 6.7 6.6 12.2 10.7 19.3.4 8.8 0 9.5-2.6 18.2-15.9 14.5-37.4 10.5-59.2 10q-.3-41.6-.1-83.3"/><path fill="#a1a1a1" d="M2270.3 2303.8c20.2-.2 48.4-3.8 36 26.5-11.5 3.4-24 2.6-36 2.6zM2270.2 2268.6c13.4-.3 27.6-2.9 35.8 9 1 7-.2 8.4-3.1 14.7-10.3 2.7-22 2.2-32.7 2.4z"/><path fill="#f4f4f3" d="M3409.4 1159a36.3 36.3 0 1 1 13.9 71.2 36.3 36.3 0 0 1-14-71.3"/><path fill="#a1a1a1" d="M3397 1170c6-3 9.8-5 16.5-5.6 8.8-.8 17.4 2.1 24 8 5.7 5.2 9 12.4 9.2 20.1.5 12-4.6 18.5-12.3 26.5-13 6.7-26 8.5-38-1.4a29 29 0 0 1-10.5-20c-1.1-12.3 3.6-18.8 11.1-27.5"/><path fill="#f4f4f3" d="M3401 1177.3c5.5-7.1 21.3-4.8 28.8-1.3 8.3 14.7-12.4 17.8 1 31.6 3.4 3.5 3.5 6.8 3.6 11.4-11-7.8-14-18.4-20.6-20.8-7.2 3.9-6.9 6.9-11.6 15.3l2.1-3.7c-5-6.6-3.4-23.7-3.4-32.5"/><path fill="#a1a1a1" d="M3406.7 1178.4c6.5 0 11.6-.7 17.3 2.4 3.2 6.3 2.2 2.8.9 11.3-6.6.6-8.7 1-15.4.2-4.3-5.1-2.7-5.3-2.8-14"/><path fill="#f4f4f3" d="M2901 2401.2c46.5-1.8 45.5 66.2 14.9 84.9-45.9 1.2-43.5-66.6-14.9-85"/><path fill="#a1a1a1" d="M2901.4 2410.3c3.6 0 11.2-.5 13.7 1.6 18 14.2 12 50.4.7 64.7-33.3 2.8-27.3-49-14.4-66.3"/><path fill="#f4f4f3" d="M2612 2401c44.8 1.9 41.8 68 11.8 85.3-44 1.6-45.3-70-11.8-85.2"/><path fill="#a1a1a1" d="M2609.8 2410c5.4 0 11.7-.6 15.6 3.3 15.6 15.8 10.3 48.9-2 63.6-32.9.6-25.8-49.7-13.6-66.8"/><path fill="#f4f4f3" d="M2674.2 2401.2c46.6-1.9 44.5 67 13.8 85.2-34-2-37.2-30.1-32.2-59.5 2.2-12.6 7.8-19 18.4-25.7"/><path fill="#a1a1a1" d="M2674.5 2410.3c35-.3 28 49 13.6 67.2-32.5-.4-27-50.1-13.6-67.2"/><path fill="#f4f4f3" d="M1861.6 2541.8c43.7-.2 43.5 69.3 12 85.8-43.3 0-43.8-68.6-12-85.8"/><path fill="#a1a1a1" d="M1861.6 2551c13.6 1 19.2 4.5 21.9 18.3 3.4 17.7 1.6 37-11.4 49.9-30.6-4-25.8-50.8-10.5-68.1"/><path fill="#f4f4f3" d="M2258.5 2541.6c41.5.8 42.4 71.5 9.2 86-34.8-.3-36.3-39.8-28.7-65.5 3.5-11.8 8.7-15.4 19.5-20.5"/><path fill="#a1a1a1" d="M2258.2 2550.4c30.3 4.2 26.2 52.2 10 68.2h-.8c-31.3-2.6-25.7-51.3-9.2-68.2"/><path fill="#f4f4f3" d="M2322.6 2541.8c42.1 1 42.4 69.7 10.3 85.6-42.4 0-44.4-69.8-10.3-85.6"/><path fill="#a1a1a1" d="M2322.2 2550.6c31 3.8 26 51.6 10.7 68.1-5.6-.5-12-.6-15.4-5.2-12.8-17.5-8.8-48.4 4.7-63"/><path fill="#f4f4f3" d="M2452 2541.8c43 3.8 40.2 69.7 9.7 85.8-43.3-.2-44-71.2-9.8-85.8"/><path fill="#a1a1a1" d="M2449.8 2551c32.6 2 26.6 49.3 13.4 67-33.9 1-28-49.2-13.4-67"/><path fill="#f4f4f3" d="M2018 2401.3c30.4-1 35.7 10.9 24.8 35.6-5.5 12.5 31 29.7-10.9 49.4-41.7.8-37.7-21-24.5-46.2.8-1.6-6.7-14.8-7.5-21.7 3.2-9.8 9.2-12.5 18-17.1"/><path fill="#a1a1a1" d="M2017.2 2446.8a16.4 16.4 0 1 1 15.1 29.1 16.4 16.4 0 0 1-15-29.1M2017.5 2411.6a13.7 13.7 0 1 1 13.9 23.6 13.7 13.7 0 0 1-14-23.6"/><path fill="#f4f4f3" d="M2516.3 2541.9c12.1 1 21.6 3.7 27 15.2.3 7-1.6 11.9-4.8 18-5.6 9.7 4.8 15.2 8 25.1 5 15.7-9.7 23.2-22.3 27.7-11.7-1-21-2.8-29-11.7-5.2-12.3 2.3-22.5 7.6-35.5-5.2-20-18.2-26.8 13.5-38.8"/><path fill="#a1a1a1" d="M2513.8 2587.5a16.3 16.3 0 1 1 12.1 30.2 16.3 16.3 0 0 1-12.1-30.2M2514.5 2552.1a13.3 13.3 0 1 1 10.5 24.6 13.3 13.3 0 0 1-10.5-24.6"/><path fill="#f4f4f3" d="M1461.8 2328.4c8.8-20.8 15-45.8 24.6-66.5 4.8-3.5 6.2-2.7 12.3-2.7 5.6 10.6 4.7 72.4 1.3 84l-4.7 1.5 4.8-1.8-5.4 1c-6.5-10.7-4-48.1-3.8-62.6l-.7-2.4c-6.8 8.8-16.4 48.2-26.6 63.9l-3-.2c-10.3-9.8-23.8-56-30.3-73.9.8 17 5 62.2-2.7 74.5l-4.7.5 2.8.8-3.3-1.7c-3.2-11.2-1.7-68.3-1.5-83.5 3.3-.2 10.3-1 12.6.6 11.7 8.3 23.8 55.4 28.3 68.5M1956 2186.8c4.4-10.2 21-62.8 26.5-67.7 7.6-1.6 5-2.6 9.8.1 6.5 13.7 4.8 65.2 2.6 81l-3 2.1-4-1.8c-5.3-9.3-2.7-46.4-2.6-59.8l-.9-3.8c-6.6 9.9-17.6 47.7-25.8 64l-3.5-.2c-11.3-10.3-22.7-51.3-28.8-68.5-1 20 4.5 59-5.4 70.1h-3.1c-5.5-10-3-67.6-3-84.3 3.6 0 14.4-.5 15.6 1.1 7.4 10.2 21.3 55.5 25.6 67.7M2723 2401.4c3.4-.2 11.3-1 13.3.8 11.8 10.2 22.7 54.6 27.6 68.7 6.4-16.7 17.1-70.3 36.3-69.7 4.3 7.4 5.4 79.7 0 84.9l-3.6-.9c-7-8.7-4.4-45.8-4.4-59.3l-.6-3.8c-9.3 11.1-18 58.8-28.1 62.2-10.8-7.9-24.4-55-30-70.8.4 19-.2 48.4-1.1 68.3l-3.4 3.6-2.4-1.4c-5.9-14.7-3.7-63.7-3.5-82.7M1736.6 2117.9c5.6 0 11.5.1 16.7 2.3 28.6 12.2 24.6 75.5-6.5 82-10.4 2.2-27-4.8-27-17.2-.1-4.5.6-3.3 3.6-6.9 5.6 4.1 7 9.2 10.7 11.8 15.6 11 28.4-8.8 26.2-22l-3.6-1.5c-34.6 24.2-58.9-29.4-20.1-48.5"/><path fill="#a1a1a1" d="M1737 2127.5c25.9-1.7 29.2 17.7 15.4 35.2-7 .7-13 1.4-18.8-3.4a16 16 0 0 1-6-12.4c0-9 3.7-13.4 9.3-19.4"/><path fill="#f4f4f3" d="M2456 2402c17.3-.5 34.8-3.5 50.4 6 12 7.2 17.2 20.7 5.6 31.9-11.7 11.3-20.2 10.6-35.3 10.6l-6.6-.2c-9.6 6.3-1.3 18.6-5 32.3-4.7 3.2-2 2.2-8.6 1.5-3.1-5.3-1.8-72.7-.5-82"/><path fill="#a1a1a1" d="M2465.7 2411.2c14.6-.3 30.4-3.7 38.6 10 .8 8.4.6 8.7-2.7 16.6-12.7 4.3-22.5 3.3-36 3.1z"/><path fill="#f4f4f3" d="M1605.4 2139.4c11.3.2 25.9.9 33.2 9.5 1.7 6.7 1.4 68.4-1.9 75.3l-3.5.8-4.2-3.7c.2-8.6.7-14.7-1-23.2-4.2 1.1-17.3 5-21 3.5-28.4-11-25-48.1-1.6-62.2"/><path fill="#a1a1a1" d="M1610.7 2147.1c25 5.3 26 35 5.1 48-23.5-8.2-25.2-35.5-5-48"/><path fill="#f4f4f3" d="M2547.9 2401c9.8 1 14.8 1 22 8.2 25.6 25.9 3 105.6-38.8 66.2-3-2.8-2-7-1-10.6l6.2-2.3c13.6 33.8 38 2.1 32.3-14.2l-4.4 3c-33 21.2-58-34.1-16.3-50.3"/><path fill="#a1a1a1" d="M2547.3 2412.3a17.4 17.4 0 1 1 10.9 33.2 17.4 17.4 0 0 1-10.9-33.2"/><path fill="#f4f4f3" d="m1948.5 2400.6 9 1.3c9.8 9.2 29.2 65.6 34 80.6l-3.7 2.8-3.4-.5c-9.7-9.5-7-22.9-18.6-25.6h-28.5c-4.4 12.2-4 22.9-17.1 24.9-3.2-8.5 23.5-71.1 28.3-83.5"/><path fill="#a1a1a1" d="M1953.9 2413.9c4 6.8 13 27.6 11.2 35l-5.2 1.2c-9.4-.3-10.8 1.5-16-3.4-1.2-8.6 6.6-23.8 10-32.8"/><path fill="#f4f4f3" d="M1548.1 2606.5c.8-17.3-1.1-43.8 1.5-60.4.5-3.3 2.4-3.2 5.9-4.8l-3.8 1 4.8.3c3.7 9.8 2.3 69.4 2.3 84-.7 0-7.1-.5-7.8-1-13.8-10.6-36.4-50.7-45.8-65.4-.4 15.3 2.3 53.9-2.9 65.1l-5.1.8 3.3 1-3.6-1.5c-4.8-11.2-2.6-66.9-2.4-83 .7 0 7.3.2 7.9.6 13 8.6 37.3 50.4 45.7 63.3M1767.8 2280.2c16.9-.6 26.1-.5 31.4 18.3 2.8 9.7 4.3 35.8-.6 44.6l-3.5.5-6.2-5.4c-18.4-.2-21.1 17.2-42-4.2-1.3-34.2 31.9-20 41.8-36l-1.6-4.3c-11-6.1-23.2.4-36.8 3.4l-.4-3c6-9.2 7.8-9.6 17.9-14"/><path fill="#a1a1a1" d="M1786.5 2314.2h1.8l1.2 3.7c-3 16.1-10.7 16.7-25.7 18.6l-5.2-7.1c-.5-7.3-1.5-4.2 2.7-9.9 8.5-4.4 15.5-4.3 25.2-5.3"/><path fill="#f4f4f3" d="M1537.4 2280.1c27.7-.2 31 8.7 33.3 36.3.6 7.5.7 21.6-3.6 27.2h-3.4l-5.4-5.4c-19.2-.3-21.2 18.3-42.2-5-.2-33.2 30.9-18.2 42-36-7.6-13.7-25-3.7-37.3.4l-1.8-1.8c3.7-11.3 8-11.5 18.4-15.7"/><path fill="#a1a1a1" d="m1555.5 2314 2.4.7c4.6 17.6-13.5 20.6-26.1 21.2-4.7-7.3-4.7-4.9-4.5-12.1 7.4-9 16.6-8.5 28.2-9.8"/><path fill="#f4f4f3" d="M3022.6 1175.4c4.1 1.7 2.3.5 4.8 4.6-3 10.1-22 27.1-26.7 37-15.7 33-18.1 68.7 5 99 5 6.7 18.6 23 20.2 29l-2.8 4.4a119 119 0 0 1-27.6-26.8 101 101 0 0 1-18.2-76.5c4.8-28.6 22-53.8 45.3-70.7M2033.8 2280.1c18.3-.5 44 14.5 32.5 33.8-12.2 3.5-35.9-2.8-41.9 4-.6 8.4-1.6 4.8 3 11.5 12.2 7 19 7.3 29.1-2.8 4.9-3.1 2.3-2.7 7.8-1.7l1 3.6c-5 13.1-17.2 19.2-29.8 15.4-33.3-10-29-48.7-1.7-63.8"/><path fill="#a1a1a1" d="M2033.6 2289.3c2.5 0 6.4-.1 8.7.3 5.8 1 10.8 4.3 14 9.2 1.8 3 1.2 2.1.4 5.8l-5 1.1c-7.9.4-22 3-26.7-3.8 1.1-5.9 4.4-8.2 8.6-12.6"/><path fill="#f4f4f3" d="M2479.9 2259.2c13.7 0 44.8-2 55.5 4.8-8 6.7-36 4.7-46.7 4.5l.2 26.7q10.1-.3 20.2-.4c6.7 0 15.8-.1 20.8 5-6.8 7.1-31.2 4.8-41 4.6l.2 28.6c18-.5 30.7-1.8 48.2 3.3l-.2 2c-15.6 6.7-41.6 4.7-59.1 4.3 0-13.2-1-74.8 1.9-83.4M2067 2152.5c-.5-14.4-1.3-20.6 2.5-34.6l3.6-1c9 17.2 4.2 61.5 4.4 81.6l-3.5 5.3c-3.8-2.1-2.8-1.6-6-4.6-2.6-12-1.3-24.7-.9-37.3h-42.3c.5 11.8 3.4 30.7-3.6 39h-4.4c-5.4-9.2-2.5-69.8-2.3-84.6 4.7.8 4.6.9 8.8 3 3.8 9.6 1.9 22.3 1.4 33.2zM3273.9 1175.2c9 2.9 17.7 9.9 23.7 17 44.5 54 31.7 111.6-15.3 154.6l-5.6.3-2-3c1.4-5.9 12-16 16.9-22.2 29.2-37.4 27.4-79.9-.3-117.5-6.5-8.9-16.2-19.4-17.4-29.2M1662.3 2542c14.4-.2 28.6 1.6 37.4 14.5.7 6.8 1 3.6-1.7 10.2-8 0-27.5-31.9-45-6.8-2 2.7-.6 3.3.5 6.8 14 12 43.5 13 48.8 31.6 5.6 19.5-15.6 26-28.7 28.3-14.5-1-26.3-4.2-34.8-17-.8-7.7-1.5-4.2 2.1-11 8.3 1 12.8 13.5 24.9 17.6a22 22 0 0 0 17.6-1.8c7-4 6.5-4 8.5-9.7-6.8-18.5-40.2-16-52-39.1-.4-13.8 10.4-19.4 22.4-23.6M2967.6 2401c15-.8 30.6 1 40.4 13.8.7 7.3 1.4 4-2 10.3-11-1.7-33.3-33.4-46.4-4 4.5 20 63.8 14.7 48.8 49.4-3.7 8.5-12.7 11.8-20.8 14.6-18.8.7-39.2-2.5-41.1-25.4l2.6-2.1c7.7 1.3 15.3 15.6 25.1 18 9.7 2.2 24.1-2.1 26-12.8-8.5-20-50.9-15.7-52-43.7 4-10 10.2-13.6 19.4-18M1439.5 2541.9c15.6-.7 41.7 1.8 38 23.4-10.7-.7-35.7-30.2-46.9-2.8 9.2 19.5 59.2 15.2 49.8 47.5-2.7 9.4-14.4 13.7-23 16.2-15.5.3-30.5-2.2-39.6-16.2-.7-7.2-1.2-3.8 1.5-10.5 11.6 3.3 38.3 35.7 51.8 5.6-7.5-19.8-38.3-15.8-51.4-38-1.4-14 8-19.7 19.8-25.2M2132.5 2542.6l5.6 1.1c7.1 9.6-.5 43 4 51.8l7.7 1.9 1.5 3.8c-3.4 9.7-8.8.7-10.2 6.9-1.4 6.8 2.7 10-3 17l-5.3-.3c-3.2-4.8-2.4-11.7-2.5-17.9-5.3-1.6-34.1-1.4-41-1.5 9.6-16.9 31-45.7 43.1-62.8"/><path fill="#a1a1a1" d="M2129.1 2561.2c3 5.1 1.8 27 .7 33.6-5.3 2.8-14.8 1.7-21.6 1.7l-1.6-1.8c2.2-6 17.8-27 22.5-33.5"/><path fill="#f4f4f3" d="M1545.2 2139.3c14.4-.1 36.8 9.5 34 27.8-2.4 14.5-32.4.4-44 8-1.7 7.4-2.2 4.2.3 10.3 10.7 8.9 19.5 10.2 30.5 1.4l.7-2.6c4.3-2 2-1.8 6.9-.5 5.8 17-17.5 20.7-29.3 17.9a26 26 0 0 1-16.7-12.6c-10.6-19.5-2.2-40.5 17.6-49.7"/><path fill="#a1a1a1" d="M1543.5 2148.9c8.7-.7 26.7 2.6 23.4 14.5l-3.7 1.2c-9.1.3-20.2 2-26.8-3 1-7 2-6.2 7-12.7"/><path fill="#f4f4f3" d="M2185.7 2542.1c14.6-.6 25.3 1.3 35.8 12.3 2.2 7.3 2.1 3.7-.2 11.2-8-.7-38-32.6-46.9-2.1 7.5 16.5 47.9 14 51.5 35 3.2 18.6-13 25.1-28.4 28.2-16.5-1-39.5-6.8-33.8-28.3l3.5-1.2c8.4 4.7 11.9 15.7 19 19.2 7.6 3.6 28-2 30.7-11.3-8.3-20.4-54-18.1-54-46 4.2-8.5 14-14 22.8-17M2253 2401.6c11.2-.2 50.9-2.6 57.7 2.9l-1.3 4c-6.3 4.6-36 2.4-45.7 2.2l.2 26.2c13-.3 29.2-2.1 40.5 4l-1.7 2.4c-12 4.5-25 3.1-37.9 2.9-1.4 7.2-.8 20.9-.8 28.8 8.6-.1 42-1.6 46.7 4.8-12.6 6.5-42.7 5-57.8 4.9zM2186.4 2259.2c12-.2 49.7-2.3 58.2 5.2-10.3 6-35 4.5-47.2 4.3l-.2 26.4c11.4-.3 32-2.3 40.9 4.2-7.8 7-29 4.8-39.8 4.6-2 5.7-1.3 22.2-1.3 29.1 18.9-.2 27.8-1.1 46.5 3l1 2c-14.5 6.6-41.6 4.9-58.2 4.6zM1855.2 2118.3c10.5-.1 40.3-4 42.9 6.8l.4-1.7c-6.9 10-34.7-4.3-39.8 15.7 2 6.5.5 5.6 4.4 9.2 42.2-17.5 60.2 54.8 2.2 54.1-10-5.2-17-9.4-16.7-21.4 9.3-.9 14.8 13.3 31.5 11.3 14.8-8.4 13-30.3-.4-38.7-7.9-.2-15.2 5.5-24.1 9l-3.5-1.9c-4-13 .6-28.6 3.1-42.4M1522.5 2399.7c11.8 1.3 34 7.7 31.2 23.7-14.6 4.6-12.4-11.5-24.3-13.7-51.5-9.6-38.3 94.8 11.3 59.5 2.8-6.8 2.2-9.4 8.9-11.5l2.7 3c0 4.9 0 6.5-2.2 10.8a25 25 0 0 1-16.2 12.8c-54.2 13.7-71.5-75.3-11.4-84.6M1592.8 2401.5c15.4-1.4 45.5-.6 42 23-12.3 1.3-21.9-17.4-35.5-16.1-14.9 1-23 24.4-21.4 37.2 3.3 26.1 13.8 32 37.3 29.5 6.5-6.3 10.7-16.3 16.7-18.7l2.3 1.6c3.6 22.4-20 31.3-39 26.6-10-2.4-18.3-9-23-18a46.3 46.3 0 0 1 20.6-65M1721.8 2543.9c14.5-.4 27.4-2.3 40 4.8l-1.5 2.3c-10.9 4-19 2.9-30.6 2.7-1.7 9.2-2.1 10.4-1.3 19.5 6.2-.9 24.3-2.4 27.8 1.8 22.9 28.3 7.1 50.3-23.5 52.3-13.7-6.3-15.4-7.5-19.8-22 5.1-5.5 14.9 13.8 33.4 10.8 12.4-7.4 13.9-27 .7-34.4-5.8-3.3-22.5 3.5-29.3 5.6l-2-1.5c-.5-10.6 4-30.6 6.1-42M2088.7 2401.3c16.1-1.6 40.2.1 41.5 21.3-6.2 2.3-42.7-24.5-49.7-8-13.9 33.4-11 63.6 29.3 60.6 11.6-9.2 6.4-13.5 17.5-18.2l2.8 2.1c.3 8-5.2 19.5-12.6 22.7-53.5 23-79.3-57.3-28.8-80.5M3147 1237.7a24.3 24.3 0 1 1 6.2 48.2 24.3 24.3 0 0 1-6.3-48.2M3227.5 1196.7c26.1.8 43.2 44 41.8 66.4-1.7 28.2-10.3 44.8-29.6 64.2-7 1.6-4 2.1-9.7-1l.1-4c30.2-37.3 36.8-63.3 9.3-105.2-4.9-7.5-9.2-11.6-12-20.4M2409.5 2401.2c39.2.8 37.7 26.5 15 50.4-7.6 7.9-17.3 15.6-25.6 22.7 12-.2 30.1-2.2 38.9 5.2-7.4 7.7-33 5.2-43.2 5l-5.6-.4-2.1-2.4c1.4-19.7 39.4-34 43-60.7-3-7.7-.8-4.4-7.2-10-12.4-2.7-21 7.3-32.6 14.5l-1.8-1.2c2.3-16.1 6.5-18.4 21.2-23.2M3065.5 1194.5l4.5 2.5c.4 4.6-22.2 40.9-26 56-7.9 31.3 29.6 65.1 25.8 78.9-37.2-18.2-48.8-74.7-28.4-108.6 7.9-13 13-18.9 24.1-28.8M1877.5 2401.2c47.8-2 37.5 33.6 11.5 56-6.4 5.6-13 11.9-19.4 17.5 10.4-.2 31-2 38.5 4.8-9 7.4-29 5.2-41 5l-6.8-.1-2.7-2.8c1.4-19.5 43.4-36.7 42.5-61.9-2.8-5.7-2.6-5.2-8-8.6-16-2.3-18.9 8.6-32.6 14.6-1.8-14 7-19.3 18-24.5M2165.2 2401c39 3.2 25.6 19.9 22.9 40.1-.4 2.8 9.5 15.3 9.5 26.5-11.3 29.9-59.2 22.4-51.2-5l3.6-1c5.8 3.8 4.2 3.3 7.8 10.7 10.7 8.6 27 5.4 28.3-10 1.4-18.5-15.2-12.7-22.1-20.2l.4-3.7c9.3-3.9 16.4-5.2 19.9-15-1-5.6-2.6-6.3-6.5-10.6-13.8-4.9-19.5 7.6-32.8 10.5.4-13.8 8.7-18.5 20.2-22.3M1992.7 2541.7c7.1.4 18.5 3 23.5 8 21.4 21.5-21.5 53.8-35 65.6 12-.2 29.5-2.4 38.5 4.9-7.5 7.7-34.1 5.4-45 5.1-4.3-.2-2.4.6-5.8-2.4 1-20.1 52.5-44 40.2-66.7-8.8-16.2-30.5 10-38.1 8.8 1.8-16 7.3-18.3 21.7-23.3M2342 2401.2c8.1-.2 23.7.9 29 7.1 19.6 22.5-23.4 55-36.8 66.7 12.2-.5 30.6-3 40 4.4-8.2 7.7-32.8 5.3-44 5-5.6-.3-3.3.9-7.4-2.3 0-19.5 55.1-45.2 39.7-67.5-10.7-15.3-29.5 10.3-37.9 10 .1-14.2 5.8-17.8 17.4-23.4M1799.6 2541.9c11.5.5 31.5 5.3 30.4 20-1.7 22-26.3 39.3-41.1 53.6 11.2-.3 30.1-2.5 38.1 5-8.2 7.4-30.5 5-41.9 4.8-6.8-.3-4.4 1.2-8.2-3 .5-19.2 52.5-42.8 40.3-65.2-7.6-14-28.5 3-37.7 9.3l-1.8-1.5c2.8-15.4 7.8-18.2 22-23M1920.3 2544c53.3-7 26.4 32.1 29 37.2 14.9 28.2 16 40-22 46.7-11.5 2-24.8-16-18.2-25l4.9.5 1.6 4.3c7 8.8 10 10.8 21.6 9.9 9.6-5.6 13.3-13.2 8.7-23.8-5.5-5.7-12-6.7-19.7-9l-1.4-3 2.5-3.6c6.7-1.8 8-2 14.3-5.1 5.8-10.4 3.9-15.2-5.8-21.2-5.5-.2-20.5 9.4-29 12.7l-.4-4.3c4.7-9.2 5.7-10 13.9-16.3M2838.8 2401c48.9 1.4 18.3 35.4 22.6 40.2 36.7 40.8-38.3 66.6-41.3 23.6l2.8-2.6c6.5 1.4 4.3.7 9.4 7.7l1.9 4c14.4 8.8 30.1-3 24.5-19.1-2.3-6.7-13.1-10.2-19.4-13.5-.5-7.4 10.7-1.7 19-15.2-.1-7-1.1-7.2-5.2-13-16.6-8.1-18.6 8.4-33.3 9.7-.7-13.2 8.6-17.3 19-21.7M2057.4 2541.8c33.2 5.7 25.2 15 19.7 39 31.2 63.6-45.6 53.4-40.9 24.6l3.2-1.6c7 4.1 5.2 3.7 9.7 12 12.3 3.6 21.3 2.3 27.4-10 .5-7.3-.1-7.3-3.7-13.5-5.5-4.8-7.6-4.6-15.2-6.2l-2.5-.6-1.6-3.2c2.5-4.3 11.2-7 17.8-11.2 4.8-9.3.5-15.5-8.7-18.8-9.4 1.1-16.6 6.5-25 11.5l-2.6-.7c2.5-14.9 9-17.6 22.4-21.3M1421.5 2117.8c15.5-.3 41.4-1.8 54.8 4.8l-1.7 2c-15.7 3.9-26 3-42.3 2.8v26c10.7-.1 31.8-1.4 40.7 2.1l-3 5.8c-8.3 3.5-27.8 2.3-37.8 2 .1 10.1 2.5 31.6-3.2 37.9h-4.6c-5-6.3-3-70.3-3-83.4M1421.2 2401.3c14.8-.2 42.3-1.7 54.7 4.8l-1.9 1.8c-15 4-26.5 3.2-41.9 3v26.2c10.8 0 31-1.4 40.2 1.7l-2.1 5c-7.5 4.6-28.4 3-37.9 2.7.2 10.3 2.6 31.9-3.2 38l-4.7.1c-5-5.7-2.8-69.5-3.2-83.3M1412.8 1435.7c15.1 0 55.6-1.2 68 1.3 2.5 5.3 1.9 14.7 2 21-16 .2-54.2 1.2-68.2-1-2.8-5-1.9-15-1.8-21.3M2363 2297.2c10.6-17.1 15.6-27.8 32.3-39.2l1.9 1.5c-3 11.2-9 17.9-15.8 27.3l-13.2 19 .2 16.7c0 6.8-.2 13.8-5.4 18.9l-3-2c-4.5-10.7-3.2-20.7-3-32.5-6-9-29.6-41.4-28.2-48.6 16 .8 26.3 25.5 34.1 38.9M1686.3 2330.6c5-14 .2-42.6 9-49.6 7.9 5.4 5.5 51.6 1.4 60.3l-3.5.8c-3-2.8-2.4-1.5-3.6-5-49.6 31.1-45.4-48-34.7-55.2l2.8.6c7.5 16-6.4 40.5 12.1 52 7.8.5 9.4-.6 16.5-4M1607.7 2279.9c9 .2 19.4 1.3 23.5 10.3 5 10.8 4.3 42.4.6 53l-3 1.3c-20.5-11.4 15.3-47.2-21.4-55.9-22 14.4-7.6 33.2-16.9 52.6l-3.3.9-1.9-1.8c-1.9-17.1-1.8-39.2-.1-56.3l2.3-1.6 8 3.1c5.2-1 7.7-3 12.2-5.7M1910.7 2280.3l7.4 2.1c6.4 16.5-1.6 36.9 9.7 52.6 28 11.6 19.3-40.8 25.7-53.2l3.3-.9 3.7 3 .3 12.3c-.1 12.3 2.9 39.5-3.1 47.6-5.4-1.5-3-.7-7.4-7.2-8.9 3.4-24 12.5-32.5 3.3-11-12.2-7.4-44-7-59.6M2090.3 2141.9c14.3-2 40.5-1 55.7-.9-11.2 16.3-29.6 36.5-43.1 51.4 10.4-.3 23.8-1.2 34 0 5.8.5 5.2 1.8 8.4 6.6-9.1 4.5-47.7 2-60 1.7 11.3-16 29.4-36.1 42.4-51.5-9.3.2-23 1.2-31.7-.8-4-.9-3-1.7-5.7-6.5M2402.1 2259c12.9 0 55.7-2.5 64.8 4.2l-1.2 3.5c-8.2 3-17 2-26 1.8l-.1 44c0 7.6.6 22.9-1.6 29.2l-4.2.6c-8.4-9-5.5-58.4-5.4-73.6-8.4.3-19 2-25.3-2.6zM1834.2 2280.2c12-.2 29.4 2.4 28.3 18l2-2.6.8 3c-9.6 1.2-46.1-28.7-41.7 20.8 1.6 17.4 16 17.4 28.5 11.8 3.7-7.1 2-6.6 7.8-9.7l3 1.5c2.4 17-17.7 25-30.1 20.5-29.9-11.2-27.3-50.6 1.4-63.3M3099.6 1216.4c1.2.4 3.7 1.8 5 2.4.9 5 1.5 2-1 7.3-13.6 26.3-19.8 35.7-5.4 63.6 4.7 9 11.9 14.7 6.6 24-4-2.9-8-5.7-11.3-9.3a60 60 0 0 1-16-43.3c1-19.3 8.6-31.9 22-44.7M3192.7 1216.5c22.4 2.4 32 29.4 30.3 49.2a59 59 0 0 1-23.4 45.4c-2-.4-3.3-1.4-5.2-2.4-.2-11.5 17-27.1 17.6-44.4.7-21-19.3-34.5-19.3-47.8M1729.6 2256.7c5.8 0 7.5.4 13.2 1.4l1.7 3.3-1.7 3.6c-5.8 1.4-8.1 1.4-12.9 5.2-1.8 7.3-2.4 4.1.2 10l8.6 2 2 3.6-1 3.7q-4.8.8-9.4 1.9c-3.4 9.1-1.7 37.6-1.6 48.5-3.3 3.4-1.4 2-7.6 2.8-8-8 2.2-37.3-4.2-51l-6.8-1.8c-2-4.4-1.7-2.1-.2-7l6.6-1.9c8-10.8-4.5-13.4 13-24.3M2398 2540.8c2.7 2.3 4.7 3.6 4.4 8.5-.6 14.8 4 67.4-3.7 77.4l-3-1.8c-5.1-8.7-4.1-11-3.4-21.6l.1-41.8a64 64 0 0 1-30 13.3c13.1-13.4 24.8-19.7 35.5-34M1813.2 2116.9c4.9 1.4 3 0 6 3.7 1.2 12.9 2 70.8-1.6 80l-5.6.3c-4.2-5-2.6-6-2.7-14.3l-.2-49.5c-8.2 5.8-9.7 8-18.3 7.4l-.7 1-.5-1c9.1-14.1 13.3-13.6 22.4-26zM1884 2261.2c4 1.8 2.2.7 5 5-.4 6.3-1.2 9 1.4 14.9l7.2 1.5 1.9 3.2c-3 11.8-1.4-1.5-10.3 7.6-.5 10.4-2.2 31.4 2.2 40l7.4 1.6c3.4 5 2.1 2.2 1.4 10.2-34.5-3.4-18.9-26.4-21.7-52.8a35 35 0 0 0-7.4-4.6c1-11.5 6.6-2.5 7.7-10 1.9-12-2.2-6 5.3-16.6M1994.6 2279.9c6 .4 8.4 0 13.2 3.7 0 5.5.7 2.9-3.6 7.5-6.2.8-6.5.3-12 3.3-8.7 12.7-6.6 33.5-6.5 49.4-4.7-.6-4.6-.4-8.5-2.8-3.1-10.2-4.3-49.8.2-58.8 10-3.2-.3 1.6 10.7 3.5zM1685.5 2399.8l7.3 1.8c6.4 7.6 3.3 71.3 3 84.3l-7.3-2c-5.4-10.2-3-68.2-3-84.1M2098 2280c7.9.3 9.8.3 15.1 5l-.9 3.8c-8.9 7.1-4.9-2.5-16.9 4.5-8 13.1-5.5 34.7-5.2 50.8l-7.2-1.9c-5-8.2-5.5-51.4-.3-59.8 3.4 1.3 6.2 2.2 9.6 3.2zM1505.8 2139l10.8 1.5 2 2.7-1.4 6.5c-6.8.2-7 .6-13.2 2.8-13.7 12.5-1.5 31.1-8 50.8l-6.4-2.5c-4.2-8.8-4.4-46.8-.7-58 9.8-6.4-.3.8 10.8 2.1zM2207.1 2448.7c11.2.2 23.6-3.1 32.3 2.6l1.5 8c-11.8-.3-18.6 2.2-30.2-.7-4.8-4.4-3-1.6-3.6-10M3472 2574.4q64 .6 128-.7v32c12.4-2 31.4-1.3 45.5-2.4-10.3 0-18.3 1-27.7-2.8l-.5-2.5c15.9-6 25.5-4.2 42.6-3.7.2 14.4 2.4 68.5-2.5 78.8-2.6.8-4.2 1.3-7 1.8-3-11.8-1.8-53.4-1.7-68-2.4 6.1-4.5 60.9-.2 68.3 1.8 3.2 6.3 3.4 10.9 4.8l2.2 2.4c5.6 11.1 2.6 48.8-.3 60.9l-1.7 1q.8 43.5 0 86.8c-10.3 0-37.5 1.5-44.6-5.1 4.6-4.7 7.8-4.2 15.1-4.7-17.8-2.2-30.5-2.1-25 20.8l-1.9.2c-.5-2-1.4-7.6-2.1-8.8-.3 4.1-.6 13.1-1.2 16.8l-127.4.3-1-8c-.8-6-2.3-15.3-5.8-20l-3.4.3-2.4 5.1c-8.7 5.7-33.9 3.2-45.6 2.7-.3-17.8-1.7-70.9 1.6-86 5.2 0 3 0 8.7-5l7.7-.4.3-60.8-2.4.7-9.4-.8-.3-2.5-3.9-2.2c-4.7-8.5-2.8-65.4-2.7-79.3 15-.6 28.9-2.7 42.3 3.5l-1 2.6c-9.7 4-19.9 3-30.6 2.9 12.3 1.1 41-1 47.3 1.6z"/><path fill="#3b5b42" d="M3472 2574.4q64 .6 128-.7v32c12.4-2 31.4-1.3 45.5-2.4-10.3 0-18.3 1-27.7-2.8l-.5-2.5c15.9-6 25.5-4.2 42.6-3.7.2 14.4 2.4 68.5-2.5 78.8-2.6.8-4.2 1.3-7 1.8-3-11.8-1.8-53.4-1.7-68-2.4 6.1-4.5 60.9-.2 68.3 1.8 3.2 6.3 3.4 10.9 4.8-12.2 0-17.6 3.4-22.2-8.4.9-20.6.8-40.8.8-61.4l-205.4.2v68.1l-2.4.7-9.4-.8-.3-2.5-3.9-2.2c-4.7-8.5-2.8-65.4-2.7-79.3 15-.6 28.9-2.7 42.3 3.5l-1 2.6c-9.7 4-19.9 3-30.6 2.9 12.3 1.1 41-1 47.3 1.6z"/><path fill="#c1b9ad" d="M3472 2574.4q64 .6 128-.7v32c-17.7.8-117.3 3.4-128.1-.7z"/><path fill="#f4f4f3" d="M3413.9 2594.4c15-.6 28.9-2.7 42.3 3.5l-1 2.6c-9.7 4-19.9 3-30.6 2.9-5.5 11.5 2 56.3-4.1 72.5l-3.9-2.2c-4.7-8.5-2.8-65.4-2.7-79.3M3645.5 2603.3c-10.3 0-18.3 1-27.7-2.8l-.5-2.5c15.9-6 25.5-4.2 42.6-3.7.2 14.4 2.4 68.5-2.5 78.8-2.6.8-4.2 1.3-7 1.8 1.5-10.9 2.8-63-1.2-71z"/><path fill="#3b5b42" d="M3637.2 2671.6c4.6 11.8 10 8.4 22.2 8.4l2.2 2.4c5.6 11.1 2.6 48.8-.3 60.9l-1.7 1q.8 43.5 0 86.8c-10.3 0-37.5 1.5-44.6-5.1 4.6-4.7 7.8-4.2 15.1-4.7-17.8-2.2-30.5-2.1-25 20.8l-1.9.2c-.5-2-1.4-7.6-2.1-8.8-.5-8.7-2-12.6 1.9-18.8 6.6-3.7 24.8-1.1 34.8-2.7 0-21.5-1-52 .8-72.7 2-25.1-.2-43.5-1.4-67.7"/><path fill="#c1b9ad" d="M3637.2 2671.6c4.6 11.8 10 8.4 22.2 8.4l2.2 2.4c-2.6 17.7 3.9 42.8-4.4 55-6.1 3.4-11.4 2.3-18.6 2 2-25.2-.2-43.6-1.4-67.8"/><path fill="#f4f4f3" d="M3651.2 2821.6c-.1-21-2.5-51.7 1.2-72.5.5-2.9 3.3-3 7.2-4.7q.8 43.3 0 86.7c-10.3 0-37.5 1.5-44.6-5.1 4.6-4.7 7.8-4.2 15.1-4.7 6.2.8 14.6.4 21 .3"/><path fill="#c1b9ad" d="M3473.5 2816.5c43.2.3 80.6 4.5 125.1 4 .3 9 .2 21.2 1.3 29.8l-127.4.3c.8-12.1 1-22 1-34.1"/><path fill="#3b5b42" d="m3424.6 2739.7 7.7-.4.1 72.9c13.8 1.6 26.4 1.2 40.3 1-1.6 11.4-1.4 18-1.3 29.3-.7-6-2.2-15.2-5.7-20l-3.4.4-2.4 5.1c-8.7 5.7-33.9 3.2-45.6 2.7-.3-17.8-1.7-70.9 1.6-86 5.2 0 3 0 8.7-5"/><path fill="#f4f4f3" d="M3416 2744.7c4.9 3.5 6 2.7 6.6 8.7 2 22 .3 46.2.4 68.1 12.8 0 27-.8 39.3 1.4l-2.4 5.1c-8.7 5.7-33.9 3.2-45.6 2.7-.3-17.8-1.7-70.9 1.6-86"/><path fill="#948c7a" d="M3432.4 2812.2c52.3-3.5 109.9 2 162.9-.7 12.5-.7 30-.7 42.5.5-10 1.6-28.2-1-34.8 2.7-4 6.2-2.4 10.1-2 18.8-.2 4.1-.5 13.1-1.1 16.8-1.1-8.6-1-20.8-1.3-29.7-44.5.4-82-3.8-125.1-4.1 0 12-.2 22-1 34l-1-8c-.2-11.3-.4-17.9 1.2-29.2-13.9 0-26.5.5-40.3-1.1"/><path fill="#e6bf81" d="M3518.3 2632a82.2 82.2 0 1 1 33 161 82.2 82.2 0 0 1-33-161"/><path fill="#f4f4f3" d="M3523.3 2650a62.4 62.4 0 1 1 24.3 122.4 62.4 62.4 0 0 1-24.3-122.4"/><path fill="#3e7945" d="M3196.2 2678.8c75.3-1.8 150.8 1 224.6-.4l9.4.8 2.4-.7-.3 60.8-7.7.4-12.2-1.1c-15.2-4.8-190.4-1.7-216.4-1.5z"/><path fill="#c1b9ad" d="m3432.6 2678.5-.3 60.8-7.7.4-12.2-1.1c0-10.4-1.2-51.3 2.3-57.5 5.4-.8 10.2-1.4 15.5-2z"/><path fill="#f4f4f3" d="M265.8 1764.8a241.2 241.2 0 1 1 48.7 479.8 241.2 241.2 0 0 1-48.7-479.8"/><path fill="#414141" d="M261.5 1774.5a232 232 0 1 1 57.3 460.4 232 232 0 0 1-57.3-460.4"/><path fill="#f4f4f3" d="M269 1802.1a203.8 203.8 0 1 1 42.5 405.3 203.8 203.8 0 0 1-42.6-405.3"/><path fill="#414141" d="M285 1810.2h10.3a194.6 194.6 0 1 1-10.2 0"/><path fill="#7c0d13" d="M242.2 1865c37-11 61.9-9.9 99 1 31 8.6 59.6 36.3 75.4 63.8a148 148 0 0 1 14 113.5c-11 39-48.4 88.2-89.4 97.9-39.6 9.6-59.6 13.7-99.5.7-5.8 0-16.3-6-21.7-8.8-73.5-38.9-99.2-134.2-56.6-205.3 16.4-27.4 47.2-54.7 78.8-62.8"/><path fill="#d13032" d="M270 1868.2a136.9 136.9 0 1 1 39.2 271 136.9 136.9 0 0 1-39.2-271"/><path fill="#a1a1a1" d="M241.7 2141.9c39.9 13 60 9 99.5-.7-4.4 18.5-8.7 34.5-26.3 45.6a45 45 0 0 1-34.8 5.8c-19.2-4.4-47.5-31.5-38.4-50.7M285 1810.2h10.3l6.5 4.2c25.5 10 34 25.5 39.3 51.6-37-10.9-62-12-99-1-4.2-22.7 16.6-42.3 35.8-50.4z"/><path fill="#6e6f6e" d="M285 1810.2h10.3l6.5 4.2c-8.5-.7-15.4-.2-23.9.2z"/><path fill="#f4f4f3" d="M264.4 2890.3a241 241 0 1 1 51.7 479.3 241 241 0 0 1-51.7-479.3"/><path fill="#414141" d="M264 2899.9a231.6 231.6 0 1 1 52.5 460.1 231.6 231.6 0 0 1-52.5-460.2"/><path fill="#f4f4f3" d="M287.3 2926.3a203.8 203.8 0 1 1 6.4 407.5 203.8 203.8 0 0 1-6.4-407.5"/><path fill="#414141" d="M273.5 2936.2q15.6-1.4 31.2-.2a194.5 194.5 0 1 1-31.2.2"/><path fill="#084481" d="M243.3 2990.4a146.4 146.4 0 1 1 92.8 277.8 146.4 146.4 0 0 1-92.8-277.8"/><path fill="#2f8ad7" d="M278.4 2993.3a136.6 136.6 0 1 1 22.7 272.3 136.6 136.6 0 0 1-22.7-272.3"/><path fill="#a1a1a1" d="M273.5 2936.2q15.6-1.4 31.2-.2c7.2 15.1 28.7 5.6 33 55a146 146 0 0 0-94.4-.6c2.2-30.2 10.6-40.8 37.7-51.5l-.4-1.6zM242.4 3268c31 10.5 64.6 10.4 95.5-.4-2.6 25.4-15.6 49.2-43.2 52.5a44 44 0 0 1-34.5-10.7c-13-11.6-16.5-25-17.8-41.5"/><path fill="#f4f4f3" d="M271.3 2327.2a240.5 240.5 0 1 1 37.8 479.4 240.5 240.5 0 0 1-37.8-479.4"/><path fill="#414141" d="M266 2336.8a231.2 231.2 0 1 1 48.4 460 231.2 231.2 0 0 1-48.3-460"/><path fill="#f4f4f3" d="M268.9 2364.6a203 203 0 1 1 43 404 203 203 0 0 1-43-404"/><path fill="#414141" d="M279.6 2372.9a194 194 0 1 1 21.2 387.4 194 194 0 0 1-21.2-387.4"/><path fill="#3e7945" d="M239.6 2429.4c38.1-12.5 61.4-11.6 100-.7 34.4 11.2 64 38.2 80.2 70.3a148 148 0 0 1 7.8 114.6c-13.7 39.8-46 77-86.8 90.2-8.5 1.2-14.5 3.7-22.6 5.1-29.6 5.3-49.2 2.3-77.9-4.7l-2.1-1-6.9-3a146 146 0 0 1-73.1-197.5 143 143 0 0 1 81.4-73.3"/><path fill="#63b561" d="M270.6 2431.5a136.2 136.2 0 1 1 38.4 269.8 136.2 136.2 0 0 1-38.4-269.8"/><path fill="#a1a1a1" d="M240.3 2704.2c28.7 7 48.3 10 78 4.7 8-1.4 14-4 22.5-5.1-4 25.6-14.9 47.5-43 52.5-12.9 2.2-26-1.1-36.3-9-15.5-12.1-18.6-25.3-21.2-43.1M279.6 2372.9q10.5-.6 21 0l.6 4c25.3 9.1 35 25.6 38.4 51.8-38.6-10.8-61.9-11.8-100 .7 5.6-28.5 11.1-41.8 39-52.8z"/><path fill="#6e6f6e" d="M279.6 2372.9q10.5-.6 21 0l.6 4-22.6-.3z"/><path fill="#a1a1a1" d="M3770.5 3631.5a158.6 158.6 0 1 1 38.7 314.9 158.6 158.6 0 0 1-38.7-315m38 276.4a120.3 120.3 0 1 0-38.2-237.4 120.3 120.3 0 0 0 38.2 237.4M193.9 3631.5a158.6 158.6 0 1 1 35.9 315.1 158.6 158.6 0 0 1-36-315.1m37.5 276.2a120.2 120.2 0 1 0-39.1-237 120.2 120.2 0 0 0 39.1 237M3778 51.4a153.2 153.2 0 1 1 33.7 304.6A153.2 153.2 0 0 1 3778 51.4m28.6 266.1a114.7 114.7 0 1 0-23.4-228 114.7 114.7 0 0 0 23.4 228M189.5 51.7A153.1 153.1 0 1 1 224.8 356a153.1 153.1 0 0 1-35.3-304.2M210 318.1a114.6 114.6 0 1 0-6.2-229 114.6 114.6 0 0 0 6.2 229"/><path fill="#020202" d="m451 3799.8 152 .5c-1.2 47.8.4 102.6-.2 151.7-45.6 2.2-105.2.8-151.7.5q.8-76.4 0-152.7m8.2 144.4q68 .4 136 0a5802 5802 0 0 1-.1-136H459.3z"/><path fill="#a1a1a1" d="m459.3 3808.3 135.8-.2a5802 5802 0 0 0 0 136.2q-68 .3-135.9-.1zm77 106.5a38.8 38.8 0 1 0-19.7-75.2 38.8 38.8 0 0 0 19.8 75.2"/><path fill="#020202" d="m433.3 261.7 149 .4v149.5l-149 .2zm8.3 141.2h132.7V270.1H441.7z"/><path fill="#a1a1a1" d="M441.7 270.1h132.6v132.7H441.6zm31 53.4a38.4 38.4 0 1 0 71.8 27.4 38.4 38.4 0 0 0-71.9-27.4"/><path fill="#020202" d="M511.3 3599.7a75 75 0 1 1 31.2 146.9 75 75 0 0 1-31.2-146.9m21.1 111.8a38.6 38.6 0 1 0-10.8-76.5 38.6 38.6 0 0 0 10.8 76.5"/><path fill="#a1a1a1" d="M514.4 3607.4a66.9 66.9 0 1 1 25.1 131.4 66.9 66.9 0 0 1-25-131.4m18 104.1a38.6 38.6 0 1 0-10.8-76.5 38.6 38.6 0 0 0 10.8 76.5"/><path fill="#020202" d="M1524.1 3599.7A75 75 0 1 1 1553 3747a75 75 0 0 1-28.9-147.3m29.6 138.5a66.8 66.8 0 1 0-29.9-130.1 66.8 66.8 0 0 0 29.9 130.1"/><path fill="#a1a1a1" d="M1526.5 3607.5a66.8 66.8 0 1 1 24.6 131.2 66.8 66.8 0 0 1-24.6-131.2m17.9 103.8a38.3 38.3 0 1 0-11.2-75.9 38.3 38.3 0 0 0 11.2 75.8"/><path fill="#020202" d="M1928 3599.7a75 75 0 1 1 30.5 146.9 75 75 0 0 1-30.5-146.9m30.4 138.4a66.7 66.7 0 1 0-30.3-130 66.7 66.7 0 0 0 30.3 130"/><path fill="#a1a1a1" d="M1930.8 3607.5a66.7 66.7 0 1 1 25 131.1 66.7 66.7 0 0 1-25-131.1m-14.4 37.9a38.7 38.7 0 1 0 54 55.5 38.7 38.7 0 0 0-54-55.5"/><path fill="#020202" d="M1930.2 3802.8a75 75 0 1 1 26.7 147.5 75 75 0 0 1-26.7-147.5m24.3 139.8a66.9 66.9 0 1 0-22-131.8 66.9 66.9 0 0 0 22 131.8"/><path fill="#a1a1a1" d="M1932.3 3810.8a66.9 66.9 0 1 1 22.4 131.8 66.9 66.9 0 0 1-22.4-131.8m-23 48a38.6 38.6 0 1 0 68 36.6 38.6 38.6 0 0 0-68-36.5"/><path fill="#020202" d="M917.7 3803a75 75 0 1 1 28.2 147.2 75 75 0 0 1-28.2-147.2m24.9 139.8a66.9 66.9 0 1 0-22.2-132 66.9 66.9 0 0 0 22.2 132"/><path fill="#a1a1a1" d="M920 3811a66.9 66.9 0 1 1 23 131.7 66.9 66.9 0 0 1-23-131.8m-26.9 66a38.4 38.4 0 1 0 76.9.6 38.4 38.4 0 0 0-76.9-.7"/><path fill="#020202" d="M1726 3599.7a75 75 0 1 1 30 146.8 75 75 0 0 1-30-146.8m27.3 139a66.7 66.7 0 1 0-25-131.1 66.7 66.7 0 0 0 25 131"/><path fill="#a1a1a1" d="M1729.3 3607.4a66.7 66.7 0 1 1 23 131.4 66.7 66.7 0 0 1-23-131.4m-23.2 50a38.5 38.5 0 1 0 70.2 31.7 38.5 38.5 0 0 0-70.2-31.7"/><path fill="#020202" d="M2535.3 3599.6a75 75 0 1 1 28.9 147 75 75 0 0 1-28.9-147m24.9 139.5a66.8 66.8 0 1 0-20.6-132 66.8 66.8 0 0 0 20.6 132"/><path fill="#a1a1a1" d="M2537.6 3607.5a66.8 66.8 0 1 1 24.5 131.3 66.8 66.8 0 0 1-24.5-131.3m-3.6 100.7a38.3 38.3 0 1 0 31.5-69.8 38.3 38.3 0 0 0-31.5 69.8"/><path fill="#020202" d="M2941.6 3802.7a74.9 74.9 0 1 1 24.8 147.7 74.9 74.9 0 0 1-24.8-147.7m23 140a66.8 66.8 0 1 0-21-132 66.8 66.8 0 0 0 21 132"/><path fill="#a1a1a1" d="M2942.2 3811a66.8 66.8 0 1 1 23.7 131.5 66.8 66.8 0 0 1-23.7-131.5m-26.8 67a38.5 38.5 0 1 0 77-1.7 38.5 38.5 0 0 0-77 1.6"/><path fill="#020202" d="M1322 3802.8a75 75 0 1 1 28.1 147.2 75 75 0 0 1-28-147.2m25 139.8a66.7 66.7 0 1 0-21.6-131.8 66.7 66.7 0 0 0 21.5 131.8"/><path fill="#a1a1a1" d="M1324.9 3811a66.7 66.7 0 1 1 22.6 131.5 66.7 66.7 0 0 1-22.6-131.6m-24.8 52.5a38.3 38.3 0 1 0 71.8 26.9 38.3 38.3 0 0 0-71.8-26.9"/><path fill="#020202" d="M917.2 3599.6a75 75 0 1 1 28.9 147 75 75 0 0 1-29-147m25.4 139.6a66.8 66.8 0 1 0-21.8-131.8 66.8 66.8 0 0 0 21.8 131.8"/><path fill="#a1a1a1" d="M919.8 3607.5a66.8 66.8 0 1 1 23.7 131.5 66.8 66.8 0 0 1-23.7-131.5m-15 38.3a38.6 38.6 0 1 0 54 55.2 38.6 38.6 0 0 0-54-55.2"/><path fill="#020202" d="M2939.1 3599.9a75 75 0 1 1 30.1 146.7 75 75 0 0 1-30-146.7m27.4 138.8a66.7 66.7 0 1 0-24.7-131.1 66.7 66.7 0 0 0 24.7 131"/><path fill="#a1a1a1" d="M2941.7 3607.6a66.7 66.7 0 1 1 24.9 131 66.7 66.7 0 0 1-24.9-131M2928 3645a38.6 38.6 0 1 0 53 56.3 38.6 38.6 0 0 0-53-56.3"/><path fill="#020202" d="M2536.6 3803a75 75 0 1 1 26.3 147.4 75 75 0 0 1-26.3-147.5m22.9 111.2a38.4 38.4 0 1 0-19.4-74.3 38.4 38.4 0 0 0 19.4 74.3"/><path fill="#a1a1a1" d="M2537.5 3811a66.8 66.8 0 1 1 24.8 131.3 66.8 66.8 0 0 1-24.9-131.3m22 103.2a38.4 38.4 0 1 0-19.4-74.3 38.4 38.4 0 0 0 19.4 74.3"/><path fill="#020202" d="M2737.2 3803a74.9 74.9 0 1 1 30 146.8 74.9 74.9 0 0 1-30-146.7m28 139a66.8 66.8 0 1 0-26.3-131 66.8 66.8 0 0 0 26.3 131"/><path fill="#a1a1a1" d="M2739.9 3810.9a66.8 66.8 0 1 1 24.3 131.3 66.8 66.8 0 0 1-24.3-131.3m-23.2 80.2a38.3 38.3 0 1 0 71.2-28.1 38.3 38.3 0 0 0-71.2 28.1"/><path fill="#020202" d="M1120.2 3803a75 75 0 1 1 27 147.4 75 75 0 0 1-27-147.3m23.6 139.7a66.8 66.8 0 1 0-19.9-132.2 66.8 66.8 0 0 0 20 132.2"/><path fill="#a1a1a1" d="M1122 3810.8a66.8 66.8 0 1 1 23.6 131.6 66.8 66.8 0 0 1-23.5-131.6m-7.2 99.6a38.3 38.3 0 1 0 37.7-66.7 38.3 38.3 0 0 0-37.7 66.7"/><path fill="#020202" d="M1727.6 3803a74.9 74.9 0 1 1 26.5 147.3 74.9 74.9 0 0 1-26.5-147.4m23.8 139.6a66.8 66.8 0 1 0-20.7-132 66.8 66.8 0 0 0 20.7 132"/><path fill="#a1a1a1" d="M1729.3 3810.9a66.8 66.8 0 1 1 23.4 131.5 66.8 66.8 0 0 1-23.4-131.5m-25.2 54.9-.2 23.2c10 18 23.1 31.5 45.9 26.3 12.5-5 21-11.3 26.4-23.2 11.5-25.2-9.6-56.2-37.4-53h-7c-15.8 6.8-20 11-27.7 26.7"/><path fill="#020202" d="M2332.2 3599.8a74.9 74.9 0 1 1 31 146.6 74.9 74.9 0 0 1-31-146.6m30.6 138.1a66.7 66.7 0 1 0-30.2-129.8 66.7 66.7 0 0 0 30.2 129.8"/><path fill="#a1a1a1" d="M2335.4 3607.5a66.7 66.7 0 1 1 24.6 131 66.7 66.7 0 0 1-24.6-131M2355 3711a38.6 38.6 0 1 0-14.3-76 38.6 38.6 0 0 0 14.3 76"/><path fill="#020202" d="M1119.4 3599.7a74.9 74.9 0 1 1 28.6 147 74.9 74.9 0 0 1-28.6-147m24.4 139.4a66.7 66.7 0 1 0-20.3-131.8 66.7 66.7 0 0 0 20.3 131.8"/><path fill="#a1a1a1" d="M1122.5 3607.4a66.7 66.7 0 1 1 22.3 131.5 66.7 66.7 0 0 1-22.3-131.5m19.4 103.7a38.6 38.6 0 1 0-15.8-75.5 38.6 38.6 0 0 0 15.8 75.5"/><path fill="#020202" d="M1319.9 3599.8a74.9 74.9 0 1 1 32 146.3 74.9 74.9 0 0 1-32-146.3m27 139.1a66.7 66.7 0 1 0-22.4-131.5 66.7 66.7 0 0 0 22.4 131.5"/><path fill="#a1a1a1" d="M1324.1 3607.5a66.7 66.7 0 1 1 23.2 131.4 66.7 66.7 0 0 1-23.2-131.4m14 104a38.4 38.4 0 1 0-4-76.6 38.4 38.4 0 0 0 4 76.6"/><path fill="#020202" d="M715.6 3803a74.9 74.9 0 1 1 27.4 147.3 74.9 74.9 0 0 1-27.4-147.3m25.8 139.3a66.7 66.7 0 1 0-23.7-131.3 66.7 66.7 0 0 0 23.7 131.3"/><path fill="#a1a1a1" d="M717.8 3811a66.7 66.7 0 1 1 23.5 131.3 66.7 66.7 0 0 1-23.5-131.3m-24.8 80c12.3 19.2 27.3 31.7 50.9 21.7 22-8.2 24-27.3 23.7-47.6-9.8-15.2-11-17.5-27.5-26.3l-19.8.2c-28.2 12.2-27.5 24-27.3 52"/><path fill="#020202" d="M2133.4 3802.9a74.9 74.9 0 1 1 25 147.6 74.9 74.9 0 0 1-25-147.6m24.3 139.5a66.8 66.8 0 1 0-23.3-131.6 66.8 66.8 0 0 0 23.3 131.6"/><path fill="#a1a1a1" d="M2133.6 3811a66.8 66.8 0 1 1 25 131.2 66.8 66.8 0 0 1-25-131.3m-21 47.7a38.4 38.4 0 1 0 67.4 36.7 38.4 38.4 0 0 0-67.4-36.7"/><path fill="#020202" d="M1527 3802.9a74.9 74.9 0 1 1 23.6 147.8 74.9 74.9 0 0 1-23.7-147.8m-23.6 88.8a38.3 38.3 0 1 0 70.8-29.5 38.3 38.3 0 0 0-70.8 29.5"/><path fill="#a1a1a1" d="M1526.6 3810.9a66.8 66.8 0 1 1 24.1 131.3 66.8 66.8 0 0 1-24.1-131.3m-23.2 80.8a38.3 38.3 0 1 0 70.8-29.5 38.3 38.3 0 0 0-70.8 29.5"/><path fill="#020202" d="M714.4 3599.7a74.8 74.8 0 1 1 30 146.7 74.8 74.8 0 0 1-30-146.7m23 139.8a66.7 66.7 0 1 0-16-132.5 66.7 66.7 0 0 0 16 132.5"/><path fill="#a1a1a1" d="M718.3 3607.4a66.7 66.7 0 1 1 22.2 131.6 66.7 66.7 0 0 1-22.2-131.6m-15.2 37.8a38.6 38.6 0 1 0 53.2 56 38.6 38.6 0 0 0-53.2-56"/><path fill="#020202" d="M2132 3599.6a74.8 74.8 0 1 1 27.7 147 74.8 74.8 0 0 1-27.7-147m23.8 139.4a66.7 66.7 0 1 0-19.8-131.8 66.7 66.7 0 0 0 19.8 131.8"/><path fill="#a1a1a1" d="M2134.4 3607.5a66.7 66.7 0 1 1 23 131.3 66.7 66.7 0 0 1-23-131.3m-2.7 101.6a38.5 38.5 0 1 0 29.2-71.2 38.5 38.5 0 0 0-29.2 71.2"/><path fill="#020202" d="M2736.2 3600a74.8 74.8 0 1 1 32 146 74.8 74.8 0 0 1-32-146m29 138.5a66.7 66.7 0 1 0-26.2-130.7 66.7 66.7 0 0 0 26.2 130.7"/><path fill="#a1a1a1" d="M2740.5 3607.5a66.7 66.7 0 1 1 23.3 131.2 66.7 66.7 0 0 1-23.3-131.2m-23.7 51a38.5 38.5 0 1 0 71.1 29.3 38.5 38.5 0 0 0-71.1-29.3"/><path fill="#020202" d="M1309.3 59.7a74.8 74.8 0 1 1 20.1 148.2 74.8 74.8 0 0 1-20-148.2m14.3 140a66.3 66.3 0 1 0-8.9-132.3 66.3 66.3 0 0 0 8.9 132.3"/><path fill="#a1a1a1" d="M1314.7 67.4a66.3 66.3 0 1 1 9 132.3 66.3 66.3 0 0 1-9-132.3m-30.2 80.2a37.7 37.7 0 1 0 70.2-27.4 37.7 37.7 0 0 0-70.2 27.4"/><path fill="#020202" d="M2730.7 262.9a74.8 74.8 0 1 1 16.7 148.6 74.8 74.8 0 0 1-16.7-148.6m21 110.3a37.9 37.9 0 1 0-26-71.2 37.9 37.9 0 0 0 26 71.2"/><path fill="#a1a1a1" d="M2734.3 270.6a66.5 66.5 0 1 1 9 132.7 66.5 66.5 0 0 1-9-132.7m17.5 102.6a37.9 37.9 0 1 0-26-71.2 37.9 37.9 0 0 0 26 71.2"/><path fill="#020202" d="M2321.2 59.7a74.8 74.8 0 1 1 24.2 147.6 74.8 74.8 0 0 1-24.2-147.6M2349 198a66.3 66.3 0 1 0-31-128.9 66.3 66.3 0 0 0 31 129"/><path fill="#a1a1a1" d="M2317.7 69.3a66.3 66.3 0 1 1 31.5 128.8 66.3 66.3 0 0 1-31.5-128.8m-19.3 78.2a38 38 0 1 0 71-27 38 38 0 0 0-71 27"/><path fill="#020202" d="M2334.2 3803a74.7 74.7 0 1 1 27.5 146.8 74.7 74.7 0 0 1-27.5-146.9m24.7 139.4a66.7 66.7 0 1 0-22.2-131.5 66.7 66.7 0 0 0 22.2 131.5"/><path fill="#a1a1a1" d="M2337 3810.9a66.7 66.7 0 1 1 21.7 131.5 66.7 66.7 0 0 1-21.8-131.5m-16.3 39a38.5 38.5 0 1 0 54.4 54.4 38.5 38.5 0 0 0-54.4-54.5"/><path fill="#020202" d="M704 262.8A74.7 74.7 0 1 1 718 411.6 74.7 74.7 0 0 1 704 262.8m12.9 140.3a66.4 66.4 0 1 0-11.7-132.3A66.4 66.4 0 0 0 717 403.1"/><path fill="#a1a1a1" d="M704.8 270.8a66.4 66.4 0 1 1 12.5 132.3 66.4 66.4 0 0 1-12.5-132.3M724 373.5a38 38 0 1 0-25.7-71.6 38 38 0 0 0 25.7 71.6"/><path fill="#020202" d="M698.2 59.8A74.7 74.7 0 1 1 723 207.1a74.7 74.7 0 0 1-24.7-147.3m27.6 138.5a66.3 66.3 0 1 0-30.2-129 66.3 66.3 0 0 0 30.2 129"/><path fill="#a1a1a1" d="M695.2 69.3a66.3 66.3 0 1 1 31 129 66.3 66.3 0 0 1-31-129m-10.5 37.2a38 38 0 1 0 52.4 54.8 38 38 0 0 0-52.4-54.8"/><path fill="#020202" d="M1915.5 59.8a74.7 74.7 0 1 1 24.2 147.4 74.7 74.7 0 0 1-24.2-147.4m27.5 138.4a66.3 66.3 0 1 0-30.9-129 66.3 66.3 0 0 0 31 129"/><path fill="#a1a1a1" d="M1911.9 69.3a66.3 66.3 0 1 1 31.4 128.8 66.3 66.3 0 0 1-31.4-128.8m-19.5 77.6a37.8 37.8 0 1 0 71-25.7 37.8 37.8 0 0 0-71 25.7"/><path fill="#020202" d="M2528.8 262.8a74.7 74.7 0 1 1 14 148.6 74.7 74.7 0 0 1-14-148.6m21.6 139.2a66.3 66.3 0 1 0-28.7-129.5 66.3 66.3 0 0 0 28.7 129.5"/><path fill="#a1a1a1" d="M2520.7 272.8a66.3 66.3 0 1 1 30.7 129 66.3 66.3 0 0 1-30.7-129m26 101.3a37.8 37.8 0 1 0-21.2-72.7 37.8 37.8 0 0 0 21.1 72.7"/><path fill="#020202" d="M498.8 59.6a74.7 74.7 0 1 1 19 148.2 74.7 74.7 0 0 1-19-148.2m24.5 138.7A66.3 66.3 0 1 0 493.2 69a66.3 66.3 0 0 0 30.1 129.2"/><path fill="#a1a1a1" d="M492.5 69.3A66.3 66.3 0 1 1 524 198a66.3 66.3 0 0 1-31.5-128.8m-3 97.5a37.7 37.7 0 1 0 37.5-65.5 37.7 37.7 0 0 0-37.5 65.5"/><path fill="#020202" d="M905.6 59.7A74.6 74.6 0 1 1 923 207.9a74.6 74.6 0 0 1-17.4-148.2m25.3 137.9a66.2 66.2 0 1 0-33.3-128.3A66.2 66.2 0 0 0 931 197.6"/><path fill="#a1a1a1" d="M897.6 69.3A66.2 66.2 0 1 1 931 197.5a66.2 66.2 0 0 1-33.4-128.2M896 167a38 38 0 1 0 37-66.2 38 38 0 0 0-37 66.2"/><path fill="#020202" d="M2122 262.9a74.6 74.6 0 1 1 17.5 148.2A74.6 74.6 0 0 1 2122 263m22 109.7a37.6 37.6 0 1 0-26.3-70.4 37.6 37.6 0 0 0 26.4 70.4"/><path fill="#a1a1a1" d="M2131.6 270.8a66.3 66.3 0 1 1-2 132.6 66.3 66.3 0 0 1 2-132.6m12.5 101.8a37.6 37.6 0 1 0-26.4-70.4 37.6 37.6 0 0 0 26.4 70.4"/><path fill="#020202" d="M1922.8 262.9a74.6 74.6 0 1 1 10 148.9 74.6 74.6 0 0 1-10-149m20 139a66.3 66.3 0 1 0-30-129.2 66.3 66.3 0 0 0 30 129.1"/><path fill="#a1a1a1" d="M1912.8 272.7a66.3 66.3 0 1 1 30 129.1 66.3 66.3 0 0 1-30-129m28.2 100.1a37.6 37.6 0 1 0-26.4-70.3 37.6 37.6 0 0 0 26.4 70.3"/><path fill="#020202" d="M2932.6 59.7a74.6 74.6 0 1 1 19.6 148 74.6 74.6 0 0 1-19.6-148m14.4 139.9a66.3 66.3 0 1 0-9.8-132.3 66.3 66.3 0 0 0 9.8 132.3"/><path fill="#a1a1a1" d="M2938.3 67.3a66.3 66.3 0 1 1 7.6 132.3 66.3 66.3 0 0 1-7.6-132.3m-33.6 66.5a37.9 37.9 0 1 0 75.8-.1 37.9 37.9 0 0 0-75.8.1"/><path fill="#020202" d="M907.4 262.8a74.6 74.6 0 1 1 13.8 148.6 74.6 74.6 0 0 1-13.8-148.6m17.7 110.4a37.5 37.5 0 1 0-22-71.7 37.5 37.5 0 0 0 22 71.7"/><path fill="#a1a1a1" d="M898 273a66.3 66.3 0 1 1 32.6 128.5A66.3 66.3 0 0 1 898 273M925 373.2a37.5 37.5 0 1 0-22-71.7 37.5 37.5 0 0 0 22 71.7"/><path fill="#020202" d="M1712.6 60a74.6 74.6 0 1 1 25 147.2 74.6 74.6 0 0 1-25-147.1m15.4 139.8a66.2 66.2 0 1 0-5.7-132.4 66.2 66.2 0 0 0 5.7 132.4"/><path fill="#a1a1a1" d="M1723.4 67.4a66.3 66.3 0 1 1 3.4 132.5 66.3 66.3 0 0 1-3.4-132.5m-15.8 100a37.9 37.9 0 1 0 35.5-67 37.9 37.9 0 0 0-35.5 67"/><path fill="#020202" d="M1313.4 263a74.6 74.6 0 1 1 12.2 148.7 74.6 74.6 0 0 1-12.2-148.7m19.9 139a66.3 66.3 0 1 0-27.8-129.8 66.3 66.3 0 0 0 27.8 129.8"/><path fill="#a1a1a1" d="M1303.3 272.8a66.3 66.3 0 1 1 32.2 128.7 66.3 66.3 0 0 1-32.2-128.7m-19.2 77.9a38 38 0 1 0 71.1-26.5 38 38 0 0 0-71 26.5"/><path fill="#020202" d="M1101 264.6a74.6 74.6 0 1 1 31.9 145.7 74.6 74.6 0 0 1-32-145.7m31 137.2a66.3 66.3 0 1 0-30.3-129 66.3 66.3 0 0 0 30.3 129"/><path fill="#a1a1a1" d="M1101.2 272.9a66.3 66.3 0 1 1 31.3 128.8 66.3 66.3 0 0 1-31.3-128.8m29 100a37.6 37.6 0 1 0-25.8-70.7 37.6 37.6 0 0 0 25.8 70.7"/><path fill="#020202" d="M1514.2 262.8a74.6 74.6 0 1 1 17.2 148.2 74.6 74.6 0 0 1-17.2-148.2m24 138.7a66.2 66.2 0 1 0-30.7-128.7 66.2 66.2 0 0 0 30.8 128.7"/><path fill="#a1a1a1" d="M1506.1 273.1a66.2 66.2 0 1 1 33.6 128 66.2 66.2 0 0 1-33.6-128m-20.8 63a37.5 37.5 0 1 0 74.9 2.7 37.5 37.5 0 0 0-75-2.8"/><path fill="#020202" d="M1708.3 264.9a74.6 74.6 0 1 1 34 145.1 74.6 74.6 0 0 1-34-145.1m31.4 137.1a66.3 66.3 0 1 0-28.6-129.5 66.3 66.3 0 0 0 28.6 129.5"/><path fill="#a1a1a1" d="M1709 273a66.3 66.3 0 1 1 32.7 128.5A66.3 66.3 0 0 1 1709 273m-21 63a37.5 37.5 0 1 0 74.9 3 37.5 37.5 0 0 0-74.9-3"/><path fill="#020202" d="M2121.3 60a74.5 74.5 0 1 1 19.2 147.8 74.5 74.5 0 0 1-19.2-147.9m24.7 138.2a66.2 66.2 0 1 0-30.4-128.8 66.2 66.2 0 0 0 30.4 128.8"/><path fill="#a1a1a1" d="M2115.6 69.4a66.2 66.2 0 1 1 30.4 128.8 66.2 66.2 0 0 1-30.4-128.8m-2.6 97.9a37.6 37.6 0 1 0 35.3-66.4 37.6 37.6 0 0 0-35.3 66.4"/><path fill="#020202" d="M2936.2 263a74.5 74.5 0 1 1 12.4 148.5 74.5 74.5 0 0 1-12.4-148.5m20.5 139a66.1 66.1 0 1 0-28.4-129.2 66.1 66.1 0 0 0 28.4 129.2"/><path fill="#a1a1a1" d="M2926.9 273.2a66.1 66.1 0 1 1 31.2 128.4 66.1 66.1 0 0 1-31.2-128.4m-16.7 82.7a37.7 37.7 0 1 0 65.8-36.6 37.7 37.7 0 0 0-65.8 36.6"/><path fill="#020202" d="M2316 265a74.5 74.5 0 1 1 35.7 144.7 74.5 74.5 0 0 1-35.7-144.6m19.5 138.4A66.2 66.2 0 1 0 2332 271a66.2 66.2 0 0 0 3.6 132.3"/><path fill="#a1a1a1" d="M2332.9 271a66.2 66.2 0 1 1 1.7 132.4 66.2 66.2 0 0 1-1.7-132.3m-36 68a37.4 37.4 0 1 0 74.6-3.2 37.4 37.4 0 0 0-74.7 3.1"/><path fill="#020202" d="M2526.8 59.8a74.5 74.5 0 1 1 18.4 147.9 74.5 74.5 0 0 1-18.4-147.9m12 140a66.3 66.3 0 1 0-5.9-132.4 66.3 66.3 0 0 0 5.8 132.5"/><path fill="#a1a1a1" d="M2534.8 67.4a66.3 66.3 0 1 1 2 132.5 66.3 66.3 0 0 1-2-132.5m-33.7 51.9a37.7 37.7 0 1 0 69.7 28.9 37.7 37.7 0 0 0-69.7-29"/><path fill="#020202" d="M1512 59.8a74.5 74.5 0 1 1 21.3 147.4A74.5 74.5 0 0 1 1512 59.8m26.5 138.1A66.1 66.1 0 1 0 1507 69.4a66.1 66.1 0 0 0 31.4 128.5"/><path fill="#a1a1a1" d="M1507 69.5a66.1 66.1 0 1 1 31.7 128.4A66.1 66.1 0 0 1 1507 69.5m-22 65.3a38 38 0 1 0 76-1.8 38 38 0 0 0-76 1.8"/><path fill="#020202" d="M2728.3 59.8a74.4 74.4 0 1 1 21.2 147.4 74.4 74.4 0 0 1-21.2-147.4m25 138.4a66 66 0 1 0-28.5-128.9 66 66 0 0 0 28.4 128.9"/><path fill="#a1a1a1" d="M2724.8 69.4a66 66 0 1 1 28.4 128.8 66 66 0 0 1-28.4-128.8m-13.3 37.9a38.2 38.2 0 1 0 54.3 53.8 38.2 38.2 0 0 0-54.3-53.8"/><path fill="#020202" d="M1107.3 59.9a74.4 74.4 0 1 1 19.4 147.5A74.4 74.4 0 0 1 1107.3 60m24.8 138.3a66 66 0 1 0-30.3-128.5 66 66 0 0 0 30.3 128.5"/><path fill="#a1a1a1" d="M1102.9 69.4a66 66 0 1 1 28.2 129 66 66 0 0 1-28.2-129m-1.3 98.7a37.7 37.7 0 1 0 30.8-68.9 37.7 37.7 0 0 0-30.8 68.9"/><path fill="#f4f4f3" d="M515.4 1745c52.6-2.7 53.6 23.3 53.1 66H532l-54.5.2c-.6-37.5-5.6-58.6 38-66.1"/><path fill="#414141" d="M512.5 1756.8c39.5-2.4 45.2 7.4 45 43.4l-26.6-.1-42.5-.1c-.4-25.5-3.8-35.8 24.1-43.2"/><path fill="#f4f4f3" d="M513.7 2307.6c52.8-2.3 55 19.2 54.5 64.4h-90.8c-.5-36.2-4.8-55.4 36.3-64.4"/><path fill="#414141" d="M514.6 2319.4c37.3-3 43 8.5 43.4 41.8l-21.2-.1-49.2.2c.4-25.7-1.6-36.2 27-41.9"/><path fill="#f4f4f3" d="M508.6 2866.4q6.4-.5 13-.7c47.3-1.2 46.8 27.6 46.3 65l-24.3-.1-65-.2c-.7-33.8-5.8-52.2 30-64"/><path fill="#414141" d="M515 2876.3c38.1-2.6 42.5 10 42 43.1l-23.2.2-45.1.3c0-25.7-3.4-37.7 26.3-43.6"/><path fill="#f4f4f3" d="M597.6 3113.8c16.5-.2 69.9-4.9 83.6 9.4 17.2 18 9.3 49-18 52.4-18.4 2.2-41.2 1.1-61.3.8l-3.5-2.6v-5c14.4-11.2 72.7 6.4 78.6-14 14-49-54.3-21.4-76.4-31.7-2.6-1.2-2.5-6.4-3-9.3M556.9 1720c-.2-9.1-1.2-32.3.6-39.8 4.3-4.9 1.8-3.8 7.5-4.1 5.7 8 10 50.4-4.7 55.9-7.8-1.9-10.3-5.2-16.6-10.8-10.3-11.1-25.6-33.3-41.4-34.2-13-.7-17.2 12.1-15.1 23.2 5.7 10.2 12.3 6.6 16 15.7l-1.5 2.8-5.3.8c-27.9-8.8-28-39.5-.3-53.2 28.8 0 42.5 24.4 60.8 43.6M531 2795.7c56.4-5.7 40.7 63.6 11.7 52.9 3.3-13.8 30.3-21.1 8.4-43-8.4-8.3-24.2 6.3-26.8 14.2-.7 2-1.7 6.9-2.3 9.2l-4.8 2.2c-2.2-11.1-5.2-20.6-17.7-22.7-6.6 1.9-6.6 2.8-11.2 7.8-3.5 14 6.4 16.3 12.2 30.6l-2.9 1.1c-18.2-4.8-22.9-17-19-34.7 4.3-19.7 24.6-12.7 37.6-8.1l2.7 1zM475 2255.2c26.9-.3 54.7-1 81.6-.2 7.4.2 8.1-.4 11.8 3.7l-.3 4.5c-5.8 4.7-17.4 2.7-26.7 2.7l-45.4.1c4.8 6.3 10.5 12 9.9 19.6-10-.6-28.6-20.8-31-30.4M597.2 3059.7c13.6-1.2 84.4-3 92.3 3.1l-.2 3.6c-5.7 4.3-24.4 2.7-33.4 2.7h-37.2c4.6 6 6.8 7.9 8.6 15.3l-1.6 2.7c-8.9-2.7-25.9-18.6-28.5-27.4"/></svg>