<svg width="928pt" height="1536" viewBox="0 0 928 1152" xmlns="http://www.w3.org/2000/svg"><g fill="#fff"><path d="M563.24 445.44c55.6-.11 111.2-.58 166.8-.68 11.89-.16 22.92 9.5 24.41 21.28.65 6.28.25 12.61.65 18.92 2.37 143.36 5.36 286.72 7.66 430.09.43 10.24-6.07 20.33-15.63 24.08-5.72 2.5-12.07 1.58-18.12 1.75-100.32.66-200.65.61-300.97 1.27-73.68.12-147.36.49-221.03.71-5.07.11-10.34 0-14.98-2.3-9.47-4.11-15.83-14.22-15.41-24.55.02-148-.01-295.99.05-443.98-.17-8.85 4.63-17.6 12.4-21.9 5.35-3.32 11.85-3.33 17.94-3.33 118.74-.22 237.48-1.14 356.23-1.36m108.1 65.95c-3.68 1.41-5.31 6.73-2.42 9.66 2.78 3.27 9.12 2.28 10.21-2.09 1.56-4.51-3.32-9.25-7.79-7.57m-210.06 3.99c-.09 4.2-.02 8.4.07 12.61-3.17-2.01-6.46-4.01-10.18-4.75-9.34-2.19-19.82 1.57-25.53 9.3-5.92 7.95-6.3 19.48-1.09 27.89 5.11 8.43 15.85 12.61 25.41 10.8 4.23-.78 7.96-3.05 11.53-5.33-.05 1.56-.09 3.11-.14 4.68 3.47.23 6.95.18 10.42.14.06-19.41-.24-38.81-.12-58.21-3.44 1.02-6.92 1.9-10.37 2.87m188.27.54c-.07 4.03.1 8.06.12 12.09-7.02-5.06-16.37-7.16-24.58-3.78-11.5 3.89-18.1 17.2-15.16 28.81 2.07 10.24 11.67 18.17 22.07 18.51 6.44.63 12.74-1.87 17.74-5.81-.05 1.65-.09 3.31-.11 4.97 3.61.1 7.24.09 10.86.08-.02-19.38.03-38.76-.15-58.14-3.59 1.12-7.2 2.16-10.79 3.27M539.37 519c.07 12.29.03 24.58.12 36.88-.02 4.12 1.04 8.54 4.32 11.32 3.45 3.37 8.42 4.17 13.03 4.62-.05-3.11-.09-6.2-.11-9.29-3.08-.92-6.65-2.82-6.78-6.46-.34-5.9-.04-11.82-.18-17.72 2.32.03 4.65.06 6.98.07l-.12-10.18c-2.28.07-4.56.12-6.83.16.02-4.21 0-8.42-.01-12.63-3.5 1-6.98 2.06-10.42 3.23m-318.86 7.47c-6.65 4.41-7.77 15.49-1.28 20.51 5.79 4.06 13.24 3.81 19.71 6.06 2.08.65 3.58 2.79 3.14 4.99-.44 2.83-3.35 4.34-5.92 4.76-6.25 1.24-12.65-1.2-17.44-5.16-1.92 2.27-3.74 4.62-5.54 6.99 7.25 6.15 17.46 8.08 26.65 6.26 4.95-1.12 10.3-3.64 12.29-8.65 2.08-5.21 1.24-12.22-3.63-15.6-5.73-3.93-13.05-3.49-19.38-5.8-2.28-.71-4.5-3.43-3.05-5.79 1.97-3.36 6.38-3.81 9.9-3.5 3.85.17 7.28 2.03 10.67 3.68 1.47-2.37 3-4.7 4.47-7.07-8.72-6.24-21.42-7.8-30.59-1.68m39.61 10.6c-3.76 8.88-2.19 20.09 4.69 27.05 9.94 10.47 28.78 9.77 38.17-1.13-2.91-1.9-5.7-3.96-8.67-5.75-4.64 5.34-13.25 6.64-19.12 2.6-2.91-1.93-4.47-5.19-5.38-8.45 12.45-.14 24.9.11 37.35-.06.11-3.83-.16-7.69-1.24-11.36-2.57-9.68-11.94-16.99-21.91-17.37-9.93-.59-19.93 5.28-23.89 14.47m55.52-2.76c-5.8 9.4-4.13 22.59 3.86 30.23 9.37 9.21 25.83 9.35 35.53.56.6-.74 1.83-1.27 1.68-2.39-2.61-1.83-5.29-3.58-7.79-5.55-2.56 2.25-5.41 4.41-8.89 4.9-7.17 1.43-14.87-3.43-16.29-10.7 12.46-.08 24.93.13 37.39-.1 1-10.01-3.43-20.82-12.56-25.66-11.07-6.33-26.36-2.13-32.93 8.71m51.38 8.6c-1.6 7.92 1.41 16.41 7.09 22.06 10.21 9.51 28.19 8.59 37.38-1.94-2.88-1.92-5.8-3.78-8.59-5.84-4.33 4.78-11.86 6.63-17.68 3.55-3.67-1.86-5.95-5.52-7.17-9.33 12.44-.16 24.88.05 37.32-.14.15-6.15-.39-12.69-3.92-17.92-5.51-8.61-16.81-12.61-26.59-9.95-9.07 2.26-16.38 10.28-17.84 19.51m135.82-17.13c-5.96 3.37-8.47 11.57-5.26 17.64 2.44 4.43 7.55 6.31 12.24 7.28 4.15 1.08 9.22.66 12.46 3.92 2.5 2.89-.17 6.81-3.26 7.76-6.82 2.4-14.09-.65-19.51-4.83-1.72 2.52-3.55 4.98-5.47 7.36 9.45 6.87 22.83 9.08 33.4 3.51 7.75-3.96 9.19-16.61 2.02-21.79-5.97-4.11-13.64-3.4-20.12-6.16-2.37-.86-3.61-4.08-1.81-6.08 2.8-3.46 7.88-3.55 11.88-2.59 2.9.52 5.35 2.38 8.19 3.04 1.59-2.17 2.86-4.53 4.24-6.82-8.2-5.97-20.09-7.49-29-2.24m199.66-2.12c-8.46 2.39-15.47 9.55-17.35 18.19-2.14 8.97 1.44 19.01 8.82 24.56 10.66 8.58 28.65 6.38 36.2-5.29 6.74-9.58 5.27-24.09-3.53-31.91-6.28-5.96-15.89-7.96-24.14-5.55m-140.64.67c.05 9.55-.02 19.11.35 28.66.39 4.33 1.91 8.7 4.82 12 7.69 8.59 22.51 8.62 30.79.89 4.08-3.79 5.72-9.49 5.74-14.92.01-8.94-.05-17.89.01-26.84-3.42.03-6.84.05-10.26.07.02 8.58.14 17.17.05 25.76-.06 4.56-2.39 9.61-6.89 11.31-3.54 1.12-7.91.69-10.55-2.14-2.44-2.35-3.44-5.79-3.42-9.09-.11-8.62.17-17.23-.1-25.85-3.52.06-7.03.08-10.54.15m106.31 4.16c.04 14.09.05 28.18.01 42.27 3.48 0 6.97 0 10.46-.05-.04-14.08.05-28.16.01-42.24-3.49 0-6.99 0-10.48.02m-28.85 91.69c-.01 14.29.04 28.59 0 42.89 1.85.03 3.7.05 5.56.08-.05-14.32-.05-28.65-.09-42.97-1.84-.01-3.66-.01-5.47 0m-399.11 2.23c-3.15 5.23-6.41 10.39-9.68 15.55-3.1-5.18-6.1-10.41-9.28-15.52-2.31 0-4.62 0-6.92.06 4.32 6.79 8.82 13.46 13.02 20.32-4.77 6.53-9.03 13.41-13.21 20.34 2.24-.22 4.69.4 6.81-.46 3.51-4.94 6.42-10.29 9.55-15.47 3.58 5.2 6.47 10.85 10.22 15.93 2.28-.04 4.55-.05 6.83-.05-4.67-6.66-8.76-13.7-13.41-20.38 4.01-6.94 8.66-13.5 12.97-20.25-2.3-.06-4.6-.07-6.9-.07m39.44 0c-5.03 13.61-10.38 27.11-15.33 40.76 2.01-.08 4.03-.18 6.05-.31 1.13-3.5 2.41-6.96 3.69-10.4 5.61.07 11.22.03 16.82.02 1.24 3.57 2.58 7.1 3.95 10.63 1.96-.01 3.91-.01 5.87 0-5.4-12.88-9.89-26.12-15.12-39.06-.57-2.8-3.93-1.28-5.93-1.64m34.78.22c-6.58 2.02-10.26 8.91-10.83 15.42-.67 7.08-.36 15.1 4.58 20.71 6.13 7.28 19.16 6.35 24.25-1.67 3.39-5.38 3.42-12.01 3.14-18.14-.21-4.81-1.89-9.72-5.52-13.02-3.97-4.05-10.35-5.05-15.62-3.3m44.65-.22c-.08 13.55-.46 27.14.09 40.68 8.45.16 16.9-.08 25.36.06.05-1.51.11-3.02.16-4.52-6.71.05-13.42-.05-20.14-.03.05-4.73.03-9.46.06-14.19 5.72.01 11.44-.03 17.17-.04.02-1.53.03-3.06.06-4.57-5.77 0-11.54 0-17.31-.02-.04-4.22-.03-8.45.01-12.67 6.6-.59 13.21.34 19.81-.26-.03-1.51-.05-3.01-.07-4.49-8.4.03-16.8.05-25.2.05m34.58 2.24c-5.11 3.47-5.51 11.62-.99 15.72 4.78 4.43 11.94 4.11 17.13 7.76 2.97 2.06 2.96 6.71.26 8.98-5.5 4.37-16.17 1.72-16.18-6.28-1.85.01-3.7.04-5.54.08.15 3.56 1.53 7.15 4.42 9.37 5.56 4.27 13.76 4.32 19.88 1.26 5.99-2.94 6.67-11.87 2.1-16.35-4.68-4.47-11.62-4.6-16.96-7.85-2.91-1.71-3.42-6.23-.94-8.52 3.04-2.84 7.99-2.92 11.6-1.18 2.53 1.25 3.39 4.08 3.93 6.64 1.82-.02 3.64-.05 5.47-.06-.38-2.37-.81-4.82-2.31-6.77-4.83-6.71-15.37-7.32-21.87-2.8m30.45-2.25c.08 13.59-.01 27.19.07 40.79 1.84-.06 3.68-.1 5.53-.15.04-5.24.02-10.47.01-15.7 6.26-.22 13.33 1.28 18.83-2.53 5.32-3.69 5.66-11.59 2.6-16.82-2.06-3.51-6.11-5.34-10.06-5.51-5.65-.27-11.32.01-16.98-.08m37.12 2.78c-2.31 2.03-3.16 5.07-3.85 7.95l5.76.18c-.01-4.51 4.36-7.84 8.71-6.84 5.43.46 7.29 8.31 3.33 11.64-2.54 2.35-6.22 1.93-9.41 2.11.02 1.38.05 2.78.08 4.17 2.91.29 6.01-.02 8.72 1.29 4.62 2.42 4.44 10.07.01 12.59-3.06 1.61-7.25 1.39-9.77-1.09-1.4-1.33-1.72-3.33-2.33-5.05-1.78.03-3.55.06-5.31.11.18 2.77.85 5.69 2.97 7.65 4.96 4.69 13.32 4.94 18.89 1.23 6.6-4.42 5.77-16.16-2.02-18.87 7.18-3.31 7.35-14.03 1.19-18.38-5.12-3.12-12.44-2.72-16.97 1.31m33.71-1.49c-3.84 2.12-5.71 6.55-5.9 10.77a486 486 0 0 0 5.44.18c.34-1.58.49-3.25 1.29-4.67 2.37-4.87 10.83-4.8 12.81.38 1.56 3.47.02 7.36-2.21 10.15-4.91 6.3-10.82 11.75-15.83 17.96-1.01 1.31-.64 3.1-.88 4.65 8.98-.01 17.97.1 26.95-.07-.01-1.46 0-2.91-.01-4.35-6.71.05-13.42.07-20.12-.09 3.61-4.1 7.32-8.11 11.08-12.06 2.94-3.17 5.97-6.62 6.85-10.98.96-4.47-.64-9.82-4.82-12.1-4.53-2.26-10.21-2.18-14.65.23m30.76 1.03c-4.85 3.29-5.35 10.75-1.53 15.03 4.85 4.71 12.2 4.79 17.75 8.28 2.79 1.6 3.34 5.63 1.24 8.03-4.93 5.79-17.03 3.31-17.21-5.09-1.88-.09-3.75-.12-5.61-.12.05 3.89 1.94 7.67 5.23 9.84 5.73 3.72 13.77 4.05 19.7.57 4.73-2.64 5.73-9.19 3.43-13.74-3.5-5.59-10.5-6.62-16.17-8.83-3.19-.97-6.13-4.1-5-7.63 1.52-4.56 7.43-5.15 11.44-4.08 3.37.78 5.1 4.09 5.71 7.24 1.74-.08 3.5-.16 5.26-.26-.41-3.53-1.88-7.06-4.8-9.22-5.58-4.04-13.8-3.87-19.44-.02m28.81 8.47c1.83.02 3.67.05 5.5.08.02-4.85 5.13-8.18 9.62-6.64 5.26 1.19 6.25 9.18 1.92 12.02-2.57 1.77-5.87 1.46-8.83 1.55.03 1.42.06 2.86.1 4.3 3.04.24 6.44-.3 9.12 1.53 4.66 2.94 3.77 11.54-1.81 12.87-4.72 1.69-10.37-1.48-10.72-6.64-1.74.01-3.48.05-5.22.11-.32 11.36 15.88 14.66 22.98 7.76 5.38-4.93 3.85-15.32-3.24-17.87 2.31-1.53 4.82-3.3 5.36-6.22 1.83-5.84-2-12.85-8.18-13.82-7.31-2.13-16.5 2.82-16.6 10.97m49.77-10.79c-.05 13.55-.05 27.11-.02 40.67 1.84.02 3.69.05 5.55.09.1-5.28.06-10.55.06-15.83 6.3-.4 13.38 1.39 18.95-2.44 7.48-5.23 5.61-19.04-3.4-21.54-6.87-1.85-14.12-.58-21.14-.95m-351.19.06c.13 13.56-.05 27.11.04 40.67 1.83.02 3.66.03 5.51.07-.02-13.61.02-27.22-.02-40.83l-5.53.09m399.48 10.31c-.02 7.07-.06 14.15.05 21.23.07 3.39 1.61 7.16 4.89 8.62 4.58 1.97 10.36 1.23 14.01-2.32-.01.69-.04 2.05-.05 2.74 1.73.12 3.47.05 5.22.05-.34-10.13.08-20.27-.14-30.41-1.8-.02-3.58-.01-5.35 0-.02 6.79.08 13.57.03 20.36.24 6.65-11.83 8.74-12.99 1.8-.8-7.36-.15-14.8-.42-22.19-1.76.03-3.51.08-5.25.12m36.53.49c-4.79 1.77-7.71 8.54-4.07 12.68 3.82 3.78 9.74 3.22 14.22 5.76 1.99 1.07 2.59 3.9 1.04 5.62-3.77 3.76-12.25 2.14-12.68-3.79-1.81.06-3.62.13-5.4.23.54 2.69 1.6 5.4 3.84 7.15 3.92 3.06 9.45 3.22 14.08 1.92 3.82-1.09 7.04-4.73 6.57-8.87-.01-3.91-3.67-6.36-7.05-7.31-3.9-1.43-9.27-1.22-11.22-5.64 1.85-5.97 11.6-5.71 12.54.68 1.84.02 3.7.04 5.56.05-.54-2.31-1.07-4.8-2.92-6.44-3.82-3.57-9.81-3.81-14.51-2.04m-349.48 10.36c0 1.48 0 2.97.01 4.46 4.62.02 9.24.03 13.86.05l-.06-4.53c-4.61-.07-9.21-.03-13.81.02m245.2-.03c-.02 1.49-.03 2.99-.03 4.5 4.67.03 9.34.04 14.01-.01.1-1.5.21-2.99.33-4.47-4.77-.06-9.54-.06-14.31-.02z"/><path d="M269.4 542.57c1.61-6.84 8.79-11.62 15.71-10.2 5.33.67 9.28 5.19 10.65 10.19-8.79.06-17.58-.12-26.36.01zM323.54 542.49c1.84-5.38 6.37-10.26 12.38-10.39 6.61-.73 12.31 4.37 14.2 10.41-8.86-.05-17.72.29-26.58-.02zM377.9 542.55c1.63-7.79 10.74-12.61 18.11-9.6 4.28 1.46 7.26 5.31 8.22 9.66-8.78-.22-17.56 0-26.33-.06zM441.38 533.52c6.95-2.77 15.4 1.3 17.89 8.27 3.98 8.75-3.43 20.6-13.26 19.96-7.45.15-13.97-6.44-14.3-13.77-.5-6.27 3.8-12.39 9.67-14.46zM629.39 533.64c6.44-2.57 14.5.2 17.59 6.5 5.02 8.37-1.02 20.95-10.94 21.56-8.31 1.25-16.24-6.37-15.9-14.62-.16-5.85 3.76-11.47 9.25-13.44zM704.29 533.5c6.94-2.75 15.92.65 18.5 7.85 3.54 8.13-1.68 18.87-10.6 20.33-7.26 1.45-15-3.55-16.56-10.8-2.03-6.89 1.77-15.03 8.66-17.38zM315.39 627.61c3.86-1.82 8.92-.94 11.57 2.52 3.03 3.92 3.12 9.16 3.21 13.9-.14 4.94-.99 10.87-5.6 13.71-4.75 2.99-11.55.59-13.8-4.43-2.27-5.13-2.13-10.99-1.46-16.45.45-3.78 2.41-7.73 6.08-9.25zM429.69 627.17c4.27.03 8.62-.45 12.84.44 6.26 1.75 6.87 12.28.69 14.57-4.35 1.28-8.99.53-13.46.56-.02-5.19-.05-10.38-.07-15.57zM609.87 642.7c.04-5.19-.06-10.37 0-15.55 4.21-.1 8.49-.45 12.66.34 6.92 1.45 7.19 13.7.02 14.95-4.2.58-8.46.34-12.68.26zM275.43 647.76c2.43-6.13 4.68-12.33 6.81-18.57 2.21 6.3 4.68 12.51 7.16 18.71-4.66-.1-9.31-.03-13.97-.14zM441.8 975.7c2.46-.02 4.94-.03 7.41-.01.08 9.5-.05 19.01.09 28.52 4.02-.04 8.04-.05 12.06-.03 2.52-.01 5.04-.09 7.56-.19 4.07-.19 8.14.15 12.21.16 2.38.03 4.77-.02 7.17-.12 3.98-.24 7.98-.13 11.97 0 2.51.01 5.03-.12 7.55-.18 4.07-.07 8.15.06 12.23-.03 2.46-.03 4.92-.04 7.38-.04 3.99-.01 7.98-.01 11.98-.03 2.56-.02 5.13-.03 7.7-.06 3.95-.04 7.9-.01 11.85-.04 2.52-.01 5.03 0 7.55-.01 3.99-.04 7.98-.01 11.97.02 2.4 0 4.8-.05 7.21-.1 4.03-.09 8.05-.03 12.08-.05 2.5-.01 5-.01 7.5-.02 4.04-.02 8.08.02 12.12-.01 2.3-.01 4.61-.01 6.92.01.26-9.6-.08-19.21.19-28.8.38 9.56.16 19.14.14 28.72 4.11.03 8.21-.05 12.32-.06 2.46-.01 4.92-.02 7.39-.05 4.08-.04 8.18-.06 12.27 0l6.79.09c.23-9.58-.01-19.17.2-28.75.29 9.53.04 19.07.03 28.6 4.16.03 8.34.01 12.51.04 2.22.01 4.44.01 6.68.03.04-7.44-.01-14.88.09-22.31-.06-1.69.16-3.52-1.07-4.83-1.46-1.44-3.56-.93-5.36-1.09-.38 6.35.22 12.72-.43 19.07.25-6.47-.15-12.95.24-19.41 1.92.01 3.85-.01 5.79.14l1.13.69c-.06 9.18.02 18.37.02 27.56 4.14.05 8.29.07 12.44.03 2.46-.04 4.93-.06 7.4-.06 3.92 0 7.84.01 11.77.06 2.31.03 4.61.06 6.94.1-.07-9.31.46-18.65-.31-27.93-1.94.36-3.84.92-5.8 1.19 1.07-2.8 4.36-1.32 6.57-1.83.1 9.42-.04 18.83.04 28.25 6.58.11 13.19-.33 19.76.19 3.82.3 5.89 4.35 5.58 7.85-.09 25.34 0 50.68-.07 76.01.2 3.69-2.83 7.3-6.63 7.24-6.22.19-12.44.03-18.66.14-.07 9.09.35 18.2-.19 27.27-.51-9.09-.1-18.21-.23-27.3-2.29.03-4.56.09-6.83.14-3.97.05-7.95.04-11.91.08-2.51.01-5.02.02-7.51.04-4.08 0-8.14.01-12.21-.01-2.5-.02-5 0-7.49.05-4.09.05-8.18.05-12.27.09.19 7.11.02 14.23.27 21.35-.7-7.13-.18-14.3-.51-21.44-2.28 0-4.55.02-6.82.07-4.05.03-8.1.07-12.15.07-2.41-.02-4.82-.01-7.23.04-4.17.06-8.34.07-12.5.08.16 8.93-.04 17.86.01 26.79-2.36.01-4.71.06-7.05.04 2.22-.16 4.45-.28 6.68-.38.06-8.86.27-17.71-.01-26.56-2.33 0-4.66.02-6.99.07-3.95.06-7.9.06-11.85.04h-.9c-.29 8.58.34 17.19-.05 25.75-.56-8.6.19-17.27-.11-25.9-2.17.04-4.32.11-6.47.2-4.06.2-8.12.11-12.18.19-2.46.03-4.92.05-7.37.04-4.03-.05-8.05-.02-12.07.01-2.41 0-4.82 0-7.22.01-4.06-.02-8.11.02-12.15.05-2.48-.01-4.95-.01-7.41.01-4.1.03-8.19.06-12.29.05.14 8.97.07 17.94.03 26.92-2.43-.02-4.85-.01-7.26-.08 2.26-.18 4.53-.31 6.8-.4.01-8.83.03-17.65.05-26.48-2.25 0-4.48.04-6.71.07-4.11.05-8.22.05-12.33.04-2.49-.03-4.98-.02-7.46.02-4.05.05-8.09.07-12.14.1-2.41-.01-4.81 0-7.21.04-4.07.01-8.13.04-12.2-.02-2.41-.05-4.83-.06-7.24-.02-4.09.05-8.18.1-12.27.11-2.54 0-5.07.02-7.6.07-3.97.05-7.93.07-11.9.05-2.48-.02-4.96-.02-7.44.01-4.02.02-8.04.01-12.05-.01-2.5-.04-5-.05-7.49-.04-3.64-.04-7.27.05-10.91-.04-4.06.25-7.77-3.63-7.31-7.68.03-25.32.04-50.64.01-75.96-.33-3.65 2.55-7.34 6.27-7.52 3.98-.28 7.98-.09 11.96-.07 2.48.02 4.95-.02 7.43-.07 4-.08 8-.04 12-.04 2.36.01 4.71.02 7.07.05.34-9.61.02-19.23.2-28.83.12 9.57.1 19.14-.01 28.72 4.12 0 8.24.01 12.37-.01-.17-9.51-.13-19.02-.12-28.54m.39.47c-.01 9.38-.21 18.77.03 28.15 2.19-.01 4.39-.01 6.6.01.12-9.39.04-18.78.03-28.16-2.22-.01-4.44-.01-6.66 0m78.99 36.84c-.67 3.15-.55 7.62 2.88 9.16 3.27.7 6.9.54 9.51-1.8.17-2.91.22-5.81.1-8.71-3.24.04-6.48 0-9.71.07-.98.13-2.81-.3-2.78 1.28m39.13-1.27c.02 2.79-.56 5.77.48 8.46 2.61 3.06 6.75 1.97 10.23 1.71 2.16-3.02 1.68-6.8 1.64-10.28-4.12.03-8.23.07-12.35.11m38.9-.21c.04 3.7-1.01 8.23 2.57 10.72-4.02-.04-8.03-.03-12.05 0 3.64-2.43 2.51-6.98 2.53-10.67-4.25-.05-8.5-.02-12.74 0-.09 2.84-.04 5.68.19 8.52.92.72 1.84 1.45 2.77 2.2-4.83.04-9.66.06-14.47.4-8.98-.79-17.99.19-26.96-.27-9.79.17-19.57.02-29.36.21.87-.85 1.73-1.7 2.61-2.53.06-2.78.08-5.56.05-8.32-4.27-.04-8.54-.05-12.81-.04-.04 2.75.01 5.49.19 8.25 1.01.84 2.02 1.71 3.03 2.6-6.55.1-13.09-.08-19.63.13 3.07-.52 7.39.88 9.23-2.38.67-2.63.56-5.41.27-8.07-3.94-1.14-8.31-.27-12.4-.3.07 3.7-.83 8.08 2.44 10.76-3.99.07-7.98-.03-11.95.18 3.26-2.66 2.92-6.9 2.75-10.67-4.14-.04-8.27-.03-12.41.01-.13 2.21-.55 4.48-.01 6.68.46 2 2.51 3.04 4.18 3.93-11.49-.07-22.97-.17-34.46.07 4.96-1.09 3.59-6.91 3.76-10.61-4.26-.05-8.53-.07-12.79.05-.08 3.73-.6 8.13 2.86 10.64-6.31-.15-12.61-.1-18.91-.23.19 18.26-.45 36.58.3 54.82-1.31 1.56-3.05 2.73-4.18 4.44-.32 1.87-.24 3.8-.26 5.71 4.41.28 8.86.65 13.27.07.03-3.5-.09-6.99-.45-10.46 10.36.14 20.72.1 31.07-.04a11.98 11.98 0 0 0-3.79 2.33c-.47 2.66-.24 5.39-.25 8.1 4.12.26 8.25.25 12.38.02.62-3.73.99-8.57-3-10.55 4.38.11 8.75.09 13.13 0-1.04.89-2.08 1.79-3.12 2.68-.02 2.58-.01 5.16.01 7.75 4.21.18 8.43.1 12.64.02-.13-3.58.98-7.75-1.94-10.5 3.93.06 7.85.03 11.78-.04-4.25 1.75-2.67 6.91-2.84 10.48 4.03.07 8.07.09 12.11.06.75-2.99.72-6.04-.18-8.97-.9-.54-1.82-1.04-2.73-1.5 8.78-.19 17.57.12 26.35-.3 8.62.78 17.24-.27 25.88.03-1.06.61-2.1 1.26-3.11 1.95-.19 2.87-.25 5.75-.21 8.64 4.04-.08 8.1.19 12.13-.15 1.45-2.83.58-6.69-.44-9.69-.64-.19-1.91-.58-2.55-.77 9.11-.26 18.23.13 27.35-.27 1.53-.28 2.87.47 4.3.9-2.97 2.23-1.35 6.54-1.71 9.75 4.23.17 8.47.18 12.71.07.02-2.81 0-5.6-.09-8.39-.96-.8-1.91-1.58-2.85-2.36 23.54.08 47.08-.2 70.63-.39-3.04 2.69-2.56 6.85-2.62 10.52 4.29.48 8.76 1.02 12.97-.29-.02-3.62.29-7.7-2.79-10.25 3.94.15 7.9-.01 11.85-.11-2.96 2.74-2.6 7.01-2.47 10.7 4.24-.01 8.48-.03 12.73-.07-.07-3.64.47-7.57-1.78-10.71 10.76.36 21.53.07 32.3 0-1.27.45-2.46 1.07-3.65 1.67-.63 2.92-.88 5.91-.77 8.91 4.64.16 9.28.13 13.92.07-.19-2.17.51-4.62-.62-6.58-1.49-1.54-3.22-2.79-4.83-4.16l1.45-.01c.1-18.14-.17-36.28.16-54.42-13 .18-25.99.04-38.98.36 3.98-2.05 2.53-6.99 2.78-10.61-4.31-.17-8.63-.72-12.93-.08-.13 3.08-.05 6.2.79 9.2.95.47 1.93.92 2.92 1.36-4.35.01-8.71.08-13.06.19 3.57-2.44 2.94-6.85 2.88-10.58-4.26-.16-8.53-.12-12.79.01.06 3.7-.65 8.01 2.51 10.73-17.39 0-34.75-.19-52.12.09 1.24-.41 2.38-1.13 3.35-2 .84-2.83.42-5.84.51-8.73-4.18.02-8.35.03-12.53.09m19.31-.1c-.01 2.55-.39 5.19.32 7.69 1.84 4.47 7.66 1.85 11.35 2.36 1.46-3.17 1.09-6.7 1.09-10.07-4.26-.15-8.51-.15-12.76.02m19.71-.09c-.35 3.32-1.24 7.6 1.74 10.03 3.3.2 7.6 1.51 10.15-1.29.92-2.79.42-5.82.48-8.69-4.13-.04-8.25-.02-12.37-.05m58.37-.12c.13 3.38-1.43 8.22 2.49 10 3.11.65 6.79.49 9.39-1.56.82-2.7 1.24-5.83.2-8.49-3.89-.98-8.09-.08-12.08.05m20.04 9.07c1.75.54 3.49 1.35 5.39 1.2 3.13.22 5.2-2.52 7.53-4.15.03-2.24 0-4.48-.09-6.7-4.24.09-8.48-.16-12.7.11-2.29 2.51-.62 6.51-.13 9.54m-313.19-7.92c.03 1.98.06 3.96.1 5.96 1.43 1.4 2.87 2.79 4.31 4.2 2.79-.23 6.09.69 8.41-1.33.95-2.86.39-5.98.51-8.94-4.45.02-8.89.05-13.33.11m137.48 7.65c2.36 2.88 6.57 2.54 9.79 1.71 4.04-1.62 2.4-6.64 2.49-9.97-4.21-.12-8.41-.13-12.62-.12-.02 2.78-.38 5.64.34 8.38m-97.55-7.79c.2 3.28-1.09 7.44 1.71 9.96 3.29.12 7.67 1.38 10.25-1.17.85-2.86.48-5.9.52-8.82-4.16-.05-8.32-.06-12.48.03m176.57 65.63c-2.31 2.52-1.18 6.29-1.39 9.4 4.01-.29 8.24.54 12.12-.43 1.13-2.62.7-5.89-.25-8.53-2.9-2.35-7.32-2.2-10.48-.44m18.62.69c-.51 2.7-.32 5.47-.37 8.21 4.17.05 8.34.61 12.51.2-.22-3.59 1.21-8.21-2.41-10.51-3.31.2-7.24-.68-9.73 2.1m59.3-1.91c-1.65 3.08-1.56 6.6-1.41 10.01 4.15.05 8.3.07 12.46.07.22-2.96.77-6.16-.66-8.91-2.82-2.44-7-1.01-10.39-1.17m-273.39 2.6c-1.18 2.69-.75 5.7-.56 8.55 4.21.02 8.43.01 12.64-.04-.44-3.25 1.28-8.21-2.71-9.69-2.98-.75-7.01-1.27-9.37 1.18m78.58-1.4c-2.2 2.77-1.21 6.53-1.46 9.79 4.27.07 8.55.08 12.83.02 0-3.4.18-6.89-1.24-10.05-3.37-.04-6.83-.62-10.13.24m18.16 9.82c4.16 0 8.32 0 12.49-.03.07-2.99-.04-5.98-.27-8.95-3.21-1.72-6.98-1.45-10.45-.93-2.92 2.26-2.21 6.67-1.77 9.91m39.06-.24c4.09 0 8.17.03 12.26 0-.22-3.23 1.37-7.51-1.55-9.84-2.95-.65-6.07-.63-9.01.02-2.79 2.45-1.44 6.57-1.7 9.82m39.42-9.93c-.75 3.21-1.14 6.51-.62 9.8 4.25.06 8.5.09 12.76-.04-.47-3.18 1.11-7.57-1.84-9.76-3.39-.81-6.89-.33-10.3 0z"/></g><g fill="#cdcdcd"><path d="M333.98 15.49c75.02.03 150.03-.22 225.04-.18 24.31.02 48.62.03 72.92-.2 16.05-.39 32.18-.2 48.11 2.01 2.91.63 6.3.93 8.46 3.21.57 5.04 1.65 9.95 3.7 14.61.37 22.73.36 45.5.63 68.24.55 28.91.44 57.84.85 86.75.68 44.26.75 88.53 1.5 132.78-.25 7.32-.01 14.64-.11 21.95-4.97.29-10.78-.06-14.6 3.75-2.39 2.18-2.63 5.6-2.57 8.63.14 7.52.82 15.27-1.5 22.56-11.4.76-22.95.31-34.41.62-5.03-.11-10.66.74-15.03-2.32-2.53-1.69-3.11-4.96-3.27-7.78-.45-12.04-.46-24.08-.63-36.12.04-3.95-1.07-8.19-4.29-10.74-2.91-2.64-7.05-2.7-10.74-2.71-19.36.26-38.71.57-58.07.6-3.55.04-7.88.51-9.79 3.96-1.99 3.89-1.5 8.57-.81 12.74.69 3.89 3.72 7.26 7.7 7.86 11.56 1.96 23.27 2.94 34.88 4.57 4.64.56 6.22 5.65 6.5 9.64.31 6.92.69 13.84 1.39 20.74-69.85.4-139.7 1.31-209.54 1.58.2-7.93-.22-15.88.41-23.78.1-3.03 1.93-6.16 5.19-6.48 10.66-2.03 21.51-2.92 32.2-4.78 3.23-.54 6.58-2.08 8.14-5.13 1.94-3.88 1.91-8.48 1.24-12.68-.72-4.38-5.03-7.58-9.43-7.18-19.34.35-38.7.59-58.05.62-4.49 0-9.65-.36-13.22 2.89-3.18 2.8-3.63 7.36-3.5 11.33.5 11.33.18 22.67.17 34.01-.12 3.31-.08 7.21-2.77 9.61-2.04 1.89-5.02 1.83-7.62 1.96-12.03.13-24.06.33-36.08.36-5.75.17-10.51-4.98-11.15-10.45-.71-6.04.3-12.25-1.23-18.19-1.06-3.92-4.85-6.58-8.82-6.79-7.76-.48-15.62-.73-23.29.74-.56-2.04-.84-4.14-.84-6.24-.07-9.77-.03-19.53-.08-29.3-.04-37.81-.64-75.63-.75-113.44-.25-30.41-.18-60.82-.53-91.23-.03-1.65-.04-3.29-.06-4.93-.36-25.39-.76-50.79-.48-76.18-.54-4.12 4.17-5.11 7.25-5.68 25.42-4.13 51.22-6.13 76.98-5.81zM146.88 102.78c6.2-.21 12.4-.05 18.6-.15l.01.56c.05 4.1.06 8.2.05 12.29-6.16-.21-12.32-.13-18.47.13.33-4.28.14-8.57-.19-12.83zM182.7 103.54c6.38.18 12.75.17 19.13.02.02 3.93.02 7.87-.05 11.81-6.38-.03-12.75-.05-19.12.15-.06-3.99-.04-7.98.04-11.98zM720.2 103.81c5-.21 10-.12 15.01-.19.1 4.21.16 8.41.18 12.62-5.95-.25-11.9-.13-17.84-.16-.43-3.87-.38-7.75-.25-11.63.72-.16 2.17-.48 2.9-.64zM750.71 103.6c7.14.21 14.29.12 21.44-.03-.22 4.18-.19 8.36-.12 12.54-7.01.06-14.02-.05-21.02 0-.12-2.45-.25-4.89-.29-7.34-.01-1.72-.02-3.45-.01-5.17zM152.37 132.34c2.97-2.46 5.6-5.88 9.67-6.42 5.64-.74 11.34-.14 17.01-.25 3.86.12 7.81-.37 11.61.52 4.8 1.86 7.34 7.22 12.51 8.42 3.77.92 7.37 2.7 9.65 5.96 1.25 3.31 1.86 6.85 1.79 10.39.06 17.69-.12 35.37.05 53.06.1 3.94-.2 7.89-1.17 11.73-1 1.83-2.1 3.69-3.75 5.02-3.56 2.88-8.68 2.7-12.08 5.84-3.09 2.63-6.25 6-10.67 5.81-7.67-.01-15.34-.05-23-.08-4.38.15-7.71-2.88-10.66-5.69-3.49-3.41-9.01-3.13-12.62-6.36-1.89-1.86-2.98-4.32-4.12-6.66-.68-8.19-.26-16.41-.37-24.62.16-14.59-.32-29.19.33-43.76.92-2.72 1.97-5.61 4.28-7.48 3.39-2.71 8.21-2.61 11.54-5.43m19.05 32.17c-7.66 1.83-13.23 9.56-12.7 17.4-.08 8.6 7.74 16.11 16.24 16.19 5.54.21 11.07-2.57 14.23-7.12 3.76-5.17 4.17-12.48 1.08-18.06-3.46-6.58-11.59-10.49-18.85-8.41zM723.5 131.48c2.6-2.24 4.99-5.16 8.57-5.75 4.29-.6 8.63 0 12.95-.15 4.97.1 10-.53 14.95.26 3.53.61 5.76 3.7 8.46 5.76 2.91 2.53 6.86 3.12 10.28 4.7 2.19.98 3.61 3.02 4.97 4.91 1.93 6.41 1.41 13.16 1.45 19.76.04 14.67 0 29.34.05 44.02.05 3.36-.34 6.71-1.13 9.98-1.16 2.35-2.39 4.91-4.74 6.31-2.68 1.62-5.84 2.1-8.66 3.39-3.72 1.72-5.77 5.87-9.74 7.14-4.23.94-8.61.39-12.9.45-5.01-.16-10.03.32-15.01-.15-4.16-.44-6.92-3.89-10.03-6.26-3.19-2.6-7.63-2.6-10.96-4.94-2.14-1.48-3.37-3.85-4.57-6.08-1.14-5.19-.77-10.52-.79-15.78.06-15.69.05-31.37.07-47.05-.01-2.94.32-5.86.75-8.76 1.12-2.33 2.31-4.78 4.46-6.34 3.52-2.51 8.39-2.34 11.57-5.42m18.88 33.02c-8.55 1.75-14.26 10.93-12.81 19.39 1.13 9.01 10.75 15.61 19.58 13.89 9.36-1.43 16.13-11.91 13.22-21.02-2.11-8.48-11.39-14.57-19.99-12.26zM716.61 241.07c6.11.3 12.23.24 18.35.14-.16 5.32.07 10.63.18 15.94l-.08.62c-6.06.23-12.13.07-18.18.02-.4-5.57-.3-11.15-.27-16.72zM750.96 241.24c7.04.05 14.1.15 21.14-.16.09 5.47.07 10.94.04 16.42-7.1.56-14.27.63-21.37.03.2-5.43.13-10.86.19-16.29zM182.7 244.52c6.36.2 12.73.01 19.1-.04.03 4.6.12 9.22-.25 13.81-6.27.04-12.55.12-18.82-.09-.11-4.56-.07-9.12-.03-13.68zM146.68 244.51c6.27-.09 12.56.35 18.82-.22.06 4.66.13 9.32-.08 13.97-6.24.16-12.48.13-18.72-.01-.15-4.58-.08-9.16-.02-13.74zM146.67 280.03c-.57-2.72 1.3-5.75 4.27-5.48 15.05-.02 30.12-.03 45.17-.02 2.13-.27 4.64 1.17 4.53 3.53.15 6.95.17 13.92 0 20.87.12 2.33-2.57 3.64-4.61 3.41-14.36-.02-28.73-.03-43.09-.01-1.83.11-3.55-.5-5.25-1.06-2.01-6.87-.49-14.18-1.02-21.24zM719.64 275.72c2.85-1.08 5.9-1.09 8.91-1l-.01.6c-.06 8.83-.28 17.67.29 26.49-3.46-.29-9.9 1.58-10.04-3.75.28-7.43-.93-15.07.85-22.34zM762.98 274.7c3.11.23 8.19-1.21 9.37 2.8.27 7.31.39 14.69.01 21.99-1.57 3.85-6.45 1.88-9.59 2.36 1.09-8.98.86-18.14.21-27.15zM155.39 331.02c.26-1.89-.71-4.78 1.65-5.6 2.59-.3 5.21-.12 7.82-.17-.15 5.31-.06 10.63-.09 15.94-2.93-.12-6.2.36-8.85-1.15-.94-2.89-.37-6.04-.53-9.02zM182.45 325.23c3.17.54 7.64-1.42 9.77 1.73.26 4 .26 8.03.01 12.02-1.93 3.53-6.6 2-9.83 1.9.11-5.22.08-10.43.05-15.65zM726.49 328.01c-.15-1.88 1.84-2.91 3.51-2.66 9.67.06 19.34.15 29-.05 1.43-.18 2.57.73 3.71 1.45-.02 4.57-.02 9.14-.17 13.7-2.43 1.55-5.38 1.12-8.1 1.16.2-5.27.22-10.55.12-15.81-6.66-.12-13.32-.18-19.97.08-.14 4.84-.04 9.67.28 14.51-.24.15-.71.47-.95.63-1.94.09-3.88.12-5.81.2-.4-.15-1.18-.45-1.57-.6-.27-4.2-.13-8.41-.05-12.61zM155.61 356.08c-.03-1.24 1.36-1.77 2.04-2.59 1.99.09 3.98.13 5.98.17-.21 5.34-.24 10.7.03 16.05-2.75-.13-5.77.42-8.17-1.27.14-4.12-.1-8.25.12-12.36zM184.36 353.68c2.28.22 5.03-.62 6.9 1.07 1.87 2.31.62 5.54.82 8.25.13 2.09.28 4.31-.93 6.15-2.16.85-4.59.39-6.86.54.23-5.33.2-10.68.07-16.01zM727.39 355.64c2.66-.76 5.53-.22 8.29-.27-.14 5.16-.07 10.33-.08 15.49-2.69-.18-5.44.16-8.09-.38-2.26-2.12-.82-5.72-1.25-8.47.35-2.03-.86-5.02 1.13-6.37zM753.39 355.37c2.93.36 6.92-1.25 9.15 1.15.47 3.48.16 7.03.22 10.55-.02 1.33 0 3.4-1.76 3.6-2.59.24-5.18.09-7.76.15.19-5.15.09-10.3.15-15.45zM155.46 385.23c2.36-2.78 6.25-1.37 9.41-1.72-.14 5.28-.13 10.56-.06 15.84-2.38 0-4.76 0-7.14.1-.69-.81-2.09-1.3-2.07-2.52-.23-3.89.01-7.8-.14-11.7zM666.91 383.37c7.72-.28 15.44-.05 23.17-.15-1.56 3.27-3.19 6.59-5.67 9.27-4.46 4.58-11.03 7.1-17.41 6.13-7.12-.67-12.35-6.22-16.43-11.6 5.49.12 12.84 1.88 16.34-3.65zM726.43 385.31c1.68-3.38 6.22-1.33 9.23-1.98.03 5.33.16 10.67-.09 16-3.05.04-6.12.04-9.04-.91-.21-4.36-.46-8.75-.1-13.11zM753.42 383.3c2.99.57 7.52-1.39 9.2 2 .27 4.38.21 8.79-.12 13.17-3 .35-6.02.37-9.03.39-.04-5.19.11-10.37-.05-15.56zM182.61 383.57c2.82.01 5.65.04 8.47.08 2.68 3.98.99 9.22 1.18 13.72-2.18 3-6.5 1.62-9.65 1.87-.06-5.23-.04-10.45 0-15.67zM160.88 997.01c1.02-8.67 9.46-15.23 18.07-14.65 29.79-.17 59.58-.05 89.36-.04 4.23-.08 8.64.68 12.07 3.34 4.1 2.78 6.07 7.65 6.86 12.38.56 7.36.25 14.76.19 22.15-.09 2.62-.07 5.26-.01 7.91.21 13.62.19 27.25.01 40.87-.05 2.62-.07 5.25 0 7.88-.07 7.32.7 14.73-.54 21.98-1.59 4.05-3.91 8.13-7.87 10.28-3.18 2-7 2.41-10.68 2.46-29.82.13-59.65.18-89.48-.04-6.69.23-13.69-3.37-16.47-9.62-1.89-3.68-1.77-7.91-1.81-11.93-.02-5.66.2-11.33-.02-16.98-.27-16.7-.2-33.4-.03-50.09.32-8.63-.27-17.29.35-25.9m55.97 2.29c-9.35 2.14-18.37 6.5-25.08 13.47-9.27 9.58-15 22.84-14.52 36.27-.14 13.25 6.08 26.06 15.44 35.23 9.18 8.58 21.65 14.05 34.34 13.58 17.17.56 34-9.07 42.83-23.7 5.52-9.3 8.33-20.35 7.11-31.15-1.67-16.7-12.29-32.37-27.52-39.61-9.96-5.1-21.69-6.35-32.6-4.09z"/></g><g fill="#010101"><path d="M114.82 103.35c10.64-.28 21.28.03 31.91-.19 0 4.06-.14 8.13.05 12.2-2.54.04-5.25-.43-7.65.63-1.98.84-2.56 3.07-2.51 5.03-.12 8.07-.02 16.15-.07 24.23-.65 14.57-.17 29.17-.33 43.76.11 8.21-.31 16.43.37 24.62-.12 8.13-.07 16.26-.02 24.4.04 2.17.2 4.98 2.54 5.96 2.46.65 5.04.47 7.57.52-.06 4.58-.13 9.16.02 13.74 6.24.14 12.48.17 18.72.01.21-4.65.14-9.31.08-13.97 5.73-.26 11.47.15 17.2.23-.04 4.56-.08 9.12.03 13.68 6.27.21 12.55.13 18.82.09.37-4.59.28-9.21.25-13.81 3.64-.52 8.73 1.08 11.21-2.39 1.04-8.7.06-17.57.48-26.34.97-3.84 1.27-7.79 1.17-11.73-.17-17.69.01-35.37-.05-53.06.07-3.54-.54-7.08-1.79-10.39 1.06-5.8.47-11.71.63-17.56-.1-2.48.41-5.87-2.3-7.18-3.07-.69-6.25-.37-9.37-.46.07-3.94.07-7.88.05-11.81-6.38.15-12.75.16-19.13-.02-.08 4-.1 7.99-.04 11.98-5.71.22-11.42.28-17.12-.04.01-4.09 0-8.19-.05-12.29 28.25.2 56.49.09 84.74-.03.02 1.64.03 3.28.06 4.93-3.64 0-7.33-.23-10.91.5-7.37 1.79-13.42 7.66-15.87 14.79-1.63 4.32-1.3 9.02-1.31 13.55.18 13.05-.1 26.11.09 39.17.2 7.57 3.43 15.48 10.13 19.52 5.32 3.84 12.11 3.99 18.4 3.7.11 37.81.71 75.63.75 113.44-6.78-.04-14.19 1.64-18.72 7.07-4.7 5.55-5.67 13.12-5.55 20.15-.07 12.69-.09 25.39-.04 38.09-.1 7.17 3.65 14.28 9.72 18.12 6.31 4.18 14.81 4.48 21.6 1.28 4.77-2.32 8.18-6.55 11.09-10.85-5.76-.06-11.51.03-17.27-.04-.32-3.52-.72-7.06-.38-10.6.76-9.16-.18-18.36.51-27.52 1.41 3.72.61 7.74.68 11.62-.03 8.58.15 17.16.02 25.74 4.94-.07 9.92-.43 14.84.29 7.06 1.04 14.21.27 21.31.49.05.63.14 1.89.18 2.52.16 8.3-.45 16.63.07 24.91.16 3.43 4.05 2.69 6.42 2.83 6.31-.14 12.64.2 18.95-.14 1.81.04 2.21-2.27 2.2-3.66.1-8.81-.14-17.62-.07-26.43-9.1-.28-18.21.14-27.31-.19 2.92-1.19 6.13-.83 9.21-.79 6.46.25 12.97-.33 19.38.77 5.9 1.06 11.7-1.1 17.61-.77 6.42.33 12.93-.68 19.26.83-9.04.14-18.08-.09-27.12.1-.07 8.84-.12 17.67 0 26.5-.15 1.7.85 3.86 2.86 3.58 7.29.26 14.61.24 21.91.04 2.09.33 2.93-1.92 2.78-3.62.03-8.87-.08-17.73-.22-26.59 4.84.36 9.73.3 14.52-.53 5.36-.97 10.64.99 16 .82 5.02.22 9.94-1.81 14.96-.87 4.92 1.03 9.98.41 14.92 1.31-.45 7.92-.12 15.85-.27 23.77.13 1.84-.24 3.86.64 5.57 4.11.56 8.28.21 12.42.19.01-10.08.06-20.16-.09-30.23-4.16-.03-8.31-.03-12.45.06.21-.21.63-.63.85-.83 5.03-.45 10.02.41 15.02.89 6.7.69 13.32-2.06 19.99-.44 3.86.92 7.9.17 11.72 1.08.92 2.8.29 5.82.4 8.71-.21 5.02.9 10.04.16 15.04-.15 1.89-.54 4 .6 5.69 4.18.33 8.38-.03 12.57.06.16-10.09.07-20.18.03-30.26-4.27.02-8.53.12-12.79-.09 5.58-2.21 11.5.24 17.24.27 5.73.5 11.35-1.7 17.06-.76 5.95.95 12.04 1.05 17.97-.09 3.75-.73 7.46.48 11.2.73 3.12.2 6.25.09 9.37.18.01 10-.11 20.01.11 30.01 4.31.01 8.63-.01 12.94-.17-.06-9.97-.05-19.93-.15-29.89 3.68-.16 7.37-.2 11.06-.22.09 2.89.2 5.79.2 8.69.06 6.28-.45 12.58.05 18.85 0 1.7 1.54 2.86 3.18 2.7 7.03.19 14.09.19 21.13.03 2.16.41 3.07-1.94 3.02-3.69.34-8.8-.51-17.61.05-26.42-9.08-.33-18.17.19-27.25-.25 1.61-.71 3.36-.93 5.12-.88 7.53.14 15.09-.18 22.57.93 6.83 1.06 13.55-1.1 20.37-.9 5.04.07 10.1-.14 15.11.54 8.47 1.23 17.06-.28 25.53.93 4.08 5.38 9.31 10.93 16.43 11.6 6.38.97 12.95-1.55 17.41-6.13 2.48-2.68 4.11-6 5.67-9.27 2.3-1.1 5.62-2.19 5.42-5.34.59-14.29-.09-28.61.14-42.91.1-4.09-.14-8.18-.45-12.26-.75-44.25-.82-88.52-1.5-132.78-.41-28.91-.3-57.84-.85-86.75 7.94-.04 15.87.11 23.81-.01-.04 4.31-.04 8.62-.07 12.93-2.93.46-7.86-.49-8.79 3.33-.72 7.91-.06 15.88-.32 23.81-.43 2.9-.76 5.82-.75 8.76-.02 15.68-.01 31.36-.07 47.05.02 5.26-.35 10.59.79 15.78.64 7.54-.49 15.15.37 22.66.92 4.02 5.7 3.16 8.8 3.58-.03 5.57-.13 11.15.27 16.72 6.05.05 12.12.21 18.18-.02l.08-.62c.95-5.45.63-11 .6-16.5 4.83-.02 9.66.01 14.5.08.19 5.6-.16 11.23.53 16.8 7.1.6 14.27.53 21.37-.03.03-5.48.05-10.95-.04-16.42 3.62-.88 9.84 1.3 11.09-3.54.89-7.49-.64-15.13.86-22.57.79-3.27 1.18-6.62 1.13-9.98-.05-14.68-.01-29.35-.05-44.02-.04-6.6.48-13.35-1.45-19.76-.52-7.23.28-14.51-.5-21.72-1.34-4.47-6.96-2.89-10.44-3.34.02-4.2-.08-8.4-.59-12.58-7.15.15-14.3.24-21.44.03-.01 1.72 0 3.45.01 5.17-.11 2.54-.37 5.07-.57 7.6-4.93.11-9.85.13-14.76-.13-.02-4.21-.08-8.41-.18-12.62-5.01.07-10.01-.02-15.01.19-.87-.05-2.62-.14-3.49-.18 18.06-.8 36.18-.08 54.26-.36 10.66.05 21.32-.21 31.98.16 21.01 1.46 41.34 10.54 56.76 24.85 19.84 17.71 30.36 44.37 30.59 70.71.08 8.95-.09 17.91.14 26.86-11.7-.12-23.4-.02-35.11-.08-9.11-12.62-27.47-16.47-41.23-9.59-8.65 4.37-15.86 12.17-18.39 21.65-3.55 12.47.22 26.78 9.77 35.62 9.64 9.04 24.48 11.75 36.68 6.67 4.77-1.88 8.86-5.1 12.36-8.8 10.16-.25 20.33.15 30.49-.27 1.55.02 3.18-.18 4.73.26 1.16 26.09-.22 52.32.59 78.46-11.6-.12-23.2.02-34.79-.25-5.59-6.38-13.13-11.24-21.65-12.37-16.43-2.59-33.95 8.51-38.19 24.66-3.26 11.35-.44 24.22 7.46 33.03 10 11.55 27.97 14.9 41.57 8.06 3.74-1.83 6.82-4.7 9.69-7.68 11.97-.06 23.95.01 35.93.08-.06 26.2-.08 52.39 0 78.59-11.69-.09-23.37.13-35.05-.06-5.59-6.68-13.47-11.49-22.18-12.57-15.45-2.23-31.35 7.78-36.65 22.34-4.06 11.15-2.24 24.39 5.2 33.74 5.93 7.33 14.71 12.63 24.23 13.26 6.95.66 14.11-.77 20.09-4.44 3.45-1.73 6.02-4.64 9.03-6.96 11.74-.94 23.56.46 35.32-.24-.01 26.38-.1 52.76.03 79.14-11.64-.52-23.3 0-34.95-.35-5.86-6.54-13.8-11.31-22.65-12.16-18.55-2.65-37.24 12.82-38.25 31.5-2.01 17.02 10.7 34.25 27.6 37.21 11.85 2.44 24.44-1.98 32.59-10.82 11.85-.45 23.71-.06 35.56-.14.01 5.61.01 11.23.08 16.85-6.46-.07-12.93-.04-19.39.15-4.44.04-8.86 1.5-12.31 4.31-9.93 7.77-10.88 24.02-2.58 33.29 3.15 3.18 7.17 5.76 11.64 6.54 7.5.49 15.04.17 22.56.15.02 5.74 0 11.49.07 17.23-11.67-.2-23.37.15-35.02-.32-2.32-1.59-4.06-3.88-6.33-5.53-9.92-7.38-24-8.7-35.07-3.14-12.32 5.86-20.31 19.49-19.41 33.11.49 15.37 12.43 29.55 27.59 32.37 12.04 2.53 25.35-2.12 33-11.81 11.73-.11 23.47.21 35.2.18.03 5.87.01 11.75.02 17.63-6.47-.02-12.94-.17-19.41.1-7.01.14-13.82 4.09-17.31 10.19-4.8 7.96-4.1 18.8 1.67 26.09 3.52 4.64 9.08 7.59 14.89 8.03 6.65.43 13.32.36 19.99.32-.28 5.59-.12 11.2.08 16.81-11.66-.15-23.34.19-34.97-.3-3.84-3.21-7.38-6.94-12.17-8.76-10.62-4.83-23.89-4.05-33.48 2.79-8.56 5.62-14.28 15.27-15.09 25.48-1.5 15.11 7.82 31 22.41 35.91 13.31 5.05 29.69.79 38.32-10.69 11.69-.16 23.38.07 35.07.03 0 5.97-.1 11.94.12 17.91-6.85-.12-13.71-.32-20.55.09-7.25.43-13.93 5.09-17.1 11.59-5.17 9.88-2.23 24.08 7.96 29.53 3.42 1.91 7.35 2.8 11.26 2.83 6.12.05 12.24.14 18.36.09-.07 5.93.1 11.85.01 17.78-11.7-.55-23.42-.11-35.13-.44-7.75-8.16-19.03-13.76-30.48-12-16.02 1.93-29.72 16.11-30.33 32.36-1.56 17.36 12.06 34.68 29.49 36.67 11.71 2.05 23.58-3.35 31.19-12.16 11.78-.29 23.57.46 35.34-.16-.62 12.81.66 25.71-1.14 38.46-3.26 20.94-13.59 40.8-29.11 55.27-18.3 17.61-43.95 26.93-69.25 26.02-224 .02-448 .04-671.99.01-23.93-.13-47.44-10.03-64.5-26.76-13.56-13.01-23.06-30.11-27.24-48.4-3.4-14.07-1.5-28.6-2.4-42.89 11.98-.11 23.97-.05 35.96-.03 5.75 7.42 14.64 12.46 24.14 12.54 18.21 1.44 35.53-14.47 35.91-32.67 1.38-15.56-9.11-31.36-24.2-35.68-11-3.21-23.7-.76-32.12 7.2-1.68 1.34-3.05 3.62-5.46 3.57-11.38.32-22.78.05-34.17.32.46-5.92.17-11.86.19-17.78 6.99-.05 13.99.23 20.97-.08 7.58-.22 14.27-5.65 17.12-12.49 1.99-4.4 2.12-9.4 1.45-14.1-1.41-9.41-9.93-17.52-19.57-17.7-6.62-.16-13.25-.06-19.88.15-.03-5.89.09-11.77-.08-17.65 10.97 0 21.93.06 32.9.12 3.42-.44 5.18 2.88 7.51 4.71 12.72 10.75 33.33 9.72 45.04-2.09 11.86-10.84 13.85-30.03 5.52-43.55-5.51-9.1-15.33-15.76-26.09-16.32-11.04-1.18-22.01 3.9-29.3 12.05-11.85.02-23.69-.03-35.54.1-.03-5.83.1-11.66-.04-17.48 6.95.03 13.9.18 20.84-.03 6.98-.16 13.25-4.89 16.44-10.92 2.76-5.12 2.98-11.21 1.99-16.83-1.71-9.47-10.77-17.03-20.39-17.02-6.31-.18-12.61-.11-18.91.09.16-5.97-.03-11.94.05-17.91 9 .21 18.01-.11 27.01.27 3.51.52 8.02-.95 10.37 2.53 6.58 7.42 16.78 10.9 26.55 10.27 13.38-.67 25.58-10.15 29.98-22.74 5.66-14.51-.11-32.33-13.06-40.91-10.07-7.08-24.11-7.86-34.93-2.04-3.8 1.91-6.96 4.81-10 7.73-11.98-.06-23.97-.2-35.95.14.1-5.81.08-11.62.08-17.42 7.34.12 14.69.21 22.03-.05 4.88-.43 9.32-3.2 12.56-6.76 5.68-6.58 6.44-16.32 3.59-24.29-2.58-7.23-9.58-12.62-17.24-13.2-6.97-.55-13.98-.44-20.96-.05-.09-4.4.12-8.8-.04-13.19.13-1.38-.83-3.63.96-4.28 11.38-.12 22.76-.1 34.15-.08 6.11 7.42 15.06 12.62 24.8 12.93 17.09 1.12 33.44-12.51 35.74-29.43 3.33-16.92-8.27-34.67-24.69-39.27-12.49-3.4-26.58.67-35.12 10.45-11.93.12-23.86-.41-35.78.2-.02-5.74.02-11.47-.03-17.19 8.36-.3 16.82.59 25.12-.53 7.78-2.27 13.56-9.66 14.57-17.61.79-6.19-.22-12.88-4.01-17.98-3.43-4.87-9.01-8.23-15-8.61-6.86-.36-13.75-.15-20.62.16-.01-5.94-.04-11.88-.04-17.82 11.9.58 23.83-.56 35.74.22 5.9 7.72 15.22 12.82 25.04 12.68 14.71.93 28.84-9.38 33.41-23.2 3.78-10.91 2.05-23.72-4.99-32.95-6.46-8.25-16.67-13.99-27.34-13.45-9.65.01-19.02 4.28-25.54 11.36-12.07.4-24.16-.04-36.24.25.06-5.65.04-11.3.01-16.95 7.41.41 14.86.45 22.26-.1 6.18-.47 11.54-4.53 14.64-9.74 3.38-5.63 3.86-12.62 2.24-18.89-2.29-8.99-11.06-16.01-20.4-15.86-6.26-.09-12.51-.11-18.76.12.06-7.5.01-15.01.21-22.52.07 1.75.12 3.49.18 5.25 11.74-.36 23.49-.32 35.22.04 11.24 14.89 35.53 16.43 48.89 3.63 6.26-5.57 10.48-13.42 11.42-21.77 1.2-9.65-1.82-19.69-7.91-27.24-5.84-6.7-14.29-11.31-23.25-11.78-7.95-.47-16.32 1.33-22.73 6.24-2.28 1.65-4.13 3.83-6.53 5.32-11.79.51-23.63-.24-35.42.47-.03-5.59 0-11.19-.01-16.78 6.91-.06 13.82.15 20.73-.09 6.97-.15 13.23-4.76 16.51-10.74 3.25-5.91 3.52-13.14 1.57-19.52-2.23-7.08-8.39-13.09-15.85-14.24-7.61-.55-15.28-.41-22.91-.09.05-6 .04-12-.11-18 11.65.07 23.29.04 34.94.09 10.12 12.83 29.7 16.81 43.81 8.37 14.63-8.18 21.22-27.51 15.06-43.03-2.83-7.7-8.63-14.18-15.75-18.18-9.42-5.27-21.42-5.5-31.08-.7-4.21 1.94-7.7 5.05-11.04 8.19-11.7-.12-23.4-.04-35.11-.01l-.84-1c.6-13.13-.83-26.37 1.32-39.4 3.3-20.94 13.41-40.9 29.14-55.23 16.01-14.9 37.22-24.37 59.14-25.32m31.85 176.68c.53 7.06-.99 14.37 1.02 21.24 1.7.56 3.42 1.17 5.25 1.06 14.36-.02 28.73-.01 43.09.01 2.04.23 4.73-1.08 4.61-3.41.17-6.95.15-13.92 0-20.87.11-2.36-2.4-3.8-4.53-3.53-15.05-.01-30.12 0-45.17.02-2.97-.27-4.84 2.76-4.27 5.48m572.97-4.31c-1.78 7.27-.57 14.91-.85 22.34.14 5.33 6.58 3.46 10.04 3.75 11.31-.16 22.63-.11 33.94.04 3.14-.48 8.02 1.49 9.59-2.36.38-7.3.26-14.68-.01-21.99-1.18-4.01-6.26-2.57-9.37-2.8-11.48.28-23.02-.68-34.44.62l.01-.6c-3.01-.09-6.06-.08-8.91 1m-564.25 55.3c.16 2.98-.41 6.13.53 9.02 2.65 1.51 5.92 1.03 8.85 1.15.03-5.31-.06-10.63.09-15.94-2.61.05-5.23-.13-7.82.17-2.36.82-1.39 3.71-1.65 5.6m27.06-5.79c.03 5.22.06 10.43-.05 15.65 3.23.1 7.9 1.63 9.83-1.9.25-3.99.25-8.02-.01-12.02-2.13-3.15-6.6-1.19-9.77-1.73m544.04 2.78c-.08 4.2-.22 8.41.05 12.61.39.15 1.17.45 1.57.6 1.3 1.14 3.28.62 4.88.73 7.14-.61 14.3-.33 21.45-.34 2.72-.04 5.67.39 8.1-1.16.15-4.56.15-9.13.17-13.7-1.14-.72-2.28-1.63-3.71-1.45-9.66.2-19.33.11-29 .05-1.67-.25-3.66.78-3.51 2.66m-570.88 28.07c-.22 4.11.02 8.24-.12 12.36 2.4 1.69 5.42 1.14 8.17 1.27 6.87-.05 13.75-.07 20.63-.02 2.27-.15 4.7.31 6.86-.54 1.21-1.84 1.06-4.06.93-6.15-.2-2.71 1.05-5.94-.82-8.25-1.87-1.69-4.62-.85-6.9-1.07-6.91-.03-13.82-.03-20.73-.02-2-.04-3.99-.08-5.98-.17-.68.82-2.07 1.35-2.04 2.59m571.78-.44c-1.99 1.35-.78 4.34-1.13 6.37.43 2.75-1.01 6.35 1.25 8.47 2.65.54 5.4.2 8.09.38.01-5.16-.06-10.33.08-15.49-2.76.05-5.63-.49-8.29.27m26-.27c-.06 5.15.04 10.3-.15 15.45 2.58-.06 5.17.09 7.76-.15 1.76-.2 1.74-2.27 1.76-3.6-.06-3.52.25-7.07-.22-10.55-2.23-2.4-6.22-.79-9.15-1.15m-597.93 29.86c.15 3.9-.09 7.81.14 11.7-.02 1.22 1.38 1.71 2.07 2.52 2.38-.1 4.76-.1 7.14-.1-.07-5.28-.08-10.56.06-15.84-3.16.35-7.05-1.06-9.41 1.72m570.97.08c-.36 4.36-.11 8.75.1 13.11 2.92.95 5.99.95 9.04.91.25-5.33.12-10.67.09-16-3.01.65-7.55-1.4-9.23 1.98m26.99-2.01c.16 5.19.01 10.37.05 15.56 3.01-.02 6.03-.04 9.03-.39.33-4.38.39-8.79.12-13.17-1.68-3.39-6.21-1.43-9.2-2m-570.81.27c-.04 5.22-.06 10.44 0 15.67 3.15-.25 7.47 1.13 9.65-1.87-.19-4.5 1.5-9.74-1.18-13.72-2.82-.04-5.65-.07-8.47-.08m184.21 3.1c.09 10.02-.29 20.05.18 30.06 4.28.09 8.56.09 12.85-.02.1-10.02-.05-20.04-.06-30.06-4.33-.15-8.65-.18-12.97.02m24.37.09c.11 9.95-.08 19.91.12 29.87 4.3.17 8.61.17 12.92.1.24-10.03-.08-20.07-.02-30.1-4.34-.08-8.69-.2-13.02.13m48.89-.11c.03 10 .01 20 .14 30.01 4.29.13 8.57.12 12.86.09.39-10.03-.06-20.07.08-30.11-4.36-.11-8.72-.15-13.08.01m48.76-.01c.14 10.02-.18 20.05.25 30.06 4.25.07 8.49.09 12.74.06.48-10.05-.23-20.13.04-30.19-4.34-.11-8.69-.12-13.03.07m24.44 3.31c.1 8.95-.19 17.91.01 26.87 4.29.02 8.58-.02 12.88-.07.15-10.04-.01-20.09 0-30.14-3.78-.04-7.55-.19-11.32-.04-2.21-.56-1.36 2.22-1.57 3.38m86.61-3.31c.05 8.79-.05 17.59-.02 26.38-.12 1.73.94 3.99 3.02 3.69 7.33.17 14.7.17 22.04-.03 2.01.21 2.99-1.99 2.78-3.69-.2-8.82.15-17.64-.18-26.45-9.21-.06-18.43-.08-27.64.1M160.22 434.3c-6.13 1.31-10.37 7.57-9.87 13.75-.01 163.65-.03 327.3-.05 490.96-.24 4.64 1.75 9.33 5.62 12.03 4.01 3.1 9.32 2.61 14.07 2.63 197 .02 393.99-.08 590.99-.04 4.71.29 9.89-.7 13.12-4.45 4.21-4.3 3-10.72 3.12-16.16-.04-159.31-.02-318.63-.03-477.95-.21-5.5 1.04-11.82-2.78-16.41-2.82-3.91-7.81-5.23-12.41-4.86-198.33.02-396.65-.01-594.98.03-2.27.01-4.57-.01-6.8.47m18.54 537.88c-.06 3.38 0 6.78.19 10.18-8.61-.58-17.05 5.98-18.07 14.65-.62 8.61-.03 17.27-.35 25.9-4.52-.21-9.06-.41-13.57.07-3.66.63-6.08 4.4-5.94 8-.07 10.98.01 21.97-.05 32.96-.27 3.6 1.57 7.63 5.14 8.9 4.79.58 9.64.01 14.45.16.22 5.65 0 11.32.02 16.98.04 4.02-.08 8.25 1.81 11.93 2.78 6.25 9.78 9.85 16.47 9.62-.25 3.16-.3 6.33-.18 9.51 29.97-.08 59.94-.03 89.92-.01.34-3.16.28-6.34-.26-9.46 3.68-.05 7.5-.46 10.68-2.46 3.96-2.15 6.28-6.23 7.87-10.28 6.7.32 13.43.41 20.14.18 2.56.03 3.96-2.73 3.94-4.97.1-4.06.13-8.13-.03-12.18-.01-2.7-2.09-5.43-5-5.12-6.17-.14-12.35-.26-18.51.11-.07-2.63-.05-5.26 0-7.88 5.54-.03 11.09.19 16.62-.05 3.98-.24 7.13-3.96 6.94-7.9.01-8.36.07-16.72-.03-25.07 0-4.16-3.72-8.03-7.92-7.92-5.21-.15-10.42-.04-15.62.07-.06-2.65-.08-5.29.01-7.91 6.48.49 13.02.45 19.5.08 2.71.14 4.12-2.79 4.05-5.13.09-4.08.11-8.16-.03-12.22-.01-2.59-2.28-5.21-4.98-4.96-6.24-.11-12.49 0-18.73.08-.79-4.73-2.76-9.6-6.86-12.38-3.43-2.66-7.84-3.42-12.07-3.34.36-3.38.32-6.77.09-10.15-29.88-.23-59.77-.12-89.64.01m263.04 3.52c-.01 9.52-.05 19.03.12 28.54-4.13.02-8.25.01-12.37.01.11-9.58.13-19.15.01-28.72h-7.08c-.38 9.59-.19 19.19-.19 28.78-4 0-8-.04-12 .04.09-9.57-.04-19.14-.15-28.71-2.44-.03-4.87-.04-7.31-.02-.25 9.6-.16 19.2.03 28.8-3.98-.02-7.98-.21-11.96.07-3.72.18-6.6 3.87-6.27 7.52.03 25.32.02 50.64-.01 75.96-.46 4.05 3.25 7.93 7.31 7.68 3.64.09 7.27 0 10.91.04.1 8.84-.21 17.69.04 26.53 2.02 1.34 5.08.29 7.49.59.14-9.03-.04-18.06-.04-27.08 4.01.02 8.03.03 12.05.01-.05 9.01-.09 18.01.02 27.02 2.43.02 4.87.03 7.32.04.09-9.03.21-18.05.1-27.07 3.97.02 7.93 0 11.9-.05-.08 9.01-.09 18.01.02 27.02 2.57.01 5.14.04 7.72.11.07-9.07.05-18.14-.14-27.2 4.09-.01 8.18-.06 12.27-.11-.21 9.01-.07 18.02-.08 27.02 2.44.05 4.89.07 7.34.07.53-9.01.19-18.05-.02-27.07 4.07.06 8.13.03 12.2.02-.26 9.01-.34 18.04.13 27.05 2.39-.05 4.77-.09 7.16-.16.07-8.98.18-17.96-.08-26.93 4.05-.03 8.09-.05 12.14-.1.12 9.01-.07 18.04.19 27.05 2.43-.02 4.87-.03 7.32-.08-.01-9 .06-18-.05-26.99 4.11.01 8.22.01 12.33-.04-.42 8.93-.32 17.88-.14 26.81 2.41.07 4.83.06 7.26.08.04-8.98.11-17.95-.03-26.92 4.1.01 8.19-.02 12.29-.05-.23 9.02-.19 18.04-.03 27.06 2.47-.05 4.95-.08 7.43-.12.24-8.98.27-17.98.01-26.95 4.04-.03 8.09-.07 12.15-.05-.43 9-.33 18.03-.01 27.04 2.41 0 4.82-.01 7.25-.01.06-9.01.13-18.03-.02-27.04 4.02-.03 8.04-.06 12.07-.01-.09 7.59.11 15.18.02 22.77.22 1.29-.42 3.05.55 4.11 2.26.23 4.55.1 6.84.08.13-9 .07-18.01-.04-27 4.06-.08 8.12.01 12.18-.19.04 8.68-.4 17.39.07 26.07 1.32 2.26 5.13.68 7.43.79.16-8.97-.1-17.94.03-26.91 3.95.02 7.9.02 11.85-.04.07 8.96.05 17.92.11 26.88l.21-.01c2.34.02 4.69-.03 7.05-.04-.05-8.93.15-17.86-.01-26.79 4.16-.01 8.33-.02 12.5-.08-.58 8.97.14 17.96-.02 26.94 2.39.02 4.78.03 7.19.06.14-9.02.11-18.03.06-27.04 4.05 0 8.1-.04 12.15-.07-.13 9.04-.15 18.1.06 27.15 2.44-.05 4.88-.08 7.33-.14.06-1.89.09-3.78-.06-5.64-.25-7.12-.08-14.24-.27-21.35 4.09-.04 8.18-.04 12.27-.09-.05 7.44.01 14.88-.08 22.32.16 1.5-.34 3.27.51 4.64 2.34.23 4.7.14 7.07.2.3-9.07.06-18.14-.01-27.21 4.07.02 8.13.01 12.21.01-.13 8.99-.14 17.99.09 26.98 2.47.01 4.94 0 7.41-.04 0-8.99.21-17.99.01-26.98 3.96-.04 7.94-.03 11.91-.08-.43 8.97-.11 17.96-.14 26.95 2.39.06 4.79.11 7.2.21.54-9.07.12-18.18.19-27.27 6.22-.11 12.44.05 18.66-.14 3.8.06 6.83-3.55 6.63-7.24.07-25.33-.02-50.67.07-76.01.31-3.5-1.76-7.55-5.58-7.85-6.57-.52-13.18-.08-19.76-.19-.08-9.42.06-18.83-.04-28.25-2.21.51-5.5-.97-6.57 1.83l-.32-2.81c-1.24 9.73-.23 19.64-.51 29.45-3.93-.05-7.85-.06-11.77-.06.22-9.48-.28-18.95.05-28.41-2.53-.05-5.06-.06-7.57-.04-.07 9.5-.23 19.01.12 28.51-4.15.04-8.3.02-12.44-.03 0-9.19-.08-18.38-.02-27.56l-1.13-.69c-1.94-.15-3.87-.13-5.79-.14-.39 6.46.01 12.94-.24 19.41-.33 3.03-.18 6.08.09 9.13-4.17-.03-8.35-.01-12.51-.04.01-9.53.26-19.07-.03-28.6-2.35.03-4.69.06-7.03.1-.14 9.52-.14 19.04.04 28.56-4.09-.06-8.19-.04-12.27 0 .03-9.51-.04-19.02-.09-28.53-2.42-.01-4.84 0-7.25.03-.18 9.51-.24 19.03-.05 28.55-4.11.01-8.21.09-12.32.06.02-9.58.24-19.16-.14-28.72-2.33.22-5.01-.5-7.11.49-.36 9.42.01 18.87 0 28.3-4.04.03-8.08-.01-12.12.01.09-9.55.22-19.1.1-28.65-2.52.04-5.04.14-7.55.29-.05 9.46-.23 18.92-.05 28.38-4.03.02-8.05-.04-12.08.05.12-9.47.01-18.95-.07-28.42-2.41-.05-4.82-.07-7.21-.04-.17 9.52-.16 19.04.07 28.56-3.99-.03-7.98-.06-11.97-.02-.14-9.61.11-19.21-.16-28.81-2.51.08-5 .22-7.49.39.09 9.47-.21 18.95.1 28.43-3.95.03-7.9 0-11.85.04-.14-9.5.27-19-.29-28.49-2.5-.03-4.98-.05-7.47-.03-.01 9.53-.1 19.05.06 28.58-4 .02-7.99.02-11.98.03.11-9.54.18-19.09-.05-28.62-2.47.02-4.94.04-7.4.09-.11 9.52-.26 19.05.07 28.57-4.08.09-8.16-.04-12.23.03.16-9.51-.07-19.02-.01-28.52-2.49-.03-4.97-.05-7.45-.04-.23 9.58-.07 19.16-.09 28.74-3.99-.13-7.99-.24-11.97 0-.08-8.02-.01-16.03.02-24.04-.2-1.5.37-3.3-.48-4.58-2.29-.23-4.58-.14-6.87-.13-.13 9.62-.28 19.25.16 28.87-4.07-.01-8.14-.35-12.21-.16-.02-9.54-.1-19.07-.05-28.6-2.48 0-4.96 0-7.44.02-.07 9.58-.12 19.17-.07 28.77-4.02-.02-8.04-.01-12.06.03-.14-9.51-.01-19.02-.09-28.52-2.47-.02-4.95-.01-7.41.01z"/><path d="M671.34 511.39c4.47-1.68 9.35 3.06 7.79 7.57-1.09 4.37-7.43 5.36-10.21 2.09-2.89-2.93-1.26-8.25 2.42-9.66zM461.28 515.38c3.45-.97 6.93-1.85 10.37-2.87-.12 19.4.18 38.8.12 58.21-3.47.04-6.95.09-10.42-.14.05-1.57.09-3.12.14-4.68-3.57 2.28-7.3 4.55-11.53 5.33-9.56 1.81-20.3-2.37-25.41-10.8-5.21-8.41-4.83-19.94 1.09-27.89 5.71-7.73 16.19-11.49 25.53-9.3 3.72.74 7.01 2.74 10.18 4.75-.09-4.21-.16-8.41-.07-12.61m-19.9 18.14c-5.87 2.07-10.17 8.19-9.67 14.46.33 7.33 6.85 13.92 14.3 13.77 9.83.64 17.24-11.21 13.26-19.96-2.49-6.97-10.94-11.04-17.89-8.27zM649.55 515.92c3.59-1.11 7.2-2.15 10.79-3.27.18 19.38.13 38.76.15 58.14-3.62.01-7.25.02-10.86-.08.02-1.66.06-3.32.11-4.97-5 3.94-11.3 6.44-17.74 5.81-10.4-.34-20-8.27-22.07-18.51-2.94-11.61 3.66-24.92 15.16-28.81 8.21-3.38 17.56-1.28 24.58 3.78-.02-4.03-.19-8.06-.12-12.09m-20.16 17.72c-5.49 1.97-9.41 7.59-9.25 13.44-.34 8.25 7.59 15.87 15.9 14.62 9.92-.61 15.96-13.19 10.94-21.56-3.09-6.3-11.15-9.07-17.59-6.5zM539.37 519c3.44-1.17 6.92-2.23 10.42-3.23.01 4.21.03 8.42.01 12.63 2.27-.04 4.55-.09 6.83-.16l.12 10.18c-2.33-.01-4.66-.04-6.98-.07.14 5.9-.16 11.82.18 17.72.13 3.64 3.7 5.54 6.78 6.46.02 3.09.06 6.18.11 9.29-4.61-.45-9.58-1.25-13.03-4.62-3.28-2.78-4.34-7.2-4.32-11.32-.09-12.3-.05-24.59-.12-36.88zM220.51 526.47c9.17-6.12 21.87-4.56 30.59 1.68-1.47 2.37-3 4.7-4.47 7.07-3.39-1.65-6.82-3.51-10.67-3.68-3.52-.31-7.93.14-9.9 3.5-1.45 2.36.77 5.08 3.05 5.79 6.33 2.31 13.65 1.87 19.38 5.8 4.87 3.38 5.71 10.39 3.63 15.6-1.99 5.01-7.34 7.53-12.29 8.65-9.19 1.82-19.4-.11-26.65-6.26 1.8-2.37 3.62-4.72 5.54-6.99 4.79 3.96 11.19 6.4 17.44 5.16 2.57-.42 5.48-1.93 5.92-4.76.44-2.2-1.06-4.34-3.14-4.99-6.47-2.25-13.92-2-19.71-6.06-6.49-5.02-5.37-16.1 1.28-20.51zM260.12 537.07c3.96-9.19 13.96-15.06 23.89-14.47 9.97.38 19.34 7.69 21.91 17.37 1.08 3.67 1.35 7.53 1.24 11.36-12.45.17-24.9-.08-37.35.06.91 3.26 2.47 6.52 5.38 8.45 5.87 4.04 14.48 2.74 19.12-2.6 2.97 1.79 5.76 3.85 8.67 5.75-9.39 10.9-28.23 11.6-38.17 1.13-6.88-6.96-8.45-18.17-4.69-27.05m9.28 5.5c8.78-.13 17.57.05 26.36-.01-1.37-5-5.32-9.52-10.65-10.19-6.92-1.42-14.1 3.36-15.71 10.2zM315.64 534.31c6.57-10.84 21.86-15.04 32.93-8.71 9.13 4.84 13.56 15.65 12.56 25.66-12.46.23-24.93.02-37.39.1 1.42 7.27 9.12 12.13 16.29 10.7 3.48-.49 6.33-2.65 8.89-4.9 2.5 1.97 5.18 3.72 7.79 5.55.15 1.12-1.08 1.65-1.68 2.39-9.7 8.79-26.16 8.65-35.53-.56-7.99-7.64-9.66-20.83-3.86-30.23m7.9 8.18c8.86.31 17.72-.03 26.58.02-1.89-6.04-7.59-11.14-14.2-10.41-6.01.13-10.54 5.01-12.38 10.39zM367.02 542.91c1.46-9.23 8.77-17.25 17.84-19.51 9.78-2.66 21.08 1.34 26.59 9.95 3.53 5.23 4.07 11.77 3.92 17.92-12.44.19-24.88-.02-37.32.14 1.22 3.81 3.5 7.47 7.17 9.33 5.82 3.08 13.35 1.23 17.68-3.55 2.79 2.06 5.71 3.92 8.59 5.84-9.19 10.53-27.17 11.45-37.38 1.94-5.68-5.65-8.69-14.14-7.09-22.06m10.88-.36c8.77.06 17.55-.16 26.33.06-.96-4.35-3.94-8.2-8.22-9.66-7.37-3.01-16.48 1.81-18.11 9.6zM502.84 525.78c8.91-5.25 20.8-3.73 29 2.24-1.38 2.29-2.65 4.65-4.24 6.82-2.84-.66-5.29-2.52-8.19-3.04-4-.96-9.08-.87-11.88 2.59-1.8 2-.56 5.22 1.81 6.08 6.48 2.76 14.15 2.05 20.12 6.16 7.17 5.18 5.73 17.83-2.02 21.79-10.57 5.57-23.95 3.36-33.4-3.51 1.92-2.38 3.75-4.84 5.47-7.36 5.42 4.18 12.69 7.23 19.51 4.83 3.09-.95 5.76-4.87 3.26-7.76-3.24-3.26-8.31-2.84-12.46-3.92-4.69-.97-9.8-2.85-12.24-7.28-3.21-6.07-.7-14.27 5.26-17.64zM702.5 523.66c8.25-2.41 17.86-.41 24.14 5.55 8.8 7.82 10.27 22.33 3.53 31.91-7.55 11.67-25.54 13.87-36.2 5.29-7.38-5.55-10.96-15.59-8.82-24.56 1.88-8.64 8.89-15.8 17.35-18.19m1.79 9.84c-6.89 2.35-10.69 10.49-8.66 17.38 1.56 7.25 9.3 12.25 16.56 10.8 8.92-1.46 14.14-12.2 10.6-20.33-2.58-7.2-11.56-10.6-18.5-7.85zM561.86 524.33c3.51-.07 7.02-.09 10.54-.15.27 8.62-.01 17.23.1 25.85-.02 3.3.98 6.74 3.42 9.09 2.64 2.83 7.01 3.26 10.55 2.14 4.5-1.7 6.83-6.75 6.89-11.31.09-8.59-.03-17.18-.05-25.76 3.42-.02 6.84-.04 10.26-.07-.06 8.95 0 17.9-.01 26.84-.02 5.43-1.66 11.13-5.74 14.92-8.28 7.73-23.1 7.7-30.79-.89-2.91-3.3-4.43-7.67-4.82-12-.37-9.55-.3-19.11-.35-28.66zM668.17 528.49c3.49-.02 6.99-.02 10.48-.02.04 14.08-.05 28.16-.01 42.24-3.49.05-6.98.05-10.46.05.04-14.09.03-28.18-.01-42.27zM639.32 620.18c1.81-.01 3.63-.01 5.47 0 .04 14.32.04 28.65.09 42.97-1.86-.03-3.71-.05-5.56-.08.04-14.3-.01-28.6 0-42.89zM240.21 622.41c2.3 0 4.6.01 6.9.07-4.31 6.75-8.96 13.31-12.97 20.25 4.65 6.68 8.74 13.72 13.41 20.38-2.28 0-4.55.01-6.83.05-3.75-5.08-6.64-10.73-10.22-15.93-3.13 5.18-6.04 10.53-9.55 15.47-2.12.86-4.57.24-6.81.46 4.18-6.93 8.44-13.81 13.21-20.34-4.2-6.86-8.7-13.53-13.02-20.32 2.3-.06 4.61-.06 6.92-.06 3.18 5.11 6.18 10.34 9.28 15.52 3.27-5.16 6.53-10.32 9.68-15.55zM279.65 622.41c2 .36 5.36-1.16 5.93 1.64 5.23 12.94 9.72 26.18 15.12 39.06-1.96-.01-3.91-.01-5.87 0-1.37-3.53-2.71-7.06-3.95-10.63-5.6.01-11.21.05-16.82-.02-1.28 3.44-2.56 6.9-3.69 10.4-2.02.13-4.04.23-6.05.31 4.95-13.65 10.3-27.15 15.33-40.76m-4.22 25.35c4.66.11 9.31.04 13.97.14-2.48-6.2-4.95-12.41-7.16-18.71-2.13 6.24-4.38 12.44-6.81 18.57zM314.43 622.63c5.27-1.75 11.65-.75 15.62 3.3 3.63 3.3 5.31 8.21 5.52 13.02.28 6.13.25 12.76-3.14 18.14-5.09 8.02-18.12 8.95-24.25 1.67-4.94-5.61-5.25-13.63-4.58-20.71.57-6.51 4.25-13.4 10.83-15.42m.96 4.98c-3.67 1.52-5.63 5.47-6.08 9.25-.67 5.46-.81 11.32 1.46 16.45 2.25 5.02 9.05 7.42 13.8 4.43 4.61-2.84 5.46-8.77 5.6-13.71-.09-4.74-.18-9.98-3.21-13.9-2.65-3.46-7.71-4.34-11.57-2.52zM359.08 622.41c8.4 0 16.8-.02 25.2-.05.02 1.48.04 2.98.07 4.49-6.6.6-13.21-.33-19.81.26-.04 4.22-.05 8.45-.01 12.67 5.77.02 11.54.02 17.31.02-.03 1.51-.04 3.04-.06 4.57-5.73.01-11.45.05-17.17.04-.03 4.73-.01 9.46-.06 14.19 6.72-.02 13.43.08 20.14.03-.05 1.5-.11 3.01-.16 4.52-8.46-.14-16.91.1-25.36-.06-.55-13.54-.17-27.13-.09-40.68zM393.66 624.65c6.5-4.52 17.04-3.91 21.87 2.8 1.5 1.95 1.93 4.4 2.31 6.77-1.83.01-3.65.04-5.47.06-.54-2.56-1.4-5.39-3.93-6.64-3.61-1.74-8.56-1.66-11.6 1.18-2.48 2.29-1.97 6.81.94 8.52 5.34 3.25 12.28 3.38 16.96 7.85 4.57 4.48 3.89 13.41-2.1 16.35-6.12 3.06-14.32 3.01-19.88-1.26-2.89-2.22-4.27-5.81-4.42-9.37 1.84-.04 3.69-.07 5.54-.08.01 8 10.68 10.65 16.18 6.28 2.7-2.27 2.71-6.92-.26-8.98-5.19-3.65-12.35-3.33-17.13-7.76-4.52-4.1-4.12-12.25.99-15.72zM424.11 622.4c5.66.09 11.33-.19 16.98.08 3.95.17 8 2 10.06 5.51 3.06 5.23 2.72 13.13-2.6 16.82-5.5 3.81-12.57 2.31-18.83 2.53.01 5.23.03 10.46-.01 15.7-1.85.05-3.69.09-5.53.15-.08-13.6.01-27.2-.07-40.79m5.58 4.77c.02 5.19.05 10.38.07 15.57 4.47-.03 9.11.72 13.46-.56 6.18-2.29 5.57-12.82-.69-14.57-4.22-.89-8.57-.41-12.84-.44zM461.23 625.18c4.53-4.03 11.85-4.43 16.97-1.31 6.16 4.35 5.99 15.07-1.19 18.38 7.79 2.71 8.62 14.45 2.02 18.87-5.57 3.71-13.93 3.46-18.89-1.23-2.12-1.96-2.79-4.88-2.97-7.65 1.76-.05 3.53-.08 5.31-.11.61 1.72.93 3.72 2.33 5.05 2.52 2.48 6.71 2.7 9.77 1.09 4.43-2.52 4.61-10.17-.01-12.59-2.71-1.31-5.81-1-8.72-1.29-.03-1.39-.06-2.79-.08-4.17 3.19-.18 6.87.24 9.41-2.11 3.96-3.33 2.1-11.18-3.33-11.64-4.35-1-8.72 2.33-8.71 6.84l-5.76-.18c.69-2.88 1.54-5.92 3.85-7.95zM494.94 623.69c4.44-2.41 10.12-2.49 14.65-.23 4.18 2.28 5.78 7.63 4.82 12.1-.88 4.36-3.91 7.81-6.85 10.98-3.76 3.95-7.47 7.96-11.08 12.06 6.7.16 13.41.14 20.12.09.01 1.44 0 2.89.01 4.35-8.98.17-17.97.06-26.95.07.24-1.55-.13-3.34.88-4.65 5.01-6.21 10.92-11.66 15.83-17.96 2.23-2.79 3.77-6.68 2.21-10.15-1.98-5.18-10.44-5.25-12.81-.38-.8 1.42-.95 3.09-1.29 4.67a486 486 0 0 1-5.44-.18c.19-4.22 2.06-8.65 5.9-10.77zM525.7 624.72c5.64-3.85 13.86-4.02 19.44.02 2.92 2.16 4.39 5.69 4.8 9.22-1.76.1-3.52.18-5.26.26-.61-3.15-2.34-6.46-5.71-7.24-4.01-1.07-9.92-.48-11.44 4.08-1.13 3.53 1.81 6.66 5 7.63 5.67 2.21 12.67 3.24 16.17 8.83 2.3 4.55 1.3 11.1-3.43 13.74-5.93 3.48-13.97 3.15-19.7-.57-3.29-2.17-5.18-5.95-5.23-9.84 1.86 0 3.73.03 5.61.12.18 8.4 12.28 10.88 17.21 5.09 2.1-2.4 1.55-6.43-1.24-8.03-5.55-3.49-12.9-3.57-17.75-8.28-3.82-4.28-3.32-11.74 1.53-15.03zM554.51 633.19c.1-8.15 9.29-13.1 16.6-10.97 6.18.97 10.01 7.98 8.18 13.82-.54 2.92-3.05 4.69-5.36 6.22 7.09 2.55 8.62 12.94 3.24 17.87-7.1 6.9-23.3 3.6-22.98-7.76 1.74-.06 3.48-.1 5.22-.11.35 5.16 6 8.33 10.72 6.64 5.58-1.33 6.47-9.93 1.81-12.87-2.68-1.83-6.08-1.29-9.12-1.53-.04-1.44-.07-2.88-.1-4.3 2.96-.09 6.26.22 8.83-1.55 4.33-2.84 3.34-10.83-1.92-12.02-4.49-1.54-9.6 1.79-9.62 6.64-1.83-.03-3.67-.06-5.5-.08zM604.28 622.4c7.02.37 14.27-.9 21.14.95 9.01 2.5 10.88 16.31 3.4 21.54-5.57 3.83-12.65 2.04-18.95 2.44 0 5.28.04 10.55-.06 15.83-1.86-.04-3.71-.07-5.55-.09-.03-13.56-.03-27.12.02-40.67m5.59 20.3c4.22.08 8.48.32 12.68-.26 7.17-1.25 6.9-13.5-.02-14.95-4.17-.79-8.45-.44-12.66-.34-.06 5.18.04 10.36 0 15.55zM253.09 622.46l5.53-.09c.04 13.61 0 27.22.02 40.83-1.85-.04-3.68-.05-5.51-.07-.09-13.56.09-27.11-.04-40.67zM652.57 632.77c1.74-.04 3.49-.09 5.25-.12.27 7.39-.38 14.83.42 22.19 1.16 6.94 13.23 4.85 12.99-1.8.05-6.79-.05-13.57-.03-20.36 1.77-.01 3.55-.02 5.35 0 .22 10.14-.2 20.28.14 30.41-1.75 0-3.49.07-5.22-.05.01-.69.04-2.05.05-2.74-3.65 3.55-9.43 4.29-14.01 2.32-3.28-1.46-4.82-5.23-4.89-8.62-.11-7.08-.07-14.16-.05-21.23zM689.1 633.26c4.7-1.77 10.69-1.53 14.51 2.04 1.85 1.64 2.38 4.13 2.92 6.44-1.86-.01-3.72-.03-5.56-.05-.94-6.39-10.69-6.65-12.54-.68 1.95 4.42 7.32 4.21 11.22 5.64 3.38.95 7.04 3.4 7.05 7.31.47 4.14-2.75 7.78-6.57 8.87-4.63 1.3-10.16 1.14-14.08-1.92-2.24-1.75-3.3-4.46-3.84-7.15 1.78-.1 3.59-.17 5.4-.23.43 5.93 8.91 7.55 12.68 3.79 1.55-1.72.95-4.55-1.04-5.62-4.48-2.54-10.4-1.98-14.22-5.76-3.64-4.14-.72-10.91 4.07-12.68zM339.62 643.62c4.6-.05 9.2-.09 13.81-.02l.06 4.53c-4.62-.02-9.24-.03-13.86-.05-.01-1.49-.01-2.98-.01-4.46zM584.82 643.59c4.77-.04 9.54-.04 14.31.02-.12 1.48-.23 2.97-.33 4.47-4.67.05-9.34.04-14.01.01 0-1.51.01-3.01.03-4.5zM466.32 1041.51c14.84-.67 29.76.13 44.62-.5 2.49.01 5.54-.33 7.4 1.7 2.23 2.85 2.22 7.02.58 10.16-1.4 2.42-4.51 2.38-6.95 2.48-14.32-.07-28.64.26-42.96.08-2.63.1-5.76-1.05-6.43-3.88-.78-3.59-.78-9.08 3.74-10.04zM608.32 1041.48c1.72-.99 3.78-.77 5.69-.85 14.63.12 29.27-.22 43.89-.06 5.5-.09 6.48 7.17 4.7 11.12-1.23 3.01-4.84 3.03-7.57 3.01-14.7-.08-29.4.19-44.09 0-6.54.09-7.11-10.22-2.62-13.22z"/></g><g fill="#3e3e3d"><path d="M772.15 103.57c.51 4.18.61 8.38.59 12.58 3.48.45 9.1-1.13 10.44 3.34.78 7.21-.02 14.49.5 21.72-1.36-1.89-2.78-3.93-4.97-4.91-3.42-1.58-7.37-2.17-10.28-4.7-2.7-2.06-4.93-5.15-8.46-5.76-4.95-.79-9.98-.16-14.95-.26-4.32.15-8.66-.45-12.95.15-3.58.59-5.97 3.51-8.57 5.75-3.18 3.08-8.05 2.91-11.57 5.42-2.15 1.56-3.34 4.01-4.46 6.34.26-7.93-.4-15.9.32-23.81.93-3.82 5.86-2.87 8.79-3.33.24 0 .73-.02.97-.02 5.94.03 11.89-.09 17.84.16 4.91.26 9.83.24 14.76.13.2-2.53.46-5.06.57-7.6.04 2.45.17 4.89.29 7.34 7-.05 14.01.06 21.02 0-.07-4.18-.1-8.36.12-12.54zM165.54 115.48c5.7.32 11.41.26 17.12.04 6.37-.2 12.74-.18 19.12-.15 3.12.09 6.3-.23 9.37.46 2.71 1.31 2.2 4.7 2.3 7.18-.16 5.85.43 11.76-.63 17.56-2.28-3.26-5.88-5.04-9.65-5.96-5.17-1.2-7.71-6.56-12.51-8.42-3.8-.89-7.75-.4-11.61-.52-5.67.11-11.37-.49-17.01.25-4.07.54-6.7 3.96-9.67 6.42-3.33 2.82-8.15 2.72-11.54 5.43-2.31 1.87-3.36 4.76-4.28 7.48.05-8.08-.05-16.16.07-24.23-.05-1.96.53-4.19 2.51-5.03 2.61-.51 5.3-.13 7.94-.38 6.15-.26 12.31-.34 18.47-.13zM171.42 164.51c7.26-2.08 15.39 1.83 18.85 8.41 3.09 5.58 2.68 12.89-1.08 18.06-3.16 4.55-8.69 7.33-14.23 7.12-8.5-.08-16.32-7.59-16.24-16.19-.53-7.84 5.04-15.57 12.7-17.4zM742.38 164.5c8.6-2.31 17.88 3.78 19.99 12.26 2.91 9.11-3.86 19.59-13.22 21.02-8.83 1.72-18.45-4.88-19.58-13.89-1.45-8.46 4.26-17.64 12.81-19.39zM136.57 238.03c-.05-8.14-.1-16.27.02-24.4 1.14 2.34 2.23 4.8 4.12 6.66 3.61 3.23 9.13 2.95 12.62 6.36 2.95 2.81 6.28 5.84 10.66 5.69 7.66.03 15.33.07 23 .08 4.42.19 7.58-3.18 10.67-5.81 3.4-3.14 8.52-2.96 12.08-5.84 1.65-1.33 2.75-3.19 3.75-5.02-.42 8.77.56 17.64-.48 26.34-2.48 3.47-7.57 1.87-11.21 2.39-6.37.05-12.74.24-19.1.04-5.73-.08-11.47-.49-17.2-.23-6.26.57-12.55.13-18.82.22-2.53-.05-5.11.13-7.57-.52-2.34-.98-2.5-3.79-2.54-5.96zM707.44 214.83c1.2 2.23 2.43 4.6 4.57 6.08 3.33 2.34 7.77 2.34 10.96 4.94 3.11 2.37 5.87 5.82 10.03 6.26 4.98.47 10-.01 15.01.15 4.29-.06 8.67.49 12.9-.45 3.97-1.27 6.02-5.42 9.74-7.14 2.82-1.29 5.98-1.77 8.66-3.39 2.35-1.4 3.58-3.96 4.74-6.31-1.5 7.44.03 15.08-.86 22.57-1.25 4.84-7.47 2.66-11.09 3.54-7.04.31-14.1.21-21.14.16-.06 5.43.01 10.86-.19 16.29-.69-5.57-.34-11.2-.53-16.8-4.84-.07-9.67-.1-14.5-.08.03 5.5.35 11.05-.6 16.5-.11-5.31-.34-10.62-.18-15.94-6.12.1-12.24.16-18.35-.14-3.1-.42-7.88.44-8.8-3.58-.86-7.51.27-15.12-.37-22.66zM549.97 321.15c19.36-.03 38.71-.34 58.07-.6 3.69.01 7.83.07 10.74 2.71 3.22 2.55 4.33 6.79 4.29 10.74.17 12.04.18 24.08.63 36.12.16 2.82.74 6.09 3.27 7.78 4.37 3.06 10 2.21 15.03 2.32 11.46-.31 23.01.14 34.41-.62 2.32-7.29 1.64-15.04 1.5-22.56-.06-3.03.18-6.45 2.57-8.63 3.82-3.81 9.63-3.46 14.6-3.75.1-7.31-.14-14.63.11-21.95.31 4.08.55 8.17.45 12.26-.23 14.3.45 28.62-.14 42.91.2 3.15-3.12 4.24-5.42 5.34-7.73.1-15.45-.13-23.17.15-3.5 5.53-10.85 3.77-16.34 3.65-8.47-1.21-17.06.3-25.53-.93-5.01-.68-10.07-.47-15.11-.54-6.82-.2-13.54 1.96-20.37.9-7.48-1.11-15.04-.79-22.57-.93-1.76-.05-3.51.17-5.12.88-.11 2.92-.14 5.85-.18 8.78 0-2.9-.11-5.8-.2-8.69-3.69.02-7.38.06-11.06.22-4.3.2-8.6.19-12.9.05-3.12-.09-6.25.02-9.37-.18-3.74-.25-7.45-1.46-11.2-.73-5.93 1.14-12.02 1.04-17.97.09-5.71-.94-11.33 1.26-17.06.76-5.74-.03-11.66-2.48-17.24-.27-.27 10.1.39 20.19.19 30.29-1.14-1.69-.75-3.8-.6-5.69.74-5-.37-10.02-.16-15.04-.11-2.89.52-5.91-.4-8.71-3.82-.91-7.86-.16-11.72-1.08-6.67-1.62-13.29 1.13-19.99.44-5-.48-9.99-1.34-15.02-.89-.22.2-.64.62-.85.83l-.25.64c-4.94-.9-10-.28-14.92-1.31-5.02-.94-9.94 1.09-14.96.87-5.36.17-10.64-1.79-16-.82-4.79.83-9.68.89-14.52.53l-.21-.01c-6.33-1.51-12.84-.5-19.26-.83-5.91-.33-11.71 1.83-17.61.77-6.41-1.1-12.92-.52-19.38-.77-3.08-.04-6.29-.4-9.21.79-.07.67-.19 2.01-.26 2.68-.04-.63-.13-1.89-.18-2.52-7.1-.22-14.25.55-21.31-.49-4.92-.72-9.9-.36-14.84-.29.13-8.58-.05-17.16-.02-25.74-.07-3.88.73-7.9-.68-11.62l-.04-.16c7.67-1.47 15.53-1.22 23.29-.74 3.97.21 7.76 2.87 8.82 6.79 1.53 5.94.52 12.15 1.23 18.19.64 5.47 5.4 10.62 11.15 10.45 12.02-.03 24.05-.23 36.08-.36 2.6-.13 5.58-.07 7.62-1.96 2.69-2.4 2.65-6.3 2.77-9.61.01-11.34.33-22.68-.17-34.01-.13-3.97.32-8.53 3.5-11.33 3.57-3.25 8.73-2.89 13.22-2.89 19.35-.03 38.71-.27 58.05-.62 4.4-.4 8.71 2.8 9.43 7.18.67 4.2.7 8.8-1.24 12.68-1.56 3.05-4.91 4.59-8.14 5.13-10.69 1.86-21.54 2.75-32.2 4.78-3.26.32-5.09 3.45-5.19 6.48-.63 7.9-.21 15.85-.41 23.78 69.84-.27 139.69-1.18 209.54-1.58-.7-6.9-1.08-13.82-1.39-20.74-.28-3.99-1.86-9.08-6.5-9.64-11.61-1.63-23.32-2.61-34.88-4.57-3.98-.6-7.01-3.97-7.7-7.86-.69-4.17-1.18-8.85.81-12.74 1.91-3.45 6.24-3.92 9.79-3.96zM160.22 434.3c2.23-.48 4.53-.46 6.8-.47 198.33-.04 396.65-.01 594.98-.03 4.6-.37 9.59.95 12.41 4.86 3.82 4.59 2.57 10.91 2.78 16.41.01 159.32-.01 318.64.03 477.95-.12 5.44 1.09 11.86-3.12 16.16-3.23 3.75-8.41 4.74-13.12 4.45-197-.04-393.99.06-590.99.04-4.75-.02-10.06.47-14.07-2.63-3.87-2.7-5.86-7.39-5.62-12.03.02-163.66.04-327.31.05-490.96-.5-6.18 3.74-12.44 9.87-13.75m403.02 11.14c-118.75.22-237.49 1.14-356.23 1.36-6.09 0-12.59.01-17.94 3.33-7.77 4.3-12.57 13.05-12.4 21.9-.06 147.99-.03 295.98-.05 443.98-.42 10.33 5.94 20.44 15.41 24.55 4.64 2.3 9.91 2.41 14.98 2.3 73.67-.22 147.35-.59 221.03-.71 100.32-.66 200.65-.61 300.97-1.27 6.05-.17 12.4.75 18.12-1.75 9.56-3.75 16.06-13.84 15.63-24.08-2.3-143.37-5.29-286.73-7.66-430.09-.4-6.31 0-12.64-.65-18.92-1.49-11.78-12.52-21.44-24.41-21.28-55.6.1-111.2.57-166.8.68zM178.76 972.18c29.87-.13 59.76-.24 89.64-.01.23 3.38.27 6.77-.09 10.15-29.78-.01-59.57-.13-89.36.04-.19-3.4-.25-6.8-.19-10.18zM287.24 998.04c6.24-.08 12.49-.19 18.73-.08 2.7-.25 4.97 2.37 4.98 4.96.14 4.06.12 8.14.03 12.22.07 2.34-1.34 5.27-4.05 5.13-6.48.37-13.02.41-19.5-.08.06-7.39.37-14.79-.19-22.15zM582.48 1022.3c2.41-.04 4.83-.06 7.25-.05 4.02-.03 8.03-.04 12.05 0 2.03-.01 4.06-.03 6.1-.08 17.37-.28 34.73-.09 52.12-.09 2.46-.04 4.92-.12 7.4-.16 4.35-.11 8.71-.18 13.06-.19 2.14.07 4.28.12 6.44.13 12.99-.32 25.98-.18 38.98-.36-.33 18.14-.06 36.28-.16 54.42l-1.45.01c-1.36 0-2.71.02-4.05.09-10.77.07-21.54.36-32.3 0-2.83-.06-5.66-.01-8.48.08-3.95.1-7.91.26-11.85.11-2.53-.08-5.05-.08-7.56.02-23.55.19-47.09.47-70.63.39-2.25-.05-4.5-.03-6.73.09-.33.21-.99.63-1.33.84-1.43-.43-2.77-1.18-4.3-.9-9.12.4-18.24.01-27.35.27-1.95-.06-3.89-.05-5.82.02-8.64-.3-17.26.75-25.88-.03-8.78.42-17.57.11-26.35.3-2.13-.1-4.25-.15-6.36-.07-3.93.07-7.85.1-11.78.04-2.53-.04-5.07-.01-7.59.05-4.38.09-8.75.11-13.13 0-1.78-.03-3.56 0-5.34.1-10.35.14-20.71.18-31.07.04-2.8-.07-5.59.01-8.38.24-.75-18.24-.11-36.56-.3-54.82 6.3.13 12.6.08 18.91.23 2.05.02 4.11 0 6.17-.08 11.49-.24 22.97-.14 34.46-.07 1.82.07 3.65.09 5.49.05 3.97-.21 7.96-.11 11.95-.18l.46-.01c6.54-.21 13.08-.03 19.63-.13 2.3.01 4.62.04 6.93.04 9.79-.19 19.57-.04 29.36-.21 8.97.46 17.98-.52 26.96.27 4.81-.34 9.64-.36 14.47-.4m-116.16 19.21c-4.52.96-4.52 6.45-3.74 10.04.67 2.83 3.8 3.98 6.43 3.88 14.32.18 28.64-.15 42.96-.08 2.44-.1 5.55-.06 6.95-2.48 1.64-3.14 1.65-7.31-.58-10.16-1.86-2.03-4.91-1.69-7.4-1.7-14.86.63-29.78-.17-44.62.5m142-.03c-4.49 3-3.92 13.31 2.62 13.22 14.69.19 29.39-.08 44.09 0 2.73.02 6.34 0 7.57-3.01 1.78-3.95.8-11.21-4.7-11.12-14.62-.16-29.26.18-43.89.06-1.91.08-3.97-.14-5.69.85zM141.02 1030.98c-.14-3.6 2.28-7.37 5.94-8 4.51-.48 9.05-.28 13.57-.07-.17 16.69-.24 33.39.03 50.09-4.81-.15-9.66.42-14.45-.16-3.57-1.27-5.41-5.3-5.14-8.9.06-10.99-.02-21.98.05-32.96zM287.42 1028.1c5.2-.11 10.41-.22 15.62-.07 4.2-.11 7.92 3.76 7.92 7.92.1 8.35.04 16.71.03 25.07.19 3.94-2.96 7.66-6.94 7.9-5.53.24-11.08.02-16.62.05.18-13.62.2-27.25-.01-40.87zM287.43 1076.85c6.16-.37 12.34-.25 18.51-.11 2.91-.31 4.99 2.42 5 5.12.16 4.05.13 8.12.03 12.18.02 2.24-1.38 5-3.94 4.97-6.71.23-13.44.14-20.14-.18 1.24-7.25.47-14.66.54-21.98zM178.86 1111.53c29.83.22 59.66.17 89.48.04.54 3.12.6 6.3.26 9.46-29.98-.02-59.95-.07-89.92.01-.12-3.18-.07-6.35.18-9.51z"/></g><g fill="#b99950"><path d="M239.38 108.59c3.58-.73 7.27-.5 10.91-.5.35 30.41.28 60.82.53 91.23-6.29.29-13.08.14-18.4-3.7-6.7-4.04-9.93-11.95-10.13-19.52-.19-13.06.09-26.12-.09-39.17.01-4.53-.32-9.23 1.31-13.55 2.45-7.13 8.5-13 15.87-14.79zM814.1 216.18c13.76-6.88 32.12-3.03 41.23 9.59 11.71.06 23.41-.04 35.11.08.09 1.88.13 3.77.18 5.65-4.06 1.15-8.4 2.54-11.06 6.05-5.6 6.18-5.67 16.71.27 22.69 2.79 2.99 6.62 4.67 10.53 5.65.46 15.69.65 31.38.3 47.1.19 14.15.08 28.3-.12 42.45-3.88.99-7.93 2.31-10.63 5.46-5.69 5.76-6.02 15.83-.92 22.06 2.81 3.64 7.1 5.64 11.44 6.82-.03 1.84-.05 3.68-.08 5.52-11.98-.07-23.96-.14-35.93-.08-2.87 2.98-5.95 5.85-9.69 7.68-13.6 6.84-31.57 3.49-41.57-8.06-7.9-8.81-10.72-21.68-7.46-33.03 4.24-16.15 21.76-27.25 38.19-24.66 8.52 1.13 16.06 5.99 21.65 12.37 11.59.27 23.19.13 34.79.25-.81-26.14.57-52.37-.59-78.46-1.55-.44-3.18-.24-4.73-.26-10.16.42-20.33.02-30.49.27-3.5 3.7-7.59 6.92-12.36 8.8-12.2 5.08-27.04 2.37-36.68-6.67-9.55-8.84-13.32-23.15-9.77-35.62 2.53-9.48 9.74-17.28 18.39-21.65m9.48 10.67c-5.77 1.73-11 5.63-13.76 11.05-3.17 5.96-2.99 13.37-.18 19.43 3.79 7.41 11.93 12.82 20.41 12.18 8.92-.24 16.84-6.98 19.38-15.38 3.01-9.46-1.54-20.59-10.2-25.38-4.68-2.74-10.45-3.21-15.65-1.9m.78 123.74c-9.65 2.09-17.4 11.33-16.87 21.36-.3 10.41 8.35 19.7 18.46 21.18 9.66 1.36 19.89-4.71 22.99-14.04 3.03-7.98.72-17.61-5.61-23.33-4.93-4.79-12.31-6.56-18.97-5.17zM72.21 216.12c9.66-4.8 21.66-4.57 31.08.7 7.12 4 12.92 10.48 15.75 18.18 6.16 15.52-.43 34.85-15.06 43.03-14.11 8.44-33.69 4.46-43.81-8.37-11.65-.05-23.29-.02-34.94-.09.35-.27 1.06-.8 1.41-1.07l-1.55.41.2-4.33c5.15-1.06 10.02-4 12.67-8.65 4.42-7.15 2.24-17.36-4.48-22.3-2.4-1.8-5.33-2.64-8.14-3.53l-.28-4.28c11.93-.48 23.88-.14 35.82-.31-9.63-.07-19.26-.14-28.89.02-1.98-.12-4.23-.07-5.93-1.23 11.71-.03 23.41-.11 35.11.01 3.34-3.14 6.83-6.25 11.04-8.19m9.29 10.56c-7.32 1.94-13.49 7.89-15.3 15.29-1.92 6.93-.2 14.75 4.76 20.01 6.24 7.2 17.65 9.62 25.99 4.72 6.79-3.61 11.46-10.99 11.38-18.74.18-9.51-6.76-18.5-15.83-21.12-3.58-.94-7.39-.92-11-.16zM728.54 275.32c11.42-1.3 22.96-.34 34.44-.62.65 9.01.88 18.17-.21 27.15-11.31-.15-22.63-.2-33.94-.04-.57-8.82-.35-17.66-.29-26.49zM25.26 287.94c7.64-.67 15.33-.18 22.99-.28 7.46 1.15 13.62 7.16 15.85 14.24 1.95 6.38 1.68 13.61-1.57 19.52-3.28 5.98-9.54 10.59-16.51 10.74-6.91.24-13.82.03-20.73.09.3-2-1.17-5.47 1.76-5.71 7.6-1.59 13.21-8.91 13.28-16.59.13-8.34-6.7-15.98-15-16.79-.03-1.74-.05-3.48-.07-5.22zM232.85 319.83c4.53-5.43 11.94-7.11 18.72-7.07.05 9.77.01 19.53.08 29.3 0 2.1.28 4.2.84 6.24l.04.16c-.69 9.16.25 18.36-.51 27.52-.34 3.54.06 7.08.38 10.6 5.76.07 11.51-.02 17.27.04-2.91 4.3-6.32 8.53-11.09 10.85-6.79 3.2-15.29 2.9-21.6-1.28-6.07-3.84-9.82-10.95-9.72-18.12-.05-12.7-.03-25.4.04-38.09-.12-7.03.85-14.6 5.55-20.15zM734.59 325.88c6.65-.26 13.31-.2 19.97-.08.1 5.26.08 10.54-.12 15.81-7.15.01-14.31-.27-21.45.34-1.6-.11-3.58.41-4.88-.73 1.93-.08 3.87-.11 5.81-.2.24-.16.71-.48.95-.63-.32-4.84-.42-9.67-.28-14.51zM67.25 343.24c6.41-4.91 14.78-6.71 22.73-6.24 8.96.47 17.41 5.08 23.25 11.78 6.09 7.55 9.11 17.59 7.91 27.24-.94 8.35-5.16 16.2-11.42 21.77-13.36 12.8-37.65 11.26-48.89-3.63-11.73-.36-23.48-.4-35.22-.04-.06-1.76-.11-3.5-.18-5.25 7.01-1.36 13.23-6.91 14.45-14.08 1.94-9.12-5.01-19.02-14.4-19.9-.09-1.95-.15-3.91-.18-5.86 11.79-.71 23.63.04 35.42-.47 2.4-1.49 4.25-3.67 6.53-5.32m15.17 7.35c-9.82 1.83-17.35 11.39-16.95 21.36-.34 9.71 7.18 18.71 16.57 20.69 9.96 2.62 21.09-3.4 24.8-12.91 3.25-8.36.77-18.62-6.14-24.41-4.74-4.71-11.89-5.94-18.28-4.73zM163.63 353.66c6.91-.01 13.82-.01 20.73.02.13 5.33.16 10.68-.07 16.01-6.88-.05-13.76-.03-20.63.02-.27-5.35-.24-10.71-.03-16.05zM289.82 386.44c9.1.33 18.21-.09 27.31.19-.07 8.81.17 17.62.07 26.43.01 1.39-.39 3.7-2.2 3.66-6.31.34-12.64 0-18.95.14-2.37-.14-6.26.6-6.42-2.83-.52-8.28.09-16.61-.07-24.91.07-.67.19-2.01.26-2.68zM328.16 386.58c9.04-.19 18.08.04 27.12-.1l.21.01c.14 8.86.25 17.72.22 26.59.15 1.7-.69 3.95-2.78 3.62-7.3.2-14.62.22-21.91-.04-2.01.28-3.01-1.88-2.86-3.58-.12-8.83-.07-17.66 0-26.5zM366.82 386.67c4.32-.2 8.64-.17 12.97-.02.01 10.02.16 20.04.06 30.06-4.29.11-8.57.11-12.85.02-.47-10.01-.09-20.04-.18-30.06zM391.19 386.76c4.33-.33 8.68-.21 13.02-.13-.06 10.03.26 20.07.02 30.1-4.31.07-8.62.07-12.92-.1-.2-9.96-.01-19.92-.12-29.87zM416.14 386.58c4.14-.09 8.29-.09 12.45-.06.15 10.07.1 20.15.09 30.23-4.14.02-8.31.37-12.42-.19-.88-1.71-.51-3.73-.64-5.57.15-7.92-.18-15.85.27-23.77l.25-.64zM440.08 386.65c4.36-.16 8.72-.12 13.08-.01-.14 10.04.31 20.08-.08 30.11-4.29.03-8.57.04-12.86-.09-.13-10.01-.11-20.01-.14-30.01zM464.69 386.43c4.26.21 8.52.11 12.79.09.04 10.08.13 20.17-.03 30.26-4.19-.09-8.39.27-12.57-.06.2-10.1-.46-20.19-.19-30.29zM488.84 386.64c4.34-.19 8.69-.18 13.03-.07-.27 10.06.44 20.14-.04 30.19-4.25.03-8.49.01-12.74-.06-.43-10.01-.11-20.04-.25-30.06zM513.28 389.95c.21-1.16-.64-3.94 1.57-3.38 3.77-.15 7.54 0 11.32.04-.01 10.05.15 20.1 0 30.14-4.3.05-8.59.09-12.88.07-.2-8.96.09-17.92-.01-26.87zM537.53 386.76c4.3.14 8.6.15 12.9-.05.1 9.96.09 19.92.15 29.89-4.31.16-8.63.18-12.94.17-.22-10-.1-20.01-.11-30.01zM561.87 386.4c9.08.44 18.17-.08 27.25.25-.56 8.81.29 17.62-.05 26.42.05 1.75-.86 4.1-3.02 3.69-7.04.16-14.1.16-21.13-.03-1.64.16-3.18-1-3.18-2.7-.5-6.27.01-12.57-.05-18.85.04-2.93.07-5.86.18-8.78zM599.89 386.64c9.21-.18 18.43-.16 27.64-.1.33 8.81-.02 17.63.18 26.45.21 1.7-.77 3.9-2.78 3.69-7.34.2-14.71.2-22.04.03-2.08.3-3.14-1.96-3.02-3.69-.03-8.79.07-17.59.02-26.38zM25.22 411.39c6.25-.23 12.5-.21 18.76-.12 9.34-.15 18.11 6.87 20.4 15.86 1.62 6.27 1.14 13.26-2.24 18.89-3.1 5.21-8.46 9.27-14.64 9.74-7.4.55-14.85.51-22.26.1-.04-1.65-.06-3.3-.08-4.95 3.59-.85 7.34-1.98 9.96-4.73 5.04-4.96 6.86-13.24 3.39-19.58-2.37-5.26-7.77-8.32-13.29-9.19-.01-2.01-.01-4.02 0-6.02zM61.47 472.56c6.52-7.08 15.89-11.35 25.54-11.36 10.67-.54 20.88 5.2 27.34 13.45 7.04 9.23 8.77 22.04 4.99 32.95-4.57 13.82-18.7 24.13-33.41 23.2-9.82.14-19.14-4.96-25.04-12.68-11.91-.78-23.84.36-35.74-.22.31-1.97-1.04-5.35 1.92-5.52 9.25-1.87 15.28-12.45 12.48-21.39-1.8-6.4-7.59-11.58-14.3-12.15-.02-2.01-.03-4.03-.02-6.03 12.08-.29 24.17.15 36.24-.25m19.89 2.96c-5.66 1.5-10.64 5.35-13.51 10.46-2.85 5.06-3.15 11.3-1.64 16.84 2.51 8.55 10.98 14.65 19.81 14.85 11.6.85 22.91-9.73 21.91-21.53.91-13.42-13.79-24.86-26.57-20.62zM796.47 483.6c5.3-14.56 21.2-24.57 36.65-22.34 8.71 1.08 16.59 5.89 22.18 12.57 11.68.19 23.36-.03 35.05.06.01 1.92-.01 3.85-.03 5.79-4.04.91-8.15 2.47-10.86 5.75-5.71 6.19-5.34 16.7.53 22.67 2.63 3.15 6.51 4.73 10.42 5.63-.03 1.73-.05 3.48-.07 5.23-11.76.7-23.58-.7-35.32.24-3.01 2.32-5.58 5.23-9.03 6.96-5.98 3.67-13.14 5.1-20.09 4.44-9.52-.63-18.3-5.93-24.23-13.26-7.44-9.35-9.26-22.59-5.2-33.74m26.71-8.42c-9.18 2.79-16.45 12.01-15.69 21.81.38 8.5 6.37 16.26 14.25 19.28 7.83 2.94 17.22.44 22.85-5.67 4.66-4.85 6.67-12.02 5.33-18.6-1.87-11.81-15.18-20.66-26.74-16.82zM25.19 535.72c6.87-.31 13.76-.52 20.62-.16 5.99.38 11.57 3.74 15 8.61 3.79 5.1 4.8 11.79 4.01 17.98-1.01 7.95-6.79 15.34-14.57 17.61-8.38.36-16.77-.02-25.15.08.04-1.67.09-3.32.15-4.97 9.53-1.16 16.95-11.18 14.48-20.61-1.47-7.01-7.7-11.99-14.59-13.13.02-1.81.03-3.61.05-5.41zM794.52 617.09c1.01-18.68 19.7-34.15 38.25-31.5 8.85.85 16.79 5.62 22.65 12.16 11.65.35 23.31-.17 34.95.35.04 1.81.06 3.63.1 5.46-4.31.99-8.61 2.91-11.23 6.61-4.08 5.3-5 13.07-1.44 18.89 2.58 4.66 7.39 7.53 12.42 8.9.02 1.78.04 3.57.05 5.38-11.85.08-23.71-.31-35.56.14-8.15 8.84-20.74 13.26-32.59 10.82-16.9-2.96-29.61-20.19-27.6-37.21m28.75-17.71c-8.6 2.51-15.54 10.58-15.79 19.68-.79 11.74 9.65 23.08 21.51 22.74 9.43.27 18.21-6.9 20.61-15.89 2.72-9.4-2.07-20.39-10.85-24.73-4.69-2.51-10.36-3.5-15.48-1.8zM60.94 597.28c8.54-9.78 22.63-13.85 35.12-10.45 16.42 4.6 28.02 22.35 24.69 39.27-2.3 16.92-18.65 30.55-35.74 29.43-9.74-.31-18.69-5.51-24.8-12.93-11.39-.02-22.77-.04-34.15.08 1.72-1.12 3.93-1.08 5.92-1.18 9.61.15 19.23.06 28.84.01-11.94-.15-23.89.06-35.82-.3.07-1.07.22-3.21.3-4.27 7.77-1.02 14.66-7.85 14.55-15.9.98-8.65-5.97-16.96-14.58-17.82-.04-1.92-.07-3.84-.11-5.74 11.92-.61 23.85-.08 35.78-.2m20.45 2.42c-10.41 2.63-17.5 13.63-15.93 24.2 1.21 10.4 11.12 18.78 21.54 18.51 10.42-.15 19.98-8.92 20.89-19.33 1.37-9.23-4.4-18.55-12.76-22.29-4.26-2-9.21-1.96-13.74-1.09zM25.14 660.15c6.98-.39 13.99-.5 20.96.05 7.66.58 14.66 5.97 17.24 13.2 2.85 7.97 2.09 17.71-3.59 24.29-3.24 3.56-7.68 6.33-12.56 6.76-7.36-.23-14.71.04-22.07-.21-.01-1.75-.01-3.48-.07-5.21 7.67-.68 14.32-7.28 14.76-15 .95-8.58-5.99-17.28-14.66-17.94-.01-1.99 0-3.97-.01-5.94zM858.65 664.65c3.45-2.81 7.87-4.27 12.31-4.31 6.46-.19 12.93-.22 19.39-.15.05 2.01.06 4.03.09 6.05-8.57.97-15.53 9.07-14.93 17.72.58 7.9 7.09 14.55 14.86 15.75 0 1.53 0 3.07.02 4.61-7.56.08-15.12.04-22.68.16-4.47-.78-8.49-3.36-11.64-6.54-8.3-9.27-7.35-25.52 2.58-33.29zM71.03 714.05c10.82-5.82 24.86-5.04 34.93 2.04 12.95 8.58 18.72 26.4 13.06 40.91-4.4 12.59-16.6 22.07-29.98 22.74-9.77.63-19.97-2.85-26.55-10.27-2.35-3.48-6.86-2.01-10.37-2.53-9.01-.9-18.09-.25-27.13-.52-.07-1.64-.13-3.29-.17-4.92 6.06-.96 11.75-4.9 13.92-10.76 3.64-8.96-2.24-20.6-11.85-22.43-3.35-.2-1.72-4.25-1.81-6.39 11.98-.34 23.97-.2 35.95-.14 3.04-2.92 6.2-5.82 10-7.73m10.2 10.26c-9 2.44-16.4 11.06-16.03 20.63-.56 11.33 9.55 21.68 20.83 21.68 11.63.6 22.27-10.05 21.77-21.66.47-13.27-13.71-24.61-26.57-20.65zM813.92 712.87c11.07-5.56 25.15-4.24 35.07 3.14 2.27 1.65 4.01 3.94 6.33 5.53 11.65.47 23.35.12 35.02.32.05 1.89.07 3.79.11 5.7-4.04 1.05-8.32 2.49-10.87 6.03-4.92 5.68-5.81 14.83-1.05 20.87 2.77 3.93 7.36 5.85 11.83 7.1.01 1.71.04 3.43.07 5.16h-.13c-11.73.03-23.47-.29-35.2-.18-7.65 9.69-20.96 14.34-33 11.81-15.16-2.82-27.1-17-27.59-32.37-.9-13.62 7.09-27.25 19.41-33.11m12.71 10.02c-8.71 1.09-16.52 7.65-18.41 16.33-3.84 12.8 7.52 27.24 20.83 26.62 12.23.45 22.81-11.88 21.08-23.87-1.11-11.2-12.13-20.77-23.5-19.08zM853.6 794.64c3.49-6.1 10.3-10.05 17.31-10.19 6.47-.27 12.94-.12 19.41-.1-.02 1.87-.02 3.75-.27 5.62-4 1.3-8.14 2.91-10.67 6.49-4.95 5.84-5.31 15.35-.02 21.09 2.68 3.48 6.88 5.09 10.98 6.22-.02 2.05-.06 4.12.19 6.17.97 7.12-.55 14.26-.01 21.41-3.92.99-7.94 2.42-10.66 5.56-6.14 6.37-5.61 17.5.63 23.62 2.63 2.78 6.45 3.78 9.96 5.02-.02 1.07-.05 3.22-.06 4.29-11.58.07-23.15 0-34.72.02-.1.12-.31.35-.42.46-8.63 11.48-25.01 15.74-38.32 10.69-14.59-4.91-23.91-20.8-22.41-35.91.81-10.21 6.53-19.86 15.09-25.48 9.59-6.84 22.86-7.62 33.48-2.79 4.79 1.82 8.33 5.55 12.17 8.76 11.63.49 23.31.15 34.97.3-.2-5.61-.36-11.22-.08-16.81-6.67.04-13.34.11-19.99-.32-5.81-.44-11.37-3.39-14.89-8.03-5.77-7.29-6.47-18.13-1.67-26.09m-31.48 53.38c-8.37 2.82-14.54 11.04-14.58 19.92-.69 10.2 7.33 19.82 17.26 21.58 3.95.59 8.12.51 11.86-1.01 9.05-3.38 15.03-13.44 13.56-23-.99-6.06-4.42-11.82-9.64-15.15-5.34-3.64-12.38-3.98-18.46-2.34zM25.06 784.58c6.3-.2 12.6-.27 18.91-.09 9.62-.01 18.68 7.55 20.39 17.02.99 5.62.77 11.71-1.99 16.83-3.19 6.03-9.46 10.76-16.44 10.92-6.94.21-13.89.06-20.84.03-.08-1.82-.06-3.63.01-5.44 5.41-.75 10.48-4.08 12.81-9.09 3.53-6.49 1.9-15.19-3.65-20.03-2.63-2.49-6.18-3.51-9.55-4.54.1-1.88.21-3.75.35-5.61zM60.67 846.67c7.29-8.15 18.26-13.23 29.3-12.05 10.76.56 20.58 7.22 26.09 16.32 8.33 13.52 6.34 32.71-5.52 43.55-11.71 11.81-32.32 12.84-45.04 2.09-2.33-1.83-4.09-5.15-7.51-4.71-10.97-.06-21.93-.12-32.9-.12-.17-1.89-.27-3.78-.35-5.66 5.26-.79 10.43-3.63 12.97-8.45 3.84-6.87 2.26-16.37-3.9-21.35-2.47-2.07-5.63-2.96-8.66-3.81-.01-1.91-.01-3.82-.02-5.71 11.85-.13 23.69-.08 35.54-.1m22.51 1.5c-10.12 1.71-18.63 11.38-17.91 21.82.16 10.85 9.71 20.96 20.76 20.8 11.71.84 22.78-9.97 21.78-21.78.44-12.53-12.32-23.41-24.63-20.84zM852.79 919.94c3.17-6.5 9.85-11.16 17.1-11.59 6.84-.41 13.7-.21 20.55-.09.1 1.93.13 3.86.16 5.81-4.87 1.17-9.69 3.61-12.46 7.94-4 6.33-2.7 15.12 2.42 20.45 2.5 3 6.43 3.97 9.99 5.14-.02 1.06-.04 3.19-.06 4.26-6.5.04-13-.04-19.5 0-3.57.1-6.98-1.1-10.24-2.39-10.19-5.45-13.13-19.65-7.96-29.53zM25.17 909.4c6.63-.21 13.26-.31 19.88-.15 9.64.18 18.16 8.29 19.57 17.7.67 4.7.54 9.7-1.45 14.1-2.85 6.84-9.54 12.27-17.12 12.49-7.12.08-14.24-.05-21.36-.1.09-1.78.17-3.54.26-5.29 3.44-.89 6.96-2.05 9.62-4.5 6.63-5.92 6.76-17.43.41-23.6-2.54-2.66-6.02-4.06-9.54-4.83l-.27-5.82zM824.77 957.73c11.45-1.76 22.73 3.84 30.48 12 11.71.33 23.43-.11 35.13.44l.2.01c-.02 1.78-.03 3.57-.02 5.37-3.84 1.05-7.85 2.31-10.58 5.38-6.46 6.42-5.76 18.07 1.08 23.96 2.51 2.6 6.07 3.52 9.42 4.55.01 1.06.02 3.18.03 4.25-11.81-.51-23.64-.27-35.45-.17 9.3.12 18.61.07 27.91.02 2.5.02 5.14-.2 7.49.9-11.77.62-23.56-.13-35.34.16-7.61 8.81-19.48 14.21-31.19 12.16-17.43-1.99-31.05-19.31-29.49-36.67.61-16.25 14.31-30.43 30.33-32.36m.9 13.37c-10.22 1.76-18.79 11.36-18.24 21.93.01 9.57 7.38 18.24 16.58 20.44 4.84.82 10.08.63 14.44-1.85 7.77-3.84 12.86-12.71 11.57-21.39-.96-11.55-12.83-21.18-24.35-19.13zM64.52 967.51c8.42-7.96 21.12-10.41 32.12-7.2 15.09 4.32 25.58 20.12 24.2 35.68-.38 18.2-17.7 34.11-35.91 32.67-9.5-.08-18.39-5.12-24.14-12.54-11.99-.02-23.98-.08-35.96.03.1-1.97-.45-4.12.42-5.94 3.16-1.47 6.9-1.95 9.41-4.57 6.83-6.16 6.74-18.11.03-24.31-2.68-2.52-6.32-3.54-9.83-4.21-.01-1.92-.01-3.82.03-5.72 11.39-.27 22.79 0 34.17-.32 2.41.05 3.78-2.23 5.46-3.57m17.05 5.27c-5.36 1.49-10.34 4.78-13.24 9.61-3.67 5.53-3.88 12.76-1.89 18.94 3.51 10.3 15.64 16.65 26.09 13.34 9.22-2.66 16-12.09 15.26-21.71-.08-12.86-13.57-23.95-26.22-20.18zM461.43 975.41c2.48-.02 4.96-.02 7.44-.02-.05 9.53.03 19.06.05 28.6-2.52.1-5.04.18-7.56.19-.05-9.6 0-19.19.07-28.77zM480.97 975.28c2.29-.01 4.58-.1 6.87.13.85 1.28.28 3.08.48 4.58-.03 8.01-.1 16.02-.02 24.04-2.4.1-4.79.15-7.17.12-.44-9.62-.29-19.25-.16-28.87zM500.36 975.29c2.48-.01 4.96.01 7.45.04-.06 9.5.17 19.01.01 28.52-2.52.06-5.04.19-7.55.18.02-9.58-.14-19.16.09-28.74zM519.98 975.25c2.46-.05 4.93-.07 7.4-.09.23 9.53.16 19.08.05 28.62-2.46 0-4.92.01-7.38.04-.33-9.52-.18-19.05-.07-28.57zM539.35 975.17c2.49-.02 4.97 0 7.47.03.56 9.49.15 18.99.29 28.49-2.57.03-5.14.04-7.7.06-.16-9.53-.07-19.05-.06-28.58zM558.86 975.22c2.49-.17 4.98-.31 7.49-.39.27 9.6.02 19.2.16 28.81-2.52.01-5.03 0-7.55.01-.31-9.48-.01-18.96-.1-28.43zM578.41 975.1c2.39-.03 4.8-.01 7.21.04.08 9.47.19 18.95.07 28.42-2.41.05-4.81.1-7.21.1-.23-9.52-.24-19.04-.07-28.56zM597.82 975.13c2.51-.15 5.03-.25 7.55-.29.12 9.55-.01 19.1-.1 28.65-2.5.01-5 .01-7.5.02-.18-9.46 0-18.92.05-28.38zM617.39 975.18c2.1-.99 4.78-.27 7.11-.49-.27 9.59.07 19.2-.19 28.8-2.31-.02-4.62-.02-6.92-.01.01-9.43-.36-18.88 0-28.3zM637.01 974.8c2.41-.03 4.83-.04 7.25-.03.05 9.51.12 19.02.09 28.53-2.47.03-4.93.04-7.39.05-.19-9.52-.13-19.04.05-28.55zM656.58 974.74c2.34-.04 4.68-.07 7.03-.1-.21 9.58.03 19.17-.2 28.75l-6.79-.09c-.18-9.52-.18-19.04-.04-28.56zM695.56 974.65c2.51-.02 5.04-.01 7.57.04-.33 9.46.17 18.93-.05 28.41-2.47 0-4.94.02-7.4.06-.35-9.5-.19-19.01-.12-28.51zM715.36 973.71l.32 2.81c1.96-.27 3.86-.83 5.8-1.19.77 9.28.24 18.62.31 27.93-2.33-.04-4.63-.07-6.94-.1.28-9.81-.73-19.72.51-29.45zM402.83 975.62c2.44-.02 4.87-.01 7.31.02.11 9.57.24 19.14.15 28.71-2.48.05-4.95.09-7.43.07-.19-9.6-.28-19.2-.03-28.8zM422.29 1004.31c0-9.59-.19-19.19.19-28.78h7.08c-.18 9.6.14 19.22-.2 28.83-2.36-.03-4.71-.04-7.07-.05zM676.49 975.08c1.8.16 3.9-.35 5.36 1.09 1.23 1.31 1.01 3.14 1.07 4.83-.1 7.43-.05 14.87-.09 22.31-2.24-.02-4.46-.02-6.68-.03-.27-3.05-.42-6.1-.09-9.13.65-6.35.05-12.72.43-19.07zM442.19 976.17c2.22-.01 4.44-.01 6.66 0 .01 9.38.09 18.77-.03 28.16-2.21-.02-4.41-.02-6.6-.01-.24-9.38-.04-18.77-.03-28.15zM216.85 999.3c10.91-2.26 22.64-1.01 32.6 4.09 15.23 7.24 25.85 22.91 27.52 39.61 1.22 10.8-1.59 21.85-7.11 31.15-8.83 14.63-25.66 24.26-42.83 23.7-12.69.47-25.16-5-34.34-13.58-9.36-9.17-15.58-21.98-15.44-35.23-.48-13.43 5.25-26.69 14.52-36.27 6.71-6.97 15.73-11.33 25.08-13.47m3.52 8.26c-10.33 1.54-19.53 7.8-25.93 15.9-8.69 11.24-10.62 27.18-5.06 40.23 3.18 8.05 9.13 14.83 16.38 19.48 9.93 6 22.43 7.83 33.52 4.2 8.67-3.06 16.88-8.38 21.73-16.36 6.15-8.62 8.41-19.71 6.47-30.09-1.71-12.19-10.03-22.73-20.43-28.92-8.01-4.71-17.62-5.5-26.68-4.44zM521.18 1013.01c-.03-1.58 1.8-1.15 2.78-1.28 3.23-.07 6.47-.03 9.71-.07.12 2.9.07 5.8-.1 8.71-2.61 2.34-6.24 2.5-9.51 1.8-3.43-1.54-3.55-6.01-2.88-9.16zM560.31 1011.74c4.12-.04 8.23-.08 12.35-.11.04 3.48.52 7.26-1.64 10.28-3.48.26-7.62 1.35-10.23-1.71-1.04-2.69-.46-5.67-.48-8.46zM599.21 1011.53c4.18-.06 8.35-.07 12.53-.09-.09 2.89.33 5.9-.51 8.73-.97.87-2.11 1.59-3.35 2-2.04.05-4.07.07-6.1.08-3.58-2.49-2.53-7.02-2.57-10.72zM618.52 1011.43c4.25-.17 8.5-.17 12.76-.02 0 3.37.37 6.9-1.09 10.07-3.69-.51-9.51 2.11-11.35-2.36-.71-2.5-.33-5.14-.32-7.69zM638.23 1011.34c4.12.03 8.24.01 12.37.05-.06 2.87.44 5.9-.48 8.69-2.55 2.8-6.85 1.49-10.15 1.29-2.98-2.43-2.09-6.71-1.74-10.03zM657.49 1011.35c4.26-.13 8.53-.17 12.79-.01.06 3.73.69 8.14-2.88 10.58-2.48.04-4.94.12-7.4.16-3.16-2.72-2.45-7.03-2.51-10.73zM676.75 1011.17c4.3-.64 8.62-.09 12.93.08-.25 3.62 1.2 8.56-2.78 10.61-2.16-.01-4.3-.06-6.44-.13-.99-.44-1.97-.89-2.92-1.36-.84-3-.92-6.12-.79-9.2zM696.6 1011.22c3.99-.13 8.19-1.03 12.08-.05 1.04 2.66.62 5.79-.2 8.49-2.6 2.05-6.28 2.21-9.39 1.56-3.92-1.78-2.36-6.62-2.49-10zM716.64 1020.29c-.49-3.03-2.16-7.03.13-9.54 4.22-.27 8.46-.02 12.7-.11.09 2.22.12 4.46.09 6.7-2.33 1.63-4.4 4.37-7.53 4.15-1.9.15-3.64-.66-5.39-1.2zM403.45 1012.37c4.44-.06 8.88-.09 13.33-.11-.12 2.96.44 6.08-.51 8.94-2.32 2.02-5.62 1.1-8.41 1.33-1.44-1.41-2.88-2.8-4.31-4.2-.04-2-.07-3.98-.1-5.96zM423.74 1012.38c4.26-.12 8.53-.1 12.79-.05-.17 3.7 1.2 9.52-3.76 10.61-2.06.08-4.12.1-6.17.08-3.46-2.51-2.94-6.91-2.86-10.64zM463.06 1012.26c4.14-.04 8.27-.05 12.41-.01.17 3.77.51 8.01-2.75 10.67-1.84.04-3.67.02-5.49-.05-1.67-.89-3.72-1.93-4.18-3.93-.54-2.2-.12-4.47.01-6.68zM482.23 1011.98c4.09.03 8.46-.84 12.4.3.29 2.66.4 5.44-.27 8.07-1.84 3.26-6.16 1.86-9.23 2.38l-.46.01c-3.27-2.68-2.37-7.06-2.44-10.76zM501.54 1011.75c4.27-.01 8.54 0 12.81.04.03 2.76.01 5.54-.05 8.32-.88.83-1.74 1.68-2.61 2.53-2.31 0-4.63-.03-6.93-.04-1.01-.89-2.02-1.76-3.03-2.6-.18-2.76-.23-5.5-.19-8.25zM540.93 1020.02c-.72-2.74-.36-5.6-.34-8.38 4.21-.01 8.41 0 12.62.12-.09 3.33 1.55 8.35-2.49 9.97-3.22.83-7.43 1.17-9.79-1.71zM579.71 1020.1c-.23-2.84-.28-5.68-.19-8.52 4.24-.02 8.49-.05 12.74 0-.02 3.69 1.11 8.24-2.53 10.67-2.42-.01-4.84.01-7.25.05-.93-.75-1.85-1.48-2.77-2.2zM443.38 1012.23c4.16-.09 8.32-.08 12.48-.03-.04 2.92.33 5.96-.52 8.82-2.58 2.55-6.96 1.29-10.25 1.17-2.8-2.52-1.51-6.68-1.71-9.96z"/><path d="M224.35 1035.41c3.5-.72 7.32-.1 10.25 2.02 5.75 4.03 7.07 13.24 2.23 18.49-4.71 6.08-15.04 6.17-19.7 0-6.02-6.82-1.7-18.9 7.22-20.51zM660.03 1076.23c2.51-.1 5.03-.1 7.56-.02 3.08 2.55 2.77 6.63 2.79 10.25-4.21 1.31-8.68.77-12.97.29.06-3.67-.42-7.83 2.62-10.52zM679.44 1076.1c2.82-.09 5.65-.14 8.48-.08 2.25 3.14 1.71 7.07 1.78 10.71-4.25.04-8.49.06-12.73.07-.13-3.69-.49-7.96 2.47-10.7zM720.22 1076.02c1.34-.07 2.69-.09 4.05-.09 1.61 1.37 3.34 2.62 4.83 4.16 1.13 1.96.43 4.41.62 6.58-4.64.06-9.28.09-13.92-.07-.11-3 .14-5.99.77-8.91 1.19-.6 2.38-1.22 3.65-1.67zM407.99 1077.61c2.79-.23 5.58-.31 8.38-.24.36 3.47.48 6.96.45 10.46-4.41.58-8.86.21-13.27-.07.02-1.91-.06-3.84.26-5.71 1.13-1.71 2.87-2.88 4.18-4.44zM447.44 1077.33c1.78-.1 3.56-.13 5.34-.1 3.99 1.98 3.62 6.82 3 10.55-4.13.23-8.26.24-12.38-.02.01-2.71-.22-5.44.25-8.1 1.11-1.01 2.4-1.8 3.79-2.33zM465.91 1077.23c2.52-.06 5.06-.09 7.59-.05 2.92 2.75 1.81 6.92 1.94 10.5-4.21.08-8.43.16-12.64-.02-.02-2.59-.03-5.17-.01-7.75 1.04-.89 2.08-1.79 3.12-2.68zM485.28 1077.14c2.11-.08 4.23-.03 6.36.07.91.46 1.83.96 2.73 1.5.9 2.93.93 5.98.18 8.97-4.04.03-8.08.01-12.11-.06.17-3.57-1.41-8.73 2.84-10.48zM543.87 1076.94c1.93-.07 3.87-.08 5.82-.02.64.19 1.91.58 2.55.77 1.02 3 1.89 6.86.44 9.69-4.03.34-8.09.07-12.13.15-.04-2.89.02-5.77.21-8.64 1.01-.69 2.05-1.34 3.11-1.95zM581.34 1077.55c.34-.21 1-.63 1.33-.84 2.23-.12 4.48-.14 6.73-.09.94.78 1.89 1.56 2.85 2.36.09 2.79.11 5.58.09 8.39-4.24.11-8.48.1-12.71-.07.36-3.21-1.26-7.52 1.71-9.75zM619.95 1077.86c3.16-1.76 7.58-1.91 10.48.44.95 2.64 1.38 5.91.25 8.53-3.88.97-8.11.14-12.12.43.21-3.11-.92-6.88 1.39-9.4zM638.57 1078.55c2.49-2.78 6.42-1.9 9.73-2.1 3.62 2.3 2.19 6.92 2.41 10.51-4.17.41-8.34-.15-12.51-.2.05-2.74-.14-5.51.37-8.21zM697.87 1076.64c3.39.16 7.57-1.27 10.39 1.17 1.43 2.75.88 5.95.66 8.91-4.16 0-8.31-.02-12.46-.07-.15-3.41-.24-6.93 1.41-10.01zM424.48 1079.24c2.36-2.45 6.39-1.93 9.37-1.18 3.99 1.48 2.27 6.44 2.71 9.69-4.21.05-8.43.06-12.64.04-.19-2.85-.62-5.86.56-8.55zM503.06 1077.84c3.3-.86 6.76-.28 10.13-.24 1.42 3.16 1.24 6.65 1.24 10.05-4.28.06-8.56.05-12.83-.02.25-3.26-.74-7.02 1.46-9.79zM521.22 1087.66c-.44-3.24-1.15-7.65 1.77-9.91 3.47-.52 7.24-.79 10.45.93.23 2.97.34 5.96.27 8.95-4.17.03-8.33.03-12.49.03zM560.28 1087.42c.26-3.25-1.09-7.37 1.7-9.82 2.94-.65 6.06-.67 9.01-.02 2.92 2.33 1.33 6.61 1.55 9.84-4.09.03-8.17 0-12.26 0zM599.7 1077.49c3.41-.33 6.91-.81 10.3 0 2.95 2.19 1.37 6.58 1.84 9.76-4.26.13-8.51.1-12.76.04-.52-3.29-.13-6.59.62-9.8zM539.55 1095.26c2.46-.02 4.93-.02 7.41-.01.26 8.97.23 17.97-.01 26.95-2.48.04-4.96.07-7.43.12-.16-9.02-.2-18.04.03-27.06zM559.11 1095.2c2.4-.01 4.81-.01 7.22-.01.15 9.01.08 18.03.02 27.04-2.43 0-4.84.01-7.25.01-.32-9.01-.42-18.04.01-27.04zM578.4 1095.18c2.45.01 4.91-.01 7.37-.04.11 8.99.17 18 .04 27-2.29.02-4.58.15-6.84-.08-.97-1.06-.33-2.82-.55-4.11.09-7.59-.11-15.18-.02-22.77zM597.95 1094.95c2.15-.09 4.3-.16 6.47-.2.3 8.63-.45 17.3.11 25.9.39-8.56-.24-17.17.05-25.75h.9c-.13 8.97.13 17.94-.03 26.91-2.3-.11-6.11 1.47-7.43-.79-.47-8.68-.03-17.39-.07-26.07zM617.33 1094.86c2.33-.05 4.66-.07 6.99-.07.28 8.85.07 17.7.01 26.56-2.23.1-4.46.22-6.68.38l-.21.01c-.06-8.96-.04-17.92-.11-26.88zM637.19 1094.82c2.41-.05 4.82-.06 7.23-.04.05 9.01.08 18.02-.06 27.04-2.41-.03-4.8-.04-7.19-.06.16-8.98-.56-17.97.02-26.94zM656.57 1094.71c2.27-.05 4.54-.07 6.82-.07.33 7.14-.19 14.31.51 21.44.15 1.86.12 3.75.06 5.64-2.45.06-4.89.09-7.33.14-.21-9.05-.19-18.11-.06-27.15zM675.9 1094.64c2.49-.05 4.99-.07 7.49-.05.07 9.07.31 18.14.01 27.21-2.37-.06-4.73.03-7.07-.2-.85-1.37-.35-3.14-.51-4.64.09-7.44.03-14.88.08-22.32zM695.6 1094.6c2.49-.02 5-.03 7.51-.04.2 8.99-.01 17.99-.01 26.98-2.47.04-4.94.05-7.41.04-.23-8.99-.22-17.99-.09-26.98zM715.02 1094.48c2.27-.05 4.54-.11 6.83-.14.13 9.09-.28 18.21.23 27.3-2.41-.1-4.81-.15-7.2-.21.03-8.99-.29-17.98.14-26.95zM402.84 1095.69c2.49-.01 4.99 0 7.49.04 0 9.02.18 18.05.04 27.08-2.41-.3-5.47.75-7.49-.59-.25-8.84.06-17.69-.04-26.53zM422.38 1095.74c2.48-.03 4.96-.03 7.44-.01.11 9.02-.01 18.04-.1 27.07-2.45-.01-4.89-.02-7.32-.04-.11-9.01-.07-18.01-.02-27.02zM441.72 1095.68c2.53-.05 5.06-.07 7.6-.07.19 9.06.21 18.13.14 27.2-2.58-.07-5.15-.1-7.72-.11-.11-9.01-.1-18.01-.02-27.02zM461.59 1095.5c2.41-.04 4.83-.03 7.24.02.21 9.02.55 18.06.02 27.07-2.45 0-4.9-.02-7.34-.07.01-9-.13-18.01.08-27.02zM481.03 1095.54c2.4-.04 4.8-.05 7.21-.04.26 8.97.15 17.95.08 26.93-2.39.07-4.77.11-7.16.16-.47-9.01-.39-18.04-.13-27.05zM500.38 1095.4c2.48-.04 4.97-.05 7.46-.02.11 8.99.04 17.99.05 26.99-2.45.05-4.89.06-7.32.08-.26-9.01-.07-18.04-.19-27.05zM520.17 1095.34c2.23-.03 4.46-.07 6.71-.07-.02 8.83-.04 17.65-.05 26.48-2.27.09-4.54.22-6.8.4-.18-8.93-.28-17.88.14-26.81z"/></g><path fill="#dec17e" d="M220.37 1007.56c9.06-1.06 18.67-.27 26.68 4.44 10.4 6.19 18.72 16.73 20.43 28.92 1.94 10.38-.32 21.47-6.47 30.09-4.85 7.98-13.06 13.3-21.73 16.36-11.09 3.63-23.59 1.8-33.52-4.2-7.25-4.65-13.2-11.43-16.38-19.48-5.56-13.05-3.63-28.99 5.06-40.23 6.4-8.1 15.6-14.36 25.93-15.9m3.98 27.85c-8.92 1.61-13.24 13.69-7.22 20.51 4.66 6.17 14.99 6.08 19.7 0 4.84-5.25 3.52-14.46-2.23-18.49-2.93-2.12-6.75-2.74-10.25-2.02z"/></svg>