<svg xmlns="http://www.w3.org/2000/svg" width="1568pt" height="688pt" viewBox="0 0 1568 688"><g fill="#fff"><path d="M1268 160c11-15 31-23 49-21a54 54 0 0 1 38 84q-15 22-41 24-27-1-45-21l-1-2 6 4q19 19 46 15a51 51 0 0 0 31-83 51 51 0 0 0-58-15q-12 5-20 14zm-873-19q4-2 7 2 2 2 1 6h-11q-1-5 3-8m0 2q-2 1-1 4h8l-2-4zm-79-2q6-2 9 4c0 1 1 5-2 4h-9q-1-5 2-8m-1 6h8q0-5-5-4-2 1-3 4m574-5h19v2h-17l1 130h114V144h-17v-2h20v135H894q-5 1-5-3V142m166 1 41-1 27 1v122h-68V143m24 2v82h20v-82zm-22 82h20v-82h-20zm45 0h19v-82h-20zm-45 36h20v-34h-20zm22-34v34h20v-34zm22 0 1 34h19v-34zm-591-85 11 4-1 2q-5 2-10 3 3-4 7-4c-1-2-8-1-7-5m508 1q4-1 7 3v-4c3 0 1 5 2 7-4 0-6-6-9-5v5q-5-3 0-6m-665 3h4q-3 2-1 5l2-4q2-2 5-1 3 3 0 6 0-4-3-4-2 3-6 4l1 1 10 3q-5 4-10 5-3 0-2-1l8-3-8-3zm-194 3v-2h9l1 1h-7q4 2 6 4-2 2-6 3h7l-1 2-9-1c-1-3 4-3 6-4zm275 0q4 0 7 3-1-3 1-4l1 7-7-5q-3 0-2 5-5-3 0-6m-315 0 5 3 6-3q-1 3-4 4 3 1 4 5l-6-4-4 3 1 4h8l1 2h-9l-1 4-1-1v-11l4-2q-3-1-4-4m195 0h11c0 4-5 4-7 7q4-1 7 1h-11q3-4 8-6h-8zm79 0h10q-1 4-6 6c2 1 7-1 6 2h-11l1-2 7-5-7 1zm77 0h12v2h-9v3zm555 1q4 0 1 3-4-1-1-3m-485 3c0-3 4-1 6-2l1 2q6-4 8 2l-2 1-3 1 4 1-4 1q-2-4-4-6l-5 6q3 2 6 0c0 5-7 4-7 0q0-4 4-6zm10 1h3q-1-3-3 0m11 1 1-4q2 5 1 11h-2v-5h-3v3c4 1 0 2-1 2v-11l2 4zm11-4h6v11h-2v-9q-3 1-4-2m23-1 2 1v8h4q-1 4-6 1zm7 1q4 0 7 2l-1 4-4-1v1h3q-1 3-4 1zm2 2q0 3 2 1 1-2-2-1m7-1 1-1q-1 4 3 4 0-3 2-4l-1 11h-1v-6l-2 1 1 5h-4l1-3zm15 1c1-3 4-1 6-2v11h-2v-9zm-429-1h11l1 2h-10v2zm313 4 2-4 2 2q3-2 6-1l1 5-3 1q2-3 0-5-2 1-3 4l-2-4-2 4q-1 0-1-2m56-5 2 2-2 1h3l-1-3q4 1 3 5h-5l4 2-5 1q-1-5 1-8m53 0q4-1 7 3-2 3-5 2l1 2 2-1 1 2h-6zm2 2q0 3 2 1 1-2-2-1m-377 1 4 3h-4v5l-4-1q3-1 3-4h-4l1 1-1 2q-2-2-3-5 5 1 8-1m32 2q-1-2 1-1l2 4q0-3 2-5 6 0 5 5c-2 4-10 2-10-3m7 0c-3 0-2 5 1 3q3-3-1-3m742 2q-1-3 1-5l1 6h-12l1-1zm-553-2c3-2 6 2 8 4 0-1-1-5 2-4v7q-4-3-8-5-3 1-1 5-5-3-1-7m-31 0h2v8c-4-1-5-6-9-5v5q-3-3-2-7h4l5 4zm696 2q2-2 6-1h26v27l23-1 1 51h-24l-1 5h-31q-2-8-1-17v-41q-1-12 1-23m1 1v78h29v-78zm32 27v45h20v-45zM158 160l9 3q4 1 1 3-5 0-10 3c1-4 6-3 8-5l-7-2zm41 8c-3-1-3-6 0-7q4 0 7 4c1-2-1-5 2-5v8l-7-6q-3 2-2 6m120-6h6q1 8-6 8c-4 1-7-6-3-8q-1 4 1 6 6 2 6-4c-1-2-2 1-4 1zm78 0h6c2 3-1 9-6 8-4 0-7-7-3-9q-1 5 2 7c4 2 8-4 4-6l-1 3q-2 0-2-3m120 1 4-1q-1 4-4 1m498 0 12 4q-1 2-3 3l-9 2q4-3 9-5-6 0-9-4"/><path d="M1084 166c3-4 10-3 13 1l-4 4q-3 0-4 2 4 0 4 4-2 1-3-2-2-1-4 1-3 4 2 5 2 0 3-3l2 3q-5 4-9 0-1-5 3-8v-1q-5-1-3-6m2 1q-2 2-1 3l10-2q-4-4-9-1m-727-1q2-2 4-1 3 4 0 7l-1-5q-2 0-4 3 0-3-2-4 0 3-2 5c-1-2-1-7 3-6zm749-1q6-2 10 1c2 1-1 3-1 4q-4 4-9 1c-3 0-3-6 0-6m-1 4q6 2 11-1-4-2-9-2zm106-4h3c-1 3 1 7-3 8zm-703 3q2-3 6-1l2-1q5 3 1 7 1-4-2-5l-2 4-1-4h-2v4q-2-1-2-4m512 6 1-1v9q-2-4-1-8m86 9c-3-3-3-9 1-10 2 0 7 0 6 4q-3-2-6-2c-3 1-2 6 1 6q3 0 6-2-3 5-8 4m-46-4q-1-3 2-2h8c2 4-4 4-5 7l-4-1q3-2 7-4zm-27 3q1-5 5-2 2-2 3-1c4 0 4 8-1 8l-2-2-2 1q-3 0-3-4m7-2-1 4 3 1q2-4-2-5m-5 1q-2 2 1 3c2 0 1-4-1-3m-268 4q-1-3 1-6h12l4 1 1-1h14q3 2 2 6l-1 24h10q5 0 5 5c-1 4 1 8-3 11l-2-2 2-1v-10q-12-2-24-1l-4 1q0 7-2 13-13 1-25 1l-3 2v14l-2 2v3l2 1v20l5 2 14-1h16l-1 2h-14l-10 2v7h-2v-8q-4 1-9-1-3-4-2-9h-7v-2q4 2 7-3 1-21-1-40l-15-1-3 2v14h-2v-16c-2-4-7-2-10-3-3 1-7-1-9 2v16h-2v-16q-1-2-4-3h-12q-3 1-3 4v14h-2v-14q-1-3-4-4h-11q-3 0-4 3v15h-1l-1-1v-14q2-6 8-5 8-1 14 2l4-2h13l4 2q9-2 20 0l2 2h17l4-5h14zm3-4v28c5-1 10 1 13-2v-26zm16 0v28l13-1v-27zm-2 28q1 2 0 0m-30 3v7q-1 2 1 4h25q2-2 2-5 0-4-2-7h-7q-9-1-19 1m-555-28q11 0 9 9c-1 6-10 7-13 2q-3-8 4-11m79 0q8 0 9 8c-1 6-9 9-13 4-4-4-2-11 4-12m195 0q8-1 9 7c0 6-8 10-12 6-4-3-3-12 3-13m631-1q2 2 5 3 4 0 9-1c-3 5-13 5-14-2m-985 1q9-2 11 7-2 9-11 7c-5-3-5-11 0-14m39 0c5-2 12 2 11 7q-1 9-10 7c-6-2-6-11-1-14m78 1q9-3 11 5c1 5-5 10-10 8s-6-11-1-13m79-1c5-2 11 2 10 7 0 5-6 9-10 6-5-2-5-11 0-13m39 0q9-2 11 7-1 9-10 7c-6-2-6-11-1-14m39 0q9-2 11 6c1 5-6 10-11 8-5-3-5-12 0-14m39 0q9-2 11 7-1 9-10 7c-6-2-6-11-1-14m78 0q9-2 11 7c0 6-7 9-11 6-5-3-5-10 0-13m39 1c5-4 13 1 11 7-1 6-8 8-12 5s-3-10 1-12m39-1c5-2 12 2 11 7q-2 9-11 6c-5-2-5-10 0-13m475 1h9l-1 1-10 1q0-2 2-2m19-1q7 4 13 1-1 4-5 3-5 1-8-4m-67 2h10l1 2h-9c1 4-2 0-2-2m22 4q4-2 7 1 3 5-2 6-3 1-7-1-3-4 2-6m0 1c-1 1-2 5 1 4q4 1 6-2-3-3-7-2m23-1q6 1 11 4c-3 3-7 2-9 5-3-3 3-4 5-5q-4-1-7-4m23 1q5-1 9-1v3l-3-2-3 1q2 2 5 3-1 3-4 1z"/><path d="M1107 192q4-3 9-1 2 5-2 6c0-2 3-5-1-5l-1 4-2-1 2-1-2-2q-3 2-1 5-5-2-2-5m108-1h3v7h-3zm-198 2c3-2 9-2 10 2 0 5-6 4-9 3q-4-2-1-5m3 1q-2 0-3 2 4 2 8 1 0-4-5-3m64 10q-1-6 5-5l2-1c3 1 5 6 1 7q2-3-1-5l-2 4-2-4q-3 2-1 6h6q3 2 2 6-3 5-8 4l-2-6q1-3 0-6m0 7c2 5 9 3 9-1q-2-3-5-2t-4 3m-21-12h10q-2 3-5 2v3l3-1 1 2q-5 2-10 1l1-5q0 4 3 4v-4l-2 1zm43 1 11-1q-2 3-8 3-4 1-3-2m-65 1q6-1 5 4-1 3-3 3 3-4-1-6-3 2-1 6l-6-1v-6c3 1 1 4 3 6q1-4 3-6m-26 2 12-1v2h-9v2c-2 1-2-3-3-3"/><path d="m1108 203 3-1 1 4q4 2 4 6l-2 3h-5q-4-3-3-7 2-2 5-2zm-1 7 1 3q4 2 7-1l-1-3-2-1zm-90-2q5 0 8 4v-4c3 1 1 5 2 8q-3-1-3-3l-6-3-1 5q-3-3 0-7m18 5q3-3 5-1 3-2 5 0 3 4-2 7c0-2 3-4 1-6q-4 0-4 4l-1-4c-4 0-1 4-2 6q-2-2-2-6m-611 1h13q2 1 4 3c1-3 6-5 7-1q-3-1-5 2 4 1 6 4c0 4-7 4-8 1q4 1 6-2l-6-2q-1 3-3 5h-5l-4 1v-9q-2 0-5-2m7 2v8c3-1 8 0 8-5q-2-4-8-3m32-2q5 1 5 7c1-2 1-7 5-7l-4 11h-3l1-3zm12 2q4-4 8 1 3-5 8-1-4-1-6 1 5 2 5 6-3 4-7 0 5 1 6-2l-6-2q0 3-3 6c-5 2-9-6-5-9m0 3c0 2 2 6 5 4 1-2 1-7-2-7q-3 1-3 3m543-2q5 0 5 5h4l-1 5-3 2 4 4-6-3-5 3q0-2 3-4-3-1-3-4l5 3q5-1 5-5h-10q-1-4 2-6m-1 5q4 0 4-2c-1-3-5-1-4 2m197-6h3v5h4v2h-4c-1 2 1 6-3 5v-5q-3 1-4-1 1-2 4-1zm-131 3q0-3 3-2h8v2zm23-2 10-1c2 4-3 3-5 3q-5 1-5-2m345 0h98q6 0 7 6v253q-2 5-8 5h-97q-6-2-6-8l1-248q-1-6 5-8m90 18q-2 2-1 6l2 1q-2-3 1-5 4 2 7 6l1-8h-2v4c-2-1-4-5-8-4m-83 2 8 9-3 1q-3 6-2 13c1 2 2 6 6 4q-5 5-9 10 7-4 12-11h13l12 11v-2l-10-9 7-1-2-2-1-7q5-4-1-7c2-3 7-4 7-8l-11 10h-11l-1-2-2 1c-5-2-7-9-12-10m42 3v32h7v-32zm17 1-1 3 11 4-10 4q-2 2 1 3l14 1-1-3h-10l11-4-1-2-10-4h11l-1-2zm31 6q3 1 4-1-3-2-4 1m-9 5 2 4c1-5 7-1 10-3v-1zm-22 11-1 2q8 4 16 6-1-4-5-4v-5q5 0 5-4zm22-4q4 3 9 4l-8 2-1 3q7-1 13-6l-7-2q-3-2-6-1m9 15v-5q-4 2 0 5m-32-1 1 8h15v-9c-4 0-2 4-3 7h-4v-6h-2l-1 6h-3v-7zm22 5v1l4 4-1-3 10-1-2-1zm-15 8q-3-2-5-1-5 3-3 9h16c-1-3 1-8-4-10q-2-1-4 2m17-1q-3 4 1 7c3 1 9 1 9-3 0-5-6-5-10-4m-16 13v6h2v-6zm14-1q1 3 4 5l-1-3q5 1 10-1-6-2-13-1m-22 7-1 12h3v-4h12l1-3h-13v-5zm25 1c-3 1-3 6-1 7l1-5c4-1 5 4 9 5q2-4-1-7h-1l1 4c-2-2-5-6-8-4m-83 26q3 15 18 17v13h-11l-1-13-6-1v12l1 10h40v-7l-17-1v-13q15-3 18-19 0-13-12-19-1 3 0 6 8 5 6 14-3 11-13 13c-9 1-18-6-18-15q1-7 6-13 2-2 1-6-13 7-12 22m81-10h11c-1-4-6-2-8-2q-3-1-2-3h2c1 0 2 3 3 1q0-3-4-4-4 3-2 8m-73 8c1 8 11 14 18 10 7-3 10-12 5-18q-2-4-5-5v7q3 3 1 8c-2 5-10 5-13 0q-2-7 3-10l-1-5q-8 4-8 13m58-11v6h2v-6zm14 5 4 4q-3 2-4 5l6-3 7 3q-2-3-5-4l5-5-7 3zm-23 4v8h16v-9h-3v7h-4c-1-3 1-6-2-6v6l-4-1v-5zm23 11 8 3q4 2 4 0l-5-4v2l-4-2 4-1 2 2c-1-4 5-2 3-5q-7 0-12 5m-23-1c0 4 5 4 7 6-2 2-8 2-7 6l7-4 9-1c0-4-4-2-6-2zm32 12-1-5q-3 3 1 5m-32 6q1 6 7 4l4-6 2 1v6h3v-7q-3-3-7-2l-4 7q-3-2-2-7-4 0-3 4m23-3c0 3 6 3 8 5q-6 0-8 5h12c1-3-4-1-6-2v-1q4 0 6-3l-8-3c3-1 7 1 8-2zm-23 15 1 3 15 4q-1-4-5-4v-4q5-1 5-4-9 1-16 5m23 2q5 4 12 5-1-2-3-3 1-3-1-3l-1 2-3-1c2-3 8-1 9-5q-7 1-13 5m1 6v7h11c-1-2 2-7-2-7v5h-3v-4h-2v4h-2q0-3-2-5m-11 7q-2-5-8-5-5 0-4 6 0 3 3 2l-2-4 4-2c4 1 5 6 9 7v-11c-3 1-1 5-2 7m11 9h10q2-2 1-6h-9q-3 1-2 6m-20 6q3 2 4 0l-2-3zm26 2 1-1v-4q-3 1-1 5m-18-4q0 4 3 3 2-4-3-3m-9 8q-3 4-2 10h15l-1-7c-1-5-9-7-12-3m20 0 4 5-1-3h10l-1-2zm-80 9q1 15 13 21 11 5 21-3 8-7 7-18h-6q1 5-2 9-3 6-10 7v-12h-5v12q-8-2-11-9l-1-7zm90 5v4h-9l-1 2h12v-7zm-33 0 1 2h15l-1-2zm23 15h12c-1-2 1-7-2-7v5h-3l-1-5-1 5h-2l-1-5c-3 0-1 5-2 7m-22-4q-2 7 3 9 8 3 11-3 2-6-2-7v6c-2 4-9 4-10-1-1-1 2-5-1-5zm24 7q-2 3-1 8h11l-1-7q-4-4-9-1m-25 7q0 7 6 9c3 1 9-1 10-5 0-2 0-7-3-6q1 3-1 7-6 3-9-2v-5q-3-1-3 2m26 4q-4 1-2 6c2 4 11 4 11-2q-2-7-9-4m-83 1q0 12 11 19c7 5 18 4 24-3q6-6 6-16h-6q0 6-4 11c-4 5-13 6-18 2q-7-5-7-13zm58 6-1 9 15-1 1-2h-7q1-5-2-5v5h-4v-6zm22 6 8 4-7 2v3h12c-1-3-6-1-8-2 2-2 7-1 7-4l-8-3c2-1 7 1 8-2h-8q-3 0-4 2M317 227q0-5 5-5c3 1 8-1 11 2q5-3 11-2l3 2q5-3 11-2 3 0 4 3 5-4 12-3 3 1 5 5 2-6 9-5 8-1 9 6v14h-2l-1-14q0-3-4-4-5-1-8 3l-1 17q-1 5 3 8h8q3-2 3-6h2q1 5-3 8-8 3-15-2-4 5-11 3l-6-1q-7 3-15 0-8 2-14 1h-7q-5 1-9-2zm49-2q-3 4-2 9v17q3 3 8 2 4 0 4-5h3v-6l-3 1v-9h3v-5h-3q0-3-2-4zm-46 0q-1 12-1 26 1 3 5 2 4 1 7-1v-18q1-5-1-9zm15 0-1 4v24l11-1v-27zm14 0-1 5 1 22q3 2 8 1 4 0 3-4v-21q0-3-2-3zm687-2h5q3-3 5 1 1 5-2 5 2-3-1-5l-3 2-1-2q-3 1-2 5-3-1-1-6m-221 2h8v12l-2-1v-9l-6-1zm220 9 4-1q4 2 6 5v-6h1l-1 9q-3-4-7-7c-3 1 0 4 0 6q-5-1-3-6m-481 4q8-6 20-4 9 2 9 11v42q-2 9-11 9c-7 2-17 0-20-8q-6 1-13-1c0 3 2 8-2 10h-12q-5 1-9-2v-12h2l1 11q5 2 11 1 6 2 7-3v-44q0-2-2-3h-16l-1 2v16h-2v-17q1-3 5-3h14q3 0 4 4l1 10q5-3 12-2c0-6-2-13 3-17m-1 4v17l-2-2c-4 1-10-2-11 3l-1 22 2 3h10l2-5c1 3-1 7 2 10q7 7 18 3 6 0 7-7v-44q-4-7-13-7-8 0-14 7m-430-8 13 1h14l9-1q2 8 2 16c2 7-1 14 0 21l-3 3h-11q-11-1-23 1-1-3-3-4 0-7-1-14l1-10q-1-6 2-13m13 9q-11 6-7 18c4 8 16 9 21 2q6-7 1-16-6-7-15-4m878-4 12-4c0 4-6 2-8 4l8 3v2l-6-2q-4-1-6-3m50 3q2-4 6-4 3 2 2 5l-2-1v-3l-4 4q3 3 0 5l-1-2-2 3h8l1 2h-10v-5l4-2-4-1v-5h1zm-396-3 2-1v17q3 2 6 2l2 1q-5 2-9-1l-1-7zm21 4q-1-4 2-6v18h1l2 2h-1 13q2 1 3-2l1-16 2 1 1 16c2 3 7 1 10 2q4 1 7-2l1-17h2q-1 11 1 20l7 1-1 2q-5 2-9-3c-5 3-11 1-17 2l-4-3-4 2h-13l-3-3-2 2h-8v-2h7q3-7 2-14m394-2 6 3 5-3q0 3-4 5 4 1 4 3l-6-3-4 3q0 3 2 4h8q-3 3-9 1l-1 4v-9q0-3 3-4l-3-2zm22 0 6 3 6-3-4 4 3 3-6-2-5 4 4-5zm-69 2c3-1 10 0 9 4-1 5-10 5-11 0zm1 3q-2 2 1 3 4 0 6-2-3-4-7-1m-16 0q2 3 1 8h-1z"/><path d="M1486 250c1-2 5-2 3 0zm-20-1q2 0 4 2v7l2 2q-5 4-9 0l2 2zm5 0 11 1-5 5zm-358 2 5-1-1 2q-3 1-4 3z"/><path d="M1463 249h1v10l-2-1 1-4zm-356 4q2-3 5-2l-2 2-2 2h8l2 2h-11zm371 3 6-6 4 3 1 8-5 1zm-410 0q-1-3 1-4l4 2q1 6-6 6c-3 0-6-5-3-7q-1 5 3 6 4-1 4-5zm404-4 4 4-4 4zm-434 9c-5 0-4-8 1-7l5 5v-5c4 0 1 5 2 8l-8-7q-2 3 0 6m-19-1c-1-4 5-3 7-3l1 1-6 1c-1 4 5 0 6 4q-5-1-7 2c2 1 6-1 7 2h-8zm-198-2 2 1v12h-8v-2h6zm651 4 5-5 5 5zm48 3 5-2v3zm-854 5q1-4 5-5h13q5 1 6 6v14h-3v-14q0-3-3-4l-12 1q-3 0-3 3v14h-3zm-422-2 50-1q3 0 4 2l-1 11q8-9 17-3l1 3q2-5 6-5l11 1q5-2 11-1 4 0 5 4v27l-2 2q-4 1-5-2 3 0 4-2v-26q-6-2-11 1l-1 25q1 2 4 3v1l-10 1v-2l3-2 1-17q1-5-2-11l-10 1-1 6 1 22h4l-1 2q-4 1-7-3-1 2-4 3h-8q-3-1-5-4v12h-51q-2 0-4-2v-11q-1 5-5 6-7 2-11-3-6 5-13 3l-3-2q-7 5-13 0c-5 3-13 3-16-3l-1-21q0-6 5-7 3-2 3 1-4 1-5 6v21q4 4 9 2 4-1 5-5 1 4 4 5 6 2 8-3v-21q-1-5-7-4-4 0-5 4l-4-4-3-1q3-3 7 0 6-5 12 0 7-3 13-1 3 1 4 3 5-5 12-3l4 4q0-7 1-12m1 2 1 43h49v-43zm58 8q-3 1-3 6v16q0 4 4 6 4 1 7-1 3-4 2-9v-15q-3-5-10-3m-89 0-2 4v21q1 3 4 3 5 1 8-1l1-7v-18q-5-3-11-2m17 0q-3 2-3 5v20q3 5 9 4 5-2 5-8l-1-18q-4-5-10-3m790-4q-4-3-1-5l1 4h4q-1-4 2-4l-1 4q-2 3-5 1m-659 1q-1-2 2-2h19q4 1 1 3-5-2-10-1zm433-3 2 1v10q0 4-4 5h-24v-3h26zm224 7q0-4 5-3l-1 6q3-2 3-6v5l-3 3q-4-2-4-5m1 2q3 0 2-3-3 0-2 3M16 279h87q3 0 5 3v84h14v-7l20 1q-2 1-3 4v23c2 4 7 1 9 1q4-6 3-14 1-6-1-12-3-1-4-5c5-1 7 5 7 9h30v3h-30v5h27l2 8q-2-4-7-6l-22 1q-1 6 1 12h21c4 0 5-5 7-7q2 8-5 9h-21q-3 0-6-2l-4 4h38q6-1 8-5l2-2q4 5 11 3l1 1 7 1-6 2-1-2h-14q-3 4-7 5h-77v107l-14 1 1-3h10V396l-8-2 8-1v-24H94l-1 24v-25l12-2v-84H19v7h-2zm108 82v14h6l-1 2h-18l-1 1-1 12 28-1v-11q-3-1-4-3l4-1v-12zm-16 14 14-1v-5h-13zm0 17zh36q-2-2-5-2l-5 1zm705-109q0-3 4-3h26q4 0 5 4v18c-1 3 1 8-3 9h-10q3 6 2 14 1 6-6 7h-12v-2h13q5-4 3-10 1-5-3-8h-14q-4 0-4-3v-12zm3 0v11l29 1v-12l-1-1zm0 14v11q2 2 5 1h23q3-5 1-12zm128-13q7-3 12 2l5-2h13v2l-15 1q-2 6-1 11l24 1q3-6 5-1v7q-3-3-6-4h-11q-6-1-12 1v10l1 1h22q3-1 4-3h3q-2 4-6 6l-25-1-2-1q-5 4-11 2-2-1-4-5l-1-19q0-5 5-8m0 2q-2 3-2 8l1 17q3 5 8 3 4-1 4-5v-21c-2-4-8-2-11-2m73 0q2 0 6-2 5 1 4 8h-10v4h10v2h-10v4q-2-2-1-5l-1-7h2zm4 2-2-2v3h7l-1-3q-3 0-4 2m523-1c2-1 7 0 5 3h-7q-2-3 2-3m-25 1 3-1 1 5h-4zm6 4q-1-4 2-5 4 0 3 5z"/><path d="M197 288h2v6l-2 1zm469 6h3v14q1 4 4 4h11q3 0 3-3v-16h3v16q-1 5-6 6l-13-1q-5 0-5-5zm-71 2q4-3 7-2v2q-4 0-6 4v35q0 4 3 5l13 1q3 0 3-4v-15l4 1 1 13-3 1-2 5-2 1-17-1q2 8-6 9c-6 0-13 2-18-2l-4 3-16-1q-2-1-3-4l-1-15 3-1v15q0 3 3 3h13q3 0 3-4v-15h3l1 16q0 3 3 3h14q3-2 2-8v-35l-4-2h-14q-2 4-2 7l1 13 1 4-1-4v-1h-4v-16l-5-2h-11q-3 0-3 3v14h-2v-14q-1-3 3-5h14l5 1c4-4 11-2 16-2q4-1 7 2-2-5 1-8m10-1c4-2 12-2 13 4q1 3-2 4l1 11-2-1 1-10-2-6-9-1zm705 3h25v2l-25 1zm-172 1c8-3 17 5 15 13q-4 10-14 7-8-3-7-12 1-5 6-8m1 3c-5 2-7 9-2 13 4 5 12 2 13-4s-5-12-11-9m42-4c2 1 6-1 6 2l-4 1v120l-2-4zm243 1 7-1v191h-5l-3-1 5-1 1-10V301zm-790 6h15v16h-30v-4l1 3h14zm-250 3 2 3h-1l-22 1h-1v-3h2l12 1q4 0 8-2m407 8q0-5 5-6h13v2l-13 1q-4 3-3 8-2 6 3 9h12q2 2-1 2h-11q-5 0-5-5zm-586-1q5-2 7 3l1 15q1 6-1 11l-3 3c-4 1-11 2-13-3-3-4-1-9-2-14 1-5-1-11 3-14q3-3 5 1-3 0-5 3v12l1 11c2 4 12 3 12-3v-19q-2-4-5-6m22 2c1-2 6-4 5 0q-3 1-4 3v20q0 4 5 5l-1 3q-5-1-7-6v-17q0-5 2-8m6-1 2-1q8 0 8 8v19q-1 5-6 5c-1-3 4-3 4-6v-20q-3-5-8-5m979 2h190c5-1 10 5 9 10v129q1 7-2 12-3 4-10 3h-181q-10 0-10-10V327q-1-5 4-9m7 16c-3 7 1 17 9 18q7 1 12-4-5 1-8-1v-9h3c0 3-2 8 3 8v-7l3-1v7q3-4 2-9-1-4-5-6c-6-5-15-3-19 4m130-5q-8 2-8 10 2 11 12 12 12-1 11-13c0-7-9-12-15-9m34 0q-8 1-11 10 0 6 7 10c6 3 16 2 21-4q5-5 0-11-7-8-17-5m-94 0c-4 2-4 8 0 10q6 2 8-4 0-7-8-6m-43 7v12l7 1q5-4 2-9-2-3-6-1v-5q-2 0-3 2m12-2v15h3v-15zm7 5c-3 1-3 7 0 9q6 2 8-4 0-7-8-5m9-1q1 3 3 5l-4 5h4l1-3 3 3 3 1-3-6 3-5-4 1-1 2q-2-3-5-3m-50 24v12h2v-8q3 5 8 8l-1-13-1 1v8l-6-8zm64 0-3 9-4-9h-2l-1 12 2 1v-10q2 5 5 10l3-9v8h2v-12zm-51 0v12h9v-2h-7v-3c2-1 6 1 7-2h-7v-4h7l-1-1zm14 0c-5 3-3 13 3 12q7 0 6-7t-9-5m18 2c-2 4-1 11 4 10s4-9-2-8q3 2 3 5-1 2-3 1-2-3 1-4l-2-2q0-3 3-2l3 1c0-4-6-4-7-1m32-2q-3 3-2 8t6 4q3-4 2-9-1-4-6-3m16 0q-2 3-2 8 1 5 6 4 3-4 2-9-1-4-6-3m10 0q-3 4-1 10 1 4 6 1 3-3 1-8-1-4-6-3m8 5 4-2v9h2v-13zm-74 3q5 2 6-1-4-1-6 1m31-1 1 2q3 0 5-2zm17 0q0 2 5 1-1-2-5-1m-65 14q-2 5 1 9c3 3 8 0 7-4q-2-4-7-3l3-3 3 2c1-4-6-4-7-1m21 1 2 1 1-2v5h-3l-1-3-2 5h6v3h1l2-4q-2-4-1-9zm-41 1c2-1 4-4 6-1-1 4-6 5-7 9h9q-1-3-6-2 4-3 6-7c0-5-9-4-8 1m9 5h5v3l3-4q-1-3-1-8h-1q-4 3-6 9m20-2q4-3 6 0 1 3-2 4zc-1 5 7 5 8 1q1-5-5-5 1-3 5-2v-2h-6zm21-6q-2 4-1 9 4 5 8 0 1-6-2-10-2-2-5 1m9 1h6l-5 9 2 1 5-12h-8zm11-2q-2 4-1 9 1 4 6 3 4-4 1-10-2-4-6-2m13 0-5 9h5q0 3 2 3v-2q3-2 0-3v-8zm6 1 5 1q-3 4-4 10l2-1 5-11h-6q-3 0-2 1m11 0q-3 5 0 10l5 1-2-2q-2-1-3-4 6-1 4 3l2 2v-6l-6-1 3-3 3 2c1-3-5-5-6-2m37 16v5h4v-5zm-138 5q3-3 6-2c1 4-5 6-6 10h8c2-3-4-2-5-2q5-2 5-8c-1-4-8-3-8 2m110-5v34l1 30h63v-4h-9v-9h5v4h4v-4h-4v-5h5v-5h-5v-4l-5 1v8h-4v-5h-5v5h-4v-5h4v-4h-4v-5h9v5h3l2-4h4v4h5v-5h-5v-4h5v-5h-5v-4l-9-1-1 4h-4v-4h-9v-4h-5v5h-4v4h4l1 5h8v4h-4l-1 14h-8v-5h-5l1-4h4v-9h-5v-5h-9v-4h14v-5h-5v-14h-5v14h-9v4h-4v-9h9v-9h-5v5h-4v-5zm37 0v9h5v-9zm9 0v9h5v5h4v-9h-4v-5zm9 0 1 5h4v4h4l1-4h-5v-5zm-154 5 3-1v9h2q1-7-1-13zm8 5h6v3h2l2-4c-3-2-1-6-2-8q-5 3-8 9m11-6c-1 4 4 6 7 4l-3 4q-1-3-4-2 3 5 7 2 3-4 1-9-5-5-8 1m140 10v4l5 1-1-5zm-168 6q-2 2-2 8 1 5 6 3 4-3 2-8-1-5-6-3m8 0q2 2 6 1-5 5-3 11 2-7 6-13zm12 0q-2 3-2 8 2 5 6 3 3-3 2-8t-6-3m10 0q-3 3-2 8t6 3q3-2 2-8-1-5-6-3m15 0q-3 4-1 10c2 4 8 1 7-3q-1-4-6-3l3-3 3 2q-1-5-6-3m-45 22q-10 6-6 16 4 9 15 8c6-2 10-10 8-16q-5-11-17-8m38 7v8l-8-1v-4c-3 0 0 6-2 7q-3 2-3-1c-1-2 1-5-2-6v8q4 2 7 1l1-3q3 0 5-2l2 5q4 1 6-1c3-4 0-10-5-7q1-4-1-4m9 0v13l2-1v-12zm29 1-5 11q3 0 3-3l5-1q1 3 3 5-1-8-5-13zm8 9q4 4 9 1 2-2 1-5h-5q2 3 4 2-1 5-6 2c-3-2-2-9 2-9q3 1 5 3 0-5-6-4-6 3-4 10m-31-6c-4 1-3 7 0 8q5 1 6-4-1-6-6-4m7-1 3 5-4 4h2l2-3q1 2 4 3l-3-4 3-5q-3 1-4 3zM971 322h182v10l-2-1v-7H904q0 3-2 5v-7zm-307 0h3v16h-3zm-350 3q2-2 4-1l4 2 2 1-3 3q-1-3-4-4-2 1-5 3l-14 14q3 6 8 8 11-7 18-18l1-1 1 3-16 16q-2 3-6 2l-3-4q-6-1-5-7l6-7z"/><path d="M1289 330q5-1 7 3c1 4-6 8-7 3l4 1v-6q0 4-3 5l2-5h-2zm57 1q9-4 15 3 4 5 0 12l-6-6q4 2 5-2-2 0-5 2l-2-3c-1-1-1-4-3-1zm11 5q-1 2 2 1 1-2-2-1m26-6q10-1 16 6 3 5-2 9-9 7-19 1-5-3-4-8 2-6 9-8m5 10q-3-4-6-3c-3 2 0 4 1 6zq2 3 5 2v-5c-1-2-4 2-5 3"/><path d="M1288 337q-2-4 2-6zm-61-4 2 1q1 2-2 3l-2-2zm118-1 2 3-1 1-1 1 2 1 1 1-2 2v1l5-1q2 3 3 0l5 6c-5 4-14 2-16-5q0-5 2-10m-717 6v-4l3 2 2 2h6l10 1v16h-15l-15-1v-10l1 10h14v-15l-10-1zm621 4q1-3 4-1 2 5-3 6-2-3-1-5m19-2c3 0 3 6 0 7-3 0-3-6 0-7m-330 3 6-1h164q6-1 11 3 5 5 5 11v191q-1 12-13 12H943c-8 1-13-7-13-14V355q1-8 8-12m113 16v22l4 1v-18h31v-5zm-81 5v3h15l-15 6 1 2 15 5h-15v3h19q1-3-1-4l-14-5 15-6v-4zm3 23c-4 2-3 11 2 12 4 2 10-1 10-6 1-6-7-9-12-6m78 1v5h35v-5zm-81 17 1 6-1 2 21 1v-3h-7q2-3 1-5c-2-7-12-6-15-1m81-4v23h4v-18h31v-5zm-35 8q-1 3 2 7-4-1-6-4c-2-3 2-4 3-7q-7 1-6 7 2 5 8 5 5 2 10-1 5-6-1-11-7-3-10 4m-45 8-1 3h20v-3zm39 16h2v-10c3 3 6 9 11 10 5 0 8-7 5-11q-3-3-6 0 4 1 5 4 0 5-6 3-5-6-11-10zm-37-10q-5 5-1 11 3 3 3 0-2-2-3-5 1-3 5-4v11q9 0 8-8c-1-5-8-6-12-5m96 12q-2 1-5 1h-13v5l15 1 20 14v-6l-16-11 16-11v-6zm-58 13q5 3 9-2 4 4 8 0 3-5-2-9-3-1-3 2 4 1 4 3 0 4-5 3-1-2-3-5l-1 5q-6 3-7-3l5-4q-1-2-3-1c-4 1-5 8-2 11m-40-1v12l2 1v-10h17v-3zm39 5-1 3h16l-14 5q-3 2 0 3l13 5h-15v3h20v-4l-16-5 16-6v-4zm44 15c-6 7-5 19 2 26h13v-15h-5v11l-6-1q-7-9 0-18c4-6 14-6 19-3 8 5 7 19-2 22l1 4q7-2 10-8 3-10-3-19c-7-9-22-8-29 1m-79-4c-6 2-7 13 0 16 6 3 16 0 15-8 1-8-8-12-15-8m34 12v3h9l1 10h-10q0 2 2 2h17q2-1 0-3h-7v-9h8v-3zm-38 8v3h8q1 5-2 7c-2 2-8 3-6 7h1l7-6c1 5 8 7 10 2l1-12zm39 9v14l2-1v-8l11 9 1-13-2 1-1 8zm52 8q-6 2-10 8-4 10 2 20c6 6 17 7 25 3 10-5 11-21 2-28q-8-6-19-3m-91 4 5 2v8l-5 2v3l15-6q4-1 4-3-4-3-10-5t-8-5q-2 3-1 4m-1 23c0 6 8 9 11 3q4 3 7 2 5-6-1-11-3 0-3 2 3 1 4 3 0 4-4 4-2-2-3-5l-2 4c-1 3-7 1-7-2q1-4 5-4c-2-5-8 0-7 4m1 8v13l2 1v-10c4 3 6 9 12 10 6-1 7-10 2-13q-3 0-3 2l4 3c1 2-2 6-5 4-5-2-6-9-12-10m106 3q-6 2-6 9 3 10 13 8 7-3 6-12c-2-5-9-8-13-5M181 359l12-1 1 2 1 14q4 4 10 5 3-2 6-2v3h-5q-6 3-11-2h-3v-17l-9 1-1 3q-2-3-1-6m399 2 16-1q3 1 4 4v19l1 18-3 5q2 4 3 8v35q-2 3-5 3h-16c-4-2-2-7-2-11l-6 2v-2l5-3v-20l-2-6-11 1q-2 2-2 5v21q2 2 4 2l1 1q-3 2-7-1l-12-1q1-2 4-3v-4h-5q6-4 12-1l-4 1-1 4 6 1-1-9h-2q3-2 2-6l-5 5-2-4q3-3 8-2c0-4-2-10 3-12h11l3 2 3-6q-3-4-2-7l-3 3h-10q-5 1-5-5v-23c0-3 5-7 7-4v1l-4 2-1 24q2 4 6 3c2-1 6 1 7-2l1-6 2-2v-14l-7-5v-1h7c0-3-2-8 2-9m0 5v13q2 5 1 9h-1v14l2 2h12q4 0 4-3v-13l-2-2v-5l2-1q2-8-1-17h1-16q-2 1-2 3m2 42-2 4v13q3 4 1 8-2 6-1 12-1 4 2 5h15q2-3 1-7v-10c0-2-3-6 0-7v-14l-2-4zm-27 15v2q3-1 0-2m773-59q4-1 3 3 1 4-2 6-4-4-1-9m-77 0q4-2 6 1 2 6-3 7c-4 1-5-5-3-8m51 0c2-2 4 2 3 4 1 2-1 6-4 4zm16 0q3-2 3 2c0 2 1 7-2 6q-4-3-1-8m202 4 5-2v4zm-672 4q1-3 3-4h18q3 1 4 4v17h-3v-17l-2-2h-14q-4 0-4 3v16h-2z"/><path d="M582 374h13v19h-13v-19m77 7q2-4 5-4h13l5 2h16q3 1 5 3l2-1 5 1-1 2-3-1q-3 2-2 4l-1 13h-2v-17q-3-3-7-2-6-1-11 1-2 8-1 16h-2c-1-6 1-12-2-18h-13q-3 0-4 3l1 14h-3zm-108-2q4-1 7-1 0 2-4 3l4 3-6 1 1-4h-2l1 3q-4-1-5-4z"/><path d="m714 383 2-3 8 3 4-2h16l1 1 1 6q7-3 14-1l1-4 3-2h15q5 1 5 6v13l-2 2v-15q0-3-4-3h-13q-2 2-2 5l-1 31q0 5 3 7l13 1q4-1 4-5v-13l2 1v13h7l-5 3-1 12h29l-1-12q-10-1-21-1l1-2h17q5-1 6 3v11q0 4-3 3l-13 1v25l-2 3q-6 2-12 0l-3-3-1-22h-26q-5-3-3-8-1-5 1-8 3-2 7-1l-1-8-9-1 1-1q6 2 8-3v-25h-13l1 28-2 2c0 3 2 9-3 10h-17l-2-2c-5 4-11 2-17 2q-4 1-6-3l-16 1q-3-2-6-2l-1 1q-1-3 1-5v-16h3v17l2 2h15l1-1 1-16 2 1 1 17q4 3 10 2 6 1 8-2v-17h3v16q1 3 3 3h13l3-2v-39q0-3-4-3h-11q-3-1-4 3v15h-3v-16q-3-3-8-3m41 49q-1 5 1 10l6 1h20v-13h-22q-4-1-5 2m34 8q-3 2-4 5v19q0 4 4 4 5 1 9-2v-17l-1-7q-3-3-8-2m487-58q4 0 3 4 1 4-2 5-3-1-2-5zm20 0q3 0 3 3 1 4-2 7-2-1-2-4-1-4 1-6m9 6 2-4v5zm-70 0 3-4v4zm-687-1c3-2 11-1 11 4h-2q-4-4-9 0l2 2c2 0 6 2 7-2l1 2-2 3c1 1 5 2 3 3q-6 0-11 2-1-3 1-4h6c-2-2-6 0-7-3zm993 3q0-4 3-4l1 4zm5-4 3 1v3h-3zm-300 2c2-3 5 1 3 3s-5-2-3-3m-418 1 13 1q6 5 4 14 0 6-5 7h-15l1-2h13q4-2 3-7 1-6-2-10l-12-1zm146 0c3-2 9 0 9 4-1 5-9 5-10 0q-1-3 1-4"/><path d="M798 402q-2-7 4-12h15l-1 1-13 1q-3 4-3 9-1 5 3 8h14l-1 2h-13q-5-2-5-9m50-6h2v18q2 2 6 1h13l2-4c3 1 1 7-2 6h-18q-4-1-3-6zm22 12 1-12 1 2 1 10zm387-7c2-1 3 4 1 4-3 1-4-4-1-4m-12 5 3-4v4zm-270-2q5-1 8 2c1 6-9 7-10 2q-1-3 2-4m543 6q1-4 3-6 3-2 7 1l2 6zm-859-4h2l1 15q0 1 2 3h10l-1 3c-5-1-11 1-14-4zm361 2q6-1 7 3c0 4-8 5-9 1zm-529 2h4l1 58-1 35-13 1h-91l-14-1v-23q-1-4 1-9 2 8 1 16v14h114v-77q-4-4-9-7h-4q-4 3-9 2h-92v46q1 3-2 3v-52h99q7 2 13-1zm-149 3h23q6-1 7 3v41l-4 2h-19q-6 2-11-3l1-13v-11q-2-9 0-18zm0 3-1 1q-2 6 1 11h26q3-1 2-5 1-4-2-7h-26m1 14q-3 2-2 5-1 4 1 7h26q3-3 2-7 1-4-2-5zm-1 14q-2 7 0 12l25 1q3 0 3-4 1-5-1-9zm241-25 11-1 2 2v18l-13 1-1-2 1-11zm643 0q2 0 3 2 2 5-2 8-3-5-1-10m20 0q3 0 4 4 0 5-4 5zm10 0q2-1 3 2 1 4-1 7-2 1-3-2t1-7m82 2h4v4h-4zm37 0h4v4h-4zm-825 7c-2-1-2-6 1-6l-1 4q3 2 5 3-3 3-5-1m720-4h4q1 3-2 4-2-1-2-4m-291 1q4 1 4 4-1 3-4 5zm202 3 2-3v19l1 45h-3v-61m171-2h4v4h-4zm32 0h4v4h-4zm-46 4h4v5h5v-4l4-1v14h-4v-5h-9zM127 440q1-5 5-7h25q5 4 4 10l-1 2-1 3q2 3 1 7l-8-6h-17q-5 0-5 5l-2-3-1-1 2-2q-3-3 1-5l4 5h17q3 0 5-2l3-4q-1-3-3-5-3-3-8-2h-15q-3 2-4 6zm1414 1q1-6 6-5 2 2 2 5zm-992 0q2 3 4 6c4 1 5-4 6-6q3 6-4 8-7 0-6-8m793 3h5v14l-9-1v-8h4zm10 0h4q0 5 1 9h4v4h-4l-1-3-5-1zm18 0h4v13h-4zm172 4q4-3 7 1c2 6-11 4-7-1m-240 1 2 5h-4zm-38 3 3-1q3 3 1 6l-4 1zm14 0c4-3 6 4 3 6-4 1-5-4-3-6m-1150 4 2-1q0 6 5 7 4-1 6 1c-6 2-12 0-18 2l-2 4q-1 8 3 13h12l1 3-14 1c-4 4-2 10-2 15q2 3 5 3h32q3 0 4-3v-12q-2-3-5-3-6 0-12-2c4-3 10-1 15-2q5-6 2-15c-2-4-7-2-11-3q-4 1-6-2h10l4-5 2-1-1 6 3 2q3 7 2 13-1 4-4 7 3 3 3 7 1 8-1 14l3 1v24h-31c-4-1-8 2-12-1l-7 1v-24l4-1q-3-7-1-16 1-3 3-5-4-3-4-8-2-7 4-13l7-1-1-3zm-9 52v20h45v-21l-18 1-1-2h-7l-2 2zm53-50 6-1q5 1 7 5l1 13q2 9-3 16l3 6v20l-2 5c-5 5-16 2-16-5v-19q1-4 3-7-4-7-3-16v-13zm-1 6-1 20q1 5 7 6 7-1 7-7l-1-19q-2-3-6-4-5 0-6 4m3 29q-3 2-3 6v19q2 5 8 4 5-1 5-6l-1-20q-3-5-9-3m803-29c4-2 11 1 11 6 0 7-12 8-15 2q-1-6 4-8m-638 8q2-4 6-4h21q4 0 6 3 2 6-1 12 4 7-1 13 5 7 2 15 3 9-1 16h-26q-4 1-6-3l1-13-1-12 2-2q-2-3-1-7l1-7q-2-3-1-6 2 4 6 5h17q4 1 6-2c2-4 1-10-4-10h-19q-4 1-5 5h-2zm6 12-4 6 3 6h18q6 1 8-3 1-5-2-9h-23m-2 15q-2 1-1 5-1 3 1 6h26q2-2 1-5 1-5-2-6zm-2 15 1 10 4 1h21q2 0 3-2v-8q1-2-2-3h-18q-4 0-9 2m-87-32q0-4 4-7h2v3q-3 1-4 3v22q5 6 11 2 3-4 2-9v-15l-4-3v-3q6 1 7 7v20q-1 6-7 7h-6q-5-2-5-7zm727 3h7c-1 4 1 9-3 11q-6-4-4-11m-261 10q-1-5 2-8h6l1 2h-1l-5 1-1 43v1h3l2-1h7v-18l1 18 6 1v-19h1v19h1l2 2 5 1-1 4-3 1-1-5-2-1h-7q-4-4-10-1l-6 1v-7h-11l-2-1h-15l-2-2 1-5-1-2 1-23q8-3 16 0l2-1zm-27 2v29h9q2 1 3-1l1-22q0-4-2-6zm15 0v29l12 1-1-29zm25-10h6l16 1q2 2 2 6h12l2 4v24q1 4-2 6h-12l-1 7h-6l4-2v-43h-1l-16-1q-3 1-4-2m24 39h11v-29h-12zm678-15q10-19 31-21c-1 24-4 51-18 72q-11-8-15-20-6-16 2-31m48-19q15 8 22 23c6 16 0 36-15 46q-11 8-25 7 19-36 18-76m-710 7q0-4 4-4 6-1 12 1l2 6-1 22q1 3-2 4l-11 1q-3-1-4-4zm2-2v22l1 7h11l1-5v-23zm34 1q5-2 11-1 3 0 5 2v24q1 4-2 7h-12l-3-2-3 2h-11q-3-4-2-8v-24q5-2 10-1 3-1 7 1m-15 1v28h10q3 0 3-3v-19q1-4-2-6zm16 1zv23q-1 4 2 3 5 1 10-1l1-21q1-4-3-6zm253 4q10-3 16 3c6 5 4 15-2 19-7 3-18 2-21-6-4-6 0-15 7-16m-84 2 8 3-8 3zm322 4h23v45h-23v-3h-42l-1-1q-5 2-10 1h-11l-1-2 5-1v-27l-4-1v-2h23q6-1 12 1 7-3 14-1h13l2 2zm2 2 1 41h18v-41zm-59 10v28h10q3-3 2-8v-19q-2-3-6-2zm15 0-1 14 1 14h10l2-4v-20q1-4-3-5t-9 1m14 5 1 23h10l1-20-1-8-9-1q-3 2-2 6m15-4v27h11l1-6v-21c-1-3-6-1-8-2q-4-1-4 2"/><path d="M131 525v-14h21v14l-4-1q-8-1-17 1m1205-7q5-2 10-1 5-1 5 4v26l2-18h50l6 1 1 7-1 26h-52q-4 1-5-2v-15c-3 5-8 3-13 3q-5 1-5-4v-20q-1-5 2-7m1 1-1 5v21q1 2 4 2l8-1q2-2 1-6v-18q0-2-2-3zm18 13v28h52v-28zm-171-10c0-5 5-3 8-3l1 2zm-11-1q2-3 6-3c0 3-4 3-4 6l1 26h29l-1 2h-19l-12-1zm23 0q1-3 7-2l12 1c6-3 13 0 19-1v2l-4 1v26q1 3 4 2v2h-19q-4 1-6-1 4-1 4-3v-26zm21 0-1 4v22q0 3 3 3 4 1 9-1l-1-27zm-142 29c-4-5-1-13 6-13s10 10 5 14q-6 5-11 0l4-3q3 3 6 1l1-8h-11q1 3 5 2l-1 3q-3 1-4 4"/><path d="M1081 548c1-2-1-5 2-5q2 1 1 5zm-393 1 4-1h112l1 17v34l-2-1v-21q0-2-2-3l-9-1h10v-23H691v23h9-12v28zm464 18zv8H901v-8h1v6h250zm-1031 8q9-2 10 7c0 6-9 9-13 4q-4-8 3-11m39 0c5-2 11 2 10 7 0 6-9 8-12 3-3-3-2-9 2-10m39 0q7-1 9 3 2 6-3 9c-3 3-10 0-10-5q1-5 4-7m39 0q9-2 10 6-1 9-10 7c-5-3-5-11 0-13m78 0c4-2 10 1 10 5 1 5-5 10-10 8-5-3-5-11 0-13m79-1c6-2 11 5 9 10s-10 6-12 1q-4-7 3-11m39 0q9-1 10 8-3 9-11 5c-4-3-4-11 1-13m39 1c5-2 11 2 10 7 0 6-9 8-13 4q-4-8 3-11m117 0c4-2 10 2 10 7-1 6-9 8-13 3q-3-6 3-10m-313 0q7-2 10 4c2 6-5 12-10 9-5-2-5-10 0-13m78 0c5-3 12 2 10 8q-3 8-11 4c-4-3-3-10 1-12m156 0q9-3 11 6-1 9-10 7c-4-2-5-10-1-13m39 0c4-3 11 1 11 6 1 5-6 9-10 6-5-2-5-9-1-12m660 1q2 1 1 4h4l1-3q1 5 1 10-5 2-7-1l1-7h-1zm2 5 2 2-3 1 2 2q3-2 1-6zm-16-4h2v9l4 1-10 1 1-2h3z"/><path d="M1201 580q3-4 7-2v2c-2 0-4-3-5 0q2 2 5 3 1 2-1 4h-6c0-4 4 1 6-2q-4-2-6-5m-286-2q2 3 3 7l1-6h3l1-1 4 6q0-4 2-6v10q-3-2-5-6c-1 2 1 6-2 6v-8l-2 1-2 7c-2 1-2-3-2-4q-4-2-1-6m129 0h2v5l3-1-2 4-1-2-2 3zm9 1 4-1q-3 4-1 10h-3z"/><path d="M1058 586q-3-6 3-8 3-1 4 2c-2 0-7-1-6 3-1 4 4 3 6 4 1-4 5 1 6-2q-2-2-4-2-1-2 0-5 4-1 5 3-3-2-5 0l3 1q3 1 2 4-3 3-7 1-4 3-7-1m-156-8c2 1 6-1 6 2q0 3-1 4l2 4q-3-1-4-4 0 3-2 4zm2 2v3l3-1q0-3-3-2m6-1 1-1 1 5c3 1 3 6 0 5zm51 4q0-3 2-4h42q3 2 2 6v22q0 4-4 5c-4-1-8 1-12-2q-7 3-14 0-6 2-12 1-3 0-4-4zm5-2q-3 0-3 2v20l1 5 9 1q3-1 2-3v-25zm12 0v27h11q2-2 1-6v-20q-6-2-12-1m15 0v28h11l1-1v-14l-1-13zm56-2 2-1-1 10-2-1zm341 3zl8 1-2 1h-7zm-26 4q5-2 10-1h20l-6 7 4-4-26-1v42h22l2 2h-21l-4-1-1-4zm-810 18q5-2 8 1l1 7h-11c1-2-1-6 2-8m1 2q-2 2-1 4h8c1-3-4-5-7-4m-438 9c0-3-2-8 2-10q4 0 6 5 2 0 3 2h-11l1 2 10 3v2l-11 4v-2l8-3zm2-7v3l4-1-2-3zm237 4q1-4 5-6c3 1 5 7 1 8q2-5-2-6-1 5-5 5-4-3-1-6c3 1-1 4 2 5m76-5 8-1 4 2-3 1-1 5q-5-2-8-7m3 2q3 3 4 0zm-275-2h12c-2 3-6 1-8 2q5 1 8 3l-9 4q5-2 9 1-6 1-12-1 3-3 8-4c-3-2-7-1-8-5m77 0h1l1 5q2-3 5-5c3-1 6 6 2 6q1-3-2-5l-2 5h-5zm43 7c-4 0-5-5-2-7l1 2-2 2q2 3 4 1l1-5q3-1 5 2 1 3-1 5l-3-1 3-1q1-3-2-3-2 0-1 3zm39-7 4 1q3 4-1 6l1-3q-1-2-3-2v4l-2-2-2 2c-3-1-3-7 0-6l-1 5q4-2 4-5m77 5q0-5 4-5c3 0 5 7 1 6q1-4-3-5v5q-5 2-6-4l2-1zm77-4q5 1 8 3v-4h1v8q-4-4-7-5c-3-1-1 3-1 4-4 0-3-5-1-6m116-1q6 1 11 4 1 2-2 3l-9 1q3-3 9-3-6-2-9-5m-69 4h1v7q-3-4-7-6-3 3-1 5-4-2-1-6c3-2 6 2 8 4zm-320 4q-1-3 1-4v3h10v2q-5-1-10 1v7h3v-4l2 1v3h3q0-2 2-5v7h-11zm1227 2 7-6-4 4v14q0 2-3 2h-18l4-2h15zm-875-3 11 1v1l-7 5h7v2h-10q0 5 3 9 6 1 6-6c-2-1-3 3-5 2-1-4 4-4 6-3q1 4-1 7-4 4-8 0-3-2-2-7l1 1-1-4q3-4 8-6c-2 0-7 2-8-2m-237 2h4l2-1c4 0 5 5 2 7q1-5-3-5l-1 4q-1-4-3-3v3q-4-2-1-5m86 4q-1-4 2-4v7q-2-1-3-2-3-4-6-3v4c-4 0-3-7 1-6q4 1 6 4m-164-3h10l2 1h-10l1 3q-4-2-3-4m40 0c2-2 5 1 7-1q2 1 3 3 0 3-2 5c0-2 2-6-2-6l-2 3-1-4q-3 2-1 5-4-1-2-5m77 0q3-2 8-1c3 0 3 5 0 6q2-4-2-5l-1 4q-2-1-2-4c-3 0-1 3-2 5q-3-2-1-5m78 0 12-1-1 2h-7l-1 3zm39 1h11l1 1h-9v3zm119-2c2 2 0 5 2 6q1-4 5-5c4-1 5 6 2 7v-5c-3-2-4 3-5 5q-2 0-4-2zm-430 2q7 2 12 5l-12 4q4-3 8-4c-2-2-7-1-8-5m41 11q3-1 7-1l3-1q-1 4-5 3l1 3h5l-1 2-11-1q-1-3 1-5m0 4h3q2-2 0-3-2 0-3 3m602 8 1-8 1 1q1 5-2 7"/></g><g fill="#cca94c"><path d="M908 29q2-4 6-3l74 1q2 8 2 16l-83 6zm53 22 29-2v3l1 2-18 1-65 5-1-5zm-53 15q40-4 81-5l1 4-34 2-49 4zm74 6 7-1 1 5-35 2-48 4 1-5q17-2 34-3zm-44 14 52-4-1 3 2 2-65 4q-10 0-21 2 4-2 1-6 16-1 32-1m6 10 45-3 1 4 1 1q-29 1-58 4l-25 1-1-5zm24 9 21-1 1 32-1 6v13q7 0 10 5c5 6 4 17-2 22v56-1l-1-34 1-24q2-9-3-16-5-3-10-2h-76q-5 1-8 6l-1 12q-5-7-3-15 3-8 12-10v-45z"/><path d="M940 164q19-2 34 7 17 13 20 32 3 18-7 33l-16 14q-15 8-32 5-23-6-33-28-6-14-2-27a46 46 0 0 1 36-36m-819 13c6-2 14 2 16 9 3 9-4 20-14 19q-13-1-14-15 1-10 11-13m0 7c-5 3-5 11 0 14q9 2 11-7-2-9-11-7m79-7q14-2 17 12c1 8-6 17-14 16q-14 0-14-14 1-11 12-14m0 7q-7 3-4 11c3 5 12 4 13-2q2-9-9-9m77-7q7-1 12 2c6 5 7 15 2 21-5 7-17 7-22 0-6-8-2-22 8-23m2 7c-6 1-8 8-4 12 4 5 12 2 13-4q-1-9-9-8m76-7q10-1 16 6c4 7 1 17-6 21s-17 0-20-8 2-18 10-19m0 7c-5 3-5 13 1 14q9 2 10-7-2-9-11-7m196-7c7-2 15 3 16 10 3 7-2 16-10 18s-17-5-17-13q0-12 11-15m-1 8c-4 2-5 9-1 12s11 1 12-5c2-6-6-11-11-7m-393-8c7-3 17 1 19 9 4 9-4 20-14 19q-13-2-14-14 1-10 9-14m2 7c-5 3-5 12 1 14q9 2 10-7c1-5-6-9-11-7m76-7c8-3 18 2 20 10s-4 18-13 18c-8 1-16-6-15-14q0-9 8-14m2 8c-5 2-4 11 1 13s11-3 10-8q-2-8-11-5m77-8c8-3 17 2 19 10 3 9-5 19-14 19-8 0-15-9-14-17q2-8 9-12m2 7c-5 2-5 11 0 13 4 3 10-1 10-6 1-5-5-9-10-7m76-7q11-3 18 6c5 8-1 21-10 22q-11 1-15-8c-4-7 0-17 7-20m2 7c-5 2-5 11 0 14 5 2 12-3 11-8q-2-8-11-6m37-7c7-2 16 1 18 8 4 7 1 16-7 19-8 4-19-3-20-12q0-10 9-15m2 7c-5 3-5 12 1 14q9 2 10-7-2-9-11-7m37-7q11-3 17 6c6 8 0 22-10 22-8 1-16-6-16-14q1-9 9-14m4 7c-6 1-7 10-3 13 4 4 12 0 12-6q-2-8-9-7m35-7c8-3 18 2 20 11s-7 19-16 17q-12-2-13-14 1-10 9-14m2 7c-5 3-5 10 0 13 4 3 11 0 11-6q-2-9-11-7m76-7c7-2 16 1 19 7 4 8-1 19-10 21-8 2-17-5-17-13q0-10 8-15m2 8c-5 2-5 10 0 12q9 3 11-6c1-5-6-9-11-6m306 67q-2-8 5-14-1 8 1 16c5 7 14 4 21 5q-5 6-13 5-11-1-14-12"/><path d="M994 256c5-4 2-12 4-18 7 7 5 20-3 25q-11 4-20-4l-53-1h50c7 0 16 3 22-2m-730 18v2q-6 0-12 2l-1 8-1 1q-2-6-1-12zm14-1 15 1v12h-3q1-5-2-10l-9 1zm623 59h12v21h-11v10h11v20h-11l1-2q5-4 5-9c-1-4-7-4-7-8v-12q7-3 8-9-1-7-7-8zm240 0h10l-6 9c-1 5 4 8 6 11h-10zm2 32 6 1q-4 4-5 8 2 4 5 8-2 3-6 1c-3-2-1-5-2-8 1-3-1-8 2-10m-236 30h2l3 2v16q-4 3-8 1l5-8q-1-6-6-10zm234 0h11l-1 2q-4 3-6 7c0 5 6 7 7 11h-11zm-240 31zh12v1l-1 18q-3 3-8 1 4-4 6-10-4-4-9-9m240 0h11l-1 1q-4 3-6 8c0 5 5 7 7 10l1 2-12-1zm-237 31h9v20h-10l7-9c0-5-5-7-6-11m237 0h11q-4 3-7 8c-1 5 5 8 7 12h-11zm-239 30h11v20l-12 1v-1q6-3 8-10-2-4-6-8zm239 0h9q-2 5-6 9c-1 5 4 8 7 9l1 3h-11zm-238 31h10v20h-10l-2 7v-4l1-3q4-4 7-9-1-6-6-11m238 0h10c-2 4-8 6-6 11l7 9h-11zm-239 31 11-1v21h-11v-1l6-8c1-5-4-7-6-11m239 0 9 1-6 8q1 6 6 9l-1 2h-8zm279 31q11-8 20-16l16 20-19 15 2 9-5 4-7 6-3 3-8 6-3 3-4 2-5 5-2-3-6 3-6-5-2-2q-5-4-8-10-2-6-2-13-1-3 1-8l8-6h1l6-7 3-1 2-1-8-1h10l6-4q5 0 9-3zm-37 31q-1 2 1 4c2 0 1-5-1-4m10 16c0 3 3 1 5 2zM149 578c2-8 11-13 19-10l4 2q4 3 5 9c2 9-7 18-16 17-8-1-14-10-12-18m11-3q-6 3-2 11c3 4 12 2 12-4 1-5-5-9-10-7m314-8c8-2 16 6 16 14s-7 16-15 15q-13-3-13-15 0-11 12-14m-1 8q-7 3-3 11c4 4 13 2 13-4 1-5-5-9-10-7m-357-6q9-5 16 1l3 3c5 6 3 16-3 20-7 5-18 3-21-5-3-6-1-15 5-19m5 6q-7 3-3 11c4 5 13 2 13-4q-1-9-10-7m67 9c-2-7 4-16 12-17h4q11 3 12 14-1 12-12 15-12 1-16-12m11-9q-3 2-4 7c0 5 7 8 10 5q5-3 3-9-2-4-9-3m38-8c9-3 20 6 19 15q-2 12-14 14-13-1-15-14 1-10 10-15m1 8c-5 2-5 10 0 13q9 2 10-7-1-8-10-6m38-8q14-2 18 10c3 9-4 20-14 19-8 0-15-8-14-16q1-9 10-13m1 8c-5 3-5 11 0 13 5 3 12-3 10-9q-3-7-10-4m38-8c9-3 19 5 19 14q-1 14-15 15c-8 0-15-8-14-16q2-9 10-13m1 8c-5 2-5 10 0 13 5 2 11-3 10-8 0-4-6-7-10-5m38-7c9-3 18 3 19 12 0 7-5 15-13 16q-13 0-15-14-1-11 9-14m1 7c-4 2-5 9-1 12q8 4 11-4c2-6-5-11-10-8m38-8c8-2 17 3 18 11q2 14-11 17-12 2-16-9c-2-7 2-16 9-19m2 7q-7 4-3 11c2 5 10 4 12-1s-3-12-9-10m34-5c7-5 17-1 21 6 3 8-1 18-9 20q-12 4-17-8-4-9 3-16zm5 5c-5 2-5 10-1 13q8 4 11-5-1-8-10-8m76-6q14-3 18 9c4 8-3 18-12 19q-12-1-15-12-1-12 9-16m1 7c-4 3-3 11 1 13q9 2 10-7c0-5-7-9-11-6m38-7q12-4 17 6c4 7 1 17-6 20-6 4-15 1-18-6-5-7-1-18 7-20m1 7c-4 3-4 10 1 12 4 3 11-1 10-6 0-5-7-9-11-6m30 0q6-9 16-8l4 2 5 5 2 3q1 6-2 11-6 10-17 7c-8-3-12-13-8-20m10 0q-6 4-3 10c4 5 12 3 13-3 0-5-6-9-10-7"/></g><path fill="#9a7d3d" d="m907 49 83-6q3 1 5 3l-5 3-29 2-54 4-5-2q2-3 5-4m66 6 18-1 4 2-6 5q-41 1-81 5l-6-2q2-3 6-4zm-17 12 34-2q3 1 5 3l-6 3-7 1-40 2q-17 1-34 3-4 0-6-4l5-2zm-1 11 35-2 5 1q-2 4-5 5l-52 4q-16 0-32 1-3 0-4-3l5-2zm-29 13 65-4 4 2-6 4-45 3-37 2-5-2 4-3q9-2 20-2m7 11q29-3 58-4l4 1-6 5-21 1-60 4-6-2 6-4zm-33 65q3-5 8-6h76q5-1 10 2 5 7 3 16l-1 24 1 34v1h1c-2 6 1 14-4 18-6 5-15 2-22 2h-50v1c-7-1-16 2-21-5q-2-8-1-16v-56q-9-8-4-18-2 8 3 15zm40-3-10 3a46 46 0 0 0-24 60q10 22 33 28 17 3 32-5l16-14q9-15 7-33-3-19-20-32-15-9-34-7m-266 63zh11v14h-12zm42 2h12v14q-6-2-12 1zm21 2h12v14h-12zm22 9h13l-1 14h-12zm-202 15zh20v20h-20l-1 5v7zm-15 12h8v9h-7zm130 16h11l1-1v15h-12zm-73 29h13v13h-12v-1zm207 3h14v12h-13zm-252 4zh11v15h-11v1zm665 15c4-7 13-9 19-4l5 6q1 5-2 9v-7l-3 1v7c-5 0-3-5-3-8h-3v9q3 2 8 1-4 5-12 4c-8-1-12-11-9-18m8-1-2 2 2 2q2-1 2-3zm-413 61h14v12h-14zm-150 1h13l-1 14h-12zm21 1h12v14h-12zm-546 42h9v7h-9zm-14 51h23v11l-16 1h2q1-7-1-12zm1258 121c2-1 3 4 1 4q-2-2-1-4m10 16 5 2c-2-1-5 1-5-2"/><g fill="#010101"><path d="M25 147q11-11 27-11h856v6h-19v132q0 4 5 3h115V142h-20l1-6h520q12-1 23 2 22 9 24 32v442q-1 15-12 23-9 7-20 7h-310v-6h6v3l14-1q5 1 10-1c5-4 4-13-2-15q-5-1-8 3v-25h-4q1-4-1-7-4-5-9-2-3 4-3 9h-38q-1-6-4-10l1-30q1-5-2-8h10l2 1v35l3 1 1-37h13l1-2h-29l-1-26c0-3 4-3 4-6q-5 0-6 3v48l-2 21-5 4v5l-4 1v9l1 15q-4-3-8-2c-7 2-7 13-1 16h9l2-1q6 2 11 2c2-4 6-2 9-2v5h-116v-6h6q2 3 6 3l7-1q6 2 11-1c5-3 5-13-2-15q-4 0-7 2v-24h-4c1-5-2-11-7-10q-7 2-6 9l-38 1q-1-5-3-9-5-3-9 1-3 3-2 8h-3l-1 9v15q-3-3-8-2c-6 2-6 12-1 15q5 3 10 1l2-1 2 2h9l1-3h7v6H923v-6l6 1c4 4 10 0 15 1q6 1 11-2 5-8-2-14-5-1-9 2v-24h-4q1-4-1-7-5-5-9-2-3 5-3 9h-38l-2-8c-2-3-8-3-10 0q-2 4-2 7l-4 1v23q-3-2-8-1c-6 3-6 12-1 16h10q3-1 6 1h7l2-2 6-1v6h-90v-1q3-2 2-7l-1-1-1-1q8-1 9-9t-1-16q-2-5-8-6v-3l2 1v-34l-1-17h-15l-7-1v-17l-5-1 11-1q3-1 2-4l1-22-2-6 2-6-3-5-12-12q0 4-3 5-4-3-1-7c-7-5-17-2-25-3-5 0-7-5-12-5q-5 0-9-3l-15-15q-5-4-6-12-6-4-13-4-6 0-11 1l-2-4q3 0 6 2l16-1q2 4 6 3c6 0 12 2 17-2l2 2h17c5-1 3-7 3-10l2-2-1-28h13v25q-2 4-8 3l-1 1 9 1 1 8q-4-1-7 1-2 3-2 8 0 6 4 8h26l1 22-9-7h-25q-5-3-10-4l-6-2-3-4-2 2-8-10-6-5v-5h-4q1 5 3 8l14 16q5 2 9 2 6 3 11 5h24q3 1 4 3l11 12 8 7q2 5 3 10 4-4 1-10-6-7-12-15 6 2 12 0c12 14 28 25 39 40q1 6 6 10h19l15-1q7-4 13-10l10-1-2-2h3v11h-12v20h12v3h-53l-5-2-17-17 1 6 10 9q3 5 7 7l10 1h38l9-1v5h-12v19h12v8h252v-8h12v-19l-12-1v-10h12v-20h-12v-4h16l2 3q0-4 2-9 0-1-1-3l-7 4h-12v-2h12v-20h-12v-11h12v-20h-12l-1-9-12-1 1-20v20l12 1-1-2h13v-19h-12v-12h12v-19h-12v-11h12v-20h-12v-11h11q1 3 4 7 3 3 3 5l1 73c0 5 6 6 9 8v44h9l1 13h12l-1-13h6l-1 13v4h-16q-4-1-6-4l-11-11q0-8-1-14h-18l-1 4 16 1 1 11 10 11q3 5 8 6h28v-8h2v-13h6v13h12l-1-13h6v13h12v-13l5 1v12l12 1v-14h5v14l4-1q-1 6-5 10-2 2-2 6 5-4 10-9 4-2 5-6v-14h5v13l1 7 7 1-1 9h-14q-7-2-14 1-6-2-12-1l-2-1c3-6 9-8 12-14h-5q-7 6-10 15h-10l4-11 5-5h-6l-5 8 1 8h-7v2l4 1v27l-5 1 1 2h11q5 1 10-1l1 1h42v3h23v-46h-23v-6l4-1v-13h34v14h12v-13h5v12h3l-1 6-10-2-1-3-5 1-5 7 6-2 9 3 12-2v-8l4 1v-14h5v13l1 7h8l1-6 2-1v-12h5l2 12 1 9q2 9 1 18h-41l-2 18v-26q0-5-5-4-5-1-10 1-3 2-3 7l1 20q0 5 5 4c5 0 10 2 13-3v15q1 3 5 2h52l1-26-1-7-6-1-4-1-1-26h4l1-12h5l-1 12h12l1-13h11V298h-10v-12h-13l1 13h-5v2l-1 4v-19l-4-1v-16h6l1-21 4 1v20h6v-19l1-6 3-2v-21l1-13-1-33h-4v-27h-6v27h-4l-1-27-5 1v26h-4l-1-27h-6v27h-4v-27h-6v27h-4v68h4v26h6v-20h3l1-7v27l6 1v15l-4 1v12h-5v-12h-12v13l-5-1v-12h-13v12h-5v-12h-12v12h-33v-12h-12v13h-5l-1-13h-11l-1 12h-5v-12h-12v12h-5v-13h-12v14l-5-1v-13h-4v-48q-1-13 1-27h2l1 2h18q6 8 14 14 18 20 45 21 26-2 41-24c12-16 13-39 3-56q-14-24-41-28c-18-2-38 6-49 21q-10 7-15 16l-23 1v3h-28v7h40v16h-40v7h27v75h-4v14l-5-1v-13h-12l-1 13h-5v-13h-12v13h-9v119l2 4v4l-2 3v14l-5-5v-72q-2-9-11-13v-19l-12-1v-10H902v7l-1 3v1h-12v19h12v12h-12v18l12 1v11h-12v19c8-1 16 2 24 1v-20l1 21h-13v10h-12v19h12v11l-12 1v19h12v11h-13v18q-1 3-3 4l-8 7h-28q-5-3-9-8-18-21-40-40v-25l13-1q3 1 3-3v-11q-1-4-6-3h-17l-1 2q11 0 21 1l1 12h-29l1-12 5-3h-7v-13l-2-1v13q0 4-4 5l-13-1q-3-2-3-7l3-36h13q4 0 4 3v15l2-2v-13q0-5-5-6h-15l-1-8h3v-6h10v-9h5v-4h-6v-2h6v-4h-6v-2h6v-4h-3l-3-1v-2h6v-3l-6-1v-2h6v-4h-6v-3h6v-3h-6v-2h6v-5h-6v-2h6v-4h-6v-3h6v-3h-6l1-3h5v-3h-5v-9h-10v-6h-3v6h-4v-6h-3v6h-3v-6h-3l-1 6h-2v-6h-4v6h-3l1-6 1-4 4 1v-4l-4 1 4-10h-3l-4 7q-2 3-1 8l-1 1v6h-2l-1-6-3-21h-4q4 9 2 20l-3 1 1-5-1-3-1-5q-2-3-6-3l1-5-5-1c6-1 12 1 17-2q4 5 9 3l1-2-7-1q-2-9-1-20h-2l-1 17q-3 3-7 2c-3-1-8 1-10-2l-1-16-2-1-1 16q-1 2-3 2h-13 1l1-2h12v-27l-1-13h-12v26l-1 14h-2v-18q-3 2-2 6 1 7-2 14h-7v2h8q-2 2-1 5l3 1q4 8 12 13h5l2 4-4 1-1 5-9 1v9q-4-1-6 3h2l4 1v2q-4-1-5 2 1 2 5 2v3h-5v3h5v2l-5 1-1 1q-7-1-13 1-6 4-10 9v-6h-3v16h3v-5q7-5 13-11 7-3 14 0l-11 1-7 7-8 9-1 16q-1 7 3 10 3 4 8 3v-22q6-6 10-13l8-1v4h-5v3h5l-2 3h-3v3l5 1v2h-5v3h5v4h-5v3h5v9h9l1 6-1 8-2 1q-2-2-5-3h-16l-5-2h-13q-3 1-5 4v16h3l-1-14q1-3 4-3h13c3 6 1 12 2 18h2q-1-8 1-16 5-2 11-1 4 0 7 2v17h2l1-13q-1-2 2-4l3 1 1-2 3-2-4-7 1-6h2v6l3-1 1-6h2l1 6 3 1v-6h1l1 6h4v-3l1-2h2v12l-3 1-4 2-8-3-2 3q5 0 8 3v16h3v-15q1-4 4-3h11q4 0 4 3v39l-3 2v-29l-1-13h-12v42q-2 0-3-3v-16h-3v17q-2 3-8 2-6 1-10-2l-1-17-2-1-1 16-1 1h-15l-2-2v-17h-3v16q-2 2-1 5l-3 1q-1 2-3 3l-10-2-7-5v-18l4-5q-3-2-4-5 0-11-1-22-1-4 1-9-4-5-6-10h16v-17h-32l-2-2 5-1 27-1-2-9q-15-1-29-1-3 1-4 3v11h-10l1 6v10l15 1v3h-18q-4 0-3-3v-12h2l2-6 3-1-1-13-4-1v15q0 3-3 4l-13-1q-3-1-3-5v-35q1-4 6-4v-2q-3 0-7 2-3 3-1 8-3-3-7-2c-5 0-12-2-16 2l-5-1h-14v-4l-7-2-12 2h-13l-9-3-7-1v-3h6v-4h-5l-1-4h5v-4l-5-1v-3h5v-4h-5v-4h5v-4h-5v-3l5-1 1-3h-6v-5h5l1-3-6-1-1-9h-9v-6h-4v6h-5v-6h-3v6h-4v-6l-4 1v5h-4v-6h-5v7h-3v-7h-4v6h-3l-1-6h-4v6h-10v9h-6v4h6v4h-6v5h6v3h-5l-9-1h-51q-5 3-12 6-6 0-12 2l-2 6q8-6 20-6 4-3 8-5h57v2h6v4h-6q-9 7-16 15-2 4-6 3l-17 1v-1h-12v-5h12v-6l-12 1-2-4-17 1v3h-12v5h11v5h-11v5h11v5h-11v5h11l1 4h-2v3q-4 2-9 3l-8 9-25 25-6 8q0 8-1 15-2 2-1 4 5 0 5-5c1-5-2-11 3-15l10-11 27-27 1 3h71q4 1 7-2 5-4 9-10c2-2 1-8 5-7v6h4l1-6h3v6h4q1-4 3-6l1 6h4v-4l3-2 1 6h4v-6h4v6h4v-6h3v6h4l1-6h9q-3 6-8 7-10 2-19 1v22l28 1q5-1 8 2v10q-1 5-6 6-10-2-19 0l2 2h21q3 4 2 11-1 4-4 7l-18-1-4 1 19 1q5-1 7 3v13q-2 2-7 3h-20q1 1 3 1h21q4 2 3 7 2 7-4 10l-13 1h-4l-2 5q-7 3-13 1h-99v52l-2-4v-14l-1 5-2 2v-41q-1-4-7-3h-23c-9-6-20-5-31-5l-5 1v-4l5 1q6 1 10-2 5-2 8-8l5 1v10h15q-1-8 3-14 6-2 11-2l-13-1q-2-5-6-8l4-5q-7 4-12 9l-14 14q-5 3-11 2h-6v-3h6v-3l-6-1 1-2h5c8-1 12-8 16-13q7-12 19-16v-4l-10 4-9 9q-2-1 0-3 8-13 19-22l3-4q-3-1-7 2l-17 16v15l-8 10-6 3h-5v-3h5q8-2 12-9c2-6-1-13 2-18l21-21q4-6 9-6h29l1-5h4v9l-8 1q-14-1-28-1v10h18l18-2v12l-36-1v10h20l12-1 4 1v11q-18-1-36-1v10q18 0 36-1v11l-4 1-32-2v11l36-1v8h83v-8h14l22 1v-11l-21 1-15 1v-12l18 1h18v-10h-17l-19 1v-12l18 1h18v-10l-21 1h-15v-11h15l21 1v-10h-21l-13 1-2-1v-8l-13-1q4-3 6-8l5-2-5-2 4-5q4 2 4 6l1-7h-23q-6 7-13 13-6 2-12 1h-65q-6 0-10 5l-16 15q-8 8-15 16l-1 16q-2 4-8 7h-5v-2l2-1h3v-3h-5v-5l4-3v-5q-8 2-15 1l-1-5-3-1v7h-2l-1-6h-3v6h-3v-6h-3l-1 6h-2l-1-7-2 1-1 6q-3-2-3-6h-3v6h-2l-1-6h-3v1l-1 5h-2v-7l-3 1-1 5h-2v-5l-1-24 1-9 9-8q-9-1-13 7v34l1 5h-3l-1-5h-3v5l-3-1v-10c-2-2-4-7-7-4 0 4 5 6 4 10v3l-1 3-2-1v-5q-2-8-9-12-4-7-3-13v-24h-3v29l1 7 11 11v2l-1 5h-3v-5q1-2-1-4l-12-12q2-5 1-11l-1-15q-2-5-7-3 3 2 5 6v19c0 6-10 7-12 3l-1-11v-12q2-3 5-3-2-4-5-1c-4 3-2 9-3 14 1 5-1 10 2 14 2 5 9 4 13 3l13 13v6h-10l-1 11q-3 0-6 2-6-1-10-5l-1-14-1-1h-12q-1 3 1 6l1-3 9-1v17h3q5 5 11 2h5v3h-5v3l5 1v2h-6q-7 2-11-3 1-4-2-6v8q-3 4-8 5h-38l4-4q3 3 6 2h21q7-1 5-9c-2 2-3 7-7 7h-21q-2-6-1-12l22-1q5 2 7 6l-2-8h-27v-5h30v-3h-30c0-4-2-10-7-9q1 4 4 5 2 6 1 12 0 8-3 14c-2 0-7 3-9-1v-23q1-3 3-4v-3l-3 2h-17v7h-14v-84q-2-3-5-3H16v10h-1V172q1-14 10-25m370-6q-4 3-3 8h11q1-4-1-6-3-4-7-2m-79 0q-3 3-2 8h9c3 1 2-3 2-4q-3-6-9-4m739 2v122h68V143l-27-1zm-545 1c-1 4 6 3 7 5q-4 0-8 4 6-1 11-3l1-2zm507 1q-3 3 1 6v-5c3-1 5 5 9 5-1-2 1-7-2-7v4q-3-4-8-3m-664 3v8l8 3-8 3q-1 1 2 1 5-1 10-5l-10-3-1-1q4-1 6-4 3 0 3 4 3-3 0-6-3-1-5 1l-2 4q-2-3 1-5zm-194 3 6 3c-2 1-7 1-6 4l9 1 1-2h-7q4-1 6-3-2-2-6-4h7l-1-1h-9zm275 0q-4 3 0 6-1-5 2-5l7 5-1-7q-2 1-1 4-3-3-7-3m-315 0q1 3 4 4l-4 2v11l1 1 1-4h9l-1-2h-8l-1-4 4-3 6 4q-1-4-4-5 3-1 4-4l-6 3zm195 0v2h8q-5 2-8 6h11q-3-2-7-1c2-3 7-3 7-7zm79 0v2l7-1-7 5-1 2h11c1-3-4-1-6-2q5-2 6-6zm77 0 3 5v-3h9v-2zm555 1q-3 1 1 3c2 0 1-4-1-3m-485 3h4q-3 2-4 6c0 4 7 5 7 0q-3 2-6 0l5-6 4 6 4-1-4-1 3-1 2-1q-2-6-8-2l-1-2c-2 1-6-1-6 2m21 2h-2l-2-4v11c1 0 5-1 1-2v-3h3v5h2q1-6-1-11zm11-4q1 3 4 2v9h2v-11zm23-1v10q5 3 6-1h-4v-8zm7 1 1 7q3 2 4-1h-3v-1l4 1 1-4q-3-2-7-2m9 1v7l-1 3h4l-1-5 2-1v6h1l1-11q-3 1-2 4-4 0-3-4zm15 1h4v9h2v-11c-2 1-5-1-6 2m-429-1 2 4v-2h10l-1-2zm313 4q0 3 1 2l2-4 2 4q1-3 3-4 2 2 0 5l3-1-1-5q-3-1-6 1l-2-2zm56-5q-2 3-1 8l5-1-4-2h5q1-4-3-5l1 3h-3l2-1zm53 0v8h6l-1-2-2 1-1-2q3 0 5-2-3-4-7-3m-375 3q-3 2-8 1 1 3 3 5l1-2-1-1h4q0 3-3 4l4 1v-5h4zm32 2c0 5 8 7 10 3q1-5-5-5-2 2-2 5l-2-4q-2-1-1 1m749 2h-9l-1 1h12l-1-6q-2 2-1 5m-553-2q-4 4 1 7-2-4 1-5 4 2 8 5v-7c-3-1-2 3-2 4-2-2-5-6-8-4m-31 0v5l-5-4h-4q-1 4 2 7v-5c4-1 5 4 9 5v-8zm-393 2c-8 2-13 11-11 18q5 13 18 13c9-2 15-11 13-19-1-9-12-16-20-12m1089 0q-2 11-1 23v41q-1 9 1 17h31l1-5h24l-1-51-23 1v-27h-26q-4-1-6 1m380-1c-9 2-14 14-10 22 2 8 11 12 19 9q11-5 10-17c0-9-10-16-19-14m-1359 1v2l8 2c-2 2-7 1-8 5q5-3 10-3 3-2-1-3zm41 8q-1-4 2-6l7 6v-8c-3 0-1 3-2 5q-3-4-7-4c-3 1-3 6 0 7m120-6v3c2 0 3-3 4-1q0 6-6 4-2-2-1-6c-4 2-1 9 3 8q7 0 6-8zm78 0q0 3 2 3l1-3c4 2 0 8-4 6q-3-2-2-7c-4 2-1 9 3 9 4 1 8-5 5-8zm120 1q3 3 4-1zm498 0q3 4 9 4-5 2-9 5l9-2q2-1 3-3zm-656 3-2-1c-4-1-4 4-3 6q2-2 2-5 2 1 2 4 2-3 4-3l1 5q3-3 0-7-2-1-4 1m854-1v8c4-1 2-5 3-8zm-703 3q0 3 2 4v-4h2l1 4 2-4q3 1 2 5 4-4-1-7l-2 1q-4-2-6 1m512 6q-1 4 1 8v-9zm-902 3q-10 3-11 13 1 14 14 15c10 1 17-10 14-19q-5-11-17-9m79 0q-10 2-11 14 0 14 14 14c8 1 15-8 14-16q-3-14-17-12m78 0c-10 1-14 15-8 23 5 7 17 7 22 0 5-6 4-16-2-21q-5-3-12-2m78 0c-8 1-13 11-10 19s13 12 20 8 10-14 6-21q-6-7-16-6m196 0q-12 3-11 15c0 8 9 15 17 13s13-11 10-18c-1-7-9-12-16-10m-394 0q-8 4-9 14 1 12 14 14c10 1 18-10 14-19-2-8-12-12-19-9m78 0q-9 5-8 14c-1 8 7 15 15 14 9 0 15-10 13-18s-12-13-20-10m79 0q-7 4-9 12c-1 8 6 17 14 17 9 0 17-10 14-19-2-8-11-13-19-10m78 0c-7 3-11 13-7 20q5 9 15 8c9-1 15-14 10-22q-7-9-18-6m39 0q-9 5-9 15c1 9 12 16 20 12 8-3 11-12 7-19-2-7-11-10-18-8m39 0q-8 5-9 14c0 8 8 15 16 14 10 0 16-14 10-22q-6-9-17-6m39 0q-8 4-9 14 1 12 13 14c9 2 18-8 16-17s-12-14-20-11m78 0q-8 5-8 15c0 8 9 15 17 13 9-2 14-13 10-21-3-6-12-9-19-7m448 5q0 3 3 5l2-2 2 2c5 0 5-8 2-8q-3-1-4 1-4-3-5 2m-266 3v24h-14l-4 5h-17l-2-2q-10-3-19-1-1-4-5-6l-4 4-9 1-4 2q-6-3-14-2-6-1-8 5v14l1 1h1v-15q1-3 4-3h11q3 1 4 4v14h2v-14q0-3 3-4h12q3 1 4 3v16h2v-16c2-3 6-1 9-2 3 1 8-1 10 3v16h2v-14l3-2 15 1q2 19 1 40-3 5-7 3v2h7q-1 5 2 9 5 2 9 1v8h2v-7l10-2h14v1l21-1 4-1v1h8v-12l-2-1v11h-6v-12l16-1v-17h-16v-13l6 1v9l2 1v-12h-8l-3 1v-3h-18l-4 1-3-1-2 2h-1q2-6 2-13l4-1q12-1 24 1v10l-2 1 2 2c4-3 2-7 3-11q0-5-5-5h-10l1-24q0-4-2-6h-14l-1 1-4-1h-12q-2 3-1 6m247 1c0 2 3 7 2 2h9l-1-2zm22 4q-5 1-2 6 4 2 7 1 5-2 2-6-3-3-7-1m177 1v7h3v-7zm-198 2q-3 3 1 5c3 1 9 2 9-3q-4-5-10-2m24 8q-2 2-3 6c-2-2 0-5-3-6v6l6 1q-2-4 1-6 4 1 1 6 2 0 3-3 1-5-5-4m-26 2c1 0 1 4 3 3v-2h9v-2zm2 5q-3 4 0 7l1-5 6 3q0 2 3 3c-1-3 1-7-2-8v4q-3-4-8-4m18 5q0 4 2 6c1-2-2-6 2-6l1 4q0-4 4-4c2 2-1 4-1 6q5-3 2-7-2-2-5 0-2-2-5 1m-246 1v7l6 1v-8zm-365 0q3 2 5 2v9l4-1h5q2-2 3-5l6 2q-2 3-6 2c1 3 8 3 8-1q-2-3-6-4 2-3 6-2-5-5-8 1-2-2-4-3zm39 0 4 8-1 3h3l4-11c-4 0-4 5-5 7q0-6-5-7m12 2c-4 3 0 11 5 9q3-3 3-6l6 2q-2 3-6 2 4 4 7 0 0-4-5-6 2-2 6-1-5-4-8 1-4-5-8-1m199-2v40h13l-1-12v-15l1-3-1-10zm130 0v8l6-1-1-7zm-88 1zv40h13l-1-13v-14h1v-13zm302 2q-3 2-2 6h10q0 4-5 5l-5-3q0 3 3 4-3 2-3 4l5-3 6 3-4-4 3-2 1-5h-4q0-5-5-5m196-1v5q-3-1-4 1 1 2 4 1v5c4 1 2-3 3-5h4v-2h-4v-5zm237 1q-6 2-5 8l-1 248q0 6 6 8h97q6 1 8-5V223q-1-5-7-6zm-714 14v27h12v-40h-11zm-420-4v26q4 3 9 2h7q6 2 14-1 8 3 15 0l6 1q7 2 11-3 7 5 15 2 4-3 3-8h-2q0 4-3 6h-8q-4-3-3-8l1-17q2-4 8-3 4 0 4 4l1 14h2v-14q-1-7-9-6-7-1-9 5l-5-5q-7-1-12 3-1-3-4-3-6-1-11 2l-3-2q-6-1-11 2c-3-3-8-1-11-2q-6 0-5 5m719-4q-2 5 1 6-1-4 2-5l1 2 3-2q3 2 1 5 3 0 2-5-3-4-5-1zm-899 6v6l-13-1h-11v37h9q2 1 3 4h11v8l-6 8-1 11v56l4-1 1-11v-54l10-9h4v-9h11l3-3h10l1-37h-13l-9 1h-3v-6zm247 1v18h7v-18zm651 4q-1 4 3 6c0-2-3-5 0-6q4 3 7 7l1-9h-1v6q-2-3-6-5zm-480 4c-5 4-3 11-3 17q-7-1-12 2l-1-10q-1-3-4-4h-14q-4 0-5 3v17h2q3 8-1 16 4 7 4 13h13l1-9c2-6-2-13 2-18v27q-1 5-7 3-6 1-11-1l-1-11h-2v12q4 3 9 2h12c4-2 2-7 2-10q7 2 13 1c3 8 13 10 20 8q9 0 11-9v-42q0-9-9-11-12-2-19 4m460 1q2 2 6 3l6 2v-2l-8-3c2-2 8 0 8-4zm-346 0v11l1 7q4 3 9 1l-2-1q-3 0-6-2v-17zm368 4-2 4c1 5 10 5 11 0 1-4-6-5-9-4m-15 3v8h1q1-5-1-8m16 15q-2-3 0-6l8 7c-1-3 2-8-2-8v5l-5-5c-5-1-6 7-1 7m-19-1v7h8c-1-3-5-1-7-2q2-3 7-2c-1-4-7 0-6-4l6-1-1-1c-2 0-8-1-7 3m-353 10v15h3v-14q0-3 3-3l12-1q3 1 3 4v14h3v-14q-1-5-6-6h-13q-4 1-5 5m-422-2q-1 5-1 12l-4-4q-7-2-12 3-1-2-4-3-7-2-13 1-6-4-12 0-4-3-7 0l3 1 4 4q1-3 5-4 6-1 7 4v21q-2 5-8 3-3-1-4-5-1 4-5 5-5 2-9-2v-21q1-5 5-6 0-3-3-1-5 1-5 7l1 21c3 6 11 6 16 3q6 5 13 0l3 2q7 2 13-3 4 5 11 3 4-2 5-6v11q2 3 4 2h51v-12q3 4 5 4h8q3-1 4-3 3 4 7 3v2l-5 1-2 7 2-1q3 3 1 7-2-1-4 1l-12 10-6 7q-1 6 5 7l3 4q4 1 6-2l16-16 13-11q7-6 11-16l-2-2v-27q-1-4-5-4-6-1-11 1l-11-1q-5 0-6 5l-1-3q-9-6-17 3l1-11q-1-2-4-2zm177 6q-3 0-4-4h-17q-6 4-13 3v3l9-1h20q3 1 4 4l6-6q1-3-1-5-1 4-4 6m600 0q2 2 5-1l1-4q-3 0-2 4h-4zm-349-4v39l12 1v-40zm-310 5h12q5-1 10 1 3-2-1-3h-19q-3 0-2 2m433-3v13h-26v3h24q4-1 4-5v-10zm-25 3v8h6v-9zm14 0v8h7v-8zm235 4q0 3 4 5l3-3v-5q0 4-3 6l1-6q-6-1-5 3m-206 4 1 14v12q0 3 4 3h14q4 3 3 8 2 6-3 10h-13v2h12q7-1 6-7 1-8-2-14h10c4-1 2-6 3-9l-1-18q0-4-4-4h-26q-4 0-4 3m-613 0v17l8 1v-18zm744 1q-5 3-5 8l1 19-2-4-14 14h16q4 1 9-2l-3-2-2-1q6 2 11-2l2 1 25 1q4-1 6-6h-3q-1 2-4 3h-22l-1-1v-10q6-2 12-1h11q3 1 6 4v-7q-2-5-5 1l-24-1q-1-5 1-11l15-1v-2h-13l-5 2q-4-5-12-2m-757 0v4l1 9v4h7v-18zm791-1q0 4 4 4c2 1 2 5 5 4 1-5-5-8-9-8m39 3v4h-2l1 7q-1 3 1 5v-4h10v-2h-10v-4h10q1-7-4-8-4 2-6 2m-820 2v7l2-1v-6zm763 2v7h6v-7zm14 0v7h7v-7zm-308 4v15q0 5 5 5l13 1q5-1 6-6v-16h-3v16q0 3-3 3h-11q-4-1-4-4v-14zm-61 1v1l9 1 2 6-1 10 2 1-1-11q3-1 2-4c-1-6-9-6-13-4m-6 17 1 12-1 15h13v-40h-12zm539-13q-4 3-6 8-1 9 7 12 10 3 14-7c2-8-7-16-15-13m-178 4v7l6 1v-8zm14 0v8h7l-1-8zm-355 2v16h46v-16h-46m-318 5q1 4-2 6-5 3-10 1-8 0-15 1t-11 7q-4 4-6 9 3 2 3 6l-3 3q3 3 2 6l-4 3q10 5 21 4l8-5q3-2 7-2 2 0 3-4l-3-3q1-4 4-6l17-17-3-3 2-6zm490 6v11q0 5 5 5l12-2h-12q-5-3-3-9-1-5 3-8l13-1v-2h-13q-5 1-5 6m30-1h-25v12h36v-12zm-594 2q-2 3-2 8v17q2 4 7 6l1-3q-5-1-5-5v-20q0-2 4-3c1-4-4-2-5 0m6-1q5 0 8 5v20c0 3-5 3-4 6q5 1 6-5v-19q0-9-9-8zm-34 6v5h1v14h7v-19zm31 0v18l8 1v-19zm393 13h4l-1-10h-2q-1 4-1 10m175 1v12l-3 1v23l3 1v13h46v-13l3-2v-22h-3v-14h-42zm-614 27-1 7h5l1 2v-2h2v-7zm-43 1v7h8v-7zm203 4-11 11-14 14q-4 2-7 6h6l5-4 19-20 6-3h29q3 0 2-4l-23 2c-4 1-8-4-12-2m504 4v17h2v-16q1-3 4-3h14l2 2v17h3v-17q0-3-4-4h-18q-2 1-3 4m5 13zl-1 15v3l-1 9h14v-27l1-3v-9h-13zm-712-6v6h8v-6zm16 0v7h15l1-7zm25 1 2 5h7v-4zm482 13v29h12v-13l1-14v-13h-12q-2 5-1 11m21-10v41h12v-31l1-10zm21 3v13l1 14-1 13h13v-40zm60 0v40h12v-27l1-13zm62 3v2l12 1q3 4 2 10 2 5-3 7h-13l-1 2h15q5-1 5-7 2-8-4-14zm-30 13q-1 7 5 9h13l1-2h-14q-4-3-3-8 0-5 3-9l13-1 1-1h-15q-6 5-4 12m-48-8v6l7 1v-7zm54 0v12h28l7 1v-13h-35m44 2v15q-1 4 3 6h18c3 1 5-5 2-6l-2 4h-13q-4 1-6-1v-18zm22 12h3l-1-10-1-2zm-211-2v17c3 5 9 3 14 4l1-3h-10q-2-1-2-3l-1-15zm90 1v7h8v-7zm39 22v8h6v-8zm15 0v8h6v-7zm-70 4q0 11 9 17 3 4 8 5l31 1v-3l-5-2h-26q-7-4-11-11-3-3-2-8zm702 78a40 40 0 0 0 13 51c14-21 17-48 18-72q-21 2-31 21m48-19q2 40-18 76 14 1 25-7c15-10 21-30 15-46q-6-15-22-23m-674 6q-4-2-7-1-5-1-10 1v24q-1 5 2 8h11l3-2 3 2h12q3-3 2-7v-24q-3-2-5-2-6-1-11 1m375 24 9-1-1-2c-3 0-8-2-8 3m12-1 17 1v26q0 2-4 3 2 2 6 1h19v-2q-3 1-4-2v-26l4-1v-2c-6 1-13-2-19 1l-12-1q-6-1-7 2m-19 2v5l8-1v-4zm13 2v6h1v9h-1v6h8v-21zm13 1v6h8v-6zm29-1v21h7v-21zm-55 4v18h8v-19zm26 11v6l8-1v-5zm66 17 1 5 5-1q1-3-1-4zm151 22-4-4q-4 3-9 3l-6 4h-11v2h7l-3 1h-20q-5-1-10 1v40l1 4 4 1h21l6 5 6-3 2 3 5-5h18q3 1 3-2v-14l4-4 5-4-2-9 19-15-16-20q-9 8-20 16m-210-3v3h1l-1 7q2 3 7 1 0-5-1-10l-1 3h-4q1-3-1-4m-14 1v9h-3l-1 2 10-1-4-1v-9zm5 3q2 3 6 5c-2 3-6-2-6 2h6q2-2 1-4-3-1-5-3c1-3 3 0 5 0v-2q-4-2-7 2m-286-2q-2 4 1 6c0 1 0 5 2 4l2-7 2-1v8c3 0 1-4 2-6q2 5 5 6v-10q-2 2-2 6l-4-6-1 1h-3l-1 6q-1-4-3-7m129 0v9l1 2 1-5 1 2 2-4-3 1v-5zm9 1v9h3q-2-6 1-10zm5 7q3 4 7 1 4 2 7-1 1-3-2-4l-3-1q2-2 5 0-1-4-5-3-1 2 0 5 2 0 4 2c-1 3-5-2-6 2-2-1-7 0-6-4-1-4 4-3 6-3q0-2-4-2-6 2-3 8m-156-8 1 10q2-1 2-4 0 3 4 4l-2-4q1-1 1-4c0-3-4-1-6-2m8 1 2 9c3 1 3-4 0-5l-1-5zm51 4v24q1 4 4 4 6 1 12-1 7 3 14 0c4 3 8 1 12 2q4-1 4-5v-22q1-4-2-6h-42q-2 1-2 4m88-4-1 8 2 1 1-10zm467 9q-10 3-12 15c0 8 8 16 16 15 9 1 16-7 15-16 0-9-10-17-19-14"/><path d="M395 143h5l2 4h-8q-1-3 1-4m898 2a51 51 0 0 1 66 66c-6 16-22 30-39 32q-27 4-46-15l-1-1c16 6 34-1 44-14q9-18 2-35c-6-16-24-25-40-21l-6 2q9-9 20-14m-978 2q1-3 3-4 6-1 5 4zm576-3h17v10q-9 2-12 10-5 11 4 18v56q-7 6-5 14a15 15 0 0 0 27 7v-1l53 1q9 8 20 4c8-5 10-18 3-25h-1v-56c6-5 7-16 2-22q-3-5-10-5v-11h17v130H892zm188 1h20v82h-20zm5 21q-2 5 3 6v1q-4 3-3 8 5 4 9 0l-2-3q-1 3-3 3-5-1-2-5 2-2 4-1 1 3 3 2 0-4-4-4 1-3 4-2l4-4c-3-4-10-5-13-1m-1 18q3 5 8 4 4 1 5-3-6 3-13-1m1 7 4 5q3 2 4-1-3-1-5-3l3-1 3 2v-3q-4 0-9 1m0 13q2 3 0 6l2 6q6 1 8-4 1-4-2-6h-6q-2-4 1-6l2 4 2-4q3 2 1 5c4-1 2-6-1-7l-2 1q-6-1-5 5m-1 15h11v-2h-8q-3-1-3 2m-26 8v-82h20v82zm5-48h8q-4 2-7 4l4 1c1-3 7-3 5-7h-8q-3 0-2 2m2 6q-2 0-2 2l10-1 1-1zm-3 5q3 3 7 4c-2 1-8 2-5 5 2-3 6-2 9-5q-5-3-11-4m2 9 1 3 2-1v4q-3-1-3-4l-1 5q5 1 10-1l-1-2-3 1v-3q3 1 5-2zm39 28-1-82h20v82zm6-62c-3 0-3 6 0 6q5 3 9-1c0-1 3-3 1-4q-4-3-10-1m0 18q5 1 8-4-3 2-6 2c-3 0-4-5-1-6q3 0 6 2c1-4-4-4-6-4-4 1-4 7-1 10m-3 0c1 7 11 7 14 2q-5 1-9 1-3-1-5-3m2 9q-3 4 2 5-2-3 1-5l1 2-1 1 2 1v-4c5 0 2 3 2 5q4-1 2-6-5-2-9 1m-1 8q-1 3 3 2 6 0 8-3zm2 3 3 3q-3 0-5 2-1 4 3 7h5l2-3q0-5-4-6l-1-4zm-2 14q0 3 5 2c2 0 7 1 5-3zm-556-61q2-3 3 0zm54-1q3-1 2 1-2 2-2-1m17 0q3-1 2 1-2 2-2-1m-338 3q4 0 1 3c-3 2-4-3-1-3m855 3h29v78h-29zm5 5-2 16v38l2 14 19 1v-12h-17 18l1-45-1 1-1-13z"/><path d="M1086 167q5-3 9 1l-10 2q-1-2 1-3m21 2 2-3q5 0 9 2-5 3-11 1m-65 11q4 1 2 5l-3-1zm-271 1h13v26c-3 3-8 1-13 2zm3 5v5h7v-5zm0 19h7v-6h-7zm13-24h13v27l-13 1zm3 5v5h7v-5zm0 13v6h7v-6zm247-18c2-1 3 3 1 3q-3-1-1-3m133 7h20v45h-20zm2 2v16l16 1v-17zm0 24v17h16v-17zm-134-22q3-2 7 1-1 3-6 2c-3 1-2-3-1-3m-18 2q5-1 5 3-4 1-8-1 1-2 3-2m64 17q1-2 4-3 3 0 5 2c0 4-7 6-9 1m23-1 5-2 2 1 1 3q-4 3-7 1zm-352 2q9-2 19-1h7q2 4 2 7t-2 5h-25q-2-2-1-4zm3 2v7l6 1v-8zm14 0 1 7h5v-7zm-341 2q6-1 8 3c0 5-5 4-8 5zm44 3q0-2 3-3c3 0 3 5 2 7-3 2-5-2-5-4m542 3c-1-3 3-5 4-2q0 2-4 2m-651 3h8q2 1 2 4h3v5h-3v9l3-1v6h-3q0 5-4 5-5 1-8-2v-17q-1-5 2-9m0 4v6h7v-6zm0 14v5h7v-5zm-46-18h10q2 4 1 9v18q-4 2-7 1-4 1-5-2 0-14 1-26m2 4v6h7v-6zm0 14v5l7 1v-6zm13-18h10v27l-11 1v-24zm1 4v6h8v-6zm0 14v5l7 1v-6zm13-18h9q2 0 2 3v21q1 3-3 4-5 1-8-1l-1-22zm2 4v6h7v-6zm0 14v5h7v-5zm405-15 3-2v42h13l-1-14 1-14-1-13h4v14h16v14h-16v14l-14 1-5-2v-20l-2-1v-3l2-2zm301 35v-34h20v34zm8-21-2 1 4 1-4 2v5h10l-1-2h-8l2-3 1 2q3-2 0-5l4-4v3l2 1q0-3-2-5-4 0-6 4m3 14 3-2q0 4-4 5-4-1-3-6-3 5 3 7 7 0 6-6l-4-2q-2 1-1 4m11-27h20v34h-20zm5 12 1 2 3 2q-3 1-3 4v9l1-4q6 2 9-1h-8q-2-1-2-4l4-3 6 3q-1-2-4-3 3-3 4-5l-5 3zm17-12h20v34h-19zm5 12 4 4-4 5 5-4 6 2-3-3 4-4-6 3zm7 10v4q1-2 4-3l1-2zm-6 2v4h11l-2-2h-8l2-2 2-2q-3-1-5 2m-553-11q6-7 14-7 9 0 13 7v44q-1 6-7 7-10 4-18-3c-3-3-1-7-2-10l-2 5h-10l-2-3 1-22c1-5 7-2 11-3l2 2zm3 0v45l5 2 15-1 1-13v-25c-1-3 1-8-3-9h-14zm-4 19v5q4-2 0-5m-10 2-1 4 1 9v4h7v-17zm998-28c4-1 6 3 8 4v-4h2l-1 8q-3-4-7-6-3 2-1 5l-2-1q-1-4 1-6m-83 2c5 1 7 8 12 10l2-1 1 2h11l11-10c0 4-5 5-7 8q6 3 1 7l1 7 2 2-7 1 10 9v2l-12-11h-13q-5 7-12 11 4-5 9-10c-4 2-5-2-6-4q-1-7 2-13l3-1zm12 11q2 1 0 0m16 2h3c2-2-2-2-3 0m-20-1-1 13-2-2q5 4 9 0l-2-2v-7q-2-2-4-2m5 0 6 6 5-5zm-8 0v5l-1 4 2 1v-10zm15 7 6 6 5-1-1-8-4-3zm-6-4v8l4-4zm0 10h10l-5-5zm28-22h7v32h-7zm17 1h14l1 2h-11l10 4 1 2-11 4h10l1 3-14-1q-3-1-1-3l10-4-11-4zm-998 4h16q3 1 2 3v16l-2-8-1-9h-13l-1 9-2-1v-8zm1029 2q1-4 4-1-1 2-4 1m-510-1q4-3 7 1-2 3-6 2-3-1-1-3m501 6h12v1c-3 2-9-2-10 3zm-22 11 15-5q0 4-5 4v5q4 1 5 4-8-2-16-6zm3 2 5 1v-3zm19-6q3-1 6 1l7 2q-6 5-13 6l1-3 8-2q-5-1-9-4m-825 22 5-13 4 4q1 7 1 16h-2v-5h-4v6h-3v-6zm-469-11h50v43h-49zm3 4v12l2 1 1-1-1 12h-2l-1 13h17v-3l12 1 1 2h16v-13l-3-1v-11h3v-12l-15-1-2 3h-12v-2zm1269-1 2-1v7h4v-6h2v6h4c1-3-1-7 3-7v9h-15zm-1082 3h5v3l-5 1h-1l-22 20h-29v-5h12v-1l21 1zm-132 2q7-2 10 3v15q1 5-2 9-4 2-7 1-4-1-4-6v-16q0-5 3-6m-1 5zl-1 13v3l2 1-2 2h8v-20zm1237-5h11l2 1-10 1 1 3-4-4zm-1325 0q6-1 11 2v18l-1 7q-3 2-8 1-4 0-4-3v-21zm0 5v5h8v-5zm0 13v6h8v-6zm17-18q6-1 10 3l1 18q1 6-5 8-6 1-9-4v-20q1-3 3-5m-1 5v18h8v-18zm89-5 10-1q2 5 2 11l-1 17q-3-3-8-2 3 2 4 6l-4-1 1-2h-4l-1-22zm2 4v6h7v-6zm0 20h7v-6h-7z"/><path d="M334 279q5-3 11-1v26q-1 2-4 2 1 3 5 2-2 6-7 10l-14 14-1 1q-7 11-18 18l-8-8 14-14q2-2 5-3 3 1 4 4l3-3-2-1q8-4 13-12 3-1 2-6v-1q-4-1-4-3zm2 3-1 6h8v-6zm0 14v6h7v-6zm-23 34-3 4-6 6-1 2 3 4q3 0 4-1l6-6 3-4zM19 282h86v84H94v-31q-1-5 3-9v-23l-2-1-2-5h5v-8H19zm797 1 28-1 1 1v12l-29-1zm4 2v8h7v-8zm14 0v8h7v-8zm-400-1h6v3l-5 1h-1v4h6v4l-9-2q-6 7-13 12l-11 1q-9 0-19 2l-2 2-2-3-1-3q7 1 12-1 11-1 22-1l9-8q5-5 8-11m1090 2q2-2 4-2c5 2 3 7 4 10h-16q-1-6 3-9 3-1 5 1m-5 2v4h4l-1-5zm6 4h5q1-5-3-5-3 1-2 5m16-7c4-1 10-1 10 4 0 4-6 4-9 3q-4-3-1-7m3 2q-4 0-2 3h7c2-3-3-4-5-3m-600-1c3 0 9-2 11 2v21q0 4-4 5-6 1-8-3l-1-17q0-5 2-8m1 10v13h7v-4l1-14h-8zm76-8q1-2 4-2l1 3h-7v-3zm-205 9h29q2 7-1 12h-23q-3 1-5-1zm18 2v8h7v-8zm-14 0v8h7v-8zm705-1h2v6h-2zm14-1q7-1 13 1-5 2-10 1l1 3q-3-2-4-5m-400 5c6-3 12 3 11 9s-9 9-13 4c-5-4-3-11 2-13m-564 2h14l4 2v35q1 5-2 8h-14q-3 0-3-3l-1-16h2l1 16h14q0-13-1-27v-13h-13v13l-2 5-1-13q0-3 2-7m942 0h2v5h13l-1 3h-12v4h-3zm25 1c3-2 6 2 8 4l-1-4h1q3 3 1 7c-4-1-5-6-9-5l-1 5c-2-1-2-6 1-7"/><path d="M551 308q0-3 3-3h11l5 2v16h4v1l-1 5-3 1v15q0 4-3 4h-13q-3 0-3-3v-15l-3 1 1-10h2zm3-2v13l1 16-1 12h12v-40zm905 25q-2-15 12-22 1 4-1 6-5 6-6 13c0 9 9 16 18 15q10-2 13-13 1-8-6-14-2-3 0-6 12 6 12 19-3 16-18 19v13l17 1v7h-40l-1-10v-12l6 1 1 13h11v-13q-15-2-18-17M363 312l22-1 1 2h-19zm26 0q3-2 5 1 1 5-4 5-4-1-1-6m64 5q-1-4 3-5 2 1 3 4-3 2-6 1m-421 2q2-5 6-5h29q6 1 6 7v96q-1 5-6 6H18v-11h38q5 0 5-6v-70q-1-5-6-6H37q-8-3-5-11m1508 2q-2-5 2-8 4 1 4 4c-1 2-2-1-3-1h-2q0 2 2 3c2 0 7-2 8 2z"/><path d="M1467 329q0-9 8-13l1 5q-5 4-3 10c3 5 11 5 13 0q3-5-1-8v-7q3 1 5 5c5 6 2 15-5 18-7 4-17-2-18-10m58-11h2v6h-2zm-1076 1h11q0 6-7 9h-12zm1090 4 6 3 7-3-5 5q3 0 5 4l-7-3-6 3q0-3 4-5zm-850 3h2l5 1v2h-5c-4 0-7 5-10 7q-6 5-7 12v17h-3v-16q-1-5 1-8 4-6 10-11 3-3 7-4m827 1h3v5l4 1v-6c3 0 1 3 2 6h4v-7h3v9h-16zm-167 2c6-3 15 2 15 9q1 12-11 13-10-2-12-12 0-8 8-10m-3 2 4 5c2-3 2 0 3 1l2 3q3-2 5-2-1 4-4 2l5 6q4-7 0-12-6-7-15-3m-1 1q-2 5-2 10c2 7 11 9 16 5l-5-6-4-4-3-2zm38-3q10-3 17 5 4 6 0 11c-5 6-15 7-21 4q-6-4-7-10 2-9 11-10m0 1q-7 2-9 8-1 5 4 8 10 6 19-1 5-4 2-9-6-7-16-6m-93 1h2l-2 5q3-1 3-5v6l-4-1zm249 7q5-5 12-5c2 3-4 1-3 5l-2-2-4 1 4 2v-2l5 4q0 2-4 0zm-293-2q1-2 3-2v5q4-2 6 1 3 5-2 9l-7-1zm3 6q-1 3 1 5 5-1 3-6-3-2-4 1m9-8h3v14l-3 1z"/><path d="M1357 336q3-1 2 1-2 1-2-1m-12 1zl3 2h-2zm43 3c1-1 4-5 6-3l-1 5q-2 1-5-2l-5 3c-1-2-4-4-1-6q3-1 6 3m-123-1q8-2 8 5-2 7-8 4c-3-2-3-8 0-9m3 1c-3 1-3 7 0 7 3-1 3-7 0-7m6-2q3 0 5 3l1-2 4-1-3 5 3 6-3-1-3-3-1 3h-4l4-5q-2-2-3-5m242-1 10 5c2 0 6-2 6 2l-9 1-7 4c-1-4 5-4 7-6-2-2-7-2-7-6m-170 4 2-2 1 1zm202 8q-4-2-1-5zm-32 6q-1-4 3-4-1 5 2 7l4-7q4-1 7 2v7h-3v-6l-2-1-4 6q-6 2-7-4m23-3 12-1c-1 3-5 1-8 2l8 3q-1 3-6 3v1c2 1 7-1 6 2h-12q2-5 8-5c-2-2-8-2-8-5m-987-1 16 1 2 7h-6q0-4 3-6l-14-1zm499 8h35v5h-31v18l-4-1zm-927 2 13 1v12l-4 1q1 2 4 3v11l-28 1 1-12 1-1h18l1-2h-6zm4 11h6v-7h-5v-1zm-14 8v7h5v-7zm13 0v7h7v-7zm1097-18h2l6 8v-8l1-1 1 13q-5-3-8-8v8h-2zm64 0h2v12h-2v-8l-3 9q-3-5-5-10v10l-2-1 1-12h2l4 9zm-51 0h8l1 1h-7v4h7c-1 3-5 1-7 2v3h7v2h-9zm14 0q8-2 9 5t-6 7c-6 1-8-9-3-12m0 2c-2 3-1 9 3 8q5-1 3-7-2-3-6-1m18 0c1-3 7-3 7 1l-3-1q-3-1-3 2l2 2q-3 1-1 4 2 1 3-1 0-3-3-5c6-1 7 7 2 8s-6-6-4-10m32-2q5-1 6 3 1 5-2 9-5 1-6-4t2-8m1 2-1 8c3 2 5-2 4-4 1-2-1-6-3-4m15-2q5-1 6 3 2 5-2 9-5 1-6-4 0-5 2-8m1 2q-2 6 1 8c3 1 2-4 2-6q0-4-3-2m9-2q5-2 6 3 2 5-1 8-5 3-6-1-2-6 1-10m1 2q-2 5 1 9 3-2 2-6 1-5-3-3m188 3q7-4 16-5 0 4-5 4v4q4 0 5 4l-15-4zm4 1 5 2v-4zm-925-2 2-3q3 9 1 17l-2 1v5l2 2v13q0 3-4 3h-12l-2-2v-14h1l1 1v13h14l-1-9v-27m5-2 2 4q6-2 5 3c0 3-6 2-5 6q3 1 4 4 0 4-4 6v6h6q3 3 0 6-3 1-6-2l-1 4-1-18zm370 0h20v4l-15 6 14 5q2 1 1 4h-19v-3h15l-15-5-1-2 15-6h-15zm569 5q6-4 13-5c-1 4-7 2-9 5l3 1 1-2q2 0 1 3 2 1 3 3-7-1-12-5m-804-2h2v6l3-1 1-6 2 1 1 6v8h-3q0-4-4-7l-1 7h-5v-8l3-1zm18 0h3l1 7 4 9-1 4q-7-2-14 1l-1-6 2-2q2 5 7 6-3-7-4-13h3zm508 3q2-2 6-1-1 3-6 1m31-1h6q-2 2-5 2zm17 0q4-1 5 1-5 1-5-1M93 393l1-24h11v24z"/><path d="m108 375 1-6h13v5zm459-5h4v1l4 3v24c-1 3-5 1-7 2q-4 1-6-3l1-24 4-2zm-2 12q-2 3-1 8v6h8v-12l-2-2h2l1-5h-8zm975-7q2 2 2 5h2v-4h2v4h3v-5c4 0 1 5 2 7h-11zm-11 7c1-2-1-6 2-7v11c-4-1-5-6-9-7l-4 2 2 4q-3 1-3-2-1-6 4-6 6 0 8 5m-285 1c1-3 8-3 7 1l-3-2-3 3q5-1 7 3c1 4-4 7-7 4q-3-4-1-9m2 5c-2 1 1 5 3 3s-1-6-3-3m19-4 5-4q-1 5 1 9l-2 4h-1v-3h-6l2-5 1 3h3v-5l-1 2zm-41 0c-1-4 8-5 8 0q-2 4-6 7 5-1 6 2h-9c1-4 6-6 7-9-2-4-4 0-6 0m9 6q2-6 6-9h1q0 5 1 8l-3 4v-3zm2-2h3v-4zm18 0 2-7h6v2q-4-1-5 2 6-1 5 5c-1 4-9 4-8-1l4 3q3-1 2-4-2-3-6 0m21-7h5q3 4 2 10-4 4-8 0-1-5 1-9m2 0-1 4q0 4 2 5 3-1 2-5 1-3-3-4m7 1v-2h8l-5 12-2-1 5-9zm11-2q4-2 6 2 3 6-1 10-5 1-6-3t1-9m2 1q-2 2-1 6 0 3 2 4 3-4 2-7 0-3-3-3m11-1 2-1v13q-2 0-2-3h-5zm-2 7 2 1v-5zm8-6q0-1 2-1h6l-5 11-2 1q1-6 4-10zm11 0c1-3 7-1 6 2l-3-2-3 3 6 1v6l-2-2q2-4-4-3 1 4 3 4l2 2-5-1q-3-5 0-10m216 9q-1-4 2-6h9q1 4-1 6zm1-1h4l-1-4q-3 0-3 4m5-4v4h3v-3zm-573 1c5-3 13 0 12 6 0 5-6 8-10 6-5-1-6-10-2-12m1 2q-2 1-1 4c1 5 9 5 10 0 0-4-6-6-9-4m77-1h35v5h-35zm-943 4h27l5-1q3 0 5 2h-36zm77 4q4-1 7-5h14l1 2h5c-5 4-12 1-18 3q-9 5-16 13l-17 17-6 6-11 1h-12q-4 2-5 7l2 1q1-4 4-6h15q5 0 8 2 2 2 3 5l-3 4q-2 3-5 2h-17l-4-5q-4 2-1 5l-2 2 1 1v8l1 3-7 1q-6 6-4 13 0 5 4 8-2 2-3 5-2 9 1 16l-4 1v24l7-1c4 3 8 0 12 1h31v-24l-3-1q2-6 1-14 0-4-3-7 4-3 4-7 1-6-2-13l1-1q1-9-4-18l1-2v-11l6-6 20-20 8-6q5-3 11-1h4l1 1v2h-5l-9 1q-4 2-7 6-10 8-18 18-4 3-4 8v40q-1 9 3 16-2 3-3 7v19c0 7 11 10 16 5l2-5q2 8 0 16l-13 12-10 10q-7 0-15 1-8 6-16 14-7-6-16-1c-6 4-8 13-5 19 3 8 14 10 21 5 6-4 8-14 3-20l7-7 7-7c6-3 13 2 18-3l17-16q4-3 6-7v-94q1-5 5-8 4-6 11-7l6 1v2l-6 1v2l6 1v2q-6 1-9-2c-4 3-10 6-10 12v94q-4 7-11 12 0 5-3 8l-11 11c-8-3-17 2-19 10s4 17 12 18c9 1 18-8 16-17q-1-6-5-9l10-10 2-5c1-7 10-10 13-16l1-13v-83c-1-5 4-7 7-9l1 3h5v3h-5v3h5v3l-5 1v3h5l1 9h10v6q-4 2-4 6v83q0 4 4 7l8 8 4-2-9-9q-4-2-3-5v-80q-1-5 2-9h1v-5h4v5l3 1v-6h2v6q-7 3-9 10v59q0 5 2 9l8 7c3 3 8 1 12 2q6 4 10 9 4 6 10 8l-4-7-12-12c-4-4-12 0-16-4q-4-4-6-9v-53l1-11 7-8 1-1v-5h3v6l3-1 1-5h3v6h2l-4 3-1 7v54c0 6 6 10 9 14l13 11 25 1q8 7 16 15l2-2-14-14q-1-2-4-3h-22q-3 0-6-4l-10-11q-4-3-5-7v-46l2-19v-5h2q0 4 2 6 1 4-3 7 4-2 3-5h2v-8h3v6q1 6-2 10-4 3-4 7v20q0 5 5 7-2 1-3 4v16q1 4 5 8l10 10c8 2 16-1 24 1q8 7 15 15h23q6 1 10 4 0-5-4-8h-25l-4-2q-6-7-13-12-3-2-7-2h-16l-9-8q-4-3-5-8v-17l5-1q6-1 7-7v-20q-1-7-7-7v3l4 3v15q1 5-2 9-6 4-11-2v-22q0-2 4-3l2-1 1 2q2-10 1-21l2 1v6l3-1 1-5h3v6l2-1-1 30 1 20q2 4 7 7l28 29q3 5 8 6h48l6 1 14 14 2-3-8-8-7-8h-52q-4 1-7-3l-28-30q-6-3-8-10v-37l-2-8v-5h2v6h1l3-1v-5l3 1v5h4v-6h2l1 6 2-1 1-5h10q2-4 1-9h5v-4h-5v-3h5v-3h-5l-1-2 6-1 1-3v-1h-6v-2h5v-3q14 11 26 23 0-5-3-8l-16-16h-12l-1-2c5 0 11-2 15 2q7 6 16 6l1-3q-3 1-7-1-5-4-9-7l-10-1h-5l-1-2 6-1 1-1q5 0 9 2l9 7q4 2 7 2-3-3-4-8l-5-1q-3-3-7-4l-16-1 2-2h4q11-1 22 0l6 2q-1 9-1 18l1 11-1 13c-2 5 1 11 1 16v3h2q1-4 5-5h19c5 0 6 6 4 10q-2 2-6 2h-17q-4-1-6-5-1 3 1 6l-1 7q-1 3 1 7l-2 2 1 12-1 13q2 4 6 3h27l-4 4h103q4-1 7 3l29 29q8-1 15 1 6 3 9 9l3 9q2-5 5-12 5-8 15-7 9 0 14 7 7 7 4 17-5 10-15 13-8-1-14-3v24l1 15q6 2 13 1h118v-31q3-6 9-10v-22q2-2 3-5v-19l1-1v52l-1 1q-7 2-7 11-1 8 2 14l5 5v10H45q-14-2-22-11-8-10-8-23V505l78-1h1l14-1V396zm-50 42v7h16v-7zm179 0q-1 2 0 4l13 13q4 2 4 6v39q1 5 7 5-4-9-3-20v-25q-1-5-5-9-7-7-16-13m-113 22v106l-1 1c-8 1-14 10-12 17q4 13 16 12 11-3 12-15-1-11-12-14l1-21v-86l1-8-2-2-2-4q-2 6-1 14m112-12c-1 3 1 8-2 11l-13 4q0 3-3 5-3-1-5-3l-1 23q6-2 6 4-2 4-6 1-1 6 3 10l28 31 1 5h147q4-1 6 2l20 19 9 10 3-2-12-13q-8-8-16-15-3-5-8-5H331c-3 0-8 0-6-4l18-1q-6-1-8-4l-1-15c-2-4-7-6-7-11v-40q-5-8-14-12m-32 18 1 31q0 5 2 9 8 10 18 19l15 17q3 4 9 5h76q11 13 25 24-7 7-3 16 5 12 17 8c8-2 12-12 9-20-4-7-14-11-21-6l-22-23q-3-2-6-2h-73l-4-1-10-10-21-23q-5-4-8-10v-34l-2 1zm65 7v7h18v-8zm-87 10-1 14v4q3 3 8 1v-19zm10 25-1 8 1 9q1 4 5 4-2-8-2-17 1-4-3-4m205 59q-12 3-12 14 0 12 13 15c8 1 15-7 15-15s-8-16-16-14m-237 0q-9 5-10 15 2 13 15 14 12-2 14-14c1-9-10-18-19-15m39 0q-9 3-10 13c-1 8 6 16 14 16 10 1 17-10 14-19q-5-12-18-10m39 0q-9 4-10 13c-1 8 6 16 14 16q14-1 15-15c0-9-10-17-19-14m39 1q-10 3-9 14 2 14 15 14c8-1 13-9 13-16-1-9-10-15-19-12m39-1c-7 3-11 12-9 19q4 11 16 9 13-3 11-17c-1-8-10-13-18-11m117 1q-10 4-9 16 3 11 15 12c9-1 16-11 13-19q-6-12-19-9m39 0c-8 2-12 13-7 20 3 7 12 10 18 6 7-3 10-13 6-20q-5-10-17-6M49 587a15 15 0 0 0 5 30c9 0 16-9 14-17 0-9-10-16-19-13m68 28 8 3-8 3v2l11-4v-2l-10-3-1-2h11q-1-2-3-2-1-5-6-5c-4 2-2 7-2 10m239-3c-3-1 1-4-2-5q-3 3 1 6 4 0 5-5 4 1 2 5c4 0 2-6-1-7q-4 1-5 6m76-5q3 5 8 7l1-5 3-1-4-2zm-272 0c1 4 5 3 8 5q-5 0-8 4 6 2 12 1-4-3-9-1l9-4q-3-2-8-3c2-1 6 1 8-2zm77 0v6h5l2-5q3 2 2 5c4 0 2-7-2-6q-3 2-5 5l-1-5zm43 7 3-2q-1-3 1-3 3 0 2 3l-3 1 3 1q2-2 1-5-2-3-5-2l-1 5q-2 2-4-1l2-2-1-2c-3 2-2 7 2 7m39-7q0 3-4 5l1-5c-3-1-3 5 0 6l2-2 2 2v-4q2 0 3 2l-1 3q4-2 1-6zm77 5-2-4-2 1q2 6 6 4v-5q4 1 3 5c4 1 2-6-1-6q-4 0-4 5m77-4c-2 1-3 6 1 6 0-1-2-5 1-4q4 1 7 5v-8h-1v4q-3-2-8-3m47 3v4c-2-2-5-6-8-4q-3 4 1 6-2-2 1-5 4 2 7 6v-7zm-320 4v11h11v-7q-2 3-2 5h-3v-3l-2-1v4h-3v-7q5-2 10-1v-2h-10v-3q-2 0-1 4m115 1q-3 3 1 5v-3q2-1 3 3l1-4q5 0 3 5c3-2 2-7-2-7l-2 1zm86 4q-2-3-6-4c-4-1-5 6-1 6v-4q3-1 6 3 1 1 3 2v-7q-3 0-2 4m-164-3q-1 2 3 4l-1-3h10l-2-1zm40 0q-2 4 2 5-2-3 1-5l1 4 2-3c4 0 2 4 2 6q3-2 2-5-1-2-3-3c-2 2-5-1-7 1m77 0q-3 2 1 5c1-2-1-5 2-5q0 3 2 4l1-4q4 1 2 5c3-1 3-6 0-6q-5-1-8 1m78 0 3 4 1-3h7l1-2zm39 1 3 4v-3h9l-1-1zm-311 0c1 4 6 3 8 5q-5 1-8 4l12-4q-5-3-12-5m41 11q-2 3-1 5l11 1 1-2h-5l-1-3q4 1 5-3l-3 1q-4 0-7 1m1319-232 2-3 2 3q-1 2-4 0m26 2q-2-4 1-5v4z"/><path d="m94 395 11 1v105H94v-19h4v-24l-1-15h-3zm1434 0q5-1 3 3-3 1-3-2m-167 3h4v5h-4zm-138 5c0-5 7-6 8-2q0 6-5 8c1 0 7-1 5 2h-8c1-4 7-6 6-10q-3-1-6 2"/><path d="M1333 398h5v5h4v-5h5v9h-9v9h4v-4h9v-14h5v14h5v5h-14v4h9v5h5v9h-4l-1 4h5v5h9v13l5 1v-14h4v-5h5v5h4v-8l5-1v4h5v5h-5v5h4v4h-4v-4h-5v9h10l-1 4h-63l-1-30zm5 23v4h4v-4zm14 5v4h4v-4zm-14 4v9h9v5h4v-14l-4 1v4h-5v-5zm4 14v5h-4v8l9 1v-14zm10 0-1 9 5 1 1 3h4v-4h-4q-1-5-1-9zm18-46h5v9h-5zm9 0h5v5h4v9h-4v-5h-5zm9 0h5v5h5l-1 4h-4v-4h-4zm-154 5 4-5q2 7 1 13h-2v-9zm8 5q2-6 8-9c1 2-1 6 2 8l-2 4h-2v-3zm3-2h3v-4zm8-4c1-4 7-4 8-1q2 5-1 9-4 3-7-2 3 0 4 2l3-4c-3 2-8 0-7-4m4-1c-3 0-2 5 1 4 3 0 1-5-1-4m-287 4c3-5 13-6 15 1q1 3-1 5h7v3l-21-1 1-2zm5-1q-3 1-2 4c1 5 11 4 10-2q-3-3-8-2m76-3h35v5h-31v18h-4zm468 2c3-4 11-2 12 3l1 7h-15q-1-6 2-10m-1 7 12 1-2-6q-3-3-7-1-2 2-3 6m21-7h12l1 2h-10l1 3zm-1342 3 9-1 5 1v3h-5q-4-1-8 1l-21 23q-3 2-2 6v19h-3v-24l3-6 15-14zm819 3q3-6 10-4 6 5 1 11-5 3-10 1-5 0-8-5-1-6 6-7c-1 3-5 4-3 7q2 3 6 4-2-4-2-7m4-1-2 4c1 4 9 3 9-1q-1-5-7-3m-438 0h14l2 4v14c-3 1 0 5 0 7v10q1 4-1 7h-15q-3-1-2-5-1-6 1-12 2-4-1-8v-13zm0 3 1 15-1 11v10h14v-32l-1-4z"/><path d="M195 419q4-6 11-7h5v1l-6 2q1 2 3 3l3 3-5 1h-7l-8 9q-4 2-4 6v20l-2 5q-2-4-7-5l1-19q0-3 3-5zm369-6 11-1 2 6v20l-5 3-3-2-2 4v-1l-1-1q-2 0-4-2v-21q0-3 2-5m0 4v20h9v-15l-1-5zm801-5h5v5l9-1v5h-4v4l-1 1h-8l-1-5h-4v-4h4zm28 0h4l1 5-5-1zm66 0h6l1 7q3 7 11 9v-12h5v12q7-1 10-7 3-5 2-9h6q1 11-7 18-10 8-21 3-12-6-13-21m-847 2q5-1 6 3-1 5-6 6-4 2-5-3zm-270 2h26q3 3 2 7 1 4-2 5h-26q-3-5-1-11zm3 2v7h6v-7zm14 0v7h7v-7zm1190-1 2-1v7h-12l1-2h9zm-578 0h19v3h-20zm254 1q5-2 6 3 2 5-2 8-4 2-6-3 0-5 2-8m1 1q-2 5 1 10 4-3 2-8-1-2-3-2m7-1 9-1q-4 7-6 13-1-6 3-11-5 1-6-1m12 0q5-2 6 3 1 6-2 8-4 2-6-3 0-5 2-8m1 1v9q4 0 4-5 0-4-4-4m9-1q5-2 6 3 1 6-2 8-5 2-6-3 0-5 2-8m1 1q-2 4-1 7t3 2q2-4 1-7t-3-2m128-3 9 1v4h5v5h-5v4h5v5h-5v-4h-4l-2 4h-3v-5h-9v-4h4v-5h5zm0 10v4h4v-4zm132-9h15l1 2h-15zm-1036 0h4q5 3 9 7v77H379v-14q1-8-1-16l-1-3q2 0 2-3v-46h92q5 1 9-2m-75 5-1 6-10-1-12-1v10h10l13-1v12q-6 1-13-1h-10v10h10l13-1v12l-12-1h-11v9h23v11q-7 1-14-1l-9-1v11l23-1v5h60v-5q12 0 24 1v-10h-10l-14 1v-13 1h11l13 1v-10l-22 2-2-1v-11q12 0 24 1v-10c-8-1-16 2-24 1l1-12 11 1h12v-10l-24 2v-6zm865-4q5-2 6 3l-3-2-3 3q5-1 6 3c1 4-5 7-7 3q-2-6 1-10m0 6q-1 3 2 4 3-1 2-4zm-260 9v-14q6 4 11 10 6 2 6-3-1-3-5-4 3-3 6 0c3 4 0 11-5 11-5-1-8-7-11-10v10zm-37-10c4-1 11 0 12 5q0 8-8 8v-11q-4 1-5 4 1 3 3 5 0 3-3 0-4-6 1-11m6 2v9q4-2 4-5t-4-4m90 10 17-13v6l-16 11 16 11v6l-20-14-15-1v-5h13q3 0 5-1m470-3c1-2-1-7 2-7l1 5h2l1-5 1 5h3v-5c3 0 1 5 2 7zm-22-4zc3 0 0 4 1 5 1 5 8 5 10 1v-6q4 1 2 7-3 6-11 3-6-2-3-9m-1174 2h25q3 1 2 5 1 4-2 7h-26q-2-3-1-7 0-3 2-5m2 3v7h7v-8zm14-1v8h7v-7zm396 0q1-2 5-2h22v13h-20l-6-1q-2-5-1-10m2 1 1 7h7l-1-7zm16 0v7h8v-7zm597-2h4v4h5v4h-4l-1 5h-4zm171 4q5-3 9 1l1 7h-11q-1-5 1-8m0 6h8q1-3-2-5-5-1-6 5m-530 6c-3-3-2-10 2-11q2-1 3 1l-5 4q1 6 7 3l1-5q2 2 3 5 5 2 5-3 0-2-4-3 0-2 3-2 5 4 2 9-4 4-8 0-4 5-9 2m-492 2c-2-4 1-11 6-12q7-1 12 4 4 5 6 12l1 20q1 3 5 2h116q4 0 6 2l20 19-1 23q-4-5-9-10l-18-17-4-1H529l-13-2q4 7 12 6h129q3 0 4 2 11 10 21 20h-33q-4 2-6 5l-47 45q-10-1-16 8c-4 7 0 17 8 20q11 3 17-7 3-5 2-11l33-32q6-7 14-14h33l6-3h14l2 1h11v7l-57-1q-5 0-9 2l-40 40q-4 4-3 9-4 12-17 14-8 1-14-6-7-5-6-13 2-13 14-17l7-2 10-10 37-35q3-3 8-4h22q-5-8-11-12-3-3-7-2H519l-8-6-14-15-1 25h-1l1-35 12 12q2 3 6 4l12-1q0-6 3-11-3-1-5-3 1-4 5-5l-1-7q-4-3-9-8m6-7c-3 1-3 7 0 8 2 2 4-1 7-1q2 1 3 4l1 22q1 7 7 8h115l9 1q10 9 22 20v-5l-18-18-4-2H546q-6 1-7-5v-23l-7-8q-3-3-7-1m96-5q6-1 5 4-2 5-6 2-2-4 1-6m168 3q5-1 8 2l1 7v17q-4 3-9 2-4-1-4-4v-19q0-3 4-5m-2 23 8 1v-19h-7zm729-21q0-2 3-2v5q3 5 9 2 2-4 1-7c3-1 3 4 3 6-1 4-7 6-10 5q-6-2-6-9m-1174 2h27q2 5 1 9 0 3-3 4l-25-1q-2-5 0-12m17 2v8h7l-1-7zm-14 1v7h6v-7z"/><path d="m526 446 2-2 3 2-3 3zm1016 0q8-3 9 4c0 6-9 6-11 2q-2-4 2-6m0 2c-4 5 9 7 7 1q-3-3-7-1m-571-2h19v3h-17v10l-2-1zm292 1q2 0 1 4c5-3 8 3 5 7q-2 2-6 1l-2-5q-3 2-5 2l-1 3q-3 1-7-1v-8c3 1 1 4 2 6q0 3 3 1c2-1-1-7 2-7v5h8zm1 5v6l4-1q2-3-1-6zm37-4 1-1q4 5 5 13-2-2-3-5l-5 1q0 3-3 3zm1 1-2 5h4zm7 8q-2-7 4-10 6-1 6 4-2-2-5-3c-4 0-5 7-2 9q5 3 6-2-2 1-4-2h5q1 3-1 5-5 3-9-1m150-10h6q0 8 7 13c5 4 14 3 18-2q4-5 4-11h6q0 10-6 16c-6 7-17 8-24 3q-11-7-11-19m-1329 7q0-5 5-5h17q5 0 6 4l1 4-4 5h-10q2 3 6 2c4 1 9-1 11 3q3 9-2 15c-5 1-11-1-15 2q6 2 12 2 3 0 5 3v12q-1 3-4 3h-32q-3 0-5-3c0-5-2-11 2-15l14-1-1-3h-12q-4-5-3-13l2-4c6-2 12 0 18-2q-2-2-6-1-5-1-5-7zm5-2 1 7h15l3 1q2-5-3-8h-16m-12 27h36l1-12h-36zm2 10zv12h8l16-1 12 1v-12h-35m1153-38q5-2 6 4-1 5-6 4c-3-1-4-7 0-8m0 1c-2 2-1 7 3 6 3-2 1-9-3-6m7-2 3 3q1-2 4-3l-3 5 3 4q-3-1-4-3l-2 3h-2l4-4zm-275 1h19v4l-16 6 16 5v4h-20v-3h15l-13-5q-3-1 0-3l14-5h-16zm507 2h2v6h4v-5q3 0 2 5h7l-1 2-15 1zm22 6q1-3 4-2h8c-1 3-6 1-8 2l8 3c0 3-5 2-7 4 2 1 7-1 8 2h-12v-3l7-2zm-485 7c7-9 22-10 29-1q6 9 3 19-3 6-10 8l-1-4c9-3 10-17 3-22-6-3-16-3-20 3q-7 9 0 18l6 1v-11h5v15h-13c-7-7-8-19-2-26m-883-2q1-4 6-4 4 1 6 4l1 19q-1 7-7 7-6-1-7-6zm2 15v6h8v-20h-8zm802-17c7-4 16 0 15 8 1 8-9 11-15 8-7-3-6-14 0-16m2 2q-5 2-4 8c3 6 15 5 15-2 0-5-7-8-11-6m-671 11q1-3 4-3 4 2 1 5-3 2-5-2m453-1q6-1 5 5c-1 4-7 1-6-2zm250 0h20v3h-8v9h7q2 1 0 3h-17q-2 0-2-2h10l-1-10h-9zm-264 1q4-1 6 2-1 4-3 4c-3 1-5-4-3-6m226 7 19 1-1 12c-2 5-9 3-10-2l-7 6h-1c-2-4 4-5 6-7q3-2 2-7h-8zm10 3q-2 7 4 11c4-2 2-7 3-11zm-636-1h23q3 4 2 9-2 4-8 3h-18l-3-6zm2 2v8h17v-8zm375 1 9-3q5 1 8 3h-6l1 3-5-1-1-2z"/><path d="m723 490 5-1-3 2v17h10v-18h6v18h10v-18h3v43h-4l1-18h-10v19l-6-1-1-18h-10l1 19-3-1zm-549 3q6-2 9 3l1 20q0 5-5 6t-8-4v-19q0-4 3-6m0 4-1 5v15h8v-20zm836-6 11 10 1-8 2-1-1 13-11-9v8l-2 1zm-317 6h11q3 2 2 6l-1 22q-1 2-3 1h-9v-29m2 2v25l8-1q2-8 0-17v-7zm80-2 13 1v23l-1 5h-11l-1-7zm2 2v24h8q2-8 1-17l-1-7zm-434 0h25q3 2 2 6 1 3-1 5h-26q-2-3-1-6-1-4 1-5m2 1v8h7v-8zm15 0v8h7v-8zm702-1q11-3 19 3c9 7 8 23-2 28-8 4-19 3-25-3q-6-10-2-20 4-6 10-8m1 5c-7 1-11 10-7 16 3 8 14 9 21 6 6-4 8-14 2-19q-6-6-16-3m-269-5h11q3 2 2 6v19q0 3-3 3h-10zm3 4v6h6l1-6zm0 14v6h7v-6zm13-17 10-1q4 2 3 6l-1 21q-5 2-10 1-3 1-2-3zm2 3v6h7l1-6zm0 20h8v-6h-7zm158-20 2-4q2 3 8 5t10 5q0 2-4 3l-15 6v-3l5-2v-8zm9 3v6l7-3zm-860 2h17l2-2h7l1 2 18-1v21h-45zm2 2v15h10q9-2 17-1l4 1h10v-15h-14c-9 2-18-1-27 0m220 4q5-3 9-2h18q2 1 2 3v8q-1 3-3 2h-21l-4-1zm4 1v7h7v-7zm15 0v7h6v-7zm943-3h19v41h-18zm3 4c-1 7 2 14 1 22l-1 12h13l-1-10q0-12 1-25zm-463 3q-3-4 1-7l2 3q-1 3-3 4m494 0h10q3 1 2 3v18q1 4-1 6l-8 1q-3 0-4-2v-21zm2 4v6h8l-1-6zm0 14v6h8v-7zm-369-11c-1-4 5-9 7-4q-4 0-5 4c0 3 6 5 7 2l2-4q1 3 3 5 3 0 4-4-1-2-4-3 0-2 3-2 6 5 1 11-3 1-7-2c-3 6-11 3-11-3m-323-2q4-4 9-3h34v5l2 2-8-1h-28l-5 1-9 9-37 37-5-5 20-20zm570-3 10 1 1 27q-4 2-9 1-3 0-3-3v-22zm1 5v6h8l-1-6zm0 14v6h8v-6zm26-18 6-1q4-1 6 2v19q1 5-2 8h-10zm3 4v5l7 1v-6zm-1 14v6h7l1-7zm13-18q5-2 9-1t3 5v20l-2 4h-10l-1-14zm2 3v7h3l-4 3 2 5-2-1 1 7h-1l9 1-1-15v-7zm12 2q-1-4 2-6l9 1 1 8-1 20h-10zm2-2v20h7l1-20zm13-2q0-3 4-2c2 1 7-1 8 2v21l-1 6h-11zm1 2v13h8l-1-7h1v-6zm0 15v6h8v-6zm66-8h52v28h-52zm2 3v22h48l-1-22h-14v1l-20-1z"/><path d="M726 535q6-3 10 1h7l2 1 1 5 3-1 1-4q4 4 5 10h-6v-4h-14zm245-1c6 1 7 8 12 10 3 2 6-2 5-4l-4-3q0-2 3-2c5 3 4 12-2 13-6-1-8-7-12-10v10l-2-1zm106 3c4-3 11 0 13 5q2 9-6 12-10 2-13-8 0-7 6-9m-2 13q0-3 4-4l1-3q-4 1-5-2h11l-1 8q-3 2-6-1zq6 5 11 0c5-4 2-14-5-14s-10 8-6 13m6-2h3q1-4-1-5c-3 0-1 3-2 5m-299 2h20v23h-10q0-7-5-9c-4-4-11 0-12 5l-1 10h-5v-14l3-1 4-4 6-1zm-59 0h29l-2 3 3 7v18h-4v-19h-6v-7h-4q0 6 4 8v18h-4v-19h-6l-1-7h-4v8l-5-1zm31 0h8v28h-3v-19l-4 1zm-51 10h13q3 1 5 4l2-4v18l-6 1q1-7-1-12c-2-5-9-6-13-2q-3 4-3 7l-9 1-1-8q7-1 13-5"/><path d="M729 560h3v19l-3-1zm175 20q3 0 3 2l-3 1zm62 1h9v25q0 2-2 3l-9-1-1-5v-20q0-2 3-2m0 10h7v-5h-7zm0 8v6h7v-6zm12-18q6-1 12 1v20q1 4-1 6h-11zm2 4-1 6h8v-5zm-1 14v5l8 1v-6zm233-18 2-1q2 5-1 6l-2-2 3-1zm154 6 26 1-4 4h-1q-4-2-8 0l-4 5h-7l1 28h8v4h-11zM119 608l2-1 2 3-4 1zm316 1h4q-1 3-4 0m992 8zv12h-15l3-3h8v-6zM201 633q1-3 3-3 1 1 0 3z"/></g><g fill="#a9a8a5"><path d="M1379 148h6v27h-6zm10 0h6l1 27h-7zm21 0h6v27h-6zm-10 1 6-1v27h-6zm-121 8c16-4 34 5 40 21q7 17-2 35c-10 13-28 20-44 14l1 1-6-4 1 2q-8-6-14-14h-18l-1-2h-34v-7h40v-16h-40v-7h28v-3l23-1q5-9 15-16l5-1zm-136 9h19l1 13h-20zm-369 20h7v5h-7zm16 0h7v5h-7zm382 4h16v17l-16-1zm-398 15v-6h7v6zm16-6h7v6h-7zm-1 15h6v8l-6-1zm-115 0h12l1 10h-12v3h-1zm84 0h6v8l-6-1zm14 0h6v7h-5zm32 0h5l1 7-6 1zm368 0h16v17h-16zm-477 1h12v9h-12zm21 0 13 1v13h-1v-4h-11zm22 3h11v13-3l-11-1zm47 7 2-2 3 1 1 17h-16v-14h-4l1 13h-1v-3l-12-1v-10q13 0 25-1zm358-1 2-1h17v12l-19-1zm-1006 5h11v6h-11zm185 0h7v6h-7zm14 0h8v6h-8zm15 0h7v6h-7zm15 0h7v6h-7zm84 4h4v6h-4zm8 0h4v7l-4-1zm8 0h4v6h-4zm8 1 4-1v6h-4zm8-1h3v6h-3zm8 0h3v6h-3zm-377 1h11q-3 6-2 13l-1 10q1 7 1 14h-9zm47 0h13l-1 37h-10c-1-7 2-14 0-21q0-8-2-16m655 5h16v17h-16zm-258 3 4-1h14c4 1 2 6 3 9h-20v5h-1zm150-1zv14h-12l-1 2-2-2h2v-10h12zm-21 1 1 12h-13v-10l12 1zm693 1 6-1v27h-6zm10-1h6v27h-6zm11 0h6v6l-1 21h-6q1-13 1-27m10 0h6v27h-6v-27m-1273 1q9-2 15 4 6 9-1 16c-5 7-17 6-21-2q-4-12 7-18m185 0h7v6l-7-1zm14 0h7v6l-7-1zm15 0h7v5h-7zm15 0h7v5h-7zm18 0h7v5h-7zm344 0 1 13h-13v-10h12zm-207 4h13l1 9h-14zm-87 1h6v4h-6zm70 0 6 1-1 3h-5zm233 0h12v10h-12zm38 7h16v14h-16zm-341 1h6v4h-6zm70 1h6l-1 3h-5zm255 11v-10h12l1 10zm-206-7q4 3 0 5zm-10 2h7v4h-8zm-108 1h5v4h-6v-2zm69 4v-4h5v4zm168 2h12v12l-1 1v-3l-11-1zm-238 2h6v4h-5zm70 4v-4h5v4zm-379-1q12-2 23-1v9h-12v-8zm123-1h16l-15 1q-1 6 1 12l-2-1z"/><path d="m276 276 2-3 1 4 9-1q3 5 2 10v11l3 1v13h-16l-1-2-12-1v3h-17l1-13h2l1-12 1-8q6-2 12-2zm494-1 6-1v9h-6zm14 0h7v8h-7zm-241 1h7v4h-7zm-191 4h12l-1 5h-11zm31 0 12-1v6h-12zm52 0h5v4h-6zm68 0h6v4h-5zm54 0h21l-1 8-15 1-5-2zm-236 2h7v6h-7zm15 0h7v6h-8zm-136 1h8v5h-7zm14 0h8v5h-8zm17 0 6 1v4h-6zm71 0h8l-1 4h-6zm219 0h14l-1 9h-13zm-334 1 8-1-1 5h-7zm633 1h7v8h-7zm14 0h7v8h-7zm356 0h12v20h-12zm18 0h12v13l5 1v-14h12v13l5 1v-14h12v20h-12v-5h-5v5h-12v-6l-3 2-3-2 1 6h-13zm131 1h12v19h-12l-1-6-3 1v-2h4zm52 0 8-1 4 1v19h-11l-1-7zm-132 0h12v19h-12v-19m18 0h11l1 13h5v-13h12v19h-12v-4l-5-1-1 5h-11zm79 0h13v12l-1 7h-11zm18 0h12v19h-12v-19m34 0h13v12h10l-7 1 5 2h-4l-4-2v7l-12-1v-5l-5-1h5zm-974 2zh5v4h-6zm69 0h7v4h-6zm457 2h6v7h-6zm14 0h7v7h-7zm-622 0h11v5h-11zm31 0h12v5h-12zm562 6v-5h8v5zm-744 1 7-1v5l-8-1zm13-1h8v6h-8zm88 1 7-1 1 3v1l-8 1zm19 5v-6h7v6zm15-6h7v6h-8zm-148 1h6l1 4h-7zm42 0h7v4h-7zm453 0zv13l-12-1v-11 2h11zm-83 2h12v11l-12-1zm234 0h7v8h-7zm-482 1h11v5h-11zm31 0h12v4q-5 2-12 1zm437-1h7v8h-7zm-370 3h4v6h-4zm8 0h4v6h-4zm8 0h4v6h-4zm8 0h4v6h-4zm8 0h4v6h-4zm7 0h4v6h-4zm471 1h6v8l-6-1zm14 0h6l1 8h-7zm-283 3q1-3 5-2v4q-3 0-5-2m84 1v-3h6v3zm-156-2h15v15h-14l-1-3zm30 0h16v16h-16zm296 0h7v4h-7zm-391 1 12 1v9h-11v3h-1zm22 0h13v10h-13zm616 4q3-3 8-3h212q5-1 9 3c4 3 2 9 3 13v149q0 9-9 11h-215q-9-1-10-10V320q0-5 2-10m20 8q-5 4-4 9v135q0 10 10 10h181q7 1 10-3 3-5 2-12V328c1-5-4-11-9-10h-190m-437-8h6v4h-6zm46 5h11v12h-9v-12zm-25 0h10v1h-2v11h-8zm-21 2h6v3h-6zm-576 5h8v19h-7v-6h6v-8h-7zm31 0h8v4h-8zm461 1h5v3h-5zm84 3v-3h6v3zm-175-2zv3h12v11h-13zm175 5h6v4h-6zm-462 1 6 5-3 4-6-5zm607 7q3-6 11-7h189q6 0 12 3 3 4 4 10v222q-1 4-6 4H919V355q-1-9 1-18m18 6q-7 4-8 12v190c0 7 5 15 13 14h168q12 0 13-12V356q0-6-5-11-5-4-11-3H944zm213-12 2 1 12 1v19h-12l-1 1h-11v-1h10c-2-3-7-6-6-11l6-9zm-262 2h12l1 2q6 2 7 8-1 6-8 9h-12zm-334 2v3h11v9h-12zm220 0 6 1v3h-6z"/><path d="m1347 335 3 2 4 4q-1 3-3 0l-5 1v-1l3-1-1-1-1-1h2q0 2 2 2 1-2-2-2l-3-2zm-1117 1h7v4h-6zm257 1h21v10l-21-1h-15l-1-8h3zm-134 0q14 0 28 1h8v7l-18 2h-18zm223 0h13l1 9h-14zm42 1h6l10 1v15h-14l-1-10zm21 0h26v17h-16v-16zm-336 4 1-2 6 5q-1 1-3 1zm388 0h5v3h-5zm84 0h6v3h-6zm0 6h6v4h-6zm-84 7h5v3h-5zm-338 1 36 1v8h-4l-12 1h-20zm134 1 21-1v10h-18l-18-1v-8zm-227 3h3v6h-3zm25 0h3v6h-3zm6-1 3 1 1 5-4 1zm-63 6 1-5h3v5zm7-5h3v5l-3 1v-6m44 0h3v6h-3zm-95 3h7v7h-2v2l-1-2h-5zm957 0h24v20h-12v11h12v19h-12v12h12v19h-13c-2-3-7-5-7-10q2-6 6-8l1-1v-11c-1-4-7-6-7-11q2-4 6-7l1-2v-10h-11zm2 1c-3 2-1 7-2 10 1 3-1 6 2 8q4 2 6-1-3-4-5-8 1-4 5-8zm-1002 0h8v7h-8zm748 0h12c0 4 6 4 7 8q0 5-5 9l-1 2h-1l-12-1zm-761 8 1-8v7h4l-4-6h5v7zm454-6h13v8h-13zm123 1h5l-1 6h-3zm7 0 4-1-1 6-3 1zm13-1h3v7h-3zm6 0 4 1-1 5-3 1v8h-3l3-1v-14m6 1 4-1-1 6-3 1zm6 0 4-1v6l-3 1zm13 0 4-1q1 5-3 8zm98 6h13v9h-13zm-501 3q18 0 36 1v8q-18 1-36 1zm119 1 19-1h17v10h-18l-18-1zm93 5v-5h8l-1 5h-7m-424-3h8v6h-8zm16 0h5v7h-5zm-43 1h5v7h-5zm13 0h7v7h-7zm537 13q-1-6 1-11h12v13l-1-3zm21-10h13l-1 10h-12v3zm21 3h13v27l-1-14v-3c-4 1-8-1-12 2zm22 0h12l1 13h-1v-3h-11v3h-1zm38 0h13l-1 13v-5l-2 2h-9l-1 2zm-202 4h8v6h-8zm18 3h13l1 9h-14zm168 1h7v7l-7-1zm54 0h10v1h-3v11h-7zm28 0h7v13l-7-1zm57 0h18l-4 1q5 4 6 10l-5 8q4 2 8-1v-16l-3-2h4v20c-8 1-16-2-24-1zm-402 2 21-1v11l-22-1h-14v-8zm-134-1 32 2h4v7l-36 2zm-147 7h5v4l-5-1zm647 1h13v9h-14zm-104 4h8v7h-8zm-85 15v-13l1 3h11v10zm-82-11h13l1 4v5l-2-2-11 1v7zm103 2h12v11h-12zm21 13 1-13v4h12v9zm22-12zv3h11v10h-12zm-523 1h7v3h-4q-2-1-3-3m561 1 12 1v9h-12zm-202 1h8l1 5h-9zm-219 1h6v7h-6zm14 0h7v7h-7zm-153 4 5-1 1 3h-6zm683 3h12q4 5 9 9-2 6-6 10 5 2 8-1l1-18v20l-12-1h-12zm-507 1 12 1 10 1h1v7l-13 1h-10zm83 2 24-2v10h-12l-11-1h-1zm-259 0 6-1v4l-6-1zm582 1h6v8h-6zm15 0 6 1v7h-6zm-239 2h9v6h-9zm-219 2 7-1v8h-7zm14-1 7 1v7h-7zm398 1h7l1 7h-7zm16 0h8v7h-8zm-567 1h6l-1 3h-5zm99 3 1-3h6l-1 3zm277 10v-10l1 2 13-1v9zm-376-7h5v3h-5zm582 5h7v5h-7zm-429 1 6 1 1 7h-7zm23 0h10q7 2 13 1v8l-13 1h-10zm83 1c8 1 16-2 24-1v10q-12-1-24-1zm-120 0h6v7h-6zm807-1 1 9-1-1zm-1004 6h3v7h-3zm753 3h12v20-19h-9c1 4 6 6 6 11l-7 9-1 8q1-4-1-9h-12v-19zm251 1h13v19h-12v11h12v20h-12v11h12v20h-13l-7-9c-2-5 4-7 6-11l1-1v-9l-1-3c-3-1-8-4-7-9q4-4 6-9h2v-10c-2-4-8-7-7-12q3-6 7-8m-917 3h3v5l-1 1-2-1zm6 0h3v5l-3 1zm19 0h3v6h-3zm6 0h3v5l-3 1zm7 0h3v5h-1l-2 1zm12 0 3-1v7h-3zm503 0h7v5l-8-1zm-615 6h8v20h-8v-6l7-1v-8h-7zm209 1h11l12 1v7l-13 1h-10zm85 1 22-2v10l-13-1h-11v-7zm-344 12 1-12h9v1h-2v10h2v1zm24-12h13l-1 12h-9l1-11zm199 6 6-1-1 8h-5zm13-1h5v8h-5zm-100 11h7v5h-8zm123 1 9 1q7 2 14 1v8l-23 1zm808 0h12v4l6 1v-5h11v5h6v-5h12l-1 4 5 1h-5l1 13h-12v-13h-6v13h-12l1-13h-6l1 13h-12l-1-13zm52 0h11l1 18h-12v-18m17 0h12l-1 5h6v-5h11l1 18v1h-12v-14h-5v14l-12-1v-18m35 0h10l1 5v13h-11zm46 0h11v19h-12v-14zm16 0h12v19l-12-1v-18m18 0h11v18h-12v-13zm17 0h11v18l-12 1v-11zm16 0h12l1 4h3l3 1h-6l-1 13h-12l1-12h-5l5-1zm-928 1h10v10q-12-1-24-1v-8zm410 1h13l1 2q5 4 6 8-2 6-8 10h-12zm-542 0 5 1v7h-5zm12 1 5-1v8h-4zm375 3-1-3q1 3 4 2l16 1h-2v18h-10v-18zv18h-10v-17l3-2h1zm-610-1h9q2 5 1 12h-10zm27 0h9v12l-12-1h3zm23 8h7v5h-8zm84 0 8 1-2 4-6-1zm437 2h8v7h-8zm15 0h7v5h-7zm49 0h7v5h-8zm18 0h8v5h-8zm-432 1h7v8h-7zm15 0h7v8h-7zm437 3h7l-1 6h-6zm15 0h8l-1 6h-7zm-691 7c9-1 18 2 27 0h14v15h-10v-14h-20l-1 14h-10zm53 0h7v7h-8zm171 5h7v7h-7zm15 0h6v7h-6zm364 0h10v18h-7l-2 1h-3v-1l3 1zm18 0h9l-1 18-7 1h-1zm564 1 13-1q-1 13-1 25l1 10h-13l1-12c1-8-2-15-1-22m2 7v18h9v-17zm-613-5 8-1v6l-8 1zm102-1h7v6h-7zm15 6 1-6h7v6zm77-6h14q5 5 6 11-3 5-8 9h-12zm-179 1h7v5h-7zm48 5 1-5 7 1v5zm19-4h8v4h-8zm400 4h8v4l-8 1zm162 0h7l1 6h-8zm-149 2h8v6h-8zm13 1h8v6h-8zm15 0h7l1 6h-8zm29 0h7v6l-7-1zm14-1h7v7h-7zm14 0h8l-1 20h-7v-5h7v-9h-7zm14 0h8v6h-1l-7 1zm-57 0h7v7h-7zm125 10h13v1h-6v20h6v1h-13zm34 0h13l1 22h-9v-1l1-19zm-52 2 8-1v7h-8zm-188 10 2-10v10l12 1v19h-13v6l-1-5h-2l1-2q-5-3-6-9l6-8-9-1zm39-7zh7v6h-8zm13 0h8v5l-8 1zm15 0h8v6h-8zm14-1h7v7h-7zm29 0 1 1 6-1v7h-7zm-15 1 8-1-1 7h-7zm43 0h8v6h-8zm-112 3h8v4h-8zm-288 5h13c2 4 7 6 6 11l-6 8h-13zm-166 11 5 1h1v18h-6zm10 0h6v19h4v-18l6-1v19h4v-18h2l4-1v19l-3 1h-21l-1 8q1-6-1-13zm30 1h6v19h-6zm217 25 7 1v5h-8zm-14 6v-5h7v5zm107 8q-1-7 6-9c5-1 8 5 7 10v9h-1v-9h-8l-1 2v-2zm306-7q4-2 8 0l-8 6q-2 5-1 8 0 7 2 13 3 7 8 10h-11v-4h-8l-1-28h7zm-413 7h7v6h-7zm28 3h8v4h-8zm422 24 8-6v6zm-713 9h10q-2 3-6 3-3-1-4-3"/></g><g fill="#212120"><path d="m1141 182 2-16v13h20l1-1-1 45h-18l-2 1v10l-2-14zm234-7h45l1 33-1 13v21l-3 2-1 6v-8h-6v7l-4-1v-6h-6q0 13-1 27v16h-4v-15l-6-1h6v-27h-6l-1 7h-3v20-27l-6 1h-4v-68m-671 34 4-4q4 2 5 6 9-2 19 1-11-2-20 0l-4-2h-13zm525 1h5q-2 14-1 27v48h-4zm-439 14 4-1h18v3h3v30h16l-16 1v13l-4 1-21 1v-1l1-2v-28zm-336 9 1 6 7 1h3l1-7v6h27v-6h1v6h9l1 9v31l5 1h-6l1 4 1 4h-2l1 4v3l7 1 9 3h13l12-2 7 2v4q-4 2-3 5v14l-1 10 1 15q1 3 3 4l1 1 14 1q-3 2-3 6h6l-2-7 4-3c5 4 12 2 18 2q8-2 6-9l17 1v12q-1 3 3 3h18v-3h15q1 5 6 10-2 5-1 9 1 11 1 22 1 3 4 5l-4 5v18l7 5 10 2q2-1 3-3l3-1 1-1 2 4q5-1 11-1 7 0 13 4 1 7 6 12l15 15q4 3 9 3c5 0 7 5 12 5 8 1 18-2 25 3q-2 4 1 7 3-1 3-5l12 12 3 5-2 6q-6-2-12-1-4 1-4 4v26q0 3 4 4l5 1v17l7 1h-97l-4 1-1 1v19q-1 3-3 5v22q-6 4-9 10v31H557q-6 1-13-1l-1-15v-24q6 2 14 3 11-3 15-13 2-10-4-17-5-7-14-7-10-1-15 7-3 7-5 12l-3-9q-3-6-9-9-7-2-15-1l-29-29q-3-4-7-3H368l4-4h-1q4-7 1-16 3-8-2-15 5-6 1-13 2-6 1-12-2-3-6-3h-21q-4 0-6 4c0-5-3-11-1-16q5 4 11 3h19l4-2 2-2 1-5v14l2 4 1 3q-2 5-1 9v23l14 1h91l13-1h1l1-25 14 15 8 6h135q4 0 7 2 6 4 11 12h-22q-5 0-8 4l-37 35-10 10-7 2q-12 4-14 17-1 8 6 13 6 7 14 6 13-3 17-14-1-5 3-9l40-40q4-2 9-2l57 1 6-1 9 8h14v4h6q-1-6-5-10l-5-1-2-2 7-1h4l-4 2h6l1-7h12q3-2 2-6v-24l-2-4h-12q0-4-2-6l-16-1q-3-2-8-3l-9 3q-3 3-2 8h-11l-2 1q-8-3-16 0l-20-19q-2-2-6-2H549q-4 1-5-2l-1-20q-1-7-6-12t-12-4c-5 1-8 8-6 12q5 5 9 8l1 7q-4 1-5 5 2 2 5 3l-3 11-12 1q-4-1-6-4l-12-12-1-58 13-1q6-3 4-10 1-5-3-7h-21q-2 0-3-1h20q5-1 7-3v-13q-2-5-7-3l-19-1 4-1q9-1 18 1 3-3 4-7 1-7-2-11h-21l-2-2q10-2 19 0 5-1 6-6v-10q-3-2-8-2l-28-1v-22q10 1 19-1 5-1 8-7h-9l-1 6v-6h-19v6l-1-6-3 2v-2h-4v6l-1-6q-2 2-3 6v-6h-7l-1 6v-6h-4c-4-1-3 5-5 7q-4 6-9 10-3 3-7 2h-71l-1-3-27 27-10 11c-5 4-2 10-3 15q0 5-5 5-1-2 1-4 1-7 1-15l6-8 25-25 8-9q5-1 9-3h1l4 1h19l-1-2h1l2-2q9-3 19-2l11-1q7-5 13-12l9 2v-8h-5l5-1v-7h-5l5-1v-18h-6v-1h6v-21h14zm-65 79q-3 4 1 6 5 1 4-5-2-3-5-1m191 49c-4 1-2 6-2 9h-11c-2-3-7 1-7 4v23q0 5 5 5h10l3-3q-1 4 2 7l-3 6-3-2h-11c-5 2-3 8-3 12q-5 0-8 2l2 4 5-5q1 4-2 6h2l1 9-6-1 1-4 4-1q-6-3-12 1h5v4q-3 1-4 3l12 1q4 3 7 1v1l2-4 3 2v2l6-2c0 4-2 9 2 11h16q3 0 5-3v-35q-1-4-3-8l2-5 2-4q3 2 6 2 3-3 0-6h-6v-6q4-2 4-6-1-3-4-4c-1-4 5-3 5-6q1-4-5-3l-2-4q-1-3-4-4zm-29 18-4 1q1 4 5 4l-1-3h2l-1 4 6-1-4-3q4-1 4-3-3 0-7 1m-3 8v7q3 2 7 3h-6q-2 1-1 4 5-2 11-2c2-1-2-2-3-3l2-3-1-2c-1 4-5 2-7 2l-2-2q5-4 9 0h2c0-5-8-6-11-4m64 27-5 6q1 5 5 3 5-1 6-6-1-4-6-3m-62 14q2 4 5 1-3-1-5-3l1-4c-3 0-3 5-1 6m71 9q-3 2-1 6 5 3 6-2 0-5-5-4m-72 4q-2 8 6 8 6-2 4-8c-1 2-2 7-6 6q-2-3-4-6m210 33-1 3c-1 3 5 6 6 2q1-6-5-5m-14 1c-2 2 0 7 3 6q2 0 3-4-2-3-6-2M554 604q-2 4-2 8h11l-1-7q-3-3-8-1m35 3q3 3 9 5-6 0-9 3l9-1q3-1 2-3-5-3-11-4m-37 7c1 4 6 1 8 2q-5 2-8 6l1 4-1-1q0 4 2 7 4 4 8 0 2-3 1-7c-2-1-7-1-6 3 2 1 3-3 5-2q0 7-6 6-3-4-3-9h10v-2h-7l7-5v-1zm38 2v6q2 2 4 2c1-2 2-7 5-5v5c3-1 2-8-2-7q-4 1-5 5c-2-1 0-4-2-6"/><path d="M520 256zh14l2 8v1c-4 5 0 12-2 18h-14v9q0-6-4-13 3-8 1-16v-8zm169 3 2-2 3 3h13l4-2 4 3 5 1-1 5q4 0 7 3v5l1 3-1 5 3-1q2-11-2-20h4l3 21h-3v6h3v-6l1 6h14l1-6v6h26l-1 18v9h6v1h-6v3h6v1l-6 2v18l3 1h-3v3h6v1h-6v8h6v1h-6l1 12h-10l-3-1v7l1 8-3 2-4-9q4-3 3-8l-4 1h-3l-3-1v7q1 6 4 13-5-1-7-6l-2 2-1-1v-8l3-1v-6l-4 1-2-1-4 1h-2l-4-1v2h-2l-1 2v-4h-3v7h-1l-1-6h-1l-4-1h-2l-4 1h-16v-21l-5-1h5v-3h-2l2-3v-12l-5-1h5v-3h-5v3h-2q-4 1-7 4-6 5-10 11-2 3-1 8v16h3v-17q1-7 7-12c3-2 6-7 10-7v4h-3q-4 7-10 13v22q-5 1-8-3-4-3-3-10l1-16 8-9 7-7 11-1q-7-3-14 0-6 6-13 11v-5q4-5 10-9 6-2 13-1l1-1v3h5v-3h-5l5-1v-14l-4-1h4v-12l9-1 1-5v6h3v-6h-3l4-1-2-4h-5q-8-5-12-13l-3-1q-1-3 1-5m25 22 1 2h-3v6h10v-1h2q0-9-1-16l-4-4zm11 2v6h3v-6zm-362-14q7-3 12-6h51l9 1-1 2h-57q-4 2-8 5-11 0-20 6l2-6q6-2 12-2"/><path d="m739 274 4-7h3l-4 10 4-1v4l-4-1-1 4h-4l1-1q-1-5 1-8m-318 0q3-2 4-6 2 2 1 5l-6 6q-1-4-4-4h-20l-9 1v-3q7 1 13-3h17q1 4 4 4m1127 0q-4-3 0-5zM418 287q7-8 16-15l1 4-19 19-21-1v-3l17-1q4 1 6-3m-54-10 18-1 1 4v25l1 3q-4 2-8 2l-12-1-1-9v-10l1-10v-3m656 4q-1-3 2-3 1 3-2 3"/><path d="m416 298 18-18v4q-2 6-8 11l-9 8q-11 0-22 1v-4h17zm-280-15h8l-10 9v54l-1 11-4 1v-56l1-11zm166 17h8v3h-8l2-2zm20 3q5-1 8 2l-3 4 10-1q1 5-2 6-5 8-13 12l-4-2q2-4-1-7l-2 1 2-7 5-1v-2l4 1q-1-4-4-6m26 3 2 2q-4 9-11 16l-13 11-1-3 14-14q5-4 7-10zm576 15 14-14 2 4q2 4 4 5l2 1 3 2q-4 3-9 2zm-465-11h15l-1 7q-1-4-4-6l-4 5 5 2-5 2q-2 5-6 8l13 1v8l2 1h-3l1 8v67h-83v-16h-4l4-1v-30l-4-1h4v-27h-8l8-1v-9h-4l-1 5h-29q-5 0-9 6l-21 21c-3 5 0 12-2 18q-4 7-12 8v-3q6-3 8-7l1-16q7-8 15-16l16-15q4-5 10-5h65q6 1 12-1 7-6 13-13zm-6 7q3 1 6-1-1-3-3-4-4 1-3 5m-4 2-8 9h12q6-3 7-9zm-47 20-1 5c2 3 8 2 7-2q0-5-6-3m-101-29h10l-2 6 3 3-17 17q-3 2-4 6l3 3q0 4-3 4t-7 2l-8 5q-11 1-21-4l4-3q1-3-2-6l3-3q0-4-3-6 2-5 6-9 4-6 11-7 8-1 15-1 5 2 10-1 3-2 2-6m-84 1h3v24q-1 6 3 13 8 4 9 12h-3v-2l-11-11-1-7zm30 15q4-8 13-7l-9 8-1 9 1 24h-4v-34m329-7h13q1 14 1 27l-1-9v-4l-13 1v12l-1-16h-5l3-1 1-5 1 4-1-4zm52 8q1-2 4-3 14 0 29 1l2 9-27 1-5 1-3-2zm-5 8 1-10h2l1 10zm666-6q8-1 8 6-2 6-8 4c-4-2-4-8 0-10m0 1 1 1q-4 2-2 6l1-1c1 5 8 1 7-3q-2-4-7-3m60 8q3 0 2 2-2 0-2-2m-1140 9 3-3 12 12q2 2 1 4h-3z"/><path d="M342 346q3-3 7-2l-3 4q-11 9-19 22-2 2 0 3l9-9 10-4v4q-12 4-19 16c-4 5-8 12-16 13v-3l6-3 8-10v-15zm-111 4c3-3 5 2 7 4v6h-3c1-4-4-6-4-10m933 2zq9 4 11 13v72l5 5v3c-3-2-9-3-9-8l-1-73q0-3-3-5-3-3-4-7"/><path d="m263 360 1 6h2l3-1v-5q0 5 3 6h6l1-6v6h9v-6l1 6h2l4-1q8 1 15-1v5l-4 3v5h-1l1 3h2l-2 1v12l-1 2 6 1h-5l-1 3v3l1 7v3h1l-2 2 16 1q4 1 7 4l5 1q1 5 4 8-4 0-7-2l-9-7q-5-2-9-2l-1 1v-3h-5v3h5l-6 1 1 2v3h5v-3l10 1q4 3 9 7 4 2 7 1l-1 3q-9 0-16-6c-4-4-10-2-15-2l1 6v2h6v1h-6l-1 3v1l1 2v10q1 5-1 9h-16v6h-1v-7l-3 1v1l-6-2v7h-1v-6h-8l-1 5v-5h-3l-2-1q1 11-1 21l-3-1v-3h-2q3-4 2-10h3v-6h-18l-1 5v-5h-9v5l2 1-7 8-1 11v53q1 5 6 9c4 4 12 0 16 4l12 12 4 7q-6-2-10-8-4-5-10-9c-4-1-9 1-12-2l-8-7q-2-4-2-9v-59q2-7 9-10v-6h-22l-1-9v-13l1-3h-6v3l-1-3c-3 2-8 4-7 9v83l-1 13c-3 6-12 9-13 16l-2 5-10 10-4-2 11-11q3-3 3-8 7-5 11-12v-94c0-6 6-9 10-12q3 3 9 2v-8l-6-1h6l-1-3-3-3h4v-3h-7l6-2v-11l1-2-2-1h2v-3h-6v3q-6-2-11 1l-8 6-20 20-6 6v11q1-6-4-10h-13l11-1 6-6 17-17q7-8 16-13c6-2 13 1 18-3h-5l6-2-7-1-1-1h6l1-2v-4l-1-3v-3l1-11h10l6-1h4l2 1 1-3v3l3-1v-1l3 1h12l4 1h2l1-5v5h3zm-40 14q-2 1-3 4c0 3 5 5 6 2q3-4-3-6m1112-7 6-6v13h-2v-9zm-755-1q-1-2 2-3h16-1l-2 3h-13v23l-1-1q1-4-1-9z"/><path d="M344 368c4-2 8 3 12 2l23-2q1 4-2 4h-29l-6 3-19 20-5 4h-6q3-4 7-6l14-14zm362 5h3l4 7-3 2-5-1zm31 1q4 2 4 7h-5z"/><path d="M336 386q5-5 12-9l-4 5q4 3 6 8l13 1q-6 0-11 2-4 5-3 14h-15v-10l-5-1q-2 6-8 8-4 2-10 2v-4q6 1 11-2zm229-4h5l2 2v6h-8q-1-5 1-8m289 3h12v15h-13q-1-7 1-15m-657 18 9-1v3l-9 1-7 8-15 14-3 6v24l-4 4v-27q1-5 4-8 8-10 18-18 3-4 7-6"/><path d="M198 410q4-2 8-1v3q-7 1-11 7l-13 14q-3 2-3 5l-1 19-3 1v-19q0-4 2-6zm113-2c11 0 22-1 31 5l-3 1-6-2q-11-1-22 0z"/><path d="M199 422h7v2q-7 1-11 7-4 3-5 8v94q-2 4-6 7l-17 16c-5 5-12 0-18 3l-7 7-7 7-3-3q8-8 16-14 7-1 15-1l10-10 13-12q2-8 0-16v-20l-3-6q5-7 3-16l-1-13 2-5v-20q0-4 4-6zm206 0h60v13h1l-1 12v19l2 1h-2v32h-60v-24h-13l13-1v-46h-1zm12 7c-3 2-3 9 1 10q6 1 7-5-2-7-8-5m147-7h9v9h-9zm-253 5h7l16 16q3 3 3 8-12-12-26-23zm399 5h4v5l6 5 8 10 2-2 3 4 6 2q5 1 10 4h25l9 7 3 3q6 7 12 15 3 6-1 10-1-5-3-10l-8-7-11-12q-1-2-4-3h-24q-6-2-11-5-4 0-9-2l-14-16q-2-3-3-8"/><path d="m733 433 4-1q-1 5 2 8 4 7 11 11h26l5 2v3l-31-1q-5-1-8-5-9-6-9-17m-419 5q9 6 16 13 4 4 5 9v25q-1 11 3 20-6 0-7-5v-39q-1-5-4-6l-13-13q-2-2 0-4m211 4q4-2 7 1l7 8v23q1 6 7 5h121l4 2 18 18v5q-12-11-22-20l-9-1H543q-6-1-7-8l-1-22q-1-3-3-4c-3 0-5 3-7 1-3-1-3-7 0-8m1 4 2 3 3-3-3-2zm-367 2 1-3q5 9 4 18l-1 1-3-2 1-6-2 1-1-4 2 2q1-4-1-7m42 12q-1-8 1-14l2 4 2 2-1 8v86l-1 21h-4l1-1V460m1071-13h2v12l-2 1z"/><path d="M313 448q9 4 14 12v40c0 5 5 7 7 11l1 15q3 3 8 4l-18 1c-2 4 3 4 6 4h139q6 0 8 5 8 7 16 15l12 13-3 2-9-10-20-19q-2-3-6-2H321l-1-5-28-31q-4-3-3-10 4 3 6-1 0-6-6-4l1-23q2 2 5 3 3-2 3-5l13-4c3-3 1-8 2-11m-7 27q2 4 5 2 2-3-1-5-3 0-4 3m-155-23q5 2 3 8l-3-1zm99 13 1-1-2 19v46q1 4 5 7l10 11q3 4 6 4h22q3 1 4 3l14 14-2 2q-8-7-16-15l-25-1-13-11c-3-4-9-8-9-14v-54l1-7z"/><path d="M275 464zl2 8v37q2 6 8 10l28 30q3 4 7 3h52l7 8 8 8-2 3-14-14-6-1h-48q-5-1-8-6l-28-29q-5-3-7-7l-1-20zm-57 7q0-4 4-6l2-1q-2 5-2 9v80q0 3 3 5l9 9-4 2-8-8q-3-3-4-7z"/><path d="m281 466 2 1 2-1v34q2 6 8 10l21 23 10 10 4 1h73q3 0 6 2l22 23-2 2q-14-11-25-24h-76q-6-1-9-5l-15-17q-10-9-18-19-2-4-2-9zm517 4 2-3q22 19 40 40 4 5 9 8h28l8-7q2-1 3-4v-18h1v20h9l2 2-10 1q-6 6-13 10l-15 1h-19q-5-4-6-10c-11-15-27-26-39-40m45 49q2-1 3-4l-2-3q-3 3-1 7m312-42h18q1 6 1 14l11 11q2 3 6 4h16v-4h10v8h-28q-5-1-8-6l-10-11-1-11-16-1zm-639 12 13 2h130l4 1q8 9 18 17 5 5 9 10l1 2h-35q-5-1-9 3l-27 25-20 20-4-2 47-45q2-3 6-5h33q-10-10-21-20-1-2-4-2H528q-8 1-12-6m192 8 11 1 1 29-12-1zm2 2v5h7v-5zm0 19v5h7v-5zm47 8-1-29h12v29zm2-27-1 5h8v-5zm-1 24 8 1v-5l-7-1zm27-24 1 7q1 9-1 17v-4h-8v-15h8zm508 3zl7 1v6h23v1h-23v11l-2-2h1l1-9-7-1zm80 0h12l-2 1-1 6h-8zm-125 1h6l-5 5-4 11h-1l-1-8zm17 1h6c-4 6-10 8-13 14l2 1h-5q3-9 10-15m15-2 8 1q-1 4-5 6-5 4-10 9-1-4 2-6 4-4 5-10m62 2 5-1 1 3 10 2 1-6h5v8l-12 2-9-3-6 2zm50-2h6l1 26 4 1h-9q1-9-1-18zm-227 6 7-4q1 1 1 3-3 5-2 9l-2-3h-16v-5zm-470-2h8q2 8 0 17v-6l-8 1zm-426 2q4 0 3 4 0 9 2 17-4-1-5-4l-1-9z"/><path d="M259 509h6l-5 1v17q1 5 5 8l9 8h16q4 0 7 2 7 5 13 12l4 2h25q4 3 4 8-4-3-10-4h-23q-7-8-15-15c-8-2-16 1-24-1l-10-10q-4-4-5-8v-16q1-3 3-4m567 12 17 17 5 2h53v3l-9 1h-38l-10-1q-4-2-7-7l-10-9zm-175 7 5-1h28l8 1h1l-6 3h-33q-8 7-14 14l-33 32-2-3 37-37zm526 1 8-1v15h-8zm14 2h7v9h-7zm73 1h4l1 15-9-1h8v-7l-6 1-2-5zm25 0 7-1 1 7h-8zm-598 18h32v10l-2 4q-2-3-5-4h-13q-6 4-13 5zm61 0h2l1 10h-2l-3-7zm10 0h20v9l-6 1-4 4-3 1v-5h-7zm411 1 2 1q3 3 2 8l-1 30h-5l2-21zm-445 1h4l2 7-1 1h-5zm11 0h4v8q-4-2-4-8m446 0h6l-1 37-3-1v-35zm84 5h5q2 1 1 4l-5 1zm-276 24h11l1 13v14l-1 1h-11v-28m1 2v5h8v-5zm0 19v4h8v-4zm-439 4c3-1 8 1 7 4h-8q-1-2 1-4"/></g><path fill="#46584a" d="M1375 204v10zm-680 23 13 1v13h-13zm-500 56v18l-1-4h-6l-1-9h7zm995 2v20h13v-4h4v-3l1-13-1 20h13l-1-6 3 2 3-2v6h12v-5h5v5h12v-4h5v4h12v-4h5l1 4h11l1-5 5 1v4h12v-4h4l25-1 3-1 1 6h12v-4l5 1v4h13v-5h5v4h12v-2l1-2h4v5l12-1 1-4 5-1v5l12 1v-7l4 2h4v176l-1 10-5 1h-3l-1-4h-12l1 5-5 1-1 12v-18h-11l-1 8v-2h-5v-6h-11l-1 5h-5v-5h-12v6h-5v13-19h-12v3h-34v-4h110q9-2 9-11V323c-1-4 1-10-3-13q-4-4-9-3h-212q-5 0-8 3-3 5-2 10v153q1 9 10 10h93v5h-5l-1-4h-11v5h-6l1-5h-12v6l-5-1v13l-1-18h-11v5h-1l-5-1v-4h-11v5h-6v-5h-11v5l-6-1v-4h-12v5h-9 3l-1-45V301l4-1c0-3-4-1-6-2h9zm-286 39h247v8h-10v21h11l1 10h-12v21h11v10h-11v20h11v11h-11l-1 20 12 1v8l1 1h12v1h-24v20h11v10h-11v21h11v9l-1 1h-10v20h12l-2 10-10 1v20h10l1 5H902v-5h11v-21l-11 1h-1v-4l2-7h10v-20h-12v-10l12-1v-20h-12v-11q2 5 1 9l1-8h10v-21h-12v-11l12 1v-21h-12v-9h13l-1-21h-12v-11h12v-20h-11v-10h11v-21h-12l1-3q2-2 2-5m16 13q-2 9-1 18v214h211q5 0 6-4V343q-1-6-4-10-5-3-12-3H931q-8 0-11 7m-18 171v5q3-3 0-5M728 399zh12v29h-13v-1h12v-13h-12zm-555 80v-14 5h7v8zm8 18v13h-7l-1-8h8zm1051 35h7v7h-7zm138 3 20 1v21l6-1v1h-26v-22m-204 64v-5l1 7v8h-5v-9z"/><path fill="#797977" d="M785 209q2 2 0 0m-401 25h7v9h-7zm1086 14q2 2 0 0M230 283h8l-1 14h-7zm1 0v5h6v-4zm79 0v16l-1-3-7 1 1-13v3h6zm-110 17v-17l1 5h7v8l-7 1zm1076-2 1-12v19l-1-4h-5v-3zm80 0v-12l1 19h11l1-7 5 1v2h-5v5h-13v-4l-5-1v-3zm-102 6v-17 11h5v3h-5zm-309-8h8l-1 9h-7zM93 366v-69l2 5 2 1v23q-4 4-3 9zm1109-61v-7h5v3h-4zm104-7h4v3h-4zm80 0h5l1 7h11l-12 1v-5h-4l-1 2zM230 326h8v15l-8-1zm0 10 1 4h6v-4zm-30-9h6v8h-6zm104 13 6-6 6 5-6 6zm494-4 4-1h42v14h3v22l-3 2v13h-46v-13l-3-1v-23l3-1zm-575 38q6 1 3 6c-1 3-6 1-6-2q1-3 3-4m352 0 3 2v14l-2 2-1 6zm-413 5h11l-1 7h-10zm30 1q3 2 2 6l-2 2zm574 18 12 1v14h-12zm-60 1h12l1 14h-12zm673 17v4h4l1 1h-5v5h-4v9h-1v-4l-4-1v14h5v14l-5-1h4v-13h-5l1-14h4v-4l1-1h4zm-824 7q3 1 0 2zm-138 6q6-2 8 5-1 6-7 5c-4-1-4-8-1-10m808 11q12-3 17 8c2 6-2 14-8 16q-10 1-15-8-4-10 6-16M94 482v-39h3l1 15v24zm693-19 1-18v5h7v9h-7zm-659-12 2 3v1l-2 1v3zm11 1h9v7h-9zm-6 15h15v12h-15v-12m219 5h7v8h-8zm941 11h12v4h34v-3h1l-1 5h-34l-1-5h-10v18h-1v-13h-5v13l-1-18 1 4h5zm-946 3h17l-5 1 1 7h-8v-7zm-89 2h8v14q-6 2-8-1l6 1 2-4-8-1zm644 20q3 2 0 5zm373 23h7v9h-7zm-543 29zv14q2 6 1 13-1 4-7 3l-3-4q-6 1-12-1c-2-4 0-8-2-12h-19l9-1q0-3 3-7c4-4 11-3 13 2q2 5 1 12l6-1h6l3 1zm30 0zv19h11l1-10c1-5 8-9 12-5q5 2 5 9h10-23v10l-2 3h-10q-4 5-10 3l-1-10 3-1h3zm232 23h8v5h-8zm-117 9c2-3 8-3 10 0l2 8 1 4h-5v-4h-9v9h-4v29h-10c-5-4-5-13 1-16q5-1 8 1v-23l4-1q0-3 2-7m53-1q5-3 9 2 2 3 1 7h-9l-1 4-4-1-1-3h2q0-5 3-9m93 1q4-4 9-1 2 4 3 9h41v4h-5v-4h-35v4q-4 1-6-4l-8 1v8h-5l1-9h3q-1-5 2-8m143 2 5-4h5q4 4 4 10h38q0-5 3-9 4-3 9 2 2 3 1 7h-9l-1 3h-5l1-3h-35l-1 3-4 1-1-4-9 1zm-187 5h8v6l-8-1zm-39 1h4v9h-4zm146 0h4v24q3-2 7-2c7 2 7 12 2 15q-5 3-11 1 3-5 2-10l-1-18-3-1zm145 0h4v9h-4zm-428 1q6 1 8 6 2 8 1 16t-9 9zm-123 12q0-8 7-11v30l-5-5q-3-6-2-14m23 0q4-2 9 0v10q1 4 3 7v5h-15q-1-3 1-7c3-5 0-10 2-15m75 0q5-2 9 0l1 13q3 4 2 9h-4l-2 3-4-1q-2-2-5-3v-5l3-7zm166 11q5-3 9-2 7 6 2 14-5 3-11 2zm65-2q5-1 8 2l1 14q-5 2-10-1c-5-3-5-13 1-15m145 16c-6-3-6-14 1-16q4-1 8 2v14zm81-13q3-4 8-3c6 2 7 11 2 15q-5 2-10 1zm-342 11h30v6l-1 11-4 1h-20l-5-1v-17m146 0h30v6l-1 11q-2 2-5 1l-24-1v-17m146 1 30-1v6l-1 10q-3 3-7 2h-22v-17"/><path fill="#c3c3c3" d="m707 215 1 13-13-1v-3h12zm9 1 1 9h11v4h-12zm21 15 1-13v9l11 1v3zm-62-7h12l-1 3h-11zm-291 6h7v4h-7zm375 6 12 1v3h-12zm-85 5h12v4l-12-1zm20 14 1-14h12v4h-12zm22-11q6-3 12-1v3h-12zm21 1h12v3h-12zm-179 5h20v5h-20zm201 4h12l1 14-1-10h-12zm-201 21h20v5h-21zm114 4 11 1v3h-11zM16 289v-10l1 10h81v8h-5v69h12l-12 2v25h12l-8 1 8 2-11-1v106h1l-1 3h-1l-78 1H9v-82h6v-11H9V289zm16 30q-3 8 5 11h18q5 1 6 6v70q0 6-5 6H18v11h49q5-1 6-6v-96q0-6-6-7H38q-4 0-6 5m686-36h4v6h-4zm-12 0h3v6h-3zm6 0h3v6h-3zm13 0h3v6h-3zm6 0h3v6h-3zm6 0h4v6h-4zm7 0h3v6h-4zm6 0h3v6h-3zm6 0h3v6h-3zm7 0h3v6h-3zm215 0c4 0 10 3 9 8-3 1-3-3-5-4q-3 0-4-4m-306 14h11v3h-11v-3m18 4q1-5 6-3v3h-6m86 0v-3h5v3zm-177 11 1-13v10l12 1v2zm92-1h5v3h-5zm129 4zh2v12h-3zm-265 1h11v3h-11zm21 0h13v3h-13zm228 0h2l1 11h-3zm-113 1h5v3h-5zm-91 8h12v3h-12zm91 4h5v3l-5 1zm-136 5h11v4h-11v-4m21 0 13-1v4h-13zm115 2h5v3h-5zm-289 3q6-2 6 3c1 4-5 5-7 2zm289 9h5v3h-5zm84 7h6v3h-5zm-534 5h3l1 5h-4zm13 0 3-1v7l-4-1zm12 0h3v5l-3 1zm7 0 2-1 1 7h-4zm-51 0h3l1 5-4 1zm25 0h4v5h-3zm-118 4zl4 6h-4zm589 2 4 1v6l-3-1zm32 0 3 1v6h-3zm13 0 3 1v6h-3zm90 19 1-12v9h13l-1 3zm-548-8h6v3h-5zm-123 3 9 1v4h-7zm24 3h6v4l-6-1zm100 0h5v4h-5zm0 7h5v3h-5zm358 3 12-1 1 3h-13zm21 0h12v3h-12zm93 1v5l-12-1 1-2h9zm50 0h4v12h-4zm-17 1h3v11h-3zm-605 1h6v3h-6zm99 3 1-3h5v3zm401-1c4-3 8-1 12-2v3h-12zm23-2h11v3h-11zm124 4h13v3h-13zm-548 2h6v4l-5-1zm-99 7h5v3h-5zm100 0 5-1v4h-5zm358 0h12v3h-11zm21 1h12v3h-12zm22 3h12v4h-12zm22 1h11v3h-11zm37-1h12v4l-12-1zm-460 2h5v3h-5zm0 6h5v3h-5zm0 6h5v4h-5zm-171 11h4v7h-4zm13 0h3v7h-3zm158 2h5v3h-5zm-100 7 5-1v4h-5zm100-1h5v4h-5zm-171 6h4v7h-3zm87 7h3v5h-1l-2 1zm7 0h3v6l-3-1zm19 0h3v5l-1 1h-2zm5 0h4v8h-2q1 3-3 5 4-3 3-7-2-2-2-6m26-1 3 1v5l-3 1zm12 1h4l-1 5-2 1zm-160 9h2v10h-2zm17-1 3 1-1 11h-2zm0 22h11-8v11h-3zm1160 34 9 1v17h-9zm82 12zl6 2-1 19-6 1zm-26 1h6v20h-6zm-664 37q6-1 10 1c2 3 0 7 2 11q6 2 12 1l3 4q6 1 7-3l1-8h21l1 10q6 2 10-3h10l2-3v-10h13l9 1q3 1 2 3v55l1 1-1 8v12l4 5h-3q-4-2-5-6l-5 1v6h-97v-6q-3-1-6 0-1 5-6 6-1-3 2-6v-51l1-1v-28zm3 40c-2 5 1 10-2 15q-2 4-1 7h3q1 2 4 3 4 0 6-3h2v-5q-2-3-3-7v-10q-5-2-9 0m75 0v9l-3 7v5q3 1 5 3l4 1 2-3h4q1-5-2-9l-1-13q-4-2-9 0m98-13h8l1 4h5l-1-4h36l1 3 4 1 1-4h9v9h4v29c-5-1-11 3-15-1l-6-1h-30l-6 1-2 2h-7q-3-2-6-1v-29h4zm160 0h35v4h5v-2l1-2h8v9h1l3 1 1 18q1 5-2 10l-7 1q-4 0-6-3h-43l-1 3h-9l-2-2-2 1-1-14v-15h5v-8l8-1q2 5 6 4zm131 1 9-1 1 4 4-1 1-3h35l-1 3h5l1-3h9v9h4v29l-14 1v-3l-36 1c-3 0-7-2-9 2q-6 0-11-2l-2 1v-14l-1-15h5z"/></svg>