<svg width="896" height="2112" viewBox="0 0 672 1584" xmlns="http://www.w3.org/2000/svg"><g fill="#fff"><path d="M460 754.99c2.8-2.25 6.53-2.49 9.98-2.37 52.64.03 105.29-.01 157.93.01 6.02-.17 13.69-.44 17.08 5.64 1.88 4.45.93 9.5 1.18 14.22-7.27-3.42-15.16-5.63-23.22-5.71-55.61-.1-111.23.11-166.84-.1-.7-4.17.14-9.17 3.89-11.69zM318.19 766.71c.14-2.18.73-5.32 3.64-4.94 18.76-.02 37.52.01 56.28-.02 2.84-.27 3.77 2.74 3.52 5.01-21.15.12-42.3.03-63.44-.05zM311.08 774.03c22.28-.59 44.59-.11 66.89-.23 81.67-.04 163.35 0 245.02-.03 12.27.09 24.39 5.48 32.59 14.63 7.91 8.45 11.37 20.25 11.02 31.67.02 234.87.07 469.73.01 704.6-.17 17.11-11.61 33.59-27.87 39.19-9.1 3.79-19.09 2.82-28.7 2.95-181.99-.05-363.98.01-545.97-.03-6.5.15-13.08-.45-19.2-2.77-12.36-4.5-21.62-15.62-25.35-28.05-2.54-7.73-1.7-15.93-1.83-23.91-.12-167.36-.06-334.72.01-502.08-.04-12.33 4.76-24.99 14.15-33.21 7.88-7.07 18.54-10.74 29.08-10.55 40.03-.01 80.06-.38 120.09-.72 11-.16 22.01-.21 33.01-.65 8.73-.36 17.79.55 26.15-2.57 9.08-3.37 17.24-10.2 20.82-19.36 2.16-4.98 3.22-10.37 3.53-15.78 2.39-37.03 4.5-74.08 6.62-111.12.41-12.54 6.29-24.98 16.23-32.76 6.7-5.47 15.15-8.41 23.7-9.22m19.27 37.37c-3.99.7-6.94 4.58-6.83 8.59.08 44.33.01 88.65.05 132.98-.48 4.83 3.36 9.73 8.36 9.69 89.02-.02 178.04.27 267.06.21 2.88-.08 6.06.42 8.63-1.24 2.67-1.46 3.94-4.62 3.76-7.56-.06-44.71.01-89.43-.05-134.14-.13-4.78-4.59-8.65-9.32-8.35-49.02-.05-98.03-.12-147.05-.19-41.53.03-83.1-.34-124.61.01m-229.92 193.19c-19.3 1.18-38.2 10.38-50.51 25.39-9.5 10.84-15.11 24.8-16.64 39.08-.72 6.94-.39 13.94-.46 20.91.01 127.35-.01 254.7.01 382.05-.04 8.11.82 16.31 3.27 24.08 8.09 26.59 33.05 47.38 60.87 49.71 9.3.7 18.63.22 27.95.39 150.69-.02 301.38 0 452.07-.01 9.47.11 18.96-1.67 27.68-5.38 25.97-10.61 44.4-37.62 44.1-65.79.03-132.34.1-264.68-.02-397.02.36-14.64-4.03-29.35-12.22-41.48-12.81-19.72-36.02-32.19-59.51-32.07-78.67-.01-157.34-.02-236.01-.01-80.2.07-160.39-.17-240.58.15z"/><path d="M109.29 954.47c.99-3.23 4.65-4.3 7.68-4.09 32-.03 64.01.05 96.01-.02 2.44.02 5.23-.11 7.14 1.72 1.6 1.34 1.64 3.58 2.1 5.48-21.39 1.13-42.83.73-64.25 1.09-15.75.18-31.5.2-47.25.45-2.94.43-1.92-2.98-1.43-4.63zM91.54 1012.87c7.71-1.69 15.64-1.2 23.48-1.28 154-.01 308 .01 462-.01 11.88.02 23.8 3.23 33.82 9.67 19.55 11.97 31.72 34.88 30.96 57.76.04 131.68.03 263.36.01 395.03.09 24.74-15.07 49.01-37.75 59.15-9 4.41-19.1 6.16-29.07 5.98-154.67-.05-309.35 0-464.03-.04-10.1.21-20.47-.33-29.87-4.36-24.12-9.18-41.2-33.9-41.26-59.71-.06-127.69-.01-255.38-.01-383.07.12-10.39-.58-20.96 2.12-31.1 5.48-23.75 25.67-43.32 49.6-48.02m51.88 17.76c-10.86 1.65-20.21 10.54-22.17 21.39-2.53 12.3 4.95 25.71 16.75 30 9.01 3.51 19.78 1.25 27.08-4.95 7.53-6.59 10.21-17.57 7.68-27.11-3.13-12.56-16.5-21.58-29.34-19.33m433.85.68c-11.54 3.06-20.24 14.65-19.71 26.63.38 6.6 3.08 13.1 7.6 17.94 5.62 5.73 13.98 8.81 21.98 7.68 9.3-1.03 17.6-7.56 21.15-16.15 2.76-7 2.94-15.24-.55-22.02-5.39-10.87-18.6-17.47-30.47-14.08m-380.82 49.37c-10.12 1.3-18.85 8.65-22.78 17.93-2.65 6.1-2.31 12.87-2.28 19.37-.06 107.02.02 214.04-.02 321.06-.17 7.36 2.53 14.66 7.34 20.22 5.66 6.8 14.49 10.5 23.29 10.25 108.34.06 216.67.02 325.01.03 6.16.21 12.51-.49 18.04-3.43 10.05-4.86 16.15-16.04 15.74-27.07.1-108.69-.01-217.38.07-326.07.05-4.68-.27-9.45-2.03-13.83-4.17-10.79-15.05-18.98-26.8-18.77-100.02 0-200.05.06-300.08 0-11.83.23-23.69-.43-35.5.31m-119.76 44.01c-.01 15-.03 29.99.03 44.99 3.6-.06 7.2-.08 10.81-.07.01-10.62.04-21.23-.01-31.85 17.57-.27 35.14.09 52.71-.2-.06-4.29-.07-8.58-.08-12.87-21.15-.07-42.31.02-63.46 0m-.03 54.47c-.03 4.36-.02 8.74 0 13.12 21.2.02 42.4-.03 63.6-.02-.01-4.37-.05-8.73-.08-13.09-21.17.02-42.35.07-63.52-.01m.02 25.66c-.08 14.93.07 29.86-.05 44.8 3.63 0 7.27 0 10.9.03-.02-10.59.03-21.19.02-31.77 17.55-.16 35.11-.03 52.67-.11-.04-4.33-.04-8.65-.05-12.97-21.16-.05-42.33-.05-63.49.02m27.85 70.82c-1.95 1.22-4.34.94-6.53 1.05-7.13.01-14.25 0-21.37-.05-.02 4.35-.03 8.71 0 13.07 8.13 0 16.26-.23 24.39-.07 3.52-.02 6.36 2.34 9.23 4.05 9.84 6.53 20.17 12.26 30.01 18.77-.01-4.86-.01-9.71-.05-14.55-6.67-4.04-13.21-8.3-20.06-12.04-1.44-.93-3.2-1.6-4.14-3.09 7.9-5.24 16.22-9.81 24.3-14.77.02-5 .03-10-.03-15-11.93 7.53-23.72 15.27-35.75 22.63m-22.5 52.37c-6.54 7.25-7.84 17.73-6.22 27.05 1.19 7.32 5.12 13.8 9.36 19.75 8.68-.16 17.36-.11 26.05-.09-.06-8.98-.05-17.96-.06-26.94-3.77-.04-7.55-.03-11.32.01.01 4.8.11 9.59.31 14.39-2.73 0-5.47 0-8.2.02-5.06-5.98-7.25-14.74-3.85-22.05 2.74-5.85 9.24-8.67 15.29-9.63 7.15-.94 15.04-.28 21.02 4.12 6.29 4.73 7.51 14.15 4.19 20.98-1.58 3.27-5.06 4.82-8.09 6.45 1.07 4.2 2.08 8.43 3.07 12.66 4.78-1.84 9.72-4.09 12.81-8.36 4.68-6.35 5.63-14.67 5.01-22.32-.49-7.49-4.27-14.62-10.07-19.33-6.27-4.98-14.27-7.73-22.28-7.55-9.9-.13-20.54 2.92-27.02 10.84m22.19 56.25c-8.4.67-16.84 4.14-22.34 10.7-6.06 6.77-7.43 16.5-6.2 25.23 1.23 8.42 6.46 16.2 13.98 20.25 7.43 4.29 16.35 5.04 24.73 4.13 6.38-.93 12.88-3.06 17.76-7.43 13.37-11.76 12.49-35.79-1.75-46.49-7.41-5.61-17.1-7.13-26.18-6.39m36.09 84.29c-10.58 2.81-18.81 12.53-19.66 23.48-1.73 15.43 12.86 30.48 28.42 28.63 14.63-.43 26.41-15.28 24.26-29.61-1.24-15.44-18.2-26.97-33.02-22.5m437.98-.19c-12.42 2.6-21.76 14.91-20.74 27.59.56 13.48 12.95 25.25 26.47 24.84 8.99.15 17.57-5 22.22-12.59 3.98-5.99 4.27-13.6 3.06-20.47-2.63-13.49-17.71-22.91-31.01-19.37z"/><path d="M128.15 1055.96c.19-9.42 8.43-17.87 17.86-18.28 4.11-.44 8.08 1 11.75 2.68-8.78 9.2-17.95 18.01-26.97 26.97-1.62-3.57-2.99-7.39-2.64-11.37zM564.81 1055.04c.63-8.22 7.41-15.03 15.18-17.02 4.92-1.29 10.08.07 14.37 2.62-8.96 8.85-18.12 17.51-26.78 26.65-1.91-3.78-3.33-7.97-2.77-12.25zM136.74 1073.27c8.99-9.03 17.89-18.16 27.18-26.89 2.04 4.4 3.7 9.31 2.46 14.2-1.63 8.25-8.93 15.13-17.41 15.69-4.3.43-8.52-.91-12.23-3zM599.75 1046.95c1.88 1.33 2.45 3.8 2.99 5.93 2.12 8.99-3.21 19.03-11.89 22.24-5.78 2.55-12.51 1.56-17.8-1.68 8.74-8.98 17.54-17.93 26.7-26.49zM5.82 1110.95c-.12-2.63 2.8-3.24 4.65-4.14.1 15.31.24 30.64-.14 45.95-2-.9-4.74-1.99-4.59-4.65-.18-12.39-.01-24.78.08-37.16zM101.49 1397.82c7.68-1.34 16.34-.93 22.83 3.83 8.57 6.16 7.97 21.18-1.13 26.57-5.4 3.37-12.03 3.9-18.23 3.37-5.03-.53-10.26-2.09-13.91-5.75-4.94-4.98-5.68-13.23-2.46-19.32 2.59-4.77 7.75-7.56 12.9-8.7zM5.85 1476.93c-.11-2.6 2.77-3.25 4.61-4.11.13 15.48.22 30.99-.19 46.46-2.04-1.11-5.03-2.31-4.52-5.19.01-12.39-.07-24.78.1-37.16zM141.1 1475.97c5.4-1.76 11.28-.8 16.22 1.84-8.96 8.92-17.75 18.01-26.7 26.94-1.76-4.01-3.41-8.38-2.51-12.83 1.05-7.11 5.86-13.95 12.99-15.95zM565.39 1490.03c1.7-8.52 9.93-15.12 18.62-14.9 3.58-.15 6.91 1.34 10.09 2.82-8.9 8.83-17.41 18.06-26.72 26.48-2.11-4.46-3.34-9.52-1.99-14.4zM136.63 1510.63c8.46-9.42 17.83-17.97 26.63-27.06 2.89 5.04 4.08 11.16 2.1 16.76-2.07 7.61-9.74 12.7-17.41 13.01-3.95.17-7.73-1.24-11.32-2.71zM595.85 1487.88c1.43-1.38 2.72-3.06 4.65-3.75 3 5.46 3.15 12.32.67 18.01-2.86 6.66-9.87 11.31-17.13 11.26-3.67.18-7.12-1.29-10.36-2.81 7.1-7.85 14.86-15.07 22.17-22.71zM111.02 1573.84c22.03-.09 44.08-.12 66.11.01-2.52 1.38-5.13 2.99-8.12 2.93-13.99.01-27.97-.04-41.96.01-5.44-.15-11.55.96-16.03-2.95zM555.11 1573.86c22.34-.08 44.7-.21 67.04.05-2.4 1.59-5.12 2.88-8.08 2.66-16.06-.13-32.11-.03-48.17-.1-3.78.18-7.63-.39-10.79-2.61z"/></g><g fill="#000101"><path d="M545.3 0h12.94c14.74.56 29.39 2.44 43.91 4.96 5.87.9 11.73 2.71 16.52 6.34 8.42 6 13.27 16.4 13.04 26.68-.12 14.71.01 29.43.08 44.15.35 3.59-3.07 6.22-2.62 9.83-.48 4.08 3.37 7.02 3.14 11.03.06 5.36.09 10.72-.06 16.08.17 3.66-3.23 6.26-3.13 9.9-.74 4.47 4.18 7.42 3.34 11.97.04 53.02.9 106.03 1.15 159.04.06 29.02.7 58.02.76 87.03.22 50.32 1.08 100.63 1.26 150.95-.01 23.03.71 46.04.87 69.06-.22 4.49 2.39 8.35 3.84 12.44 5.91 16.01 12.8 31.64 18.85 47.59 1.73 4.44 2.71 9.18 2.32 13.97-.19 18.65.04 37.31-.14 55.97.14 3.87-1.53 8.25-5.42 9.67-4.12 1.24-8.51.7-12.73.47 4.34 2.78 8.48 6.64 9.62 11.88 1.04 5.77-.17 11.71.74 17.5 8.67 7.07 15.37 16.56 18.42 27.39v732.94c-3.54 13.48-12.92 25.43-25.43 31.7-5.14 2.66-10.73 4.31-16.4 5.39-2.58 5.94-8.81 9.77-15.23 9.77-14.33.19-28.66-.04-42.99.07-4.91-.15-9.98.46-14.75-.93-4.61-1.35-7.98-4.98-10.26-9.05-120.65.08-241.3-.1-361.95.09-3.01 5.63-8.7 9.85-15.21 10.12h-52.15c-6.36-.31-11.79-4.53-14.43-10.18-15.06-.07-30.12.02-45.18-.05-16.33-.18-31.88-9.83-40.01-23.88-4.41-7.06-6.92-15.18-7.56-23.45-4.05-.72-7.91-2.6-10.45-5.91v-48.77c2.27-3.79 6.36-5.69 10.55-6.48-.24-101.74-.02-203.48-.05-305.23-4-.81-7.95-2.49-10.5-5.81v-48.31c2.19-3.86 6.31-5.84 10.53-6.58-.09-29.8-.05-59.61.02-89.41-.26-15 6.37-29.95 17.79-39.69 9.96-8.05 22.99-11.64 35.69-11.06 12.5-.03 25 .01 37.49.03.3-3.28.26-6.83 2.14-9.68 2.55-4.11 7.52-6.28 12.26-6.15 33.05-.02 66.1.01 99.15-.03 4.11-.12 8.44 1.21 11.07 4.54 2.45 2.52 2.83 6.13 3.27 9.45 6.18-.7 12.33-2.73 17.14-6.78 6.73-5.74 10.5-14.48 10.91-23.24 2.17-37.18 4.62-74.34 6.48-111.53.39-10.55 3.88-21.04 10.48-29.33 8.36-11.68 22.44-18.46 36.6-19.4.31-3.17.4-6.76 2.88-9.1 2.26-2.57 5.78-3.35 9.07-3.22 18.72.08 37.45-.01 56.18.03 6.17.12 10.21 6.25 9.72 12.05 19.94-.11 39.89 0 59.83-.04.11-3.36-.1-6.85 1.17-10.03 1.22-2.94 3.51-5.21 5.62-7.52-3.54-.34-7.71.46-10.61-2.09-2.72-2.25-3.3-5.97-3.43-9.29-.55-20.31-1.58-40.62-.92-60.93.15-3.46 1.74-6.61 2.89-9.8 5.83-13.87 10.9-28.04 16.47-42.01 2.29-6.2 5.77-12.29 5.27-19.13-.58-46.66-.53-93.32-.89-139.98-.61-107.7-1.44-215.4-1.96-323.1-.16-4.46 3.34-8.16 2.84-12.66-.05-3.35-3.02-5.82-2.95-9.18-.12-5.73-.05-11.46-.03-17.19-.26-3.22 2.58-5.61 2.69-8.76.7-4.29-3.37-7.34-3.29-11.54-.21-14.85-.22-29.7-.42-44.55-1.18-14.11 9-28.76 23.08-31.58C504.27 2.87 524.8.97 545.3 0M460 754.99c-3.75 2.52-4.59 7.52-3.89 11.69 55.61.21 111.23 0 166.84.1 8.06.08 15.95 2.29 23.22 5.71-.25-4.72.7-9.77-1.18-14.22-3.39-6.08-11.06-5.81-17.08-5.64-52.64-.02-105.29.02-157.93-.01-3.45-.12-7.18.12-9.98 2.37m-141.81 11.72c21.14.08 42.29.17 63.44.05.25-2.27-.68-5.28-3.52-5.01-18.76.03-37.52 0-56.28.02-2.91-.38-3.5 2.76-3.64 4.94m-7.11 7.32c-8.55.81-17 3.75-23.7 9.22-9.94 7.78-15.82 20.22-16.23 32.76-2.12 37.04-4.23 74.09-6.62 111.12-.31 5.41-1.37 10.8-3.53 15.78-3.58 9.16-11.74 15.99-20.82 19.36-8.36 3.12-17.42 2.21-26.15 2.57-11 .44-22.01.49-33.01.65-40.03.34-80.06.71-120.09.72-10.54-.19-21.2 3.48-29.08 10.55-9.39 8.22-14.19 20.88-14.15 33.21-.07 167.36-.13 334.72-.01 502.08.13 7.98-.71 16.18 1.83 23.91 3.73 12.43 12.99 23.55 25.35 28.05 6.12 2.32 12.7 2.92 19.2 2.77 181.99.04 363.98-.02 545.97.03 9.61-.13 19.6.84 28.7-2.95 16.26-5.6 27.7-22.08 27.87-39.19.06-234.87.01-469.73-.01-704.6.35-11.42-3.11-23.22-11.02-31.67-8.2-9.15-20.32-14.54-32.59-14.63-81.67.03-163.35-.01-245.02.03-22.3.12-44.61-.36-66.89.23M109.29 954.47c-.49 1.65-1.51 5.06 1.43 4.63 15.75-.25 31.5-.27 47.25-.45 21.42-.36 42.86.04 64.25-1.09-.46-1.9-.5-4.14-2.1-5.48-1.91-1.83-4.7-1.7-7.14-1.72-32 .07-64.01-.01-96.01.02-3.03-.21-6.69.86-7.68 4.09M5.82 1110.95c-.09 12.38-.26 24.77-.08 37.16-.15 2.66 2.59 3.75 4.59 4.65.38-15.31.24-30.64.14-45.95-1.85.9-4.77 1.51-4.65 4.14m.03 365.98c-.17 12.38-.09 24.77-.1 37.16-.51 2.88 2.48 4.08 4.52 5.19.41-15.47.32-30.98.19-46.46-1.84.86-4.72 1.51-4.61 4.11m105.17 96.91c4.48 3.91 10.59 2.8 16.03 2.95 13.99-.05 27.97 0 41.96-.01 2.99.06 5.6-1.55 8.12-2.93-22.03-.13-44.08-.1-66.11-.01m444.09.02c3.16 2.22 7.01 2.79 10.79 2.61 16.06.07 32.11-.03 48.17.1 2.96.22 5.68-1.07 8.08-2.66-22.34-.26-44.7-.13-67.04-.05z"/><path d="M330.35 811.4c41.51-.35 83.08.02 124.61-.01 49.02.07 98.03.14 147.05.19 4.73-.3 9.19 3.57 9.32 8.35.06 44.71-.01 89.43.05 134.14.18 2.94-1.09 6.1-3.76 7.56-2.57 1.66-5.75 1.16-8.63 1.24-89.02.06-178.04-.23-267.06-.21-5 .04-8.84-4.86-8.36-9.69-.04-44.33.03-88.65-.05-132.98-.11-4.01 2.84-7.89 6.83-8.59m21.32 50.49c-.3 15.2.01 30.41-.19 45.62 10.01.02 20.01.06 30.02.11.01-3.8.02-7.58.01-11.37-5.66 0-11.32 0-16.98-.03-.08-11.45.12-22.89-.14-34.33-4.24-.03-8.48-.04-12.72 0m35.65 45.81c4.37.03 8.73.05 13.1.05-.12-15.08.07-30.15-.06-45.23-4.3-.06-8.59-.06-12.89-.03-.11 15.07-.16 30.14-.15 45.21m21.33.12c9.87.6 19.79.48 29.67.26 2.1-3.24.56-7.75.46-11.45-5.68.14-11.35.13-17.02-.11.06-11.28.16-22.57.03-33.85-4.21-.02-8.43-.03-12.64-.06-.85 15.05-.14 30.14-.5 45.21m84.49-42.71c-6.96 2.55-11.44 9.68-11.74 16.95-.32 6.79-.82 14.35 3.27 20.21 3.11 4.76 8.79 7.19 14.33 7.43 7.15.37 14.56.58 21.34-2.08-.05-8.49-.1-16.98-.02-25.47-5.85.01-11.69-.36-17.53-.3-2.29 2.73-.55 7.09-.57 10.44 2.06-.02 4.13-.02 6.2 0-.45 2.25.83 5.35-1.19 7.02-3.37.3-7.66.22-9.76-2.9-2.53-3.97-2.26-8.96-2.02-13.45.17-3.61 2.38-7.26 5.95-8.33 5.35-1.09 10.87-.13 16.05 1.4.09-3.77.17-7.54.16-11.29-7.99-1.75-16.65-2.47-24.47.37m91.32-1.4c-6.86 1.18-11.68 9.11-8.86 15.66 2.17 7.52 12.15 9.13 18.2 5.44 6.07-4.21 6.13-14.45.31-18.91-2.64-2.27-6.32-2.8-9.65-2.19m-150.44-.38c4.9 8.31 9.44 16.84 14.71 24.94.91 1.4 1.71 2.96 1.59 4.71.08 5.17-.1 10.35.05 15.53 4.38.01 8.75-.02 13.13-.08.1-5.17-.11-10.34.13-15.51.02-1.69.87-3.19 1.66-4.62 4.94-8.31 9.88-16.63 14.94-24.88-4.87-.08-9.73-.05-14.59-.06-3.06 5.3-5.38 11.02-8.87 16.07-2.63-5.33-5.23-10.67-7.84-16-4.97-.13-9.94-.15-14.91-.1m105.32 1.2c-6.91 2.06-11.33 8.89-11.86 15.88-.61 7.8-.94 16.57 3.9 23.23 4.03 5.4 11.3 6.59 17.63 6.63 6.3.04 13.44-1.61 17.27-7.06 4.32-6.4 4.67-14.54 3.92-21.98-.79-6.81-4.51-13.88-11.3-16.28-6.25-2.13-13.22-2.09-19.56-.42z"/><path d="M582.26 867.28c3.65-1.58 8.74-1.25 11.2 2.24 2.01 3.03 2.49 7.25.65 10.48-3.06 5.66-12.92 5.21-15.4-.72-1.1-4.15-.88-9.89 3.55-12m.3 2.28c-1.6 3.73-.45 8.04-.78 12l3.42-.36c.17-1.67.37-3.31.59-4.94.76 1.32 1.54 2.65 2.32 3.98 1.23.44 2.47.89 3.72 1.35-.51-1.52-1.02-3.05-1.51-4.55 1.68-2.83 2.02-6.38-.81-8.58-2.28.37-4.94-.25-6.95 1.1z"/><path d="M585.33 871.35c1.04.14 2.1.3 3.16.46-.04.82-.07 1.65-.08 2.49-.79.01-2.38.04-3.17.05.02-.75.06-2.25.09-3zM547.09 873.71c3.64-.64 8.06 1.27 8.81 5.19 1.04 5.23 1.21 10.79-.11 15.99-1.14 5.22-8.32 5.84-12.18 3.47-3.7-3.72-2.98-9.59-3.04-14.41-.05-4.24 1.49-9.81 6.52-10.24zM100.43 1004.59c80.19-.32 160.38-.08 240.58-.15 78.67-.01 157.34 0 236.01.01 23.49-.12 46.7 12.35 59.51 32.07 8.19 12.13 12.58 26.84 12.22 41.48.12 132.34.05 264.68.02 397.02.3 28.17-18.13 55.18-44.1 65.79-8.72 3.71-18.21 5.49-27.68 5.38-150.69.01-301.38-.01-452.07.01-9.32-.17-18.65.31-27.95-.39-27.82-2.33-52.78-23.12-60.87-49.71-2.45-7.77-3.31-15.97-3.27-24.08-.02-127.35 0-254.7-.01-382.05.07-6.97-.26-13.97.46-20.91 1.53-14.28 7.14-28.24 16.64-39.08 12.31-15.01 31.21-24.21 50.51-25.39m-8.89 8.28c-23.93 4.7-44.12 24.27-49.6 48.02-2.7 10.14-2 20.71-2.12 31.1 0 127.69-.05 255.38.01 383.07.06 25.81 17.14 50.53 41.26 59.71 9.4 4.03 19.77 4.57 29.87 4.36 154.68.04 309.36-.01 464.03.04 9.97.18 20.07-1.57 29.07-5.98 22.68-10.14 37.84-34.41 37.75-59.15.02-131.67.03-263.35-.01-395.03.76-22.88-11.41-45.79-30.96-57.76-10.02-6.44-21.94-9.65-33.82-9.67-154 .02-308 0-462 .01-7.84.08-15.77-.41-23.48 1.28z"/><path d="M212.25 1098.3c25.89-.83 51.82-.19 77.72-.39 72.7.01 145.4-.01 218.09-.01 5.87-.02 11.95-.41 17.55 1.71 10.37 3.78 17.69 14.41 17.61 25.46.04 99.64-.02 199.28.02 298.91.25 8.19-3.32 16.35-9.58 21.65-5.06 4.5-11.97 6.45-18.65 6.28-99.34-.03-198.67.07-298-.05-6.9.19-13.87-2.24-18.99-6.89-3.56-3.44-6.11-7.85-7.71-12.51-1.71-4.96-1.16-10.29-1.24-15.43.04-54.34 0-108.68.02-163.02-.07-42.34.16-84.67-.16-127-.57-13.48 9.5-27.25 23.32-28.71m1.9 6.9c-10.01.54-17.96 9.93-17.95 19.76-.13 96.67-.01 193.35-.06 290.02.05 6.48-.86 13.47 2.56 19.34 3.41 6.67 10.76 10.89 18.23 10.56 99.01.09 198.02-.02 297.03.04 3.75.06 7.57-.44 10.98-2.1 7.1-3.26 11.32-11.17 11.22-18.84.13-99.01 0-198.02.05-297.03.17-7.73-3.36-16.02-10.55-19.56-5.39-2.99-11.73-2.15-17.64-2.43-40 .3-80-.41-120 .13-43.67-.39-87.35-.05-131.02-.17-14.28.59-28.58-.52-42.85.28z"/></g><g fill="#265fa2"><path d="M351.67 861.89c4.24-.04 8.48-.03 12.72 0 .26 11.44.06 22.88.14 34.33 5.66.03 11.32.03 16.98.03.01 3.79 0 7.57-.01 11.37-10.01-.05-20.01-.09-30.02-.11.2-15.21-.11-30.42.19-45.62zM387.32 907.7c-.01-15.07.04-30.14.15-45.21 4.3-.03 8.59-.03 12.89.03.13 15.08-.06 30.15.06 45.23-4.37 0-8.73-.02-13.1-.05zM408.65 907.82c.36-15.07-.35-30.16.5-45.21 4.21.03 8.43.04 12.64.06.13 11.28.03 22.57-.03 33.85 5.67.24 11.34.25 17.02.11.1 3.7 1.64 8.21-.46 11.45-9.88.22-19.8.34-29.67-.26zM493.14 865.11c7.82-2.84 16.48-2.12 24.47-.37.01 3.75-.07 7.52-.16 11.29-5.18-1.53-10.7-2.49-16.05-1.4-3.57 1.07-5.78 4.72-5.95 8.33-.24 4.49-.51 9.48 2.02 13.45 2.1 3.12 6.39 3.2 9.76 2.9 2.02-1.67.74-4.77 1.19-7.02-2.07-.02-4.14-.02-6.2 0 .02-3.35-1.72-7.71.57-10.44 5.84-.06 11.68.31 17.53.3-.08 8.49-.03 16.98.02 25.47-6.78 2.66-14.19 2.45-21.34 2.08-5.54-.24-11.22-2.67-14.33-7.43-4.09-5.86-3.59-13.42-3.27-20.21.3-7.27 4.78-14.4 11.74-16.95zM584.46 863.71c3.33-.61 7.01-.08 9.65 2.19 5.82 4.46 5.76 14.7-.31 18.91-6.05 3.69-16.03 2.08-18.2-5.44-2.82-6.55 2-14.48 8.86-15.66m-2.2 3.57c-4.43 2.11-4.65 7.85-3.55 12 2.48 5.93 12.34 6.38 15.4.72 1.84-3.23 1.36-7.45-.65-10.48-2.46-3.49-7.55-3.82-11.2-2.24zM434.02 863.33c4.97-.05 9.94-.03 14.91.1 2.61 5.33 5.21 10.67 7.84 16 3.49-5.05 5.81-10.77 8.87-16.07 4.86.01 9.72-.02 14.59.06-5.06 8.25-10 16.57-14.94 24.88-.79 1.43-1.64 2.93-1.66 4.62-.24 5.17-.03 10.34-.13 15.51-4.38.06-8.75.09-13.13.08-.15-5.18.03-10.36-.05-15.53.12-1.75-.68-3.31-1.59-4.71-5.27-8.1-9.81-16.63-14.71-24.94zM539.34 864.53c6.34-1.67 13.31-1.71 19.56.42 6.79 2.4 10.51 9.47 11.3 16.28.75 7.44.4 15.58-3.92 21.98-3.83 5.45-10.97 7.1-17.27 7.06-6.33-.04-13.6-1.23-17.63-6.63-4.84-6.66-4.51-15.43-3.9-23.23.53-6.99 4.95-13.82 11.86-15.88m7.75 9.18c-5.03.43-6.57 6-6.52 10.24.06 4.82-.66 10.69 3.04 14.41 3.86 2.37 11.04 1.75 12.18-3.47 1.32-5.2 1.15-10.76.11-15.99-.75-3.92-5.17-5.83-8.81-5.19z"/><path d="M582.56 869.56c2.01-1.35 4.67-.73 6.95-1.1 2.83 2.2 2.49 5.75.81 8.58.49 1.5 1 3.03 1.51 4.55-1.25-.46-2.49-.91-3.72-1.35-.78-1.33-1.56-2.66-2.32-3.98-.22 1.63-.42 3.27-.59 4.94l-3.42.36c.33-3.96-.82-8.27.78-12m2.77 1.79c-.03.75-.07 2.25-.09 3 .79-.01 2.38-.04 3.17-.05.01-.84.04-1.67.08-2.49-1.06-.16-2.12-.32-3.16-.46z"/></g><g fill="#a2a2a2"><path d="M143.42 1030.63c12.84-2.25 26.21 6.77 29.34 19.33 2.53 9.54-.15 20.52-7.68 27.11-7.3 6.2-18.07 8.46-27.08 4.95-11.8-4.29-19.28-17.7-16.75-30 1.96-10.85 11.31-19.74 22.17-21.39m-15.27 25.33c-.35 3.98 1.02 7.8 2.64 11.37 9.02-8.96 18.19-17.77 26.97-26.97-3.67-1.68-7.64-3.12-11.75-2.68-9.43.41-17.67 8.86-17.86 18.28m8.59 17.31c3.71 2.09 7.93 3.43 12.23 3 8.48-.56 15.78-7.44 17.41-15.69 1.24-4.89-.42-9.8-2.46-14.2-9.29 8.73-18.19 17.86-27.18 26.89zM577.27 1031.31c11.87-3.39 25.08 3.21 30.47 14.08 3.49 6.78 3.31 15.02.55 22.02-3.55 8.59-11.85 15.12-21.15 16.15-8 1.13-16.36-1.95-21.98-7.68-4.52-4.84-7.22-11.34-7.6-17.94-.53-11.98 8.17-23.57 19.71-26.63m-12.46 23.73c-.56 4.28.86 8.47 2.77 12.25 8.66-9.14 17.82-17.8 26.78-26.65-4.29-2.55-9.45-3.91-14.37-2.62-7.77 1.99-14.55 8.8-15.18 17.02m34.94-8.09c-9.16 8.56-17.96 17.51-26.7 26.49 5.29 3.24 12.02 4.23 17.8 1.68 8.68-3.21 14.01-13.25 11.89-22.24-.54-2.13-1.11-4.6-2.99-5.93zM196.45 1080.68c11.81-.74 23.67-.08 35.5-.31 100.03.06 200.06 0 300.08 0 11.75-.21 22.63 7.98 26.8 18.77 1.76 4.38 2.08 9.15 2.03 13.83-.08 108.69.03 217.38-.07 326.07.41 11.03-5.69 22.21-15.74 27.07-5.53 2.94-11.88 3.64-18.04 3.43-108.34-.01-216.67.03-325.01-.03-8.8.25-17.63-3.45-23.29-10.25-4.81-5.56-7.51-12.86-7.34-20.22.04-107.02-.04-214.04.02-321.06-.03-6.5-.37-13.27 2.28-19.37 3.93-9.28 12.66-16.63 22.78-17.93m15.8 17.62c-13.82 1.46-23.89 15.23-23.32 28.71.32 42.33.09 84.66.16 127-.02 54.34.02 108.68-.02 163.02.08 5.14-.47 10.47 1.24 15.43 1.6 4.66 4.15 9.07 7.71 12.51 5.12 4.65 12.09 7.08 18.99 6.89 99.33.12 198.66.02 298 .05 6.68.17 13.59-1.78 18.65-6.28 6.26-5.3 9.83-13.46 9.58-21.65-.04-99.63.02-199.27-.02-298.91.08-11.05-7.24-21.68-17.61-25.46-5.6-2.12-11.68-1.73-17.55-1.71-72.69 0-145.39.02-218.09.01-25.9.2-51.83-.44-77.72.39z"/><path d="M214.15 1105.2c14.27-.8 28.57.31 42.85-.28 43.67.12 87.35-.22 131.02.17 40-.54 80 .17 120-.13 5.91.28 12.25-.56 17.64 2.43 7.19 3.54 10.72 11.83 10.55 19.56-.05 99.01.08 198.02-.05 297.03.1 7.67-4.12 15.58-11.22 18.84-3.41 1.66-7.23 2.16-10.98 2.1-99.01-.06-198.02.05-297.03-.04-7.47.33-14.82-3.89-18.23-10.56-3.42-5.87-2.51-12.86-2.56-19.34.05-96.67-.07-193.35.06-290.02-.01-9.83 7.94-19.22 17.95-19.76zM76.69 1124.69c21.15.02 42.31-.07 63.46 0 .01 4.29.02 8.58.08 12.87-17.57.29-35.14-.07-52.71.2.05 10.62.02 21.23.01 31.85-3.61-.01-7.21.01-10.81.07-.06-15-.04-29.99-.03-44.99zM76.66 1179.16c21.17.08 42.35.03 63.52.01.03 4.36.07 8.72.08 13.09-21.2-.01-42.4.04-63.6.02-.02-4.38-.03-8.76 0-13.12zM76.68 1204.82c21.16-.07 42.33-.07 63.49-.02.01 4.32.01 8.64.05 12.97-17.56.08-35.12-.05-52.67.11.01 10.58-.04 21.18-.02 31.77-3.63-.03-7.27-.03-10.9-.03.12-14.94-.03-29.87.05-44.8zM104.53 1275.64c12.03-7.36 23.82-15.1 35.75-22.63.06 5 .05 10 .03 15-8.08 4.96-16.4 9.53-24.3 14.77.94 1.49 2.7 2.16 4.14 3.09 6.85 3.74 13.39 8 20.06 12.04.04 4.84.04 9.69.05 14.55-9.84-6.51-20.17-12.24-30.01-18.77-2.87-1.71-5.71-4.07-9.23-4.05-8.13-.16-16.26.07-24.39.07-.03-4.36-.02-8.72 0-13.07 7.12.05 14.24.06 21.37.05 2.19-.11 4.58.17 6.53-1.05zM82.03 1328.01c6.48-7.92 17.12-10.97 27.02-10.84 8.01-.18 16.01 2.57 22.28 7.55 5.8 4.71 9.58 11.84 10.07 19.33.62 7.65-.33 15.97-5.01 22.32-3.09 4.27-8.03 6.52-12.81 8.36-.99-4.23-2-8.46-3.07-12.66 3.03-1.63 6.51-3.18 8.09-6.45 3.32-6.83 2.1-16.25-4.19-20.98-5.98-4.4-13.87-5.06-21.02-4.12-6.05.96-12.55 3.78-15.29 9.63-3.4 7.31-1.21 16.07 3.85 22.05 2.73-.02 5.47-.02 8.2-.02-.2-4.8-.3-9.59-.31-14.39 3.77-.04 7.55-.05 11.32-.01.01 8.98 0 17.96.06 26.94-8.69-.02-17.37-.07-26.05.09-4.24-5.95-8.17-12.43-9.36-19.75-1.62-9.32-.32-19.8 6.22-27.05zM104.22 1384.26c9.08-.74 18.77.78 26.18 6.39 14.24 10.7 15.12 34.73 1.75 46.49-4.88 4.37-11.38 6.5-17.76 7.43-8.38.91-17.3.16-24.73-4.13-7.52-4.05-12.75-11.83-13.98-20.25-1.23-8.73.14-18.46 6.2-25.23 5.5-6.56 13.94-10.03 22.34-10.7m-2.73 13.56c-5.15 1.14-10.31 3.93-12.9 8.7-3.22 6.09-2.48 14.34 2.46 19.32 3.65 3.66 8.88 5.22 13.91 5.75 6.2.53 12.83 0 18.23-3.37 9.1-5.39 9.7-20.41 1.13-26.57-6.49-4.76-15.15-5.17-22.83-3.83zM140.31 1468.55c14.82-4.47 31.78 7.06 33.02 22.5 2.15 14.33-9.63 29.18-24.26 29.61-15.56 1.85-30.15-13.2-28.42-28.63.85-10.95 9.08-20.67 19.66-23.48m.79 7.42c-7.13 2-11.94 8.84-12.99 15.95-.9 4.45.75 8.82 2.51 12.83 8.95-8.93 17.74-18.02 26.7-26.94-4.94-2.64-10.82-3.6-16.22-1.84m-4.47 34.66c3.59 1.47 7.37 2.88 11.32 2.71 7.67-.31 15.34-5.4 17.41-13.01 1.98-5.6.79-11.72-2.1-16.76-8.8 9.09-18.17 17.64-26.63 27.06zM578.29 1468.36c13.3-3.54 28.38 5.88 31.01 19.37 1.21 6.87.92 14.48-3.06 20.47-4.65 7.59-13.23 12.74-22.22 12.59-13.52.41-25.91-11.36-26.47-24.84-1.02-12.68 8.32-24.99 20.74-27.59m-12.9 21.67c-1.35 4.88-.12 9.94 1.99 14.4 9.31-8.42 17.82-17.65 26.72-26.48-3.18-1.48-6.51-2.97-10.09-2.82-8.69-.22-16.92 6.38-18.62 14.9m30.46-2.15c-7.31 7.64-15.07 14.86-22.17 22.71 3.24 1.52 6.69 2.99 10.36 2.81 7.26.05 14.27-4.6 17.13-11.26 2.48-5.69 2.33-12.55-.67-18.01-1.93.69-3.22 2.37-4.65 3.75z"/></g></svg>